<svg xmlns="http://www.w3.org/2000/svg" viewBox="0 0 220 220" style="enable-background:new 0 0 220 220" xml:space="preserve"><style>.st0{fill:#3bbbff}.st1{fill:#f15f33}.st2{fill:#eed441}</style><path class="st0" d="M210 117.9H10c-.8 0-1.5-.7-1.5-1.5s.7-1.5 1.5-1.5h200c.8 0 1.5.7 1.5 1.5s-.7 1.5-1.5 1.5zm-66.8 5.5H25.5c-.8 0-1.5-.7-1.5-1.5s.7-1.5 1.5-1.5h117.7c.8 0 1.5.7 1.5 1.5s-.7 1.5-1.5 1.5z"/><path class="st1" d="m132.3 128.6-60.5.5c-.8 0-1.5-.7-1.5-1.5s.7-1.5 1.5-1.5l60.5-.5c.8 0 1.5.7 1.5 1.5s-.7 1.4-1.5 1.5z"/><path class="st0" d="M198.6 128.8h-60.5c-.8 0-1.5-.7-1.5-1.5s.7-1.5 1.5-1.5h60.5c.8 0 1.5.7 1.5 1.5s-.6 1.5-1.5 1.5zm-114.5 5.5h-35c-.8 0-1.5-.7-1.5-1.5s.7-1.5 1.5-1.5h35c.8 0 1.5.7 1.5 1.5s-.7 1.5-1.5 1.5z"/><path class="st2" d="M125 134.3H90c-.8 0-1.5-.7-1.5-1.5s.7-1.5 1.5-1.5h35c.8 0 1.5.7 1.5 1.5s-.7 1.5-1.5 1.5z"/><path class="st0" d="M165 134.3h-35c-.8 0-1.5-.7-1.5-1.5s.7-1.5 1.5-1.5h35c.8 0 1.5.7 1.5 1.5s-.7 1.5-1.5 1.5zm-6.4 11.8H84.1c-.8 0-1.5-.7-1.5-1.5s.7-1.5 1.5-1.5h74.5c.8 0 1.5.7 1.5 1.5s-.6 1.5-1.5 1.5z"/><path class="st2" d="M114.1 151.6H80c-.8 0-1.5-.7-1.5-1.5s.7-1.5 1.5-1.5h34.1c.8 0 1.5.7 1.5 1.5s-.7 1.5-1.5 1.5zm18.2 5.4H98.2c-.8 0-1.5-.7-1.5-1.5s.7-1.5 1.5-1.5h34.1c.8 0 1.5.7 1.5 1.5s-.7 1.5-1.5 1.5z"/><path class="st1" d="M137.7 139.7H76.4c-.8 0-1.5-.7-1.5-1.5s.7-1.5 1.5-1.5h61.4c.8 0 1.5.7 1.5 1.5s-.7 1.5-1.6 1.5zM109 63c-1 0-1.8.8-1.8 1.8v5.4c0 1 .8 1.8 1.8 1.8h1.8c1 0 1.8-.8 1.8-1.8v-5.4c0-1-.8-1.8-1.8-1.8H109zm-22.1 38.5c.1-12.7 10.4-23 23.2-23s23 10.4 23 23.2c0 3.3-.7 6.6-2.1 9.6-.3.6-.9 1-1.6 1H90.5c-.7 0-1.3-.4-1.6-1-1.3-3.1-2-6.4-2-9.8zm1.2-29.6c-.5-.9-.2-1.9.7-2.4l1.5-.9c.8-.5 1.9-.2 2.4.6l2.7 4.7c.5.9.2 1.9-.7 2.4l-1.5.9c-.8.5-1.9.2-2.4-.6l-2.7-4.7zm43.1-2.5c.9.5 1.1 1.6.7 2.4l-2.7 4.7c-.5.8-1.6 1.1-2.4.7l-1.5-.9c-.9-.5-1.1-1.6-.7-2.4l2.7-4.7c.5-.8 1.6-1.1 2.4-.7l1.5.9zm12.5 17c.8-.5 1.1-1.6.7-2.4l-.9-1.6c-.5-.8-1.6-1.1-2.4-.7l-4.6 2.7c-.9.5-1.1 1.6-.6 2.4l.9 1.6c.5.8 1.6 1.1 2.4.7l4.5-2.7zM75.4 84c-.5.9-.2 1.9.6 2.4l4.6 2.7c.8.5 1.9.2 2.4-.6l.9-1.6c.5-.9.2-1.9-.7-2.4l-4.6-2.7c-.8-.5-1.9-.2-2.4.6l-.8 1.6zm-2.7 21.1c-1 0-1.8-.8-1.8-1.8v-1.8c0-1 .8-1.8 1.8-1.8H78c1 0 1.8.8 1.8 1.8v1.8c0 1-.8 1.8-1.8 1.8h-5.3zm67.4-1.8c0 1 .8 1.8 1.8 1.8h5.3c1 0 1.8-.8 1.8-1.8v-1.8c0-1-.8-1.8-1.8-1.8h-5.3c-1 0-1.8.8-1.8 1.8v1.8z"/></svg>