<svg xmlns="http://www.w3.org/2000/svg" viewBox="0 0 220 220" style="enable-background:new 0 0 220 220" xml:space="preserve"><style>.st0{fill:#707070}</style><path class="st0" d="M156.2 199.8v-154H65v154H10v2h200v-2h-53.8zM67 47.8h87.2v151H67v-151z"/><path class="st0" d="M138.8 110.8c-3.5 0-6.2 2.8-6.2 6.2 0 3.4 2.8 6.2 6.2 6.2 3.4 0 6.2-2.7 6.2-6.2-.1-3.4-2.8-6.2-6.2-6.2zm0 10.5c-2.2 0-4.2-1.9-4.2-4.3s1.9-4.2 4.2-4.2c2.2 0 4.2 1.9 4.2 4.2 0 2.4-1.9 4.3-4.2 4.3z"/><path d="M139.2 18.3H80.8c-1.1 0-2 .9-2 2v21c0 1.1.9 2 2 2h58.5c1.1 0 2-.9 2-2v-21c-.1-1.2-.9-2-2.1-2zm-39.8 18c0 .5-.6.8-1.8.8h-6c-.9.1-1.6 0-2-.3v-1.1c0-1.8.1-2.8.2-3v-1c.1-3.8.2-6 .2-6.6v-1.2l.6-.2H97c.9 0 1.5.1 1.8.2l.2.7c0 .4-.2.6-.9.6l-6.6-.2c.2 0 .2.4.2 1.2 0 1.1 0 2-.1 2.6h4.9c.8-.1 1.2.1 1.8.5l-.1 1.5h-6.6v.4c0 .8-.1 2-.1 3.8l.1.1h6.8c.8.2 1.1.5 1.1.9l-.1.3zm12.5.5h-1.2l-4.1-5.9v.1c-2.3 3.6-3.9 5.6-4.8 6.1-.4-.8-.6-1.2-.6-1.8l4-5.6.1-.2L102 25v-.5l1.2-1c.2.7 1.2 2.4 3.1 4.8l.1.1c.1-.1.5-.9 1.5-2.4.2-.5.9-1.4 1.8-2.8l.5.5c.4.2.5.5.5.7v.3c-2.1 2.8-3.2 4.4-3.4 4.7v.1c3 3.6 4.5 5.5 4.4 5.7.2.4.2 1.6.2 1.6zm5.3 0h-3l-.2-.9-.2-.8 1.4-.2c.1-.8.2-1.2.2-1.6v-.5c.1-1.3.2-3.8.5-7.8-.2.1-.8.1-1.2.1-.1-1.4.4-2 1.4-1.9 1-.1 1.8 0 2.3.1l-.1 1.8-.7-.3v2c-.1 1.4-.2 4.1-.4 7.9.2 0 .8 0 1.4-.1l.1 1.8c-1.1.4-1.5.4-1.5.4zm13.6-11.9-1.1.1h-.8c-.6-.1-1.5-.1-2.9-.1v.7c-.1.9-.2 4.6-.2 11.1H124c0-4 0-6.9.1-8.5.1-1.4.1-2.4.1-2.9 0-.1 0-.2.1-.2H120c-.2-.2-.4-.7-.4-1.5l3.8-.1h6.2c.8.1 1.1.3 1.1.8l.1.6z" style="fill:#3fce71"/></svg>