<svg xmlns="http://www.w3.org/2000/svg" viewBox="0 0 220 220" style="enable-background:new 0 0 220 220" xml:space="preserve"><style>.st0{fill:#707070}.st1{fill:#1649b5}</style><path class="st0" d="M85.5 60.8h1v1h-1v-1zm0 2h1v1h-1v-1zm0 2.1h1v1h-1v-1zm0-6.2h1v1h-1v-1zm0 8.2h1v1h-1v-1zm0-10.2h1v1h-1v-1zm0 22.5h1v1h-1v-1zm0-2.1h1v1h-1v-1zm0-8.1h1v1h-1v-1zm0 12.2h1v1h-1v-1zm0-26.5h1v1h-1v-1zm0 16.3h1v1h-1v-1zm0 12.2h1v1h-1v-1zm0-10.2h1v1h-1v-1zm0 2.1h1v1h-1v-1zm0-42.9h1v1h-1v-1zm0 4.1h1v1h-1v-1zm0-6.1h1v1h-1v-1zm0 4.1h1v1h-1v-1zm0-10.2h1v1h-1v-1zm0 2h1v1h-1v-1zm0 2h1v1h-1v-1zm0 10.2h1v1h-1v-1zm0 8.2h1v1h-1v-1zm0 4.1h1v1h-1v-1zm0-6.1h1v1h-1v-1zm0-4.1h1v1h-1v-1zm0 2h1v1h-1v-1zm0 10.2h1v1h-1v-1zm0-4.1h1v1h-1v-1zm14.8 36.3h1v1h-1v-1zm26.5 0h1v1h-1v-1zm-2 0h1v1h-1v-1zm8.2 0h1v1h-1v-1zm-10.2 0h1v1h-1v-1zm8.1 0h1v1h-1v-1zm-12.2 0h1v1h-1v-1zm-6.1 0h1v1h-1v-1zm2 0h1v1h-1v-1zm-4.1 0h1v1h-1v-1zm24.5 0h1v1h-1v-1zm-14.3 0h1v1h-1v-1zm-4.1 0h1v1h-1v-1zm26.6 0h1v1h-1v-1zm12.2 0h1v1h-1v-1zm2 0h1v1h-1v-1zm-6.1 0h1v1h-1v-1zm2.1 0h1v1h-1v-1zm-16.4 0h1v1h-1v-1zm22.5 0h1v1h-1v-1zm2 0h1v1h-1v-1zm-20.4 0h1v1h-1v-1zm8.2 0h1v1h-1v-1zm-40.8 0h1v1h-1v-1zm30.6 0h1v1h-1v-1zm8.1 0h1v1h-1v-1zm-2 0h1v1h-1v-1zm-16.3 0h1v1h-1v-1zm-38.8 0h1v1h-1v-1zm2 0h1v1h-1v-1zm-4 0h1v1h-1v-1zm10.2 0h1v1h-1v-1zm-12.3.5-.3-.4-.9.5.5.9.8-.5h.9v-1h-1v.5zm20.4-.5h1v1h-1v-1zm-10.2 0h1v1h-1v-1zm-2 0h1v1h-1v-1zm8.1 0h1v1h-1v-1zm2.1 0h1v1h-1v-1zM62.4 99.6l.9-.6.6.9-.9.6-.6-.9zM81.4 87.6l.9-.6.6.9-.9.5-.6-.8zM83.2 86.5l.9-.6.6.9-.9.6-.6-.9zM64.2 98.5l.9-.6.6.9-.9.6-.6-.9zM60.7 100.6l.9-.6.6.9-.9.6-.6-.9zM57.2 102.8l.9-.6.6.9-.9.6-.6-.9zM59 101.8l.9-.6.6.9-.9.6-.6-.9zM78 89.8l.9-.6.6.9-.9.6-.6-.9zM72.8 93l.9-.6.6.9-.9.6-.6-.9zM69.3 95.2l.9-.6.6.9-.9.6-.6-.9zM71.1 94.1l.9-.6.6.9-1 .6-.5-.9zM67.6 96.3l.9-.6.6.9-.9.6-.6-.9zM74.5 92l.9-.6.6.9-.9.6-.6-.9zM79.7 88.6l.9-.6.6.9-.9.6-.6-.9zM65.9 97.4l.9-.6.6.9-.9.6-.6-.9zM76.2 90.8l.9-.6.6.9-.9.6-.6-.9z"/><path d="M86 24 56.9 42.4v61.2h76.5l29.1-18.4V24H86zm.2.6 74.6-.2-27.4 17.4-74.7.2 27.5-17.4zm46.8 78.5H57.4V42.9H133v60.2zM162 85l-28 17.7v-60L162 25v60z"/><circle class="st1" cx="105.9" cy="73" r="18.4"/><path d="M35.5 182.2v2h-2v-2h2m.5-.5h-3v3.1h3v-3.1zm-.5 4.6v2h-2v-2h2m.5-.5h-3v3.1h3v-3.1zm-.5 4.6v2h-2v-2h2m.5-.5h-3v3.1h3v-3.1zm4.1-7.7v2h-2v-2h2m.5-.5h-3.1v3.1h3.1v-3.1zm-.5 4.6v2h-2v-2h2m.5-.5h-3.1v3.1h3.1v-3.1zm-.5 4.6v2h-2v-2h2m.5-.5h-3.1v3.1h3.1v-3.1zm48.5-33.7v4.1H85v-4.1h4.1m.5-.5h-5.1v5.1h5.1v-5.1zm-.5 8.2v4.1H85v-4.1h4.1m.5-.6h-5.1v5.1h5.1v-5.1zm-.5 8.2v4.1H85v-4.1h4.1m.5-.5h-5.1v5.1h5.1V171zm-.5 8.2v4.1H85v-4.1h4.1m.5-.6h-5.1v5.1h5.1v-5.1zm-.5 8.2v4.1H85v-4.1h4.1m.5-.5h-5.1v5.1h5.1v-5.1zm7.1-30.1v4.1h-4.1v-4.1h4.1m.5-.5h-5.1v5.1h5.1v-5.1zm-.5 8.2v4.1h-4.1v-4.1h4.1m.5-.6h-5.1v5.1h5.1v-5.1zm-.5 8.2v4.1h-4.1v-4.1h4.1m.5-.5h-5.1v5.1h5.1V171zm-.5 8.2v4.1h-4.1v-4.1h4.1m.5-.6h-5.1v5.1h5.1v-5.1zm-.5 8.2v4.1h-4.1v-4.1h4.1m.5-.5h-5.1v5.1h5.1v-5.1zm7.2-30.1v4.1h-4.1v-4.1h4.1m.5-.5h-5.1v5.1h5.1v-5.1zm-.5 8.2v4.1h-4.1v-4.1h4.1m.5-.6h-5.1v5.1h5.1v-5.1zm-.5 8.2v4.1h-4.1v-4.1h4.1m.5-.5h-5.1v5.1h5.1V171zm-.5 8.2v4.1h-4.1v-4.1h4.1m.5-.6h-5.1v5.1h5.1v-5.1zm-.5 8.2v4.1h-4.1v-4.1h4.1m.5-.5h-5.1v5.1h5.1v-5.1z"/><path d="M209.5 195h-19.6v-60.3c0-.3-.2-.5-.5-.5h-10.2c-.3 0-.5.2-.5.5V156h-7.1c-.3 0-.5.2-.5.5v10.3H164c-.3 0-.5.2-.5.5V195h-17.1v-65.8c0-.3-.2-.5-.5-.5H129c-.3 0-.5.2-.5.5V195H108v-42.6c0-.3-.2-.5-.5-.5H81.9c-.3 0-.5.2-.5.5V195H66.1v-38.5c0-.2-.1-.4-.3-.5-.2-.1-.4-.1-.6.1L54 167c-.1.1-.2.2-.2.4V195H43.2v-15.2c0-.3-.2-.5-.5-.5H30.9c-.3 0-.5.2-.5.5V195H10.5c-.3 0-.5.2-.5.5s.2.5.5.5h20.4c.3 0 .5-.2.5-.5v-15.2h10.7v15.2c0 .3.2.5.5.5h11.7c.3 0 .5-.2.5-.5v-28l10.2-9.8v37.8c0 .3.2.5.5.5h16.3c.3 0 .5-.2.5-.5v-42.6h24.5v42.6c0 .3.2.5.5.5h21.4c.3 0 .5-.2.5-.5v-65.8h15.9v65.8c0 .3.2.5.5.5h18.1c.3 0 .5-.2.5-.5v-27.7h7.1c.3 0 .5-.2.5-.5V157h7.1c.3 0 .5-.2.5-.5v-21.3h9.2v60.3c0 .3.2.5.5.5h20.2c.3 0 .5-.2.5-.5s0-.5-.3-.5z"/><path d="M131.7 130.7c-.2 0-.3.1-.3.3v63.3c0 .2.1.3.3.3s.3-.1.3-.3V131c-.1-.2-.2-.3-.3-.3zm3 0c-.2 0-.3.1-.3.3v63.3c0 .2.1.3.3.3s.3-.1.3-.3V131c0-.2-.1-.3-.3-.3zm2.6 0c-.2 0-.3.1-.3.3v63.3c0 .2.1.3.3.3s.3-.1.3-.3V131c0-.2-.2-.3-.3-.3zm3.1 0c-.2 0-.3.1-.3.3v63.3c0 .2.1.3.3.3.2 0 .3-.1.3-.3V131c-.1-.2-.2-.3-.3-.3zm2.5 0c-.2 0-.3.1-.3.3v63.3c0 .2.1.3.3.3.2 0 .3-.1.3-.3V131c0-.2-.1-.3-.3-.3zm38.8 5.6c-.2 0-.3.1-.3.3v57.7c0 .2.1.3.3.3.2 0 .3-.1.3-.3v-57.7c-.1-.2-.2-.3-.3-.3zm2.5 0c-.2 0-.3.1-.3.3v57.7c0 .2.1.3.3.3s.3-.1.3-.3v-57.7c0-.2-.1-.3-.3-.3zm2.6 0c-.2 0-.3.1-.3.3v57.7c0 .2.1.3.3.3.2 0 .3-.1.3-.3v-57.7c-.1-.2-.2-.3-.3-.3zm-7.7 21.9c-.2 0-.3.1-.3.3v35.7c0 .2.1.3.3.3.2 0 .3-.1.3-.3v-35.7c0-.2-.1-.3-.3-.3zm-2.5 0c-.2 0-.3.1-.3.3v35.7c0 .2.1.3.3.3.2 0 .3-.1.3-.3v-35.7c-.1-.2-.2-.3-.3-.3zm-2.6 0c-.2 0-.3.1-.3.3v35.7c0 .2.1.3.3.3.2 0 .3-.1.3-.3v-35.7c0-.2-.1-.3-.3-.3zm-3.5 11.3h-4.6c-.2 0-.3.1-.3.3 0 .2.1.3.3.3h4.6c.2 0 .3-.1.3-.3-.1-.2-.2-.3-.3-.3zm0 2h-4.6c-.2 0-.3.1-.3.3 0 .2.1.3.3.3h4.6c.2 0 .3-.1.3-.3-.1-.2-.2-.3-.3-.3zm0 2h-4.6c-.2 0-.3.1-.3.3 0 .2.1.3.3.3h4.6c.2 0 .3-.1.3-.3-.1-.2-.2-.3-.3-.3zm0 2.1h-4.6c-.2 0-.3.1-.3.3 0 .2.1.3.3.3h4.6c.2 0 .3-.1.3-.3-.1-.2-.2-.3-.3-.3zm0 2h-4.6c-.2 0-.3.1-.3.3 0 .2.1.3.3.3h4.6c.2 0 .3-.1.3-.3-.1-.2-.2-.3-.3-.3zm0 2.1h-4.6c-.2 0-.3.1-.3.3 0 .2.1.3.3.3h4.6c.2 0 .3-.1.3-.3-.1-.2-.2-.3-.3-.3zm0 2h-4.6c-.2 0-.3.1-.3.3 0 .2.1.3.3.3h4.6c.2 0 .3-.1.3-.3-.1-.2-.2-.3-.3-.3zm0 2.1h-4.6c-.2 0-.3.1-.3.3 0 .2.1.3.3.3h4.6c.2 0 .3-.1.3-.3-.1-.2-.2-.3-.3-.3zm0 2h-4.6c-.2 0-.3.1-.3.3 0 .2.1.3.3.3h4.6c.2 0 .3-.1.3-.3-.1-.2-.2-.3-.3-.3zm0 2h-4.6c-.2 0-.3.1-.3.3 0 .2.1.3.3.3h4.6c.2 0 .3-.1.3-.3-.1-.2-.2-.3-.3-.3zm0 2.1h-4.6c-.2 0-.3.1-.3.3 0 .2.1.3.3.3h4.6c.2 0 .3-.1.3-.3-.1-.2-.2-.3-.3-.3zm0 2h-4.6c-.2 0-.3.1-.3.3 0 .2.1.3.3.3h4.6c.2 0 .3-.1.3-.3-.1-.2-.2-.3-.3-.3zm0 2.1h-4.6c-.2 0-.3.1-.3.3s.1.3.3.3h4.6c.2 0 .3-.1.3-.3s-.2-.3-.3-.3zM63.1 163.4l-6.6 6.6c-.1.1-.1.3 0 .4.1.1.1.1.2.1s.2 0 .2-.1l6.6-6.6c.1-.1.1-.3 0-.4-.1-.1-.3-.1-.4 0zm0 4.1-6.6 6.6c-.1.1-.1.3 0 .4.1.1.1.1.2.1s.2 0 .2-.1l6.6-6.6c.1-.1.1-.3 0-.4s-.3-.1-.4 0zm0 4.1-6.6 6.6c-.1.1-.1.3 0 .4.1.1.1.1.2.1s.2 0 .2-.1l6.6-6.6c.1-.1.1-.3 0-.4s-.3-.1-.4 0zm0 4.1-6.6 6.6c-.1.1-.1.3 0 .4.1.1.1.1.2.1s.2 0 .2-.1l6.6-6.6c.1-.1.1-.3 0-.4s-.3-.1-.4 0zm0 4.1-6.6 6.6c-.1.1-.1.3 0 .4.1.1.1.1.2.1s.2 0 .2-.1l6.6-6.6c.1-.1.1-.3 0-.4s-.3-.1-.4 0zm0 4.1-6.6 6.6c-.1.1-.1.3 0 .4.1.1.1.1.2.1s.2 0 .2-.1l6.6-6.6c.1-.1.1-.3 0-.4-.1-.2-.3-.1-.4 0zm0 4-6.6 6.6c-.1.1-.1.3 0 .4.1.1.1.1.2.1s.2 0 .2-.1l6.6-6.6c.1-.1.1-.3 0-.4-.1-.1-.3-.1-.4 0z"/><path class="st1" d="M116.4 183.8c0-.2-.2-.3-.3-.3s-.3.2-.3.3v4.2c0 .3-.3.5-.6.5h-.1c-.3 0-.6-.3-.6-.6V182c0-.5.4-.9.9-.9h5.4c.5 0 .9.4.9.9v5.9c0 .3-.3.6-.6.6s-.5-.2-.6-.5v-4.2c0-.2-.2-.3-.3-.3s-.3.2-.3.3v10.4c0 .5-.4.8-.8.8-.5 0-.8-.4-.8-.8V188h-.3v6.1c0 .5-.4.8-.8.8-.5 0-.8-.4-.8-.8v-10.3zm1.8-5.7c.8 0 1.4.6 1.4 1.4 0 .8-.6 1.4-1.4 1.4-.8 0-1.4-.6-1.4-1.4 0-.7.6-1.4 1.4-1.4z"/></svg>