<svg xmlns="http://www.w3.org/2000/svg" viewBox="0 0 220 220" style="enable-background:new 0 0 220 220" xml:space="preserve"><style>.st0{enable-background:new}.st1{fill:#9e6a4d}.st2{fill:#1b6b4b}</style><path d="M210 62.4v-.3c0-.1 0-.2-.1-.3v-.1c0-.1-.1-.1-.1-.2v-.1c-.1-.1-.1-.2-.2-.3l-.1-.1-6.3-5.4c-.5-.5-1.4-.4-1.9.1s-.5 1.3.1 1.9c.9.9 2.3 2.1 3.5 3.1H11.3c-.8 0-1.3.6-1.3 1.3s.6 1.3 1.3 1.3H205l-3.5 3c-.3.3-.5.6-.5 1 0 .3.1.6.3.9.3.3.6.5 1 .5.3 0 .6-.1.9-.3l6.3-5.4c.1 0 .1-.1.1-.1.1-.1.2-.2.2-.3l.2-.2z"/><g class="st0"><path class="st1" d="M37.8 76c2.1-.3 3.2.3 3.2 2.1-.2.8-1.6 2.5-4.1 5.4l-.6.8.2.1h.2c.5 0 1.7 0 3.8-.1.5.1.8.3.8.6l-.1.3h-1.9l-2.1.1c-.8 0-1.2.1-1.2.2-.7-.3-1-.6-1-.8 0-.1 1.6-2 4.7-5.8l.5-.9c-.3-.9-1.2-1.2-2.5-.9-.9.5-1.4 1-1.7 1.4h-.3c0-.2-.1-.3-.1-.4.3-1.4 1.1-2.1 2.2-2.1zm7.7-.1h.5c1.6-.1 2.7 1 3.1 3.4-.1 3.7-1.2 5.7-3.2 6.2h-.1c-1.1-.1-1.9-.5-2.3-1.3s-.8-1.7-.9-2.8l.1-1.6c.4-2.2 1.4-3.6 2.8-3.9zm-2 4-.1.8c0 1.8.6 3.1 1.7 3.8h.8c1.2-.2 2-1.4 2.3-3.8V79c-.3-1.2-1-2-2.1-2.2l-.3.1c-.9.1-1.7 1.1-2.3 3zm8.7-3.9c2.1-.3 3.2.3 3.2 2.1-.2.8-1.6 2.5-4.1 5.4l-.6.8.2.1h.2c.5 0 1.7 0 3.8-.1.5.1.8.3.8.6l-.1.3h-1.9l-2.1.1c-.8 0-1.2.1-1.2.2-.7-.3-1-.6-1-.8 0-.1 1.6-2 4.7-5.8l.5-.9c-.3-.9-1.2-1.2-2.5-.9-.9.5-1.4 1-1.7 1.4H50c0-.2-.1-.3-.1-.4.4-1.4 1.2-2.1 2.3-2.1zm7.7-.1h.5c1.6-.1 2.7 1 3.1 3.4-.1 3.7-1.2 5.7-3.2 6.2h-.1c-1.1-.1-1.9-.5-2.3-1.3-.5-.8-.8-1.7-.9-2.8l.1-1.6c.5-2.2 1.5-3.6 2.8-3.9zm-1.9 4-.1.8c0 1.8.6 3.1 1.7 3.8h.8c1.2-.2 2-1.4 2.3-3.8V79c-.3-1.2-1-2-2.1-2.2l-.3.1c-.9.1-1.7 1.1-2.3 3z"/></g><g class="st0"><path class="st1" d="M160.5 76c2.1-.3 3.2.3 3.2 2.1-.2.8-1.6 2.5-4.1 5.4l-.6.8.2.1h.2c.5 0 1.7 0 3.8-.1.5.1.8.3.8.6l-.1.3H162l-2.1.1c-.8 0-1.2.1-1.2.2-.7-.3-1-.6-1-.8 0-.1 1.6-2 4.7-5.8l.5-.9c-.3-.9-1.2-1.2-2.5-.9-.9.5-1.4 1-1.7 1.4h-.3c0-.2-.1-.3-.1-.4.4-1.4 1.1-2.1 2.2-2.1zm7.8-.1h.5c1.6-.1 2.7 1 3.1 3.4-.1 3.7-1.2 5.7-3.2 6.2h-.1c-1.1-.1-1.9-.5-2.3-1.3-.5-.8-.8-1.7-.9-2.8l.1-1.6c.4-2.2 1.4-3.6 2.8-3.9zm-2 4-.1.8c0 1.8.6 3.1 1.7 3.8h.8c1.2-.2 2-1.4 2.3-3.8V79c-.3-1.2-1-2-2.1-2.2l-.3.1c-1 .1-1.7 1.1-2.3 3zm8.6-3.9c2.1-.3 3.2.3 3.2 2.1-.2.8-1.6 2.5-4.1 5.4l-.6.8.2.1h.2c.5 0 1.7 0 3.8-.1.5.1.8.3.8.6l-.1.3h-1.9l-2.1.1c-.8 0-1.2.1-1.2.2-.7-.3-1-.6-1-.8 0-.1 1.6-2 4.7-5.8l.5-.9c-.3-.9-1.2-1.2-2.5-.9-.9.5-1.4 1-1.7 1.4h-.3c0-.2-.1-.3-.1-.4.5-1.4 1.2-2.1 2.2-2.1zm8.3-.2h.7c0 .1.1.3.2.5l-1.6 9.1h-.2l-.7-.3 1.6-9.3z"/></g><path id="多边形" class="st1" d="M48.2 58c.2-.5.8-.6 1.2-.5.2.1.3.2.5.5l4.4 9.5c.2.5 0 1-.5 1.2-.1.1-.2.1-.4.1h-8.8c-.5 0-.9-.4-.9-.9 0-.1 0-.2.1-.4l4.4-9.5z"/><path id="多边形-2" class="st1" d="M171.1 58c.2-.5.8-.6 1.2-.5.2.1.3.2.5.5l4.4 9.5c.2.5 0 1-.5 1.2-.1.1-.2.1-.4.1h-8.9c-.5 0-.9-.4-.9-.9 0-.1 0-.2.1-.4l4.5-9.5z"/><g class="st0"><path class="st2" d="M90.3 26.9h.2c.2 0 .5.2.8.6-.3 1.2-.5 2.3-.6 3.5-.1.6.1.9.2.8l.6-.2h.5c0 .7-.2 1.2-.7 1.6-1.3.4-1.9-.2-1.7-2 .1-1.4.2-2.3.2-2.4l-.4.2-.2-1.3 1.1-.8zm.3-1.7c.5.2.7.5.8.8v.2c0 .3-.2.5-.5.5h-.2c-.5-.3-.8-.8-.8-1.4.3 0 .6-.1.7-.1zm2.1 1.5 1.2.5c.1.6 0 .9-.1.9l.9-.7.9-.5.2-.1c1.5-.2 2.1.4 1.6 1.9l-.1 1.5c.1 1 .3 1.4.8 1.5l.8.2c-.2.7-.5 1.1-.8 1.1-1.3.2-1.9-.7-2-2.7.1-.9.2-1.5.2-2 0 .1-.1.1-.3.1-1 .5-1.5.9-1.6 1.2-.3.5-.5 1.7-.6 3.4h-.9c-.5-.2-.7-.6-.5-1.2.3-.3.5-1.5.5-3.5-.2-.5-.2-1-.2-1.6zm14.1.3c.8-.1 1.4.4 2 1.3-.1 1.2-.2 1.9-.4 2.3l.1.5c.1.2.2.5.4.7.3.4.5.7.5 1l-1.1.2c-.4-.2-.7-.6-.9-1.2-.7.8-1.4 1.2-2.1 1.2-1.1-.1-1.7-.8-1.9-2 .1-2.2.9-3.5 2.1-4.1.6 0 1 0 1.3.1zm-2 3.3.1.8c.1.3.2.5.2.5h.5c.6 0 1.2-.6 1.6-1.9l.2-1c-.1-.3-.4-.5-.8-.5h-.1c-.8 0-1.4.7-1.7 2.1zm8.8-2.1 1.5-1.3c.2 0 .5.3.9.9-.1.9-.1 2-.1 3.3l.5-.4c.8-.7 1.2-2 1.2-3.8h.6c.5.1.6.7.6 1.9v4.3c0 .2 0 .5.1.8-.1 1-.4 1.7-.9 2-.3.4-.9.6-1.7.6-1.3-.1-2.1-.9-2.4-2.4v-.4h.5c.7 1 1.4 1.5 2 1.4.8-.1 1.2-.4 1.2-1v-2.7c-.1.8.1.6.5-.5-.5.5-1.2 1.2-2 2.1-.3 0-.8-.2-1.4-.6l.2-.5v-3.5c-.2-.1-.6-.2-1.3-.2zm8.9-1.3c1.3 0 2.1.5 2.4 1.6 0 1-1.3 1.7-3.8 2.2v-.1c.1.8.5 1.2 1.1 1.2.5.1 1.4-.2 2.9-.9l-.1 1.2c-.9.8-1.7 1.2-2.7 1.2-1.7-.1-2.6-1.1-2.6-3.2.4-1.9 1.3-2.9 2.8-3.2zm-1.2 2.5h.1c1 0 1.7-.3 2.3-1.1v-.1c0-.1-.1-.2-.3-.2h-.3c-1.2.3-1.8.7-1.8 1.4zm8.2-2.4c.9.2 1.4.6 1.4 1.3l-.9.5c-.3-.4-.6-.6-1-.5-1.1 1-1.6 2.1-1.4 3.5v.7c0 .3-.2.5-.6.5h-.1c-.3 0-.5-.2-.6-.5v-.6c0-.1.1-.9.1-2.5V29c0-.3-.1-.8-.4-1.5.2-.4.6-.6 1.3-.6l.2.7c.1.4.1.6.1.8h-.2c.7-1 1.4-1.4 2.1-1.4z"/><path class="st2" d="M133.7 27c.8-.1 1.4.4 2 1.3-.1 1.2-.2 1.9-.4 2.3l.1.5c.1.2.2.5.4.7.3.4.5.7.5 1l-1.1.2c-.4-.2-.7-.6-.9-1.2-.7.8-1.4 1.2-2.1 1.2-1.1-.1-1.7-.8-1.9-2 .1-2.2.9-3.5 2.1-4.1.6 0 1 0 1.3.1zm-2 3.3.1.8c.1.3.2.5.2.5h.5c.6 0 1.2-.6 1.6-1.9l.2-1c-.1-.3-.4-.5-.8-.5h-.1c-.8 0-1.4.7-1.7 2.1z"/></g><g id="_"><path class="st2" d="M49.5 56s-.1 0 0 0c-.4 0-.7-.3-.7-.7 0-.2.4-5 6.6-7.6 3-1.3 10.4-.8 19-.1 8.7.6 18.7 1.4 24.6.1 10.7-2.4 10.8-6.6 10.8-6.7 0-.3.3-.7.6-.7s.6.3.7.6c0 .2.1 5.4-11.9 8-6.1 1.3-16.1.6-24.9-.1-8.1-.6-15.7-1.2-18.4 0-5.4 2.3-5.7 6.3-5.8 6.4 0 .6-.3.8-.6.8z"/><path class="st2" d="M171.4 56c-.3 0-.6-.3-.7-.6 0-.2-.4-4.2-5.7-6.4-2.7-1.2-10.3-.6-18.4 0-8.9.6-18.9 1.4-24.9.1-11.9-2.6-11.9-7.8-11.9-8 0-.3.3-.7.7-.6.3 0 .6.3.6.7 0 .1.1 4.3 10.8 6.7 5.9 1.3 15.8.6 24.6-.1 8.6-.6 16-1.2 19 .1 6.2 2.7 6.5 7.4 6.6 7.6 0 .2-.2.5-.7.5.1 0 .1 0 0 0z"/></g><path d="M210 170v-.3c0-.1 0-.2-.1-.3v-.1c0-.1-.1-.1-.1-.2v-.1c-.1-.1-.1-.2-.2-.3l-.1-.1-6.3-5.4c-.5-.5-1.4-.4-1.9.1s-.5 1.3.1 1.9c.9.9 2.3 2.1 3.5 3.1H11.3c-.8 0-1.3.6-1.3 1.3 0 .8.6 1.3 1.3 1.3H205l-3.5 3c-.3.3-.5.6-.5 1 0 .3.1.6.3.9.3.3.6.5 1 .5.3 0 .6-.1.9-.3l6.3-5.4c.1 0 .1-.1.1-.1.1-.1.2-.2.2-.3.1 0 .1-.1.2-.2z"/><g class="st0"><path class="st1" d="M13.5 186.1h.3c1.1 0 1.7.6 1.7 1.9 0 .5.2 1.3.7 2.6 0 1 2.3 1.7 6.8 1.9 1.1.1 1.7.3 1.7.6v.1c-.1.3-.4.4-1.1.4h-.3c-2.7 0-5.9-.7-9.4-2.1-.8 0-1.3-.2-1.3-.6v-.3l2.9.4v-.9c-.3-.2-.6-.8-.9-1.9.1-.5.2-.8.2-1.1-.7-.2-1-.3-1-.6l-.3-.4zm1-2.8h.4c.6.3.9.6 1.1.9v.3c-.6 0-1.1-.3-1.5-.9v-.3zm3 3.1c1.1 0 1.7.3 1.9.8v.2c0 .2-.1.3-.3.3H19c-1-.5-1.5-.8-1.5-1v-.3zm3-5.3h.3c.3 0 .6.9 1 2.6.8 0 1.2.2 1.2.8v.2c-.9.1-1.4.2-1.4.5v4.1c-.2 1.4-.3 2.1-.6 2.1-1.2-.7-1.8-1.2-1.8-1.6h1.1c.2 0 .3-.6.3-1.7 0-.1-.1-.1-.2-.1.1-.2.2-.3.2-.4 0-.3.1-1.2.2-2.4-.3-.2-.5-.3-.8-.3-.6.2-.9.2-1 .2-.5-.2-.8-.3-.8-.5v-.3c1-.1 1.8-.3 2.3-.5v-.9c.2-.2.1-.9 0-1.8zm11.8.6c.4 0 .6.6.4 2v1.3h.1c.7-.2 1.3-.3 2-.5.3.1.5.3.7.8l-.1.3-1 .1-.8.1c-.6 0-.9.1-.9.3v1.6c.1.2.1.3.2.3 2.4-.3 3.9-.5 4.8-.5.3.4.6.8.6 1.2-.1 0-.2.1-.2.2-.4-.2-1-.3-1.7-.3l-2.5.2c-.8 0-1.5.6-2.3 2l-.7 1.1c.3 0 1.2-.1 2.5-.3.8-.2 1.2-.3 1.2-.4l-.2-.9h.3c.7.6 1.3 1.4 2 2.6l-.6.9c-.2 0-.6-.5-1.2-1.5h-.1c-2 .3-3.1.5-3.4.6-.3.1-.8.1-1.6.3-.3-.2-.6-.3-.6-.5v-.2c1.4-1.6 2.1-2.7 2.1-3.4l-3.6.5h-.5v-.8c3.1-.3 4.5-.7 4.4-1 .1-1.2.1-1.9-.1-1.8-.6.2-1.2.1-1.6-.3v-.3c.7-.3 1.3-.4 1.9-.4l.1-2.5v-.5c.2-.2.3-.3.4-.3z"/></g><g class="st0"><path class="st1" d="M99.6 184.2c.5.1.7.2.7.4v.2l-.9.1v1.4c.3-.1.7-.1 1.1-.1v.3c0 .2-.3.4-1 .7 0 .3-.1 1-.3 2.1h.3c.2 0 .5-.1 1-.3l.3.3c0 .3-1.2 1-3.7 1.8-.2-.1-.4-.1-.5-.1v-.6c1.2 0 1.9-.7 2-2.1v-.6c0-.2-.1-.2-.2-.2H98c-.2 0-.3.1-.5.1-.4-.1-.6-.3-.6-.5s.6-.4 1.7-.7l.1-.2v-.9c.1-.4-.2-.5-.9-.3l-.3-.7c.2.1 1 0 2.1-.1zm3.9.7h.1c.4.2.6.3.6.5v.2c-.2 1.6-.2 2.9-.2 3.8.1.9.2 1.7.6 2.1.2.2.5.3.7.5 1.9.2 2.8-.1 2.8-.7 0-.5.1-.9.1-1.3h.2c.3 0 .6.8.9 2.4-.2.5-.8.8-2 .8l-1.3.1c-1.9-.3-2.7-1.5-2.5-3.5-.7 1.6-1.6 2.5-2.8 2.9l-1 .1.9-.6c1.3-.8 2.3-2.1 2.9-4 .2-1.3.3-2.1.3-2.5v-.8h-.3zm1.7-2.3c.4.2.6.4.6.6v4.7l-.1.8c-.3 0-.6-.1-.9-.2l.1-5-.9.1c-1 .1-1.6.3-1.6.5v1.3c0 1.3-.1 2.5-.3 3.7l-.8-.1v-.2c.2-1.7.2-3.4.2-5 .2-.6 1.4-1 3.7-1.2zm10.7-.9h.5c.2 0 .4.2.7.6 0 .3-.2 1.1-.5 2.4h.6c.2 0 1.1-.2 2.6-.5.5.2.8.3.8.7v.2c-2.7.2-4.1.3-4.2.6-1.1 2-1.7 3.2-1.7 3.5 0 .2.1.6.1 1.4.1 1.4 0 2.6-.1 3.4h-.2c-.5-.2-.8-.4-.9-.6.2-.8.3-1.4.3-1.9v-1.6l-.6.6c-.9.9-1.5 1.3-1.7 1.3h-.4c2.2-2.5 3.5-4.4 3.9-5.8-1.1-.1-1.7-.3-1.7-.9l.5-.1c1.2-.1 1.9-.5 2-1.4l.1-.6v-.3l-.1-1zm2 4.9h.3c.3 0 .5.6.6 1.7h1l.9.1v.3c0 .3-.6.5-1.8.6l-.1.1v.5c0 1.2.1 1.9.1 1.9h1.5c1-.2 1.7-.1 2.1.4l.2.6h-2.3l-4.8.3c-.4-.1-.6-.3-.6-.5.1-.3.2-.4.3-.4h.4c1.4 0 2.2-.2 2.2-.5v-1.9c0-.1-.1-.2-.2-.3l-.8.2c-.5-.2-.8-.3-.8-.6v-.1c1.2-.1 1.7-.3 1.7-.6l.1-1.8z"/></g><g class="st0"><path class="st1" d="M181 183h.4c.5.3.7.8.6 1.5v1.3l.1 1.4c-.1 1.8-.1 3.2-.2 4.3-.1 1.1-.1 1.8-.1 2h-.5c-.2 0-.4-.1-.4-.4l.2-1.7v-3.6h-.1c-1 2-1.9 3-2.6 3v-.3c.3-.3.9-1.3 1.9-2.8v-.2l-1.4-1.2v-.3c.1 0 .7.2 1.7.6.3.5.5.3.6-.5v-1.7l-.2-1.4zm4.1-1h.5c.1.5.1.6.3.6.1 0 .8-.1 1.9-.4l.1.3v.3c-1.3 2.1-2.4 3.5-3.4 4.4 0 .1.1.1.3.1 1.3 0 2.1-.1 2.4-.2v-.9l.1-.9h.7l-.1 1.7h2c.5 0 .9.2.9.7l-.5.1H188c-.1 0-.2.1-.1.2l.1 1.4v2.6c0 .5.1 1 .1 1.9-.1.2-.1.3-.1.5h-.4c-.6-.4-1.4-.9-2.3-1.5v-.3c0-.1.1-.1.3-.1.1 0 .5.1 1.3.3h.1l.1-.5c.1-.5.1-.9.1-1.2v-2.6c0-.2-.1-.3-.4-.3-.8 0-2.2.2-4.1.6v-.2c1.5-1.5 2.3-2.5 2.5-2.9 0-.3-.4-.6-1.3-.9.8-1.2 1.2-2.1 1.2-2.8zm-.4 7.3c.8.3 1.2.5 1.2.8v.3c-.2 0-.2.1-.2.3-.9-.5-1.4-.8-1.9-.8v-.6h.9zm.2-5.1c.2.2.4.3.6.5.7-.4 1-.9 1-1.3l-.1-.1c-.6 0-1.1.3-1.5.9zm12.9-2.5.6-.1c.1 1.1.2 1.9.3 2.3l1.3-.1c.4.1.6.2.6.4v.5h-2v2.1l.1-.1c.5-.8.8-1.3.8-1.6l.9.3v.2c-.2.4-.7 1-1.6 1.8v.7l1.9-.1c1.9-.1 2.8.2 2.8.8-.2.1-.4.1-.5.1h-3.5c-.1.1-.2.1-.2.2 1.1 1.1 2.7 2.1 4.6 3v.4c-.3.1-.5.1-.6.1-1 0-2.4-.8-4.1-2.5l-.5-.5c-.1 2.3-.1 3.9-.1 4.9v.2h-.5c-.3-.1-.4-.4-.4-1 .1-1.4.1-2.3.1-2.7 0-.1 0-.4-.1-.9-1 1-2.1 1.9-3.6 2.6h-.5c1.7-1.6 2.8-2.7 3.2-3.3l.3-.4h-.1c-2.1.2-3.2.2-3.4.2l-.1-.7c2.7-.3 4.1-.4 4.2-.5l-.1-3.2-.3-.1-1.3.1-.5-.3c0-.3.6-.5 1.9-.6.1-.2.1-.4.1-.5s.3-.7.3-1.7zm-1.1 3.6c.3 0 .5.6.8 1.7-.2.4-.3.6-.5.6-.3-.6-.6-1.3-.6-2.2l.3-.1z"/></g><path id="多边形-3" class="st1" d="M109.2 165.6c.2-.5.8-.6 1.2-.5.2.1.3.2.5.5l4.4 9.5c.2.5 0 1-.5 1.2-.1.1-.2.1-.4.1h-8.9c-.5 0-.9-.4-.9-.9 0-.1 0-.2.1-.4l4.5-9.5z"/><g class="st0"><path class="st2" d="M38.3 135.4h.2c.2 0 .5.2.8.6-.3 1.2-.5 2.3-.6 3.5-.1.6.1.9.2.8l.6-.2h.5c0 .7-.2 1.2-.7 1.6-1.3.4-1.9-.2-1.7-2 .1-1.4.2-2.3.2-2.4l-.4.2-.2-1.3 1.1-.8zm.3-1.6c.5.2.7.5.8.8v.2c0 .3-.2.5-.5.5h-.2c-.5-.3-.8-.8-.8-1.4.3-.1.5-.1.7-.1zm2.1 1.5 1.2.5c.1.6 0 .9-.1.9l.9-.7.9-.5.2-.1c1.5-.2 2.1.4 1.6 1.9l-.1 1.5c.1 1 .3 1.4.8 1.5l.8.2c-.2.7-.5 1.1-.8 1.1-1.3.2-1.9-.7-2-2.7.1-.9.2-1.5.2-2 0 .1-.1.1-.3.1-1 .5-1.5.9-1.6 1.2-.3.5-.5 1.7-.6 3.4h-.9c-.5-.2-.7-.6-.5-1.2.3-.3.5-1.5.5-3.5-.2-.5-.2-1.1-.2-1.6zm12.3-1.7 1 .3-.1 1.2-.1.6.7-.1c-.1 0-.1-.1-.1-.1.6 0 1 .3 1.3 1.1-.4.2-.8.3-.9.3h-1.2c.1 0 0 .6-.1 1.9-.1.9 0 1.4.3 1.4h.5l.6-.6c.4 0 .6.2.6.5-.2 1-.8 1.6-1.5 1.6-1.3.2-1.9-.9-1.7-3.3l.2-.7v-.8c0 .1-.4.2-1.2.2l.3-1.2 1.2.1c0-1.1.1-1.8.2-2.4zm4.5-3.2.3.5v1.1c0 1.3-.1 2.8-.2 4.5v-.6c.2-.3.9-.4 2-.4 1-.1 1.4.8 1.3 2.6-.2 1.3.2 2.1 1.1 2.4v.9l-.6.2c-1.4.1-2.1-1.4-1.9-4.4l-.1-.1c-1.3 0-1.9 1.5-1.9 4.5h-.6c-.5-.2-.8-.6-.8-1.3.2 0 .5-3 .8-8.9 0-.7.2-1 .6-1zm7.1 5c1.3 0 2.1.5 2.4 1.6 0 1-1.3 1.7-3.8 2.2v-.1c.1.8.5 1.2 1.1 1.2.5.1 1.4-.2 2.9-.9l-.1 1.2c-.9.8-1.7 1.2-2.7 1.2-1.7-.1-2.6-1.1-2.6-3.2.4-1.8 1.3-2.9 2.8-3.2zm-1.2 2.5h.1c1 0 1.7-.3 2.3-1.1v-.1c0-.1-.1-.2-.3-.2h-.3c-1.2.3-1.8.7-1.8 1.4zm11-3.3c.1.6.1.9.2.9h1.6c1.3.2 1.9 1.2 1.9 2.8-.2 1.8-1.3 2.8-3.5 2.8 0 1.9-.6 3.2-1.7 4-.5-.2-.8-.5-.8-.9.8-.5 1.2-1.4 1.2-2.7.1 0 .1-.3.1-1v-3.2c0 .1-.1.1-.2-.1h-.9v-.5c.6-.3 1.4-1 2.1-2.1zm.2 2.4v2.7l.1.2h.2c.8 0 1.4-.3 1.7-1.1l.1-1c-.1-.7-.5-1-1.2-1-.6 0-.9.1-.9.2zm6.9-1.4c.8-.1 1.4.4 2 1.3-.1 1.2-.2 1.9-.4 2.3l.1.5c.1.2.2.5.4.7.3.4.5.7.5 1l-1.1.2c-.4-.2-.7-.6-.9-1.2-.7.8-1.4 1.2-2.1 1.2-1.1-.1-1.7-.8-1.9-2 .1-2.2.9-3.5 2.1-4.1.6 0 1-.1 1.3.1zm-2 3.3.1.8c.1.3.2.5.2.5h.5c.6 0 1.2-.6 1.6-1.9l.2-1c-.1-.3-.4-.5-.8-.5h-.1c-.8-.1-1.4.7-1.7 2.1zm7.2-3.6c.8 0 1.3.3 1.6.9v.5c-.3 0-.8-.1-1.3-.2h-.1c-.5.1-.8.3-.9.6l.2.3c1.4.9 2.2 1.5 2.2 1.9.1.2.2.4.2.6-.3 1.4-1 2-2.3 1.7-1.3 0-2-.8-2.1-2.2l.7-.2c.4.9.9 1.2 1.5 1 .5.1.7-.2.8-.6-.4-.5-.9-.9-1.4-1.2-.6-.2-.9-.7-.9-1.4-.2-.9.5-1.4 1.8-1.7zm3.8-1.7 1 .3-.1 1.2-.1.6.7-.1c-.1 0-.1-.1-.1-.1.6 0 1 .3 1.3 1.1-.4.2-.8.3-.9.3h-1.2c.1 0 0 .6-.1 1.9-.1.9 0 1.4.3 1.4h.5l.6-.6c.4 0 .6.2.6.5-.2 1-.8 1.6-1.5 1.6-1.3.2-1.9-.9-1.7-3.3l.2-.7v-.8c0 .1-.4.2-1.2.2l.3-1.2 1.2.1c0-1.1.1-1.8.2-2.4z"/></g><g id="_2"><path class="st2" d="M11.8 164.6c-.4-.1-.7-.4-.6-.8.4-3.2 2.4-6.1 5.3-7.5 2.4-1.3 8.5-.8 15.4-.1 7 .6 15 1.3 19.7.1 8.6-2.3 8.6-6.6 8.6-6.7 0-.3.3-.7.6-.7s.7.3.7.6c0 .2.1 5.3-9.6 8-4.9 1.3-13 .6-20.2-.1-6.5-.6-12.6-1.2-14.7 0-2.5 1.3-4.3 3.7-4.6 6.5 0 .4-.3.7-.6.7z"/><path class="st2" d="M110 164.6c-.3 0-.6-.2-.7-.6-.3-2.8-2.1-5.3-4.6-6.5-2.1-1.1-8.2-.6-14.7 0-7.1.6-15.2 1.4-20.2.1-9.7-2.7-9.7-7.8-9.6-8 0-.3.3-.7.7-.6.3 0 .6.3.6.7 0 .1.1 4.3 8.6 6.7 4.7 1.3 12.6.6 19.7-.1 7-.6 13-1.2 15.4.1 3 1.4 4.9 4.3 5.3 7.5.2.3-.1.7-.5.7.1 0 0 0 0 0z"/></g></svg>