<svg xmlns="http://www.w3.org/2000/svg" viewBox="0 0 220 220" style="enable-background:new 0 0 220 220" xml:space="preserve"><style>.st0{fill:#9e6a4d}.st1{enable-background:new}.st2{fill:#1b6b4b}</style><path d="M210 113.2v-.6c0-.1 0-.1-.1-.2s-.1-.2-.2-.3l-.1-.1-6.3-5.4c-.6-.5-1.4-.4-1.9.1s-.5 1.4 0 1.9c.9.9 2.2 2.1 3.5 3.1H11.3c-.7 0-1.3.6-1.3 1.3 0 .7.6 1.3 1.3 1.3H205l-3.5 3c-.3.3-.5.6-.5 1 0 .3.1.6.3.9.3.3.6.5 1 .5.3 0 .6-.1.9-.3l6.3-5.4.1-.1c.1-.1.2-.2.2-.4.1-.1.1-.2.2-.3 0 .1 0 0 0 0z"/><path class="st0" d="M48.2 108.9c.2-.4.7-.6 1.2-.4.2.1.3.2.4.4l4.4 9.5c.2.4 0 1-.4 1.2-.1.1-.2.1-.4.1h-8.8c-.5 0-.9-.4-.9-.9 0-.1 0-.3.1-.4l4.4-9.5zm122.9 0c.2-.4.7-.6 1.2-.4.2.1.3.2.4.4l4.4 9.5c.2.4 0 1-.4 1.2-.1.1-.2.1-.4.1h-8.8c-.5 0-.9-.4-.9-.9 0-.1 0-.3.1-.4l4.4-9.5z"/><g class="st1"><path class="st0" d="m43.1 125.5 1.9-.1c1.2 0 1.7.7 1.6 2.1.3 6.4.1 9.6-.6 9.6s-1.5-.5-2.3-1.4v-.2c.8.1 1.4.2 1.8.2.2-.1.3-1.1.4-2.8.1-1.7 0-3.2 0-4.3l-.1-1c0-.9-.3-1.3-1-1.4-.3 0-.9 0-1.8.1-.1 0-.2.1-.2.2v1.4c.7-.2 1.2-.2 1.3.1v.2c-.1.3-.4.4-1.1.4h-.2l.1 1v.2c0 .1.8.1 2.4-.1l.1.5c0 .2-.1.3-.3.3l-1.8.2c-.3 0-1.4.2-3.2.5h-.7c0 1.3-.9 3-2.6 4.9h-.2v-.4c1.4-2.1 2.1-4.4 2.1-7.1 0-.6.1-1.1.1-1.6v-.4c-.2-.6 1.3-1 4.3-1.1zm-3.6 1.3-.1 1.7-.2 2h.1c1.7-.2 2.5-.5 2.4-.7v-.3l.1-.7-.8.1h-.6v-.3c0-.3.4-.5 1.2-.6l.2-.3v-1c0-.1-.1-.2-.3-.3-.1 0-.8.1-2 .4zm3.6 4.6c1.2 0 1.7.4 1.7 1-.4 1.3-.8 2-1.2 2-1 0-2 .1-3 .4-.3 0-.5-.9-.6-2.7.1-.1 1.1-.3 3.1-.7zm-2.2 1.4c0 .5.1.8.2.8h.7c1.2-.1 1.8-.3 1.8-.6v-.4c.1-.2 0-.3-.3-.3h-.7c-1.2.1-1.7.3-1.7.5zm16.9-6.8c.5 0 1 .4 1.6 1.1l-.1.6v6.1c-.1 1-.2 1.9-.2 2.8l-.3.1c-.6-.4-1-.8-1.2-1.3-2.2.1-3.6.2-4.2.2-.3-.1-.4-.3-.6-.7.1-1.5.1-3.8.1-7v-.2l.2-.9h.7c.2-.1 1.5-.3 4-.8zm-3.1 1.3H54c-.1 0-.2.1-.3.3v2.4c0 .1.1.2.3.2s1.2-.2 2.9-.7h.3c.1 0 .3.2.6.5v.2c0 .2-1.1.4-3.3.7l-.7-.1c-.1.5-.2 1.6-.1 3.3v.3c0 .1.1.2.2.2.6 0 1.6-.1 3-.4l1.1.2.1-.3v-7c0-.2-.4-.3-1.1-.3-1.1.3-1.9.5-2.3.5z"/></g><g class="st1"><path class="st0" d="m166 125.5 1.9-.1c1.2 0 1.7.7 1.6 2.1.3 6.4.1 9.6-.6 9.6s-1.5-.5-2.3-1.4v-.2c.8.1 1.4.2 1.8.2.2-.1.3-1.1.4-2.8.1-1.7 0-3.2 0-4.3l-.1-1c0-.9-.3-1.3-1-1.4-.3 0-.9 0-1.8.1-.1 0-.2.1-.2.2v1.4c.7-.2 1.2-.2 1.3.1v.2c-.1.3-.4.4-1.1.4h-.2l.1 1v.2c0 .1.8.1 2.4-.1l.1.5c0 .2-.1.3-.3.3l-1.8.2c-.3 0-1.4.2-3.2.5h-.7c0 1.3-.9 3-2.6 4.9h-.2v-.4c1.4-2.1 2.1-4.4 2.1-7.1 0-.6.1-1.1.1-1.6v-.4c-.1-.6 1.3-1 4.3-1.1zm-3.5 1.3-.1 1.7-.2 2h.1c1.7-.2 2.5-.5 2.4-.7v-.3l.1-.7-.8.1h-.6v-.3c0-.3.4-.5 1.2-.6l.2-.3v-1c0-.1-.1-.2-.3-.3-.2 0-.9.1-2 .4zm3.5 4.6c1.2 0 1.7.4 1.7 1-.4 1.3-.8 2-1.2 2-1 0-2 .1-3 .4-.3 0-.5-.9-.6-2.7.1-.1 1.2-.3 3.1-.7zm-2.2 1.4c0 .5.1.8.2.8h.7c1.2-.1 1.8-.3 1.8-.6v-.4c.1-.2 0-.3-.3-.3h-.7c-1.1.1-1.7.3-1.7.5zm19.9-3.3h.1c.2 0 .6.3 1 1v.1c0 .2-.2.2-.7.1-1.3 0-4.4.2-9.2.6-.4 0-.8-.2-1.1-.7 0-.1.3-.2.8-.4.3.1.6.1 1 .1.9-.1 1.8-.2 2.6-.3l3-.2 1.1-.1c.7-.2 1.2-.2 1.4-.2z"/></g><g class="st1"><path class="st2" d="M28.1 87.6c1.6.1 2.5 1.1 2.6 3.2-.1 1.8-1 2.8-2.8 3.1-1.7 0-2.5-1-2.6-3 .3-2 1.1-3.1 2.4-3.2h.4zm-1.3 2.7-.1.9c0 .8.5 1.2 1.2 1.4 1-.3 1.5-.9 1.5-1.8.2-1.1-.3-1.8-1.5-2-.7.3-1.1.7-1.1 1.5zm4.9-2.8 1.2.5c0 .6 0 .9-.1.9l.9-.7.9-.4.2-.1c1.5-.2 2.1.4 1.6 1.8V91c0 1 .3 1.5.8 1.5l.8.2c-.3.7-.5 1.1-.8 1.1-1.3.2-1.9-.7-2-2.7.1-.8.2-1.5.3-2 0 0-.1.1-.3.1-1 .5-1.5.9-1.6 1.2-.3.5-.5 1.7-.6 3.4h-.9c-.5-.3-.7-.7-.5-1.2.3-.3.4-1.5.4-3.5-.2-.5-.3-1-.3-1.6zM47 83.3c1.1.2 1.8.6 2.1 1.2l-.1.3-.3.4-1.4-.6c-1.6-.3-2.5.1-2.8 1.2.1.8 1.1 1.5 2.9 2 1.4.4 2.1 1.5 2.1 3.2-.5 2.1-2 3.1-4.5 2.8-1.3-.1-2.2-.9-2.7-2.3v-.6l.7-.5c.7 1.2 1.4 1.9 2.2 2.1l1.2-.1c.9-.2 1.4-.7 1.5-1.5v-.3c0-.9-.7-1.5-2-1.7-2-.8-3-1.8-2.8-3.2.2-1.9 1.5-2.7 3.9-2.4zm4.7 4.4c.3 0 .5.3.5.8a9.6 9.6 0 0 0-.6 3.3l.2.3c1.1.7 1.9-.5 2.5-3.6.1-.2.1-.4.1-.6h.9c0 .2 0 .4.1.7-.2 1.4-.4 2.5-.4 3.4l.6 1.3v.6h-.4c-.6 0-1-.3-1.2-.8-.3.6-1 .8-2 .8-1-.3-1.5-.9-1.5-1.6V92c0-.5.1-1.5.4-3-1 0-1-.3-.1-.9.3-.2.6-.4.9-.4zm4.4-.2 1.2.5c0 .6 0 .9-.1.9l.9-.7.9-.4.2-.1c1.5-.2 2.1.4 1.6 1.8V91c0 1 .3 1.5.8 1.5l.8.2c-.3.7-.5 1.1-.8 1.1-1.3.2-1.9-.7-2-2.7.1-.8.2-1.5.3-2 0 0-.1.1-.3.1-1 .5-1.5.9-1.6 1.2-.3.5-.5 1.7-.6 3.4h-.9c-.5-.3-.7-.7-.5-1.2.3-.3.4-1.5.4-3.5-.2-.5-.3-1-.3-1.6zm11.6-4.7.6.1c.4 0 .6.2.6.7-.6 3.1-.9 5.4-.9 6.9 0 1.3.5 1.9 1.4 2l.3.6v.2c0 .2-.2.5-.7.8-1.4-.3-2.1-.5-2.1-.6.1-.7-.4-.6-1.5.3l-.6.1c-1.5-.1-2.2-.9-2.1-2.5.2-2.1 1.1-3.3 2.6-3.6 1.1-.1 1.6-.2 1.6-.1-.1-.4.2-1.9.8-4.9zM64 91.3c0 .7.2 1 .5 1 .5 0 1.1-.9 1.9-2.7 0-.4-.2-.7-.5-.8h-.4c-.8.2-1.3 1-1.5 2.5z"/><path class="st2" d="M72.7 87.7c.8 0 1.5.4 2 1.3-.1 1.1-.2 1.9-.4 2.3l.1.4c0 .3.2.5.4.7.3.4.4.7.4 1l-1.1.3c-.4-.3-.7-.6-.9-1.1-.7.8-1.4 1.2-2.1 1.1-1.1-.1-1.7-.8-1.8-2 .1-2.2.8-3.5 2.1-4h1.3zm-1.9 3.4.1.8c.1.3.2.4.3.4h.4c.6 0 1.1-.6 1.6-1.9l.2-1c-.1-.3-.4-.4-.8-.4h-.1c-.9-.1-1.5.7-1.7 2.1z"/><path class="st2" d="m75.1 88.9 1.5-1.3c.2 0 .5.3.9.9-.1.9-.1 2-.1 3.3l.5-.4c.7-.7 1.1-2 1.2-3.8h.6c.5.1.7.7.6 1.8v4.4c0 .2 0 .4.1.8-.1 1-.4 1.7-.9 2-.3.4-.9.6-1.8.6-1.3 0-2.1-.9-2.5-2.5v-.4h.5c.7 1 1.4 1.5 2 1.5.8-.1 1.1-.4 1.1-1v-2.7c0 .8.1.6.4-.5-.5.5-1.1 1.2-2 2.1-.3 0-.8-.2-1.4-.6l.2-.5v-3.5c.2-.1-.2-.2-.9-.2z"/></g><g class="st1"><path class="st2" d="M146.5 87.6c1.6.1 2.5 1.1 2.6 3.2-.1 1.8-1 2.8-2.8 3.1-1.7 0-2.5-1-2.6-3 .3-2 1.1-3.1 2.4-3.2h.4zm-1.4 2.7-.1.9c0 .8.5 1.2 1.2 1.4 1-.3 1.5-.9 1.5-1.8.2-1.1-.3-1.8-1.5-2-.6.3-1 .7-1.1 1.5zm5-2.8 1.2.5c0 .6 0 .9-.1.9l.9-.7.9-.4.2-.1c1.5-.2 2.1.4 1.6 1.8l-.1 1.5c0 1 .3 1.5.8 1.5l.8.2c-.3.7-.5 1.1-.8 1.1-1.3.2-1.9-.7-2-2.7.1-.8.2-1.5.3-2 0 0-.1.1-.3.1-1 .5-1.5.9-1.6 1.2-.3.5-.5 1.7-.6 3.4h-.9c-.5-.3-.7-.7-.5-1.2.3-.3.4-1.5.4-3.5-.1-.5-.2-1-.2-1.6zm19.1-4.1h.6c.7 0 1.3 2.6 2 7.9l.5 2.6h-.9c-.2 0-.4-.3-.8-.9l-.3-2-.6-5.1c-.4.8-1.4 3.4-3 7.6-.5-.3-1.1-2-1.6-5-.1-.8-.2-1.4-.2-1.9l-.2-.7c0-.2.1-.3.2-.3 0 .2-.2.8-.5 1.9-.5 1-1.2 2.8-2.3 5.5h-.6c-.3 0-.5-.2-.5-.5v-.2c.7-1.6 1.8-4.4 3.4-8.5l.4-.2h.3c.4.3 1 2.4 1.6 6.4v-.1c.3-.5 1.1-2.5 2.3-5.9l.2-.6zm6.2 4.2c1.6.1 2.5 1.1 2.6 3.2-.1 1.8-1 2.8-2.8 3.1-1.7 0-2.5-1-2.6-3 .3-2 1.1-3.1 2.4-3.2h.4zm-1.3 2.7-.1.9c0 .8.5 1.2 1.2 1.4 1-.3 1.5-.9 1.5-1.8.2-1.1-.3-1.8-1.5-2-.7.3-1.1.7-1.1 1.5zm5-2.8 1.2.5c0 .6 0 .9-.1.9l.9-.7.9-.4.2-.1c1.5-.2 2.1.4 1.6 1.8l-.1 1.5c0 1 .3 1.5.8 1.5l.8.2c-.3.7-.5 1.1-.8 1.1-1.3.2-1.9-.7-2-2.7.1-.8.2-1.5.3-2 0 0-.1.1-.3.1-1 .5-1.5.9-1.6 1.2-.3.5-.5 1.7-.6 3.4h-.9c-.5-.3-.7-.7-.5-1.2.3-.3.4-1.5.4-3.5-.2-.5-.2-1-.2-1.6zm11.5-4.7.6.1c.4 0 .6.2.6.7-.6 3.1-.9 5.4-.9 6.9 0 1.3.5 1.9 1.4 2l.3.6v.2c0 .2-.2.5-.7.8-1.4-.3-2.1-.5-2.1-.6.1-.7-.4-.6-1.5.3l-.6.1c-1.5-.1-2.2-.9-2.1-2.5.2-2.1 1.1-3.3 2.6-3.6 1.1-.1 1.6-.2 1.6-.1 0-.4.3-1.9.8-4.9zm-3.7 8.5c0 .7.2 1 .5 1 .5 0 1.1-.9 1.9-2.7 0-.4-.2-.7-.5-.8h-.4c-.8.2-1.3 1-1.5 2.5z"/><path class="st2" d="M195.7 87.7c.8 0 1.5.4 2 1.3-.1 1.1-.2 1.9-.4 2.3l.1.4c0 .3.2.5.4.7.3.4.4.7.4 1l-1.1.3c-.4-.3-.7-.6-.9-1.1-.7.8-1.4 1.2-2.1 1.1-1.1-.1-1.7-.8-1.8-2 .1-2.2.8-3.5 2.1-4h1.3zm-2 3.4.1.8c.1.3.2.4.3.4h.4c.6 0 1.1-.6 1.6-1.9l.2-1c-.1-.3-.4-.4-.8-.4h-.1c-.9-.1-1.4.7-1.7 2.1z"/><path class="st2" d="m198 88.9 1.5-1.3c.2 0 .5.3.9.9-.1.9-.1 2-.1 3.3l.5-.4c.7-.7 1.1-2 1.2-3.8h.6c.5.1.7.7.6 1.8v4.4c0 .2 0 .4.1.8-.1 1-.4 1.7-.9 2-.3.4-.9.6-1.8.6-1.3 0-2.1-.9-2.5-2.5v-.4h.5c.7 1 1.4 1.5 2 1.5.8-.1 1.1-.4 1.1-1v-2.7c0 .8.1.6.4-.5-.5.5-1.1 1.2-2 2.1-.3 0-.8-.2-1.4-.6l.2-.5v-3.5c.2-.1-.2-.2-.9-.2z"/></g></svg>