<svg xmlns="http://www.w3.org/2000/svg" viewBox="0 0 220 220" style="enable-background:new 0 0 220 220" xml:space="preserve"><style>.st1{fill:#fff}</style><path d="M10 91.9h200v64.3H10V91.9z" style="fill:#545d5f"/><path class="st1" d="M205 122.3h5v3.6h-5zM195.7 122.3h7.1v3.6h-7.1zM186.4 122.3h7.1v3.6h-7.1zM177.1 122.3h7.1v3.6h-7.1zM167.9 122.3h7.1v3.6h-7.1zM149.3 122.3h7.1v3.6h-7.1zM140 122.3h7.1v3.6H140zM130.7 122.3h7.1v3.6h-7.1zM112.1 122.3h7.1v3.6h-7.1zM102.9 122.3h7.1v3.6h-7.1zM93.6 122.3h7.1v3.6h-7.1zM84.3 122.3h7.1v3.6h-7.1zM75 122.3h7.1v3.6H75zM65.7 122.3h7.1v3.6h-7.1zM56.4 122.3h7.1v3.6h-7.1zM47.1 122.3h7.1v3.6h-7.1zM37.9 122.3H45v3.6h-7.1zM28.6 122.3h7.1v3.6h-7.1zM19.3 122.3h7.1v3.6h-7.1zM10 122.3h7.1v3.6H10z"/><path d="M10 156.2h200v3.6H10zM10 88.3h200v3.6H10z"/><path class="st1" d="M127 94.8h32.9v3.6H127zM127 101.6h32.9v3.6H127zM127 108.5h32.9v3.6H127zM127 115.4h32.9v3.6H127zM127 122.3h32.9v3.6H127zM127 129.1h32.9v3.6H127zM127 136h32.9v3.6H127zM127 142.9h32.9v3.6H127zM127 149.8h32.9v3.6H127z"/><path d="M154.8 116.4h-6.6v-15.7l-4.2-4-2.3 10-.2.7-.7-.1-17.8-3.6-.7-.1.1-.7 1-5.1.1-.7.7.1 11.8 2.4 3.7-18.7-2.9 1.1v9h-6.5V77.8l.4-.2 13.2-5.6.1-.1h.1c.3 0 .6-.1.9-.1.3-.1.7-.1 1.2-.1 1.9 0 3.7 1 4.9 2.9l2.5 4.1c1 1.7 2.4 3.1 4.2 4.1 1.8 1.1 4 1.6 6.2 1.6h.7V91h-.7c-2.8 0-5.6-.6-8.2-1.8-2-.9-3.9-2.2-5.4-3.8l-1.2 5.9 5.1 4.8.2.2v20.1zm-4.6-44.6c-3.2 0-5.8-2.6-5.8-5.8 0-3.2 2.6-5.8 5.8-5.8s5.8 2.6 5.8 5.8c0 3.2-2.6 5.8-5.8 5.8z" style="fill:#1649b5"/></svg>