<svg xmlns="http://www.w3.org/2000/svg" viewBox="0 0 48 48" style="enable-background:new 0 0 48 48" xml:space="preserve"><g transform="translate(0 .075)"><defs><filter id="a" filterUnits="userSpaceOnUse" x=".6" y="-.1" width="46.7" height="48"><feColorMatrix values="1 0 0 0 0 0 1 0 0 0 0 0 1 0 0 0 0 0 1 0"/></filter></defs><mask maskUnits="userSpaceOnUse" x=".6" y="-.1" width="46.7" height="48" id="b"><g style="filter:url(#a)"><path style="fill-rule:evenodd;clip-rule:evenodd;fill:#fff" d="M.6-.1h46.8v48H.6z"/></g></mask><path d="M36.9 33.2c0 2.1-1.7 3.9-3.7 3.9-1.2 0-2.3-.6-3-1.5-4.9 2.7-11.1 2-15.2-2.2-5.1-5.1-5.1-13.5-.1-18.7 5-5.2 13.1-5.3 18.2-.1 4.1 4.2 4.9 10.6 2.3 15.6.9.6 1.5 1.7 1.5 3M23.9-.1C11 0 .6 10.8.6 24c.1 13.3 10.6 24 23.5 23.9 4 0 7.8-1.1 11.1-2.9-1.3-2.6-.8-5.9 1.3-8.1 2.1-2.2 5.4-2.6 7.9-1.3 1.9-3.5 3-7.5 2.9-11.8C47.3 10.5 36.8-.1 23.9-.1" style="mask:url(#b);fill-rule:evenodd;clip-rule:evenodd;fill:#00be6e"/></g><path d="M33.2 37.1c-2.1 0-3.7-1.7-3.8-3.8 0-2.1 1.7-3.9 3.7-3.9 2.1 0 3.7 1.7 3.8 3.8 0 2.2-1.6 3.9-3.7 3.9M27.6 9.2c-4.9 0-9.3 2-12.5 5.3 5-5 13-4.9 18 .1 3.9 3.9 4.8 9.7 2.8 14.5-.8-.5-1.7-.8-2.7-.8-2.7 0-4.9 2.3-4.9 5 0 1 .3 2 .9 2.8-4.7 2.1-10.3 1.2-14.2-2.7-5.1-5.1-5.1-13.5-.1-18.7-3.3 3.4-5.3 8-5.2 13.2.1 10.3 8.2 18.6 18.2 18.5 2.6 0 5-.6 7.3-1.6-1.1-2.5-.7-5.6 1.3-7.7l.3-.3c2.1-1.9 5-2.3 7.4-1.2 1.1-2.4 1.7-5 1.6-7.8 0-10.4-8.2-18.7-18.2-18.6" style="fill-rule:evenodd;clip-rule:evenodd;fill:#00a06e"/></svg>