<svg xmlns="http://www.w3.org/2000/svg" viewBox="0 0 48 48" style="enable-background:new 0 0 48 48" xml:space="preserve"><path d="m23.8 16.1 22.2-.3c.2 0 .3 0 .6-.1-3.2-8-8.9-13-17.1-15.1l-.2.2c-2.2 4.7-4.3 9.3-6.5 14-.4.8 0 1.3 1 1.3zm-6.7 4.1L27.9 1c.1-.2.1-.4.3-.7C19.6-.9 12.4 1.5 6.4 7.6l9 12.7c.6.9 1.2.8 1.7-.1zM41 17.4c-3.2.3-6.3.6-9.5.9-1.1.1-1.3.6-.8 1.6l4.3 7.3 7.3 12.3c5.2-6.7 6.9-14 4.7-22.1-.1-.4-.3-.5-.7-.4l-5.3.4zM5.1 30.7l11-1c1.4-.1 1.7-.6 1-1.8l-10-16.7-1.5-2.7C.2 15.3-1.2 22.8 1 31.1l4.1-.4zm36.2 9.2-8.6-12.2c-.7-1-1.3-1-1.9.1l-10.7 19c-.1.2-.2.4-.3.7 7 1.5 15.9-.8 21.7-7.3l-.2-.3zM37.9 38l-2.2 1.6-1.6-2.2 2.2-1.6 1.6 2.2zm-2.2-3-2.2 1.6-1.6-2.2 2.2-1.6 1.6 2.2zm-4.6-4.6.8-.5 1.6 2.2-2.2 1.6-1.1-1.5.9-1.8zm-1.4 2.4 3.1 4.2-6.7 4.8-.9-1.2 4.5-7.8zm-4.9 8.7.7.9-2 1.4 1.3-2.3zm2 4.4h-2.1l-.9-1.2 2.2-1.6 1.6 2.2-.8.6zm2.1-.2-2.2-3 6.7-4.8 3.5 4.8c-2.4 1.5-5.2 2.6-8 3zm8.7-3.5-1.3-1.8 2.2-1.6 1.2 1.6c-.6.6-1.3 1.2-2.1 1.8zM24 31.8c-2.7 0-5.4.1-8.1.1H1.4c2.6 8 10.1 14.2 17.3 15.4l.3-.7 6-13.1c.6-1.2.3-1.7-1-1.7z" style="fill:#39aeff"/></svg>