<svg xmlns="http://www.w3.org/2000/svg" viewBox="0 0 128 128" style="enable-background:new 0 0 128 128" xml:space="preserve"><ellipse cx="69.4" cy="109.1" rx="58.6" ry="16.2" style="opacity:.1;fill:#44271c;enable-background:new"/><path d="m92 38.8-5.9-5.7 9.8-13.5c2.5-3.4 7.6-3.9 10.6-.9 3.1 3 2.6 8-.9 10.4L92 38.8z" style="fill:#44271c"/><path d="M108 20.9c-.3 2-1.4 3.9-3.2 5.2l-15 10.6 2.2 2.2 13.7-9.6c2.8-2.1 3.6-5.6 2.3-8.4z" style="fill:#281611"/><path d="M32.4 17.9c.1 1.3.8 2.4 1.8 3.2l18.2 12.8c7.5 5.2 14.5 11.1 21 17.4s12.5 13.3 17.8 20.6l13 17.9c.8 1.1 2.1 1.7 3.5 1.8 4.3.1 8.8-1.7 11.8-5.3 3.6-4.2 4.3-10.1 2.2-15.2-12.8-30.7-37.6-54.9-68.8-67.3C47.3 1.6 41 2.8 36.8 7c-3.1 3-4.5 7-4.4 10.9z" style="fill:#7a3818"/><path d="M99.2 89.8 87.8 74.2C77.4 59.9 64.6 47.4 50 37.1L34.1 26c-1.7-1.2-4.1-1-5.5.4L18 36.9C.2 54.3-4.9 80.5 5 103.2c.8 1.7.8 3.6.2 5.4-2 6 3.8 11.6 9.8 9.6 1.8-.6 3.8-.5 5.5.2 23.1 9.7 49.8 4.6 67.6-12.8l10.6-10.4c1.5-1.4 1.7-3.7.5-5.4zM22.6 48.1c3.2-3.2 8.5-3.2 11.7 0 3.2 3.2 3.2 8.3 0 11.5-3.2 3.2-8.5 3.2-11.7 0-3.2-3.3-3.2-8.4 0-11.5zM16 82.3c-3.2-3.2-3.2-8.3 0-11.5 3.2-3.2 8.5-3.2 11.7 0 3.2 3.2 3.2 8.3 0 11.5s-8.5 3.2-11.7 0z" style="fill:#f7c17f"/><path d="M99.2 89.8 87.9 74.3l-5.7 10.1c-12.1 21.6-36.4 33.7-61.3 30.7-1.9-.2-3.8.2-5.3 1.3-2.5 1.7-5.5 1.7-7.9.5 1.9 1.6 4.6 2.2 7.3 1.3 1.8-.6 3.8-.5 5.5.2 23.1 9.7 49.8 4.6 67.6-12.8l10.6-10.4c1.5-1.4 1.7-3.7.5-5.4z" style="fill:#dba972"/><path d="M121.7 71c-2.6-6.2-5.7-12.1-9.2-17.7.3 5-1.3 10.1-5 13.7-4.1 4.2-9.6 5.9-14.9 5.4-.4 0-.8-.1-1.2-.2l12.8 17.6c.8 1.1 2.1 1.7 3.5 1.8 4.3.1 8.8-1.7 11.8-5.3 3.6-4.3 4.3-10.2 2.2-15.3z" style="fill:#5e2813"/></svg>