<?xml version="1.0" encoding="utf-8"?>
<!-- Generator: Adobe Illustrator 24.3.0, SVG Export Plug-In . SVG Version: 6.00 Build 0)  -->
<svg version="1.1" id="图层_1" xmlns="http://www.w3.org/2000/svg" xmlns:xlink="http://www.w3.org/1999/xlink" x="0px" y="0px"
	 viewBox="0 0 48 48" style="enable-background:new 0 0 48 48;" xml:space="preserve">
<style type="text/css">
	.st0{fill:#03BFBF;}
	.st1{fill:#FFFFFF;}
</style>
<path class="st0" d="M5.3,0h37.4C45.6,0,48,2.4,48,5.3v37.4c0,2.9-2.4,5.3-5.3,5.3H5.3c-3,0-5.3-2.4-5.3-5.4V5.3C0,2.4,2.4,0,5.3,0z
	"/>
<path class="st1" d="M25.1,38.1c2,0,4.1,0,6.1,0c6.2,0,11.3-4.7,11.9-10.9c0.6-6.2-3.7-11.8-9.8-12.8c-1.1-0.2-2.3-0.1-3.4-0.1
	c-0.4,0-0.8-0.1-1.1-0.4c-4.1-3.7-8.9-4.9-14.2-3.2c-5.2,1.7-8.4,5.4-9.5,10.8c-1.7,8.6,5,16.5,13.7,16.6
	C20.9,38.1,23,38.1,25.1,38.1C25.1,38.1,25.1,38.1,25.1,38.1z M26.3,15.2c-0.6,0.4-1.3,0.7-1.8,1.1c-0.4,0.3-0.7,0.3-1.2,0.1
	c-2.9-1.6-5.9-1.6-8.8,0.1c-2.9,1.8-4.5,4.4-4.3,7.9c0.2,3.7,2,6.4,5.5,7.8c3.5,1.4,6.7,0.7,9.5-2c1.7-1.7,3.4-3.4,5.1-5.1
	c0.8-0.8,1.7-0.7,2.2,0.1c0.4,0.7,0.2,1.2-0.4,1.8c-1.7,1.7-3.5,3.4-5.2,5.2c-2.8,2.9-6.3,3.9-10.2,3.2c-5.7-1-9.9-6.4-9.3-12.2
	c0.7-6.9,6.5-11.3,13.4-10.3C23,13,24.7,13.9,26.3,15.2z M27.4,35.6c0-0.1-0.1-0.2-0.1-0.3c0.8-0.7,1.5-1.5,2.3-2.2
	c0.2-0.2,0.6-0.3,0.9-0.4c0.8-0.1,1.7-0.1,2.6-0.3c2.5-0.7,4.4-3.1,4.6-5.6c0.2-3-1.1-5.5-3.8-6.8c-2.4-1.1-5.4-0.7-7.3,1.1
	c-1.3,1.2-2.6,2.5-3.8,3.8c-0.4,0.4-0.8,0.6-1.4,0.5c-1-0.3-1.3-1.4-0.6-2.2c1.4-1.4,2.7-2.8,4.2-4.2c1.4-1.3,3.2-2,5.1-2.3
	c4.8-0.6,9.3,2.8,10.2,7.6c0.9,4.7-2.1,9.6-6.8,10.6C31.5,35.6,29.4,35.5,27.4,35.6z"/>
</svg>
