<svg xmlns="http://www.w3.org/2000/svg" viewBox="0 0 48 48" style="enable-background:new 0 0 48 48" xml:space="preserve"><path d="M36.7 30.4c-1-1.5-1.5-3.2-1.5-5.1 0-1.7.3-3.3 1-4.6.7-1.3 1.9-2.4 3.4-3.4-.8-1.3-2-2.3-3.5-3.1-1.5-.8-3-1.2-4.6-1.2-.6 0-1.2.1-1.8.2-.6.1-1.3.4-2.3.7-1 .4-1.7.6-2.3.8-.5.2-.9.3-1.1.3-.6 0-1.6-.3-3-.9-1.4-.6-2.7-.9-3.8-.9-1.5 0-2.8.3-4.1.9-1.2.6-2.3 1.5-3.3 2.6-.9 1.1-1.7 2.5-2.2 4-.5 1.5-.8 3.2-.8 5 0 1.2.1 2.4.3 3.6.6 1.3.9 2.5 1.3 3.7.4 1.2.9 2.4 1.4 3.6.6 1.1 1.1 2.2 1.8 3.1.7 1 1.3 1.9 1.9 2.6.6.7 1.1 1.2 1.6 1.6.5.4 1 .7 1.5.9.4.2.9.2 1.4.2.3 0 .8-.1 1.4-.2.5-.2 1.1-.4 1.8-.6.6-.2 1.3-.4 1.9-.6.6-.2 1.2-.3 1.8-.3.5 0 1.1.1 1.7.2l1.8.6 1.8.6c.6.2 1.1.3 1.5.3.6 0 1.3-.1 1.8-.4.6-.3 1.2-.7 1.8-1.2.3-.3.7-.8 1.3-1.4.5-.6 1-1.4 1.6-2.2.5-.8 1-1.7 1.5-2.8.5-1 .9-2 1.2-3.1-1.8-.8-3.2-2-4.2-3.5zM24.6 12.7c1 0 1.9-.2 2.8-.8.9-.5 1.8-1.2 2.5-2s1.3-1.8 1.7-2.9c.4-1.1.7-2.2.7-3.2v-.4c0-.1 0-.2-.1-.4-1.1.1-2.1.4-3.1.9S27.2 5.2 26.5 6c-.8.9-1.4 1.8-1.8 2.8-.5 1-.7 2.1-.7 3.1v.6c0 .2.2.2.6.2z" style="fill:#1d1d1f"/></svg>