<svg xmlns="http://www.w3.org/2000/svg" viewBox="0 0 48 48"><path d="M32 15h12v-4H32v4zm1.5 7.1c-.8.7-1.3 1.7-1.5 2.9h10c-.1-1.3-.6-2.3-1.5-3-.9-.7-2.1-1-3.4-1-1.6 0-2.7.4-3.6 1.1zm8.7-4.1c1.5.6 2.9 1.7 3.8 3.1.9 1.2 1.5 2.7 1.8 4.3.2 1 .2 2.3.2 4.1H31.8c.1 2.1.9 3.5 2.3 4.4.9.5 1.9.8 3.2.8 1.3 0 2.4-.3 3.2-1 .5-.3.9-.8 1.2-1.4h5.9c-.2 1.2-.9 2.5-2.1 3.7-2 2-4.8 3-8.3 3-3 0-5.6-.8-7.8-2.6-2.3-1.7-3.4-4.4-3.4-8.3 0-3.6 1-6.4 3.1-8.3 2-1.9 4.7-2.9 7.9-2.9 1.9.1 3.7.4 5.2 1.1zM6 25v8h7.1c1.3 0 2.3-.2 3-.5 1.3-.7 1.9-1.9 1.9-3.7 0-1.6-.6-2.6-1.9-3.2-.7-.3-1.7-.5-2.9-.5H6zm0-10v6h7.5c1.3 0 2.4-.2 3.3-.7.8-.5 1.3-1.2 1.3-2.4 0-1.3-.6-2.1-1.7-2.5-1-.3-2.2-.4-3.6-.4H6zm15.7-2.8c.9 1.3 1.3 2.8 1.3 4.6 0 1.8-.4 3.3-1.4 4.4-.5.6-1.3 1.2-2.2 1.7 1.5.6 2.6 1.4 3.4 2.6.8 1.2 1.1 2.7 1.1 4.4 0 1.8-.4 3.4-1.3 4.8-.6.9-1.2 1.7-2.1 2.4-1 .8-2.1 1.3-3.3 1.5-1.2.3-2.6.4-4 .4H0V9h14.1c3.6.1 6.1 1.1 7.6 3.2z" fill="#1769ff"/></svg>