<?xml version="1.0" standalone="no"?><!DOCTYPE svg PUBLIC "-//W3C//DTD SVG 1.1//EN" "http://www.w3.org/Graphics/SVG/1.1/DTD/svg11.dtd"><svg t="1748393989950" class="icon" viewBox="0 0 1024 1024" version="1.1" xmlns="http://www.w3.org/2000/svg" p-id="4055" width="128" height="128" xmlns:xlink="http://www.w3.org/1999/xlink"><path d="M64 386.56c-11.9296-39.2704-23.9104-78.4896-35.84-117.76 204.8-69.9904 409.6-139.9296 614.4-209.92-104.0896 278.1696-208.2304 556.3904-312.32 834.56l-92.16-92.16c75.1104-186.0096 150.1696-372.0704 225.28-558.08-133.12 47.7696-266.24 95.5904-399.36 143.36z" fill="#F9D325" p-id="4056"></path><path d="M750.08 222.72c-27.2896-42.6496-54.6304-85.3504-81.92-128-100.7104 278.1696-201.3696 556.3904-302.08 834.56 208.2304-71.68 416.4096-143.36 624.64-215.04-15.36-39.2704-30.72-78.4896-46.08-117.76-126.3104 44.3904-252.5696 88.7296-378.88 133.12l184.32-506.88z" fill="#2562AD" p-id="4057"></path></svg>