<?xml version="1.0" encoding="UTF-8" standalone="no"?>
<!DOCTYPE svg PUBLIC "-//W3C//DTD SVG 1.1//EN" "http://www.w3.org/Graphics/SVG/1.1/DTD/svg11.dtd">
<svg width="100%" height="100%" viewBox="0 0 22 22" version="1.1" xmlns="http://www.w3.org/2000/svg" xmlns:xlink="http://www.w3.org/1999/xlink" xml:space="preserve" xmlns:serif="http://www.serif.com/" style="fill-rule:evenodd;clip-rule:evenodd;stroke-linejoin:round;stroke-miterlimit:2;">
    <g transform="matrix(0.974026,0,0,0.974026,-31.5974,0.285714)">
        <path d="M39.158,21.267C36.015,21.267 33.467,18.662 33.467,15.449L33.467,13.852C33.467,13.222 33.966,12.711 34.583,12.711L35.587,12.711C36.203,12.711 36.703,13.222 36.703,13.852L36.703,15.449C36.703,16.772 37.864,18.187 39.158,18.187L40.72,18.187C41.337,18.187 41.836,18.697 41.836,19.327L41.836,20.126C41.836,20.756 41.337,21.267 40.72,21.267L39.158,21.267ZM54,15.449C54,18.662 51.452,21.267 48.309,21.267L46.746,21.267C46.13,21.267 45.63,20.756 45.63,20.126L45.63,19.099C45.63,18.469 46.13,17.959 46.746,17.959L48.309,17.959C49.603,17.959 50.987,16.772 50.987,15.449L50.987,13.852C50.987,13.222 51.487,12.711 52.103,12.711L52.884,12.711C53.5,12.711 54,13.222 54,13.852L54,15.449ZM33.467,6.551C33.467,3.338 36.015,0.733 39.158,0.733L40.72,0.733C41.337,0.733 41.836,1.244 41.836,1.874L41.836,2.901C41.836,3.531 41.337,4.041 40.72,4.041L39.158,4.041C37.864,4.041 36.48,5.228 36.48,6.551L36.48,8.148C36.48,8.778 35.98,9.289 35.364,9.289L34.583,9.289C33.966,9.289 33.467,8.778 33.467,8.148L33.467,6.551ZM48.309,0.733C51.452,0.733 54,3.338 54,6.551L54,8.148C54,8.778 53.5,9.289 52.884,9.289L51.88,9.289C51.263,9.289 50.764,8.778 50.764,8.148L50.764,6.551C50.764,5.228 49.603,3.813 48.309,3.813L46.746,3.813C46.13,3.813 45.63,3.303 45.63,2.673L45.63,1.874C45.63,1.244 46.13,0.733 46.746,0.733L48.309,0.733Z"/>
    </g>
</svg>
