<svg data-name="CloudConvert" xmlns="http://www.w3.org/2000/svg" viewBox="0 0 120 71.71">
	<path d="M101.93 53.47a13.79 13.79 0 0 0 .22-2.42 14.06 14.06 0 0 0-22.56-11.21 19.24 19.24 0 0 0-37.36-1.91 16.58 16.58 0 0 0-26.11 18.68 19.79 19.79 0 0 0 3.68 39.24h78.87a21.31 21.31 0 0 0 3.26-42.38z" fill="#f2f2f2" transform="translate(0 -24.15)"/>
	<path d="M75.72 63.32a15.38 15.38 0 0 1-4.45 13.36 16.14 16.14 0 0 1-20.09 2l4.34-4.23-16-2.23 2.23 15.59 4.86-4.68a22.5 22.5 0 0 0 29.1-2 21.8 21.8 0 0 0 6.46-16.56zm-27-8.91a16.14 16.14 0 0 1 20.09-2l-4.34 4.23 16 2.23-2.3-15.6L73.31 48a22.56 22.56 0 0 0-29.15 2 21.76 21.76 0 0 0-6.42 16.55l6.5 1.3a15.46 15.46 0 0 1 4.45-13.4z" fill="#b53836" transform="translate(0 -24.15)"/>
</svg>