<svg xmlns="http://www.w3.org/2000/svg" viewBox="0 0 48 48"><circle cx="24" cy="24" r="24" fill="#ea4c89"/><path d="M24 0C10.8 0 0 10.8 0 24s10.8 24 24 24 24-10.8 24-24S37.2 0 24 0zm15.9 11.1c3 3.6 4.6 8.1 4.6 12.8-.7-.1-7.4-1.5-14.3-.6-.2-.3-.3-.7-.4-1.1-.4-1-.9-2-1.4-3 7.6-3.1 11-7.6 11.5-8.1zM24 3.5c5.2 0 10 2 13.6 5.2-.4.5-3.5 4.7-10.7 7.4-3.4-6.2-7.1-11.2-7.7-12 1.6-.4 3.2-.6 4.8-.6zm-8.7 2c.5.7 4.2 5.8 7.6 11.8-9.6 2.6-18 2.5-18.9 2.5C5.3 13.5 9.6 8.2 15.3 5.5zM3.5 24v-.6c.9 0 10.8.2 21.1-2.9.6 1.1 1.1 2.3 1.7 3.5-.3.1-.5.2-.8.2C14.8 27.6 9.2 36.9 8.7 37.7 5.4 34 3.5 29.1 3.5 24zM24 44.5c-4.7 0-9.1-1.6-12.6-4.3.4-.8 4.5-8.8 16.1-12.8.1 0 .1 0 .1-.1 2.9 7.5 4.1 13.7 4.4 15.5-2.5 1.2-5.2 1.7-8 1.7zM35.4 41c-.2-1.2-1.3-7.2-4-14.6 6.4-1 12.1.7 12.8.9C43.3 33 40 37.9 35.4 41z" fill="#c32261"/></svg>