<svg xmlns="http://www.w3.org/2000/svg" viewBox="0 0 128 128" xml:space="preserve"><style>.st0{fill:#9eca57}.st1{fill:#03162c}.st5{fill:#fff}</style><path class="st0" d="M66.8 2.1c-.6-.5-1.4-.7-2.1-.7-.7 0-1.5.2-2.1.7C59 4.8 56.8 9 56.8 13.5c0 3.4 1.2 6.6 3.3 9.1 1-5.4 4.8-10 10.1-11.9.5-.2 1-.6 1.2-1.1.2-.5.2-1.1 0-1.6-.9-2.3-2.5-4.4-4.6-5.9z"/><path class="st1" d="M72.8 7.5C71.7 4.9 70 2.7 67.7 1c-1.8-1.3-4.2-1.3-5.9 0-4 2.9-6.3 7.6-6.3 12.5 0 4.3 1.7 8.3 4.8 11.2l1.1 1 .1-1.5c.4-5.5 4.1-10.3 9.3-12.2.9-.3 1.6-1 2-1.9.3-.8.3-1.7 0-2.6zm-2.6 3.2c-5.3 1.9-9.1 6.5-10.1 11.9-2.2-2.6-3.3-5.7-3.3-9.1 0-4.5 2.1-8.7 5.7-11.4.6-.5 1.4-.7 2.1-.7.7 0 1.5.2 2.1.7 2 1.5 3.6 3.6 4.6 5.9.2.5.2 1.1 0 1.6-.1.5-.5.9-1.1 1.1z"/><path class="st1" d="M58.1 16.9s-.1 0 0 0c-.5 0-.8-.4-.7-.8 1-9.3 6-12.3 6.2-12.4.3-.2.8-.1 1 .3.2.3.1.8-.3 1-.1 0-4.6 2.8-5.5 11.3 0 .4-.3.6-.7.6z"/><path class="st1" d="M59.5 16.9h-.2c-.4-.1-.6-.5-.4-.9 2.9-8.4 7.7-10.1 7.9-10.2.4-.1.8.1.9.5.1.4-.1.8-.4.9-.1 0-4.4 1.7-7 9.3-.2.2-.5.4-.8.4z"/><path class="st1" d="M61.3 16.9c-.1 0-.3 0-.4-.1-.3-.2-.4-.7-.2-1 4.1-6.6 7.7-7.2 7.9-7.2.4-.1.8.2.8.6.1.4-.2.8-.6.8-.1 0-3.1.6-6.8 6.6-.2.2-.5.3-.7.3z"/><path class="st0" d="M32 58.6c-.8-.2-1.7-.2-2.5-.2-3.3 0-6.5 1.2-9 3.3-1.2 1-1.9 2.5-1.9 4 0 5 1.9 9.7 5.3 13.2.5.5 1.2.5 1.7.1 4.6-3.7 7.3-9.1 7.3-15-.1-1.7-.4-3.6-.9-5.4z"/><path class="st1" d="m33.2 57.8-.1-.4-.4-.1c-1.1-.2-2.2-.3-3.2-.3-3.6 0-7.2 1.3-9.9 3.7-1.5 1.3-2.4 3.2-2.4 5.1 0 5.3 2 10.4 5.7 14.2.5.6 1.2.8 1.9.8.6 0 1.2-.2 1.7-.6 4.9-3.9 7.8-9.8 7.8-16.1-.1-2.1-.5-4.3-1.1-6.3zM23.8 79c-3.4-3.6-5.3-8.3-5.3-13.2 0-1.5.7-3 1.9-4 2.5-2.2 5.7-3.3 9-3.3.8 0 1.7.1 2.5.2.5 1.8.8 3.6.8 5.5 0 5.9-2.6 11.3-7.3 15-.4.3-1.1.3-1.6-.2z"/><path class="st0" d="M106.6 45.1c-2.2-.8-4.5-1.3-6.9-1.3-3.8 0-7.5 1.1-10.7 3.3 1.1 7.5 6.8 13.7 14.1 15.6.6.2 1.3-.1 1.8-.6 2.9-3.4 4.5-7.8 4.5-12.4v-.6c0-1.8-1.1-3.4-2.8-4z"/><path class="st1" d="M110.9 49.1c-.1-2.4-1.6-4.5-3.8-5.4-2.4-.9-4.8-1.4-7.4-1.4-4.3 0-8.4 1.3-11.9 3.8l-.3.2.1.4c1.1 8.3 7.2 15.2 15.2 17.3.3.1.5.1.8.1.9 0 1.8-.4 2.4-1.1 3.1-3.7 4.9-8.4 4.9-13.3v-.6zm-7.7 13.6c-7.4-1.9-13-8.1-14.1-15.6 3.2-2.1 6.9-3.3 10.7-3.3 2.4 0 4.7.4 6.9 1.3 1.7.7 2.8 2.3 2.9 4.1v.6c0 4.5-1.6 8.9-4.5 12.4-.6.5-1.3.7-1.9.5z"/><path class="st1" d="M102.3 58.8h-.1c-5.3-1.1-11.1-5.8-11.3-6-.3-.3-.4-.7-.1-1 .3-.3.7-.4 1-.1.1 0 5.8 4.7 10.7 5.7.4.1.6.5.6.9-.1.3-.4.5-.8.5zm1.4-4.8c-.1 0-.2 0-.3-.1-5.1-2.1-12.2-3.1-12.3-3.1-.4-.1-.7-.4-.6-.8.1-.4.4-.7.8-.6.3 0 7.3 1.1 12.6 3.2.4.2.6.6.4 1 0 .3-.3.4-.6.4zm1.1-5.1c-.1 0-.2 0-.3-.1-4-2-13.6 0-13.7.1-.4.1-.8-.2-.9-.6-.1-.4.2-.8.6-.9.4-.1 10.2-2.1 14.6.1.4.2.5.6.3 1-.1.3-.3.4-.6.4zM21.5 67c-.1 0-.2 0-.3-.1-.4-.2-.5-.6-.4-1 2.2-4.7 10.2-5.5 10.5-5.5.4 0 .8.3.8.7 0 .4-.3.8-.7.8-.1 0-7.5.8-9.3 4.7-.1.2-.4.4-.6.4zm1.6 5.5c-.1 0-.2 0-.3-.1-.4-.2-.6-.6-.4-1 2.5-6.2 5.9-7.5 7.8-8.3.3-.1.5-.2.7-.3.4-.2.8 0 1 .3.2.4 0 .8-.3 1-.2.1-.5.2-.8.4-1.7.7-4.7 1.9-7 7.5-.1.3-.4.5-.7.5zm2 3.8c-.1 0-.2 0-.3-.1-.4-.2-.5-.6-.4-1 3.4-7.6 6.8-9.2 7-9.3.4-.2.8 0 1 .4.2.4 0 .8-.4 1-.1 0-3.2 1.6-6.3 8.6-.1.2-.3.4-.6.4z"/><path d="M67.2 95.4c-3.3 1-6.5 1.5-9.4 1.5-5.2 0-9.9-1.5-13.9-4.5-.2-.1-.3-.2-.5-.4 1 1.4 2.2 2.7 3.4 3.9 4 4 9 7 14.5 8.6 4.5 1.3 9.4 1.7 14.1 1 .5-.1.9-.1 1.4-.2h.5c1.9 0 3.8.7 5.3 2 1.6 1.4 2.5 3.3 2.6 5.4v.6c0 .4-.1.9-.2 1.4-.7 3.9.2 7.7 2.5 11.2.5.7 1.3.9 1.8.7.7-.1 1.2-.7 1.3-1.4v-.1c1-5.4 4.6-10.1 9.6-12.4 1.8-.9 2-2.3 1.6-3.3-.4-.9-1.5-1.7-2.7-1.2-3.4 1.4-7.5.3-10.1-2.6v-.1c-.7-1-1.3-2-1.9-3-2.8-5.3-3.7-11.5-2.3-17.4-4 4.2-9.4 7.8-17.6 10.3z" style="fill:#20a039"/><path class="st0" d="M90.7 54.5c-.4-4-1.3-7.9-2.6-11.6-3.1-8.7-8.5-16.3-15.8-22-5.5-4.3-12.7-5.2-19-2.3-4.5 2.1-8.5 5.1-11.6 9v.1c-2.5 3.2-4.5 6.7-5.7 10.6v.1c-.3.8-.6 1.5-.9 2.3-2 5.8-3 11.8-3 18v2.7c0 7.2 1.9 16.7 6.8 23.8 1.6 2.3 3.5 4.3 5.7 6 6 4.5 13.5 5.4 22.1 2.8 10.3-3.1 16.1-8.1 19.5-13.9.2-.4.3-.8.5-1.1 1.2-2.6 2.1-5.4 2.8-8.1 1.4-5.4 1.8-10.9 1.2-16.4z"/><path class="st1" d="M102.9 108.7c-.7-1.6-2.5-2.8-4.6-2-2.3.9-5.1.5-7.2-1.1-.4-.3-.8-.6-1.1-1l-.1-.1c-.7-.9-1.2-1.8-1.8-2.8-.3-.5-.5-1-.7-1.5-.2-.5-.4-.9-.6-1.4-1.3-3.6-1.8-7.5-1.3-11.3.1-.5.1-1 .2-1.5.2-.9.4-1.7.7-2.6l1.1-2.6v-.1c.2-.4.3-.7.5-1.1 1.2-2.7 2.1-5.5 2.8-8.4 1.3-5.5 1.7-11.1 1.2-16.8-.4-3.7-1.1-7.3-2.3-10.9-.1-.4-.2-.7-.4-1.1-.6-1.6-1.2-3.1-1.9-4.6-3.3-7-8.2-13.2-14.4-18.1-5.9-4.6-13.7-5.6-20.5-2.5-4.8 2.2-8.9 5.4-12.2 9.5v.1c-.7.8-1.3 1.7-1.8 2.5-.7 1.1-1.4 2.2-2 3.4-.8 1.6-1.5 3.4-2.1 5.1-.3.7-.6 1.5-.8 2.2-2.1 6-3.1 12.2-3.1 18.6v2.7c0 10.3 2.9 18.4 6.7 24.1 1.1 2 2.3 4 3.7 5.9.1.1.2.3.3.4.4.6.9 1.3 1.4 1.9.9 1.2 1.9 2.3 2.9 3.3s2.1 2 3.3 2.9c1.1.8 2.2 1.6 3.3 2.3 2.3 1.4 4.8 2.6 7.4 3.4.3.1.7.2 1 .3.6.2 1.2.3 1.8.5 3.2.7 6.5 1 9.7.9 1.1 0 2.1-.1 3.1-.3.4 0 .7-.1 1.1-.2.1 0 .2 0 .3-.1.9 0 1.9.1 2.7.5.6.3 1.2.6 1.7 1 0 0 .1.1.2.1 1 .9 1.6 2 1.9 3.2.1.4.2.8.2 1.2v.5c0 .3-.1.7-.1 1.1-.8 4.3.2 8.5 2.7 12.2.6.9 1.6 1.4 2.6 1.4.2 0 .5 0 .7-.1 1.3-.3 2.2-1.3 2.5-2.6v-.1c.9-5 4.2-9.2 8.8-11.3 2.9-1 3.3-3.3 2.5-5zM86 106.6c.5.2 1.1.2 1.7.2.5 0 1.1-.1 1.6-.2.1.3.2.7.2 1.1 0 1.6-1.3 3-3 3-.2 0-.5 0-.7-.1.3-.7.4-1.5.4-2.3 0-.6-.1-1.2-.2-1.7zm.9-4.2c.5 1 1.1 1.9 1.8 2.8-.1 0-.3.1-.4.1h-.6c-.7 0-1.4-.2-2.1-.5-.2-.1-.3-.2-.5-.3.1-.1.1-.2.1-.4.1-.3.2-.5.3-.8.1-.5.2-1.1.2-1.6v-.6c.2-.1.3-.1.5-.2.2.5.4 1 .7 1.5zm-1.3-2.8c-.1 0-.1.1-.2.1-.2.1-.5.2-.7.3-.2.1-.5.1-.7.2-.3.1-.5.1-.8.1h-.7c-.2 0-.5 0-.7-.1-.3 0-.6-.1-.9-.2.5-.8.9-1.8 1.1-2.8 0-.3.1-.5.1-.8v-.9c0-.6-.1-1.1-.2-1.6.8-.7 1.6-1.5 2.1-2.5 0 2.9.6 5.6 1.6 8.2zm-11.1 2.8h-1.2c-.3 0-.5-.1-.8-.1-.3-.1-.5-.1-.7-.2-1.2-.4-2.3-1.1-3.1-2.1 1.3-.8 2.3-2 3-3.4.1-.2.2-.5.3-.7.1-.2.2-.5.2-.7.1-.3.1-.6.2-.8.7.5 1.5.8 2.4 1 .2.1.4.1.6.1h.1c.3 0 .5.1.8.1h.7c.6 0 1.2-.1 1.7-.2s1-.3 1.5-.6c.1 0 .2-.1.2-.1v1.7c-.1 1.1-.5 2.1-1.1 2.9-.1.2-.3.4-.4.6-.2.2-.3.4-.5.5-.7.7-1.6 1.2-2.5 1.5-.2.1-.5.1-.7.2-.2.3-.4.3-.7.3zm-6.6-3.6c-.2.1-.4.2-.6.4-.2.1-.4.2-.7.3-.1 0-.1.1-.2.1-.2.1-.5.1-.7.2-.2.1-.5.1-.8.1h-.6c-.9 0-1.8-.2-2.6-.5-.2-.1-.4-.2-.7-.3-.2-.1-.4-.3-.6-.4-.7-.5-1.3-1.1-1.7-1.8 2.7-.1 5.5-.6 8.5-1.5 1.3-.4 2.6-.8 3.8-1.3 0 .2 0 .3-.1.5s-.1.5-.2.7c-.1.2-.2.5-.3.7-.5 1.1-1.4 2.1-2.5 2.8zm12.2-5.5c-1 .6-2.1.9-3.4.9h-.8c-.3 0-.5-.1-.7-.1-.3-.1-.5-.1-.7-.2-.5-.2-.9-.4-1.4-.7 4.3-1.9 7.6-4.3 10.2-6.9 0 .2.1.4.1.6v.7c0 1.9-.8 3.7-2.1 4.9-.2.2-.4.3-.6.5-.1.1-.3.2-.6.3zM39 85.2c-5-7.2-6.9-16.7-6.9-23.8v-2.7c0-6.2 1-12.2 3-18 .3-.8.6-1.5.9-2.3v-.1c1.2-3.9 3.1-7.4 5.7-10.6v-.1c3.2-3.9 7.1-6.9 11.6-9 6.2-2.9 13.5-2 19 2.3 7.3 5.7 12.7 13.3 15.8 22 1.3 3.7 2.2 7.6 2.6 11.6.5 5.5.2 11-1.1 16.3-.7 2.8-1.6 5.5-2.8 8.1-.2.4-.3.7-.5 1.1-.7 1.2-1.5 2.3-2.4 3.4-.3.4-.7.8-1 1.2C80.2 87.5 76.7 90 72 92c-.5.2-.9.4-1.4.6-1.2.5-2.4.9-3.7 1.3-3.1.9-6 1.4-8.8 1.4-.7 0-1.5 0-2.2-.1-4.1-.3-7.9-1.7-11.2-4.2-.4-.3-.8-.6-1.2-1-.4-.3-.8-.7-1.1-1-1.3-1-2.4-2.4-3.4-3.8zm7.7 10.7c-1.2-1.2-2.4-2.5-3.4-3.9.2.1.3.3.5.4 3.4 2.5 7.2 4 11.3 4.4-.8 1.2-2.1 2.2-3.5 2.7-.1 0-.3.1-.4.1-1.6-1.1-3.1-2.3-4.5-3.7zm14.4 8.5c-3-.9-5.8-2.1-8.4-3.8 1.8-.8 3.2-2.1 4-3.8h.3c.7 1.3 1.7 2.4 2.9 3.2.2.1.4.3.7.4.2.1.4.2.7.3.9.4 2 .6 3.1.6h.2c-.5 1.4-1.5 2.5-2.7 3.3-.3 0-.5-.1-.8-.2zm2.6.6c1.2-1 2-2.4 2.4-3.9.4-.1.9-.2 1.3-.4 1.1 1.5 2.8 2.6 4.7 3 .3.1.5.1.8.1.3 0 .5.1.8.1h.6c-.1.2-.1.5-.2.7-.1.3-.2.5-.4.8 0 .1-.1.2-.2.3-3.2.2-6.6 0-9.8-.7zm13.5.2h-.5c-.4.1-.9.1-1.3.2l.3-.9c.1-.3.2-.6.2-.9.5-.1.9-.3 1.4-.5.3-.1.5-.2.8-.4.7-.4 1.4-1 1.9-1.6.6.2 1.2.4 1.8.4h1.4c.3 0 .7-.1 1-.1v.1c0 .6-.1 1.2-.3 1.7 0 .1 0 .1-.1.2l-.3.6v.2c-.1.2-.2.4-.3.5-.2.3-.4.6-.7.8-.3.3-.7.6-1.1.8-1.2-.6-2.7-1.1-4.2-1.1zm5.4 2.3c.1 0 .1-.1.2-.1.3-.2.6-.5.9-.8.2-.2.3-.3.4-.5.4.7.6 1.4.6 2.2 0 .6-.1 1.1-.3 1.6 0 .1-.1.1-.1.2-.3-1-.9-1.9-1.7-2.6zm17.4 5.1c-5 2.3-8.6 7-9.6 12.4v.1c-.1.7-.6 1.2-1.3 1.4-.6.1-1.3 0-1.8-.7-2.3-3.4-3.1-7.3-2.5-11.2.1-.5.1-1 .2-1.4v-.6c0-.2 0-.5-.1-.7l.1-.1c.2.1.4.1.6.2 0 2.1.2 8.6 2.2 11.3.1.2.4.3.6.3.2 0 .3 0 .4-.1.3-.2.4-.7.1-1-.5-.7-.9-1.7-1.2-2.8-.2-.8-.4-1.7-.5-2.6-.3-2-.3-4-.3-5 .1 0 .3 0 .4-.1.3 1.6 1.2 5 2.9 7.2.1.2.4.3.6.3.2 0 .3-.1.5-.2.3-.3.4-.7.1-1-1.6-2-2.4-5.6-2.6-6.8.1 0 .2-.1.2-.1.7 1 2.3 2.8 4.7 4.1.1.1.2.1.4.1.3 0 .5-.1.6-.4.2-.4.1-.8-.3-1-2.3-1.3-3.8-3.1-4.3-3.9.1-.1.2-.3.3-.4 1.1.7 3.4 1.8 6.3 1.8.9 0 1.8-.1 2.8-.3.4-.1.6-.5.5-.9-.1-.4-.5-.6-.9-.5-4 1-7.2-.8-8.3-1.5 0-.2.1-.5.1-.7v-.5c2.5 1.6 5.5 1.9 8.1.9 1.2-.5 2.3.3 2.7 1.2.4.9.2 2.3-1.7 3.2z"/><path d="M67.5 60.9c-.4-.1-.8-.1-1.2-.1-2.3 0-5.4.7-6.9 1.5-2.6 1.5-5.4 4.2-5.5 6.8 0 .8.2 1 .3 1 1.2.8 5.5-1.2 8.3-2.5.7-.3 1.4-.7 2.1-1 2.7-1.2 5.3-3.6 5.1-4.7-.1-.4-.9-.8-2.2-1z" style="fill:none"/><path d="M76.9 54.1c-1.8-1.2-4.2-1.8-6.9-1.8-2.3 0-4.8.4-7.6 1.3-11.6 3.6-17.2 9.9-17 19.4.1 5.2 2 9.2 4.8 10.2 1.9.7 4-.2 5.9-2.4 5.4-6.3 7.8-6.9 12-8.2l.5-.2c11.7-3.5 12.4-5.9 11.7-12.7-.2-2.2-1.4-4.2-3.4-5.6zm-11.7 14c-.6.3-1.3.6-2.1 1-3 1.4-6 2.8-8.1 2.8-.6 0-1.1-.1-1.6-.4-.7-.5-1-1.2-1-2.3.1-3.3 3.4-6.4 6.2-8 2.3-1.3 6.8-2 9.1-1.7 2.1.3 3.3 1.1 3.4 2.3.4 2.4-3.2 5.1-5.9 6.3z" style="fill:#e62539"/><path class="st1" d="M71.1 61.8c-.2-1.3-1.3-2-3.4-2.3-2.3-.3-6.8.3-9.1 1.7-2.8 1.6-6 4.7-6.2 8 0 1.1.3 1.9 1 2.3.4.3 1 .4 1.6.4 2.1 0 5.2-1.4 8.1-2.8.7-.3 1.4-.7 2.1-1 2.7-1.2 6.3-3.9 5.9-6.3zm-8.6 5.9c-2.8 1.3-7.1 3.3-8.3 2.5-.1-.1-.4-.2-.3-1 .1-2.6 2.8-5.3 5.5-6.8 1.5-.9 4.6-1.5 6.9-1.5.5 0 .9 0 1.2.1 1.3.2 2.1.6 2.2 1.1.2 1.2-2.4 3.5-5.1 4.7-.7.2-1.4.6-2.1.9z"/><path class="st1" d="M81.8 59.6c-.3-2.8-1.8-5.1-4.1-6.7-3.7-2.4-9.3-2.7-15.7-.7C49.8 55.9 43.7 62.9 44 73c.1 5.8 2.4 10.4 5.8 11.6.6.2 1.2.3 1.8.3 1.9 0 3.9-1.1 5.7-3.1 5.2-5.9 7.2-6.5 11.3-7.8l.5-.2c12-3.5 13.6-6.3 12.7-14.2zm-13.6 13c-4.3 1.3-6.6 1.9-12 8.2-1.9 2.2-4 3.1-5.9 2.4-2.8-1-4.7-5-4.8-10.2-.2-9.4 5.3-15.8 16.9-19.4 2.7-.8 5.3-1.3 7.6-1.3 2.7 0 5.1.6 6.9 1.8 2 1.3 3.2 3.3 3.5 5.6.7 6.7 0 9.2-11.7 12.7l-.5.2z"/><path class="st5" d="M50.5 25.4c-2-1.9-4.6-3-7.4-3H43c-2.8 0-5.5 1.2-7.4 3.2-2 2-3 4.7-3 7.5s1.2 5.5 3.2 7.4c2 2 4.7 3.1 7.5 3 2.8 0 5.5-1.2 7.4-3.2 4-4.2 3.9-10.9-.2-14.9z"/><path class="st1" d="M51.5 24.3c-4.7-4.6-12.4-4.6-17 .2-2.3 2.3-3.5 5.3-3.5 8.5s1.3 6.2 3.6 8.5c2.3 2.2 5.2 3.4 8.4 3.4h.1c3.2 0 6.2-1.3 8.5-3.6 4.7-4.7 4.6-12.3-.1-17zM35.7 40.5c-2-2-3.1-4.6-3.2-7.4 0-2.8 1-5.5 3-7.5s4.6-3.1 7.4-3.2h.1c2.8 0 5.4 1.1 7.4 3 4.2 4.1 4.2 10.8.2 15-2 2-4.6 3.1-7.4 3.2-2.9-.1-5.5-1.2-7.5-3.1z"/><path class="st5" d="M82.7 25.4c-2-1.9-4.6-3-7.4-3h-.1c-2.8 0-5.5 1.2-7.4 3.2-2 2-3 4.7-3 7.5s1.2 5.5 3.2 7.4c2 2 4.7 3.1 7.5 3 2.8 0 5.5-1.2 7.4-3.2 2-2 3-4.7 3-7.5-.1-2.8-1.2-5.5-3.2-7.4z"/><path class="st1" d="M83.7 24.3c-2.3-2.2-5.3-3.5-8.5-3.4-3.2 0-6.2 1.3-8.5 3.6-2.2 2.3-3.5 5.3-3.4 8.5s1.3 6.2 3.6 8.5c2.3 2.2 5.2 3.4 8.4 3.4h.1c3.2 0 6.2-1.3 8.5-3.6 2.2-2.3 3.5-5.3 3.4-8.5 0-3.2-1.3-6.2-3.6-8.5zM67.9 40.5c-2-2-3.1-4.6-3.2-7.4 0-2.8 1-5.5 3-7.5s4.6-3.1 7.4-3.2h.1c2.8 0 5.4 1.1 7.4 3 2 2 3.1 4.6 3.2 7.4 0 2.8-1 5.5-3 7.5s-4.6 3.1-7.4 3.2c-2.9 0-5.5-1.1-7.5-3z"/><circle class="st1" cx="46.3" cy="27.7" r="3.3"/><circle class="st1" cx="78.5" cy="27.7" r="3.3"/><ellipse transform="rotate(-85.145 56.141 47.214) scale(.99999)" class="st1" cx="56.1" cy="47.2" rx="2.3" ry="1.5"/><ellipse transform="rotate(-14.241 62.655 45.97)" class="st1" cx="62.6" cy="46" rx="1.5" ry="2.2"/></svg>