<svg version="1.1" id="图层_1" xmlns="http://www.w3.org/2000/svg" x="0" y="0" viewBox="0 0 200 200" style="enable-background:new 0 0 200 200" xml:space="preserve"><style>.st0{fill:#d8d8d8}.st1{fill:#979797}</style><path class="st0" d="m147.5 120.9 44.9-20.4V44.4l-44.9 20.5z"/><path class="st1" d="M150.5 67.2v48.6l38.9-17.7V49.5l-38.9 17.7m-3-2.3 44.9-20.4v56.1L147.5 121V64.9z"/><path d="m171.9 70 6.9-3.1c.5-.2.9-.3 1.1-.3l.5-1.7c-.4.3-.8.5-1.3.8l-14.7 6.7-1.3-1.6c-.1-.2-.2-.2-.4-.1s-.7.8-1.5 2.1c-.9 1.3-1.3 2.1-1.3 2.4s.2.3.7 0l8.6-3.9c.1 2.9.2 5.5.4 7.8l-6.7 3.1-1.1-1.4c-.2-.3-.4-.4-.6-.3-.2.1-.7.8-1.6 2.1-.9 1.3-1.3 2.1-1.3 2.3 0 .2.3.2.8 0l9.3-4.2c-1.3 8.4-5 15-11 19.7l.1.6c2-.9 3.2-.8 3.6.2.1.2.2.3.3.2.1-.1.3-.2.4-.3.1-.2.8-1 1.8-2.7 1.1-1.6 2.3-4.1 3.5-7.5 1.2-3.4 1.9-6.9 2-10.6l.6-.3c.4 5.3 1.5 8.8 3.4 10.5s5 2.3 9.5 1.9l.2-.7c-3.5-.5-6.1-1.7-7.7-3.6-1.6-2-2.5-5-2.8-9.2l8.2-3.7c.5-.2.9-.3 1.1-.3l.5-1.7c-.4.3-.8.5-1.3.8l-8.6 3.9c-.2-2.1-.3-4.7-.3-7.9z"/><path class="st0" d="m147.5 178.9 44.9-20.4v-56.1l-44.9 20.4z"/><path class="st1" d="M150.5 125.2v48.6l38.9-17.7v-48.6l-38.9 17.7m-3-2.4 44.9-20.4v56.1l-44.9 20.4v-56.1z"/><path d="m177.9 134.3 2.1-1c.4-.2.8-.3 1.1-.3l.5-1.8c-.4.3-.8.5-1.3.8l-2.4 1.1v-7.2c0-1.1 0-2.1.1-3-.7.5-1.5 1.1-2.2 1.8-.7.7-1.1 1.1-1.1 1.4 0 .2.4.4 1.1.5v7.5l-.8.3-.8-.9c-.2-.2-.3-.2-.4-.2-.1 0-.4.5-.9 1.5s-.8 1.5-.8 1.7c0 .2.1.2.4.1l3.2-1.5v9.5l-3.4.4-.2.9 5.3.8c1.1.2 2.1.4 3 .8.1.1.2.1.3 0s.2-.2.3-.4c.1-.2.6-1.4 1.4-3.6-1.3.4-2.9.7-4.5.9v-10.1zm-13 3-2.8-.1-.6-1.4c-.1-.3-.2-.3-.4-.3-.2.1-.6.5-1.3 1.4-.7.9-1.1 1.4-1.2 1.5-.1.1-.1.3-.1.3 0 .2.3.5 1.1.9v5.7c0 2 .1 3.3.2 3.8s.2 1 .4 1.3c.2.4.6.6 1.1.8.5.2.8.2 1 .2.1-.1.3-.3.4-.6.2-.8.4-1.4.7-1.8.3-.4.8-1 1.5-1.6v-.4c-.6.3-1.1.6-1.5.8-.4.2-.7.2-.9.1-.2-.1-.3-.4-.4-.9s-.1-1.5-.2-2.8c-.1-1.3-.1-3.2 0-5.5l3.1.1V150l-.1 1c0 .2 0 .3.1.3.1.1.4.1.9.1.6 0 .9 0 1-.1.1-.1.2-.2.2-.6v-12l2.5.1V150c0 1-.1 1.7-.2 2.1-.1.4-.4.7-1 1-.5.3-1.7.9-3.7 1.8-1.9.9-3.1 1.3-3.6 1.3-.4 0-.8-.4-1.1-1.2-.3-.7-.6-2.2-.8-4.4l-.6.4c0 .7.1 1.3.1 1.8 0 2.4-.3 3.9-1 4.7-.2.2-.3.4-.3.6 0 .2.3.5.8 1s1.1.6 1.7.5c.6-.2 1.8-.7 3.6-1.5 1.9-.8 3.4-1.6 4.6-2.3s2.1-1.2 2.5-1.7c.4-.4.6-.9.8-1.6.1-.6.2-1.8.2-3.4V139h1.7c.7 0 1.1.1 1.3.2l1-1.9c-.4.1-.8.2-1.2.2l-2.7-.1v-4.1c0-1.5 0-2.8.1-3.8-.7.6-1.4 1.1-1.9 1.6-.6.5-.9.8-1 1s-.2.3-.2.4c0 .2.3.4 1 .5v4.4l-2.5-.1v-7.7c0-.8 0-1.6.1-2.6-.6.4-1.2.9-2 1.6-.8.7-1.2 1.2-1.2 1.4s.3.5.9.7v6.6z"/><path class="st0" d="m101.1 142 44.9-20.4V65.5l-44.9 20.4z"/><path class="st1" d="M104.1 88.3v48.6l38.9-17.7V70.6l-38.9 17.7m-3-2.4L146 65.5v56.1L101.1 142V85.9z"/><path d="m126.1 95 8.4-3.8c.5-.2.9-.3 1.1-.3l.5-1.7c-.4.3-.8.5-1.3.8L116 98.6l-1.1-1.5c-.3-.4-.5-.5-.7-.4s-.8.8-1.7 2.3c-.9 1.4-1.4 2.3-1.4 2.5 0 .3.3.3.9 0l13.2-6c-.5.6-1.1 1.3-1.6 2s-.8 1.2-.8 1.3c0 .2.2.2.6.1.4-.1.7 0 1.1.2 1.5 1 3.1 2 4.8 2.8l-7.1 3.4c-1.5-1.3-2.6-2.5-3.3-3.6-2 2.6-3.1 4.1-3.1 4.5 0 .2.2.2.6 0 .4-.2.7-.2.9-.2.2 0 .5.1.9.4 2.8 1.9 6.3 4 10.6 6.3l-11 4.9c.9-2.7 1.9-5.1 3-7.1l-.4-.2c-1.9 2.3-3.3 4.3-4.4 5.9-1 1.6-1.5 3-1.5 4.1 0 .7.2 1.3.5 1.7.3.4.7.6 1 .4.2-.1.4-.3.5-.5.1-.2.2-.6.3-1.1.1-.5.2-1 .4-1.5 5.2-1.9 8.7-3.1 10.3-3.6 1.7-.5 2.6-.7 3-.7h.6c.1 0 .1-.1.2-.2s.2-.5.5-1.2.5-1.5.7-2.3c-.9.2-1.7.2-2.3-.1-.6-.3-1.7-1-3.4-2.2-1.6-1.2-2.8-2.1-3.6-2.8 4.1-1.3 6.7-1.9 7.7-1.9.1 0 .1 0 .2-.1.4-.2.9-1.3 1.5-3.5-.8.1-1.4.1-1.8 0-.4-.1-1-.6-1.7-1.3-.7-.8-1.3-1.4-1.7-2.1-.6-.6-1-1.4-1.3-2.3zm-.4-7.4c-1.6 1.5-2.6 2.6-3.2 3.5-.5.9-.8 1.6-.8 2.4 0 .7.2 1.2.5 1.5.3.3.7.4 1 .2.5-.2.8-.7.9-1.5.3-1.5.5-2.6.8-3.5.3-.8.6-1.6 1.1-2.3l-.3-.3z"/><path class="st0" d="m101.1 200 44.9-20.4v-56.1l-44.9 20.4z"/><path class="st1" d="M104.1 146.3v48.6l38.9-17.7v-48.6l-38.9 17.7m-3-2.4 44.9-20.4v56.1L101.1 200v-56.1z"/><path d="m119.2 152.7-2.2 1-.9-1.3c-.1-.2-.3-.3-.4-.2-.1.1-.5.5-1 1.3l-1.1 1.7c-.2.3-.3.6-.3.8 0 .2.1.3.4.1l5.6-2.5v4.4l-4.1 1.8-1.1-1.2c-.2-.2-.3-.2-.4-.2-.2.1-.7.7-1.4 1.8s-1.1 1.8-1.1 2c0 .2.2.3.5.1l11-5v2.9l-4.5 2.1-.4-.7c-.1-.2-.2-.3-.3-.2-.1.1-.5.4-1.1 1.1-.6.7-1 1.1-1.2 1.4-.2.3-.3.5-.3.6 0 .1.3.2.9.3v5l-.1 2.9c0 .4.1.6.2.7.1.1.4.1.9.1s.8 0 1-.1c.1-.1.2-.2.2-.5v-.6l11.8-5.4v.6c0 .2 0 .4.1.5.1.1.4.1.8.1s.8-.1 1.1-.3c.1 0 .2-.1.2-.2v-1c-.1-.6-.1-1.5-.1-2.5V158c0-1.1 0-2.2.1-3.2-1 .9-1.9 1.7-2.5 2.5l-4.6 2.1v-2.9l9.4-4.3c.5-.2.8-.3 1.1-.3l.6-1.6c-.4.3-.8.5-1.3.8l-6.1 2.8v-4.4l3.7-1.7c.5-.2.8-.3 1.1-.3l.6-1.7c-.4.3-.8.5-1.3.8l-4.1 1.9V146c0-.7 0-1.6.1-2.5-.8.6-1.5 1.1-2 1.6l-.9.9c-.1.1-.1.2-.1.3 0 .2.3.3.8.4v2.8l-4.9 2.2V150c0-1.2 0-2.4.1-3.4-2.1 1.6-3.2 2.6-3.2 2.8 0 .1.3.3.8.4v2.9zm7.2 16.1c-.9 1.2-1.5 2-1.8 2.6-.3.6-.5.9-.5 1.1 0 .1.1.2.2.1s.2-.1.3-.2c.1-.1.1-.1.2-.1.5-.2 1.2-.2 2.1.1 1.8.6 4.7.6 8.4 0l.2-.7c-3.8-.3-6.8-1.3-9.1-2.9zm-1.5-5.1v-3.4l4.8-2.2v3.4l-4.8 2.2zm0 4.5v-3.5l4.8-2.2v3.5l-4.8 2.2zm-3.5-15.5 4.9-2.2v4.4l-4.9 2.2v-4.4zm1.5 18.1c-2.8 2-4.8 3.5-6 4.5s-2.1 1.9-2.4 2.6c-.4.7-.6 1.3-.6 1.9 0 .6.1 1.1.3 1.4.2.3.5.4.7.3.3-.1.7-.6 1.1-1.5 1.7-3 4-5.9 6.9-8.7v-.5zm-.2-9.4v3.4l-4.8 2.2v-3.4l4.8-2.2zm0 4.3v3.5l-4.8 2.2v-3.5l4.8-2.2z"/><path class="st0" d="M54 121.6 98.9 142V85.9L54 65.5z"/><path class="st1" d="M57 70.6v48.6l38.9 17.7V88.3L57 70.6m-3-5.1 44.9 20.4V142L54 121.6V65.5z"/><path d="m81.6 100.4 4.5 2.1c.9.4 1.7.8 2.4 1.2-.6-3.3-1.1-5-1.5-5.1-.2-.1-.5.3-.7 1.2l-4.7-2.1v-1.3l1.6-.6c.2-.1.2-.2.2-.4s-.4-.9-1.1-2.2c-.7-1.3-1.2-2-1.3-2-.2-.1-.3.1-.3.5v5.7l-7.2-3.3v-1.7l1.6-.8c.2-.1.2-.2.2-.5 0-.2-.4-1-1.1-2.3-.7-1.3-1.2-1.9-1.3-2-.2-.1-.3.1-.3.5v20.9c0 .6-.1 1-.2 1.3l1.2 1.3c-.1-.5-.1-1.1-.1-1.7v-4.7l7.2 3.3v1.4c0 .6-.1 1-.2 1.3l1 1.2-5.8.1c-1.1 0-2.1-.1-2.8-.2s-1.6-.4-2.4-.8c-.8-.4-1.7-.8-2.6-1.4-.9-.6-1.6-.9-1.9-1.1-1.2-.6-1.8-.5-1.8.3s.2 1.5.6 2.3c.4.8.9 1.3 1.4 1.5.1.1.3.1.4.1 1.4.1 2.4.3 2.9.5.8.3 1.3.8 1.7 1.2.4.5.7 1.7 1.1 3.5l.5.1c0-.6-.1-1.2-.1-1.8 0-.7.1-1.2.4-1.5.3-.4.9-.7 2-.8l9-1.5-.1-.6h-2.4c-.1-.5-.1-1-.1-1.6v-2l4.7 2.1c.9.4 1.7.8 2.4 1.2-.6-3.1-1.1-4.7-1.4-4.8-.2-.1-.4.3-.7 1l-5-2.3v-4.7zm.3 20.8c-.6-1.8-1.2-3.3-1.8-4.4-.6-1.2-1.1-1.9-1.7-2.1-.6-.3-1-.3-1.5 0-.4.2-.6.5-.6.8 0 .3 0 .5.1.6.1.2.5.5 1.1 1 .6.5 1.2 1 1.7 1.6.5.6 1.3 1.5 2.2 2.7l.5-.2zm5.8-.3c-.8-2.1-1.4-3.7-2.1-5-.6-1.3-1.2-2-1.7-2.2-.5-.2-1-.2-1.5 0s-.7.5-.7.9c0 .1 0 .3.1.4l.6.6c1.6 1.3 3.2 3.2 4.8 5.6l.5-.3zm-15.4-18.4c-.3-.9-.7-1.8-1-2.5-.3-.8-.5-1.2-.6-1.4-.1-.1-.2-.2-.2-.3-.2-.1-.3.1-.3.5 0 .3-.1.5-.3.7-.2.2-.6.6-1.3 1.2-1.9 1.6-3.3 3.5-4.3 5.7l.3.5c2-2.2 4.6-3.6 7.7-4.4zm1.3-5.8 7.2 3.3v4.7l-7.2-3.3v-4.7zm-1.6-.2c-.8-2.5-1.6-4.7-2.5-6.8-.9-2-1.7-3.3-2.6-3.7-.5-.2-1.1-.3-1.6-.1-.5.2-.8.4-.8.8 0 .3.1.6.2.8.1.2.4.5.8.8 1.2 1.1 2.3 2.2 3.2 3.5 1 1.3 2 2.9 3 4.8l.3-.1z"/><path class="st0" d="m7.6 100.5 44.9 20.4v-56L7.6 44.4z"/><path class="st1" d="M10.6 49.5v48.6l38.9 17.7V67.2L10.6 49.5m-3-5.1 44.9 20.4v56.1L7.6 100.5V44.4z"/><path d="M39.6 80.9v-4.4l1.6-.6c.2-.1.3-.2.3-.4s-.3-1-1-2.3c-.7-1.3-1.2-2-1.4-2.1-.2-.1-.3.1-.3.6v8.9l-1.8-1c-.2-.1-.4-.1-.5.1-.1.1-.2.4-.3.8-.2.5-.2.8-.2 1 0 .2 0 .4.1.4.1.1.2.2.4.2l2.3 1.1v7.1l-1.8-.7c-.3-.1-.5-.2-.6 0-.1.1-.2.4-.4.9s-.3.9-.3 1.2c0 .2.1.3.3.4l1.2.5c.5.2 1 .4 1.6.7v7c0 .6-.1 1-.2 1.3l1.1 1.3c-.1-.5-.1-1.1-.1-1.7v-7.5l1.3.6 2 1c-.3-1.8-.5-3-.7-3.6-.1-.6-.3-.9-.4-1-.1-.1-.3.2-.7.8l-1.6-.7v-7.1l1.2.6 2 1c-.2-1.1-.3-2-.4-2.7-.1-.7-.2-1.1-.3-1.3 0-.2-.1-.2-.2-.3-.2-.1-.4.2-.7.7l-1.5-.8zm-11.7 9.6c-.3-2.6-.6-4-.9-4.1-.1 0-.2 0-.3.2-.1.2-.2.3-.3.3-.1 0-.4-.1-.9-.3-1.9-.8-3.2-1.2-4.1-1.2-.9 0-1.6.5-2.2 1.4-.6 1-1.2 2.7-1.9 5.3l.4.4c.8-1.9 1.7-3.1 2.6-3.8 1-.7 2.8-.4 5.4.8.7.2 1.4.6 2.2 1zm5.6 3.1v3.3c0 .5-.1.9-.2 1.4l1.1 1.1c-.1-.5-.1-1.1-.1-1.7V85.2c.1.1.4.4.9.7.5.3.9.7 1.3 1.2s.8 1 1.2 1.7l.3-.1c-.3-1.5-.6-2.6-.9-3.5-.3-.9-.7-1.4-1.1-1.6-.2-.1-.5-.1-.8-.1-.3 0-.6.2-.8.5v-9.3l1.3-.6c.2-.1.3-.2.3-.3 0-.3-.3-1.1-1-2.4-.6-1.3-1-2-1.2-2.1s-.3.2-.3.7v20.9l-3.9-1.8V76l1.2-.6c.6 0 1-.1 1-.2 0-.2-.4-1-1.3-2.4s-1.4-2.1-1.5-2.2c-.1-.1-.2.1-.2.6v17.4l-.8.1c-.1.1-.2.2-.2.3 0 .1.2.7.5 1.6.3.9.6 1.6.8 1.9l1-.5 3.4 1.6zM28.2 84c-.2-1.1-.4-2.1-.6-2.9-.2-.8-.4-1.2-.5-1.3-.1 0-.3.1-.5.5L21 77.8l-2.7-1.3c-.2-.1-.3-.1-.4.1-.1.1-.2.5-.4 1-.1.5-.2.9-.2 1.3 0 .2.1.3.3.4l1.1.5c.8.3 1.6.7 2.5 1.1l4.7 2.1c.8.3 1.6.6 2.3 1zm-2.9-17c-1.3-.5-2.2-1-2.8-1.3-.6-.3-1.1-.6-1.3-.9-.2-.3-.4-.6-.5-1.1-.1-.5-.3-.7-.5-.8-.2-.1-.6 0-1 .2-.5.2-.7.7-.9 1.3-.1.7-.2 1.8-.2 3.4 0 1.6.1 2.7.2 3.5.1.7.4 1.3.8 1.7.4.4 1.1.8 2 1.2l4 1.8c1.2.6 2.2 1 3 1.5-.1-1.2-.3-2.2-.5-3-.2-.8-.3-1.3-.5-1.3-.2-.1-.4.2-.6.8L21 71.4c-.4-.2-.6-.4-.7-.7-.1-.3-.1-.6-.1-.9 0-1.5.1-2.4.2-2.7.1-.3.5-.4 1.2-.3.7 0 1.9.3 3.7.8V67z"/><path class="st0" d="M54 179.6 98.9 200v-56.1L54 123.5z"/><path class="st1" d="M57 128.6v48.6l38.9 17.7v-48.6L57 128.6m-3-5.1 44.9 20.4V200L54 179.6v-56.1z"/><path d="M78.8 163.7v8.2c0 .5-.1.9-.2 1.2l1.2 1.1c-.1-.5-.1-1-.1-1.6v-15.1l1.5-.9c.2-.1.3-.2.3-.3 0-.2-.4-1-1.1-2.3-.7-1.3-1.2-2-1.3-2-.2-.1-.2.1-.2.6v8l-4.4-2v-7.5l1.7-.8c.2-.1.4-.2.4-.5 0-.2-.4-1-1.2-2.4-.8-1.4-1.3-2.1-1.5-2.2-.2-.1-.2.1-.2.6v12.3l-6.8-3.1c-.7-.3-1.2-.4-1.5-.4-.3.1-.6.6-1 1.4-.4.9-.6 1.4-.6 1.7 0 .2.1.3.4.5.5.3.9.7 1.2 1 .3.4.5.9.8 1.7s.5 1.9.8 3.4l.5.1c-.3-2.4-.5-3.9-.5-4.6 0-.7.1-1.1.3-1.2.2-.1.5-.1.9.1l5.5 2.5V174c0 .5-.1.9-.2 1.2l1.3 1.1c-.1-.5-.1-1-.1-1.6v-13.1l4.1 2.1zm6 2.8c1 .7 1.7 1.4 2.2 2.1.5.6 1.1 1.5 1.8 2.5l.4-.1c-.4-1.9-.7-3.5-1.1-4.6-.4-1.1-.9-1.8-1.4-2-.3-.1-.6-.1-1 0s-.7.3-.9.5v-9.7l1.3-.5c.2-.1.3-.2.3-.3s-.2-.5-.6-1.3c-.4-.8-.8-1.5-1.2-2.3-.4-.7-.7-1.2-.8-1.2-.2-.1-.3.1-.3.5 0 .7-.1 1.3-.2 1.6-.1.3-.3.7-.6 1-.3.4-.8.8-1.6 1.4l.2.5c1.1-.1 2-.1 2.9.1v20.1c-1.3-.7-2.3-.9-3.1-.6-.8.3-1.2 1-1.2 2.1 0 1.2.4 2 1.1 2.3.4.2.9-.1 1.3-.8.7-1.1 2.1-1.4 4.1-1v-.6c-.6-.4-1.1-.7-1.3-.9l-.3-8.8z"/><path class="st0" d="m7.6 158.5 44.9 20.4v-56.1L7.6 102.4z"/><path class="st1" d="M10.6 107.5v48.6l38.9 17.7v-48.6l-38.9-17.7m-3-5.1 44.9 20.4v56.1L7.6 158.5v-56.1z"/><path d="M38.3 154.9v-10.1c0 .2.3.5.8 1 .6.7 1.1 1.3 1.6 1.9.5.6 1.1 1.5 2 2.9l.4-.2c-.4-2-.8-3.6-1.3-4.8-.4-1.2-.9-1.9-1.5-2.2-.2-.1-.5-.1-1 0-.4.1-.8.4-1 .8v-9.9l1-.3c.2 0 .2-.1.2-.3 0-.2-.1-.5-.3-1.1-.2-.6-.5-1.3-.9-2.1s-.6-1.3-.7-1.5c-.1-.2-.2-.2-.3-.3-.2-.1-.4.1-.5.5-.1 1-.4 1.7-.7 2.1-.3.4-1.1 1-2.2 1.6l.3.7c1.1 0 2.3.1 3.5.3v20.4c-.3-.2-.6-.4-.9-.5-1.1-.5-1.9-.6-2.6-.3-.7.3-1 .8-1 1.7 0 .6.1 1 .3 1.4.2.4.5.7.9.8.3.2.8 0 1.2-.4 1.1-.9 2.5-1.2 4.3-.7v-.6c-.8-.3-1.2-.6-1.6-.8zm-6.6-6.1v-5.5l2.3 1.1c1.1.5 2 .9 2.8 1.3-.3-1.6-.6-2.8-.8-3.6-.2-.8-.4-1.2-.5-1.3-.1-.1-.4.2-.7.9l-3.2-1.4v-5.8l1.2-.4c.1-.1.2-.2.2-.4s-.2-.7-.5-1.5-.6-1.5-.8-1.9c-.2-.4-.3-.6-.5-.7-.3-.1-.6.2-.9.9l-9.6-4.3c-.8-.4-1.4-.6-1.7-.8l-.9-.4c-.3-.1-.5.1-.8.8-.3.6-.4 1.1-.4 1.5 0 .2.1.3.3.4l2.4 1.1V144l-1.5-.7c-.2-.1-.4-.1-.6.1-.1.2-.3.5-.4 1-.2.5-.2 1-.2 1.3 0 .2.1.3.3.3.8.3 1.8.7 3 1.2l10.2 4.6c.8.3 1.5.7 2.3 1.1-.2-1.7-.6-3.1-1-4.1zm-.8-5.9v6l-4.7-2.2v-6l4.7 2.2zm-5.6 3.5-4.7-2.1v-6l4.7 2.1v6zm.8-14.8 4.7 2.2v6.2l-4.7-2.2v-6.2zm-5.5-2.6 4.7 2.1v6.2l-4.7-2.1V129z"/><path class="st0" d="M100 41.4 54.6 20.7 100 0l45.4 20.7z"/><path class="st1" d="M139.4 20.7 100 38.6 60.6 20.7 100 2.8l39.4 17.9m6 0L100 0 54.6 20.7 100 41.4l45.4-20.7z"/><path d="M102.9 25.1 91 19.7l.1-.6c0-.1 0-.2-.2-.3-.1-.1-.8-.1-2-.3-1.2-.1-1.9-.1-2.1-.1-.2.1-.1.3.2.7L80.9 22l-.8-.3.4-1.2c.1-.2 0-.3-.1-.4-.1-.1-1-.1-2.5 0-1.5 0-2.4.1-2.5.1-.1.1 0 .2.4.4l23.8 10.8c.4.2.7.4.8.5l1.7-.4c-.4-.1-.9-.3-1.3-.5l-3.2-1.5 6-2.7c.7-.3 1.5-.7 2.4-1-1.4-.4-2.4-.6-3.1-.7zm13.1-5.9 3.4 1.5c.3.2.6.3.8.5l1.8-.2c-.6-.2-1.1-.4-1.5-.6l-13.9-6.3.5-.9c.1-.1 0-.2-.1-.3-.1-.1-.6-.1-1.5-.2l-2.1-.1h-1c-.2.1-.1.2.2.4.3.2.4.4.4.5 0 .1-.1.3-.3.5l-1 1.2-2.2-1 .1-.7c0-.1-.1-.2-.2-.2-.1-.1-.9-.1-2.2-.2-1.3-.1-2.1-.1-2.3 0-.2.1-.1.4.5.9-.6.3-1.4.9-2.5 1.6-1.1.7-1.7 1.2-1.9 1.4-.2.3-.3.5-.3.8 0 .3.3.6.6 1 .4.4.6.6.8.7.1.1.4.1.7 0 .6-.1 1.2-.2 1.6-.2.5 0 1.2.1 2.2.2-.5.2-.7.5-.8.7-.1.2 0 .3.2.4.2.1.5.1.9.1s1 0 1.8-.1c.8 0 1.5-.1 2-.1 0 1.2 1.1 2.8 3.2 4.6l.7-.1c-1.4-1.7-1.9-3.2-1.5-4.5 1.2.1 2.5.2 4.1.5l.4-.4c-1.5-.3-2.9-.6-4.2-.9.3-.6.6-1.2 1-1.8l5.2 2.4c-1.4 1.1-2.3 2.2-2.7 3.4-.4 1.2-.4 2.8 0 4.7h1c0-2 .5-3.7 1.4-4.9 1.2-1.2 3.3-2.6 6.7-4.3zm-16.5 5.2 2.6 1.2-6.6 3-2.6-1.2 6.6-3zm-1.9-5.2c-1.3-.4-2.2-.7-2.6-.9s-.6-.4-.6-.6c.1-.2.4-.5 1.1-1.1.7-.5 1.7-1.2 3.1-1.9l2.3 1v.3c0 .1 0 .2.1.2s.5.1 1.3.1h2.7c-.1-.3-.2-.5-.2-.6 0-.1.1-.3.2-.4l.8-.9 7.7 3.5c-1.3.7-2.2 1.3-3 1.8l-4.9-2.2-.1-.6c0-.1-.1-.2-.2-.2s-.4-.1-1-.1-1.2 0-1.7-.1c-.5 0-.9 0-1 .1-.1.1-.1.1 0 .2.2.1.2.2.2.3 0 .1-.1.4-.3.8-.2.4-.4.8-.5 1.3-1.5-.1-2.6-.1-3.4 0zm-3 3 2.6 1.2-6.6 3-2.6-1.2 6.6-3zm-11.3.8 6.6-3 2.5 1.2-6.6 3-2.5-1.2z"/><path class="st0" d="M53.1 62.8 7.6 42.1l45.5-20.7 45.4 20.7z"/><path class="st1" d="M92.4 42.1 53.1 60 13.7 42.1l39.4-17.9 39.3 17.9m6.1 0L53.1 21.4 7.6 42.1 53 62.8l45.5-20.7z"/><path d="M48.2 42.5s-.3.2-.7.5c-2.1 1.5-3 2.9-2.5 4.2.4 1.3 1.9 2.8 4.4 4.6l.8-.2c-2-1.9-2.9-3.5-2.5-4.9.3-1.3 2-2.8 5.1-4.3l6.5 2.9c-2.9 1.4-4.8 2.7-5.6 3.7-.8 1-1 2.5-.7 4.3h.8c.1-.9.3-1.5.6-2s.7-.9 1.3-1.4c.6-.5 1.2-.9 1.9-1.4.7-.5 1.7-1 2.8-1.5 1.2-.5 2.3-1 3.4-1.5-1.1-.3-2.7-.6-4.6-.9L45 38.1l.2-1.4c0-.2 0-.3-.2-.3-.3-.1-1.1-.2-2.6-.2s-2.3 0-2.5.1c-.2.1 0 .2.4.4l11.9 5.4-2.1-.6c-.7-.2-1.2-.3-1.4-.3h-.4c-.1 0 0 .2.3.5-2.6.6-5.5.9-8.6.7s-6.2-.6-9.1-1.6l-.7.3c1 .4 1.7.8 2 1.1.3.3.3.6 0 .9-.1.1-.1.2.1.2.3.1 1.8.2 4.4.3 2.6.1 4.8 0 6.5-.3 1.7.1 3.4-.3 5-.8zm20.1-3.6-9.7-4.4.4-1c0-.1 0-.2-.1-.2-.2-.1-1-.2-2.5-.4-1.4-.2-2.2-.2-2.5-.1-.2.1-.1.4.3 1l-4.4 2c-.5.2-1.1.5-1.7.7l-.9.4c-.1 0-.2.1-.2.2s0 .2.1.3c.1.2.3.4.7.6.4.3.6.4.7.5h.4L50 38l10.7 4.9-.2.1c-.2.1-.3.2-.3.3s.2.3.6.7l.7.7c.1.1.3 0 .4-.1.7-.4 1.6-.8 2.6-1.3l5.8-2.6c.8-.3 1.6-.7 2.4-1-1.8-.4-3.3-.7-4.4-.8zm-13.5-3.1 2.6-1.2 10.7 4.9-2.6 1.2-10.7-4.9zm-3.9 1.8 2.9-1.3 10.7 4.9-2.9 1.3-10.7-4.9z"/><path class="st0" d="m146.9 62.8-45.4-20.7 45.4-20.7 45.5 20.7z"/><path class="st1" d="M186.3 42.1 146.9 60l-39.4-17.9 39.4-17.9 39.4 17.9m6.1 0L147 21.4l-45.4 20.7L147 62.8l45.4-20.7z"/><path d="m162.9 39.8-10.1-4.6.5-.8c.1-.2.1-.3 0-.4-.2-.1-.8-.2-1.9-.3-1.1-.1-1.9-.2-2.2-.2-.3 0-.6 0-.7.1-.2.1-.1.4.2 1l-16.8 7.7-2.5 1.1c-.2.1-.3.2-.3.2l.2.4c.2.2.4.5.6.7.3.2.4.4.5.4.1 0 .3 0 .5-.1l3.7-1.7 10.7 4.9-3 1.4c-.2.1-.3.2-.3.3 0 .1.2.4.6.8.3.4.5.6.7.7.1 0 .2 0 .4-.1.8-.4 1.7-.9 2.6-1.3l18.8-8.6c.8-.3 1.6-.7 2.4-1-1.7-.3-3.2-.5-4.6-.6zm-18.7-.8 7.7-3.5 10.7 4.9-7.7 3.5-10.7-4.9zm-8.6 3.9 7.8-3.6 10.7 4.9-7.8 3.6-10.7-4.9z"/><path class="st0" d="M100 84.1 54.6 63.4 100 42.8l45.4 20.6z"/><path class="st1" d="m139.4 63.4-39.4 18-39.4-18L100 45.5l39.4 17.9m6 0L100 42.8 54.6 63.4 100 84.1l45.4-20.7z"/><path d="M100.8 65.2c-2.5 1.3-3.9 2.6-4.4 3.8-.5 1.2-.1 2.8 1 4.7h.8c-.2-1.4-.1-2.6.4-3.6s1.4-1.9 2.8-2.8c1.4-.9 3.6-2 6.7-3.4s6.1-2.7 9.2-4.1c-1.4-.3-2.8-.5-4.4-.7l-8.1-3.7.5-.8c.1-.1 0-.2-.1-.3-.1-.1-1-.2-2.5-.3-1.5-.2-2.3-.2-2.5-.1-.2.1-.1.4.3.9l-18.3 8.4c-1 .4-1.6.8-1.8 1.1-.2.3-.1.7.4 1.3.5.6.8 1 1 1.1.2.1.5.1.8 0 .9-.2 1.7-.3 2.5-.3s2.2.2 4.1.6l.5-.3c-2.4-.7-3.8-1.1-4.3-1.3-.5-.2-.8-.4-.8-.5-.1-.1 0-.2.3-.4l6.9-3.2 9 3.9zm-3.3-6.6 8.7 4c-1.8.8-3.3 1.6-4.6 2.2l-8.9-4 4.8-2.2zm9.5 3.5-8.7-3.9 5.3-2.4 8.7 3.9c-2 .9-3.8 1.8-5.3 2.4z"/></svg>