<?xml version="1.0" standalone="no"?><!DOCTYPE svg PUBLIC "-//W3C//DTD SVG 1.1//EN" "http://www.w3.org/Graphics/SVG/1.1/DTD/svg11.dtd"><svg class="icon" width="128px" height="128.00px" viewBox="0 0 1024 1024" version="1.1" xmlns="http://www.w3.org/2000/svg"><path d="M512.6 63.3C265.2 63.3 63.9 264.6 63.9 512s201.3 448.7 448.7 448.7c30.8 0 60.3-3.2 88.5-9-10.9-5.1-12.8-46.8-1.3-69.9 12.2-26.3 51.9-93 12.8-115.4s-28.2-32.1-51.9-58.3c-23.7-26.3-14.1-30.1-16-37.2-5.1-21.8 23.1-57.1 25-60.3 1.3-3.8 1.3-17.3 0-21.2 0-5.1-17.3-14.1-21.8-14.7-3.8 0-7.1 7.1-12.8 8.3s-32.1-16-37.8-21.2c-5.8-5.1-9-14.7-17.3-21.8-8.3-8.3-9-1.9-21.2-7.1-12.2-5.1-51.3-19.9-82.1-30.8-30.8-12.2-33.3-30.1-33.3-42.3-1.3-12.8-19.2-30.1-26.9-42.9-9-12.8-10.3-30.1-12.8-26.3-2.6 3.8 16 50 12.8 51.9-3.2 1.3-10.3-12.8-19.2-24.4-9-12.2 9-5.8-19.2-60.9s9-83.3 10.9-112.2c1.9-28.8 24.4 10.9 12.2-8.3-12.2-19.2 0-57.1-9-71.2-8.3-14.1-56.4 16-56.4 16 1.3-14.1 44.2-37.2 74.4-59s50-3.8 74.4 3.2c25 8.3 26.3 5.8 17.9-3.2-8.3-8.3 3.8-10.9 23.1-8.3 17.9 3.2 24.4 26.3 53.2 23.1 30.1-1.9 3.2 5.8 7.1 14.1 3.8 8.3-3.8 7.1-24.4 19.2-19.2 12.8 1.3 14.1 35.3 39.1s24.4-16 19.9-35.3 25-3.8 25-3.8c21.2 14.1 17.3 1.3 32.1 5.1s58.3 41 58.3 41c-53.2 28.2-19.9 30.8-10.9 37.8 9 7.1-17.9 19.2-17.9 19.2-10.9-10.9-12.2 1.3-19.2 5.1-7.1 3.8-1.3 14.1-1.3 14.1-35.9 5.8-28.2 44.2-26.9 53.2 0 9-24.4 23.1-30.1 37.2-5.8 12.8 16 41 3.8 42.3-12.2 1.9-21.8-42.3-84-26.3-19.2 5.1-60.3 26.3-37.8 69.2 23.1 44.2 59-12.2 71.2-5.8 12.2 6.4-3.8 34-1.3 35.3 2.6 1.3 34 1.3 35.9 39.1 1.9 37.8 49.4 34 59 35.3 10.9 0 44.9-28.2 49.4-28.8 3.8-1.9 24.4-17.9 66 5.8 42.3 23.1 62.8 19.9 76.9 30.1 14.1 10.3 5.1 30.1 17.9 37.2 12.8 7.1 68-1.9 82.1 19.9 14.1 21.8-56.4 134-78.2 146.2-21.8 12.2-30.8 41-53.8 59-23.1 17.9-51.9 41-81.4 58.3-26.3 14.7-30.1 42.3-42.3 51.3C810.5 906.5 960.5 727 960.5 512.9c0-247.4-201.3-448.7-448.7-448.7l0.8-0.9z m105.2 420.5c-5.8 1.9-17.9 14.1-50-5.1-30.8-19.2-51.9-14.7-55.1-17.9 0 0-3.2-7.1 10.9-9 28.2-3.2 62.8 26.3 71.2 26.3 8.3 0 12.2-8.3 26.3-3.2 14 5 3.1 8.3-3.3 8.9zM470.3 108.1c-3.2-1.9 1.9-5.1 5.8-9 1.9-1.9 1.3-7.1 3.2-9 7.1-7.1 39.1-16 33.3 1.9-7 17.4-37.1 19.3-42.3 16.1z m78.9 57.1c-12.2-1.3-37.2-3.2-33.3-9 19.2-17.9-5.8-24.4-21.8-24.4-16-1.3-21.8-10.3-14.1-12.2 7.7-1.9 39.1 1.3 44.9 5.1 5.1 3.8 33.3 16 35.3 24.4 1.2 8.4-0.1 16.1-11 16.1z m94.2-3.2c-9 5.8-53.2-26.3-60.9-33.3-35.9-30.8-57.1-19.9-64.1-26.3-7.1-6.4-5.1-12.2 7.1-21.8s44.2 3.8 64.1 5.8c19.2 1.9 42.3 17.3 42.3 35.3 1.3 16 21.2 32.1 12.2 40.4h-0.7z" /></svg>