<?xml version="1.0" encoding="utf-8"?>
<!-- Generator: Adobe Illustrator 24.3.0, SVG Export Plug-In . SVG Version: 6.00 Build 0)  -->
<svg version="1.1" id="图层_1" xmlns="http://www.w3.org/2000/svg" xmlns:xlink="http://www.w3.org/1999/xlink" x="0px" y="0px"
	 viewBox="0 0 64 64" style="enable-background:new 0 0 64 64;" xml:space="preserve">
<style type="text/css">
	.st0{fill:#AC94FA;}
</style>
<path class="st0" d="M32,60.8c-0.3,0-0.7,0-1-0.1C13.9,55.8,2,40,2,22.2c0-2.3,0.2-4.6,0.6-6.9c0.3-1.8,1.8-3.1,3.6-3.1
	C14.7,12,23,9.1,29.7,3.9c1.3-1,3.2-1,4.6,0c6.7,5.2,15,8.1,23.5,8.3c1.8,0,3.3,1.3,3.6,3.1c0.4,2.3,0.6,4.6,0.6,6.9
	C62,40,50.1,55.8,33,60.7C32.7,60.8,32.3,60.8,32,60.8z M9.6,19.5c-0.1,0.9-0.1,1.8-0.1,2.7c0,14.1,9.2,26.6,22.5,30.9
	c13.3-4.3,22.5-16.9,22.5-30.9c0-0.9,0-1.8-0.1-2.7c-8-0.7-15.8-3.5-22.4-8C25.4,16,17.6,18.8,9.6,19.5z"/>
</svg>
