<svg xmlns="http://www.w3.org/2000/svg" viewBox="0 0 48 48"><path fill="none" d="M0 .009h47.991v47.99H.001z"/><g transform="rotate(-135 22.795 21.103)"><linearGradient id="a" gradientUnits="userSpaceOnUse" x1="19.963" y1="-14.103" x2="21.169" y2="-14.103" gradientTransform="scale(37.9927 -37.9927) rotate(-45 25.942 15.865)"><stop offset="0" stop-color="#3967ff"/><stop offset="1" stop-color="#b500fe"/></linearGradient><path d="M19.9-4.1c13.3 0 24 10.7 24 24s-10.7 24-24 24-24-10.7-24-24c0-13.2 10.7-24 24-24zm0 8.6c-8.5 0-15.4 6.9-15.4 15.4s6.9 15.4 15.4 15.4 15.4-6.9 15.4-15.4S28.4 4.5 19.9 4.5z" fill-rule="evenodd" clip-rule="evenodd" fill="url(#a)"/><path d="M19.9 10.9l14.2 28.4c-4.1 3-9.1 4.7-14.2 4.6-5.1 0-10.1-1.6-14.2-4.6l14.2-28.4z" fill-rule="evenodd" clip-rule="evenodd"/><linearGradient id="b" gradientUnits="userSpaceOnUse" x1="19.935" y1="-14.073" x2="21.14" y2="-14.073" gradientTransform="scale(-27.407 27.407) rotate(-45 27.07 18.102)"><stop offset="0" stop-color="#3967ff"/><stop offset="1" stop-color="#b500fe"/></linearGradient><path d="M19.9 10.9l14.2 28.4c-4.1 3-9.1 4.7-14.2 4.6-5.1 0-10.1-1.6-14.2-4.6l14.2-28.4z" fill-rule="evenodd" clip-rule="evenodd" fill="url(#b)"/><linearGradient id="c" gradientUnits="userSpaceOnUse" x1="19.89" y1="-14.028" x2="21.095" y2="-14.028" gradientTransform="scale(-19.248 19.248) rotate(-45 27.663 18.783)"><stop offset="0" stop-color="#1c98ff"/><stop offset="1" stop-color="#574ae4"/></linearGradient><path d="M20 22.8c1.8 0 3.6-.7 4.9-2l9.2 18.4C30 42.3 25 44 19.9 44S9.8 42.4 5.7 39.4L15 20.8c1.3 1.3 3.1 2.1 5 2z" fill-rule="evenodd" clip-rule="evenodd" fill="url(#c)"/><linearGradient id="d" gradientUnits="userSpaceOnUse" x1="20.16" y1="-14.023" x2="21.366" y2="-14.023" gradientTransform="scale(-7.8897 7.8897) rotate(-85.79 16.953 6.171)"><stop offset="0" stop-color="#ef478f"/><stop offset="1" stop-color="#ae48c0"/></linearGradient><circle cx="20" cy="15.6" r="4.2" fill-rule="evenodd" clip-rule="evenodd" fill="url(#d)"/><linearGradient id="e" gradientUnits="userSpaceOnUse" x1="20.16" y1="-14.023" x2="21.366" y2="-14.023" gradientTransform="scale(-7.8897 7.8897) rotate(-85.79 16.953 6.171)"><stop offset="0" stop-color="#ff4695"/><stop offset="1" stop-color="#cc34e7"/></linearGradient><circle cx="20" cy="15.6" r="4.2" fill-rule="evenodd" clip-rule="evenodd" fill="url(#e)"/></g></svg>