<svg version="1.1" id="图层_1" xmlns="http://www.w3.org/2000/svg" x="0" y="0" viewBox="0 0 128 128" style="enable-background:new 0 0 128 128" xml:space="preserve"><style>.st1{fill:#fff}.st2{fill:#1e1e1e}.st3{fill:none}</style><path d="M113.3 69.3c.8 1.1 1.2 2.4 1.1 3.7-1.1 26.8-23.2 48.2-50.3 48.2S14.9 99.8 13.8 73c-.1-1.3.3-2.6 1.1-3.7l45-59.7c2.3-3 6.8-3 9.1 0l44.3 59.7z" style="fill:#00f9e5"/><path class="st1" d="M46.5 54c-.1 0-.1-.1 0 0-.5-.5-1-.8-1.4-1.2-.2-.2-.5-.4-.7-.6-.2-.2-.5-.3-.7-.5-3.7-2.3-7.9-3.5-12.2-3.5-5.4 0-10.7 1.9-14.9 5.6l-.3.3 36.5 23.5c2.4-7.4.9-15.9-4.7-22.1-.6-.5-1.1-1-1.6-1.5zM14.6 85.7c4 4.5 9.6 7.1 15.6 7.4 6 .3 11.8-1.8 16.2-5.8 1.8-1.6 3.2-3.5 4.4-5.4L13 57.6C7 66 7.4 77.8 14.6 85.7z"/><path class="st2" d="M22.4 60.8c-5.4 4.9-5.8 13.2-.9 18.5 4.9 5.4 13.2 5.8 18.5.9 1.8-1.6 3-3.6 3.7-5.7L22.4 60.8z"/><path class="st3" d="M14.6 85.7c4 4.5 9.6 7.1 15.6 7.4 6 .3 11.8-1.8 16.2-5.8 1.8-1.6 3.2-3.5 4.4-5.4L13 57.6C7 66 7.4 77.8 14.6 85.7z"/><linearGradient id="SVGID_1_" gradientUnits="userSpaceOnUse" x1="-1131.231" y1="1590.285" x2="-1130.23" y2="1590.285" gradientTransform="rotate(45 64893.487 103670.81) scale(47.9582)"><stop offset="0" style="stop-color:#00f9e5"/><stop offset=".568" style="stop-color:#299df4"/><stop offset="1" style="stop-color:#4a54ff"/></linearGradient><path d="M46.5 54c-.1 0-.1-.1 0 0-.5-.5-1-.8-1.4-1.2-.2-.2-.5-.4-.7-.6-.2-.2-.5-.3-.7-.5-3.7-2.3-7.9-3.5-12.2-3.5-5.4 0-10.7 1.9-14.9 5.6l-.3.3 36.5 23.5c2.4-7.4.9-15.9-4.7-22.1-.6-.5-1.1-1-1.6-1.5z" style="fill:url(#SVGID_1_)"/><path class="st1" d="M111.5 53.8c-4.3-3.7-9.6-5.6-14.9-5.6-5 0-10.2 1.7-14.2 5l-.1.1c-.6.5-1.1.9-1.6 1.5-.5.5-.9 1-1.3 1.4-.1.2-.3.3-.4.5-.3.4-.5.7-.8 1.1-.2.3-.4.6-.6 1-.1.2-.3.5-.4.7-.2.4-.5.9-.7 1.3-.1.2-.2.3-.2.5-.2.5-.4 1-.6 1.6 0 .1-.1.3-.1.4-.2.6-.3 1.1-.5 1.7 0 .1-.1.3-.1.4-.1.5-.2 1.1-.3 1.6 0 .2-.1.4-.1.5-.1.5-.1 1-.1 1.6v.6c-.1 2.6.3 5.2 1.1 7.7l36.6-23.5c-.5.1-.6 0-.7-.1zm3.4 3.7L77.1 81.9c1.1 2 2.6 3.9 4.4 5.5 4.5 4 10.2 6.1 16.2 5.8 6-.3 11.5-2.9 15.6-7.4 7.2-8 7.6-19.9 1.6-28.3z"/><path class="st2" d="M105.6 60.7c5.4 4.9 5.8 13.2.9 18.5-4.9 5.4-13.2 5.8-18.5.9-1.8-1.6-3-3.6-3.7-5.7l21.3-13.7z"/><path d="M117.4 53.3c-.1-.3-.3-.6-.5-.8-.7-.8-1.5-1.5-2.3-2.2-2.2-1.9-4.7-3.5-7.3-4.6-.2-.1-.3-.1-.5-.2l-1.5-.6-.9-.3c-2.5-.8-5.2-1.2-7.8-1.2h-.4l-25.7-36c-1.5-2-3.8-3.2-6.3-3.2s-4.8 1.2-6.3 3.2L31.7 43.5c-4.9-.1-9.6 1.2-13.8 3.6-.3.2-.7.4-1 .6-.3.2-.5.3-.8.5-.5.3-1 .7-1.5 1.1-.2.2-.4.4-.7.5-.2.2-.4.3-.6.5-.8.7-1.6 1.5-2.3 2.2-.1.2-.3.4-.4.5-8.6 10.3-8.5 25.6.7 35.8 1.6 1.7 3.3 3.2 5.2 4.4 2.7 5.9 6.5 11.3 11.3 16a52.1 52.1 0 0 0 36.1 14.5c13.5 0 26.3-5.2 36.1-14.6 4.7-4.5 8.4-9.8 11.1-15.6 2-1.3 3.9-2.9 5.6-4.7 9.1-10.1 9.3-25.3.7-35.5zm-5.9.5.3.3-36.6 23.5c-.8-2.5-1.2-5.1-1.1-7.7v-.6c0-.5.1-1 .1-1.6 0-.2 0-.4.1-.5.1-.5.2-1.1.3-1.6 0-.1.1-.3.1-.4.1-.6.3-1.1.5-1.7 0-.1.1-.3.1-.4.2-.5.4-1.1.6-1.6.1-.2.2-.3.2-.5.2-.5.5-.9.7-1.3.1-.2.3-.5.4-.7.2-.3.4-.7.6-1 .3-.4.5-.7.8-1.1.1-.2.3-.3.4-.5.4-.5.8-1 1.3-1.4.5-.5 1-1 1.6-1.5l.1-.1c4.1-3.3 9.2-5 14.2-5 5.7-.2 11 1.8 15.3 5.4zm-95 .1c4.2-3.7 9.5-5.6 14.9-5.6 4.2 0 8.5 1.2 12.2 3.5.2.2.5.3.7.5.3.2.5.4.7.6.5.4.9.7 1.3 1.1l.1.1c.5.5 1 1 1.5 1.6 5.6 6.2 7.1 14.7 4.7 22.1L16.2 54.1c.1-.1.2-.2.3-.2zM13 57.6l37.8 24.3c-1.1 2-2.6 3.8-4.4 5.4-4.4 4-10.2 6.1-16.2 5.8-6-.3-11.6-2.9-15.6-7.4C7.4 77.8 7 66 13 57.6zm83.8 48.3c-8.9 8.6-20.6 13.3-32.9 13.3-12.3 0-24-4.8-32.9-13.3-2.9-2.8-5.5-5.9-7.5-9.3 2.6.8 5.3 1.2 7.9 1.2 6.5 0 13-2.3 18.2-7 5.5-4.9 8.4-11.6 8.8-18.5 0-.5.1-1.1.1-1.6 0-6.9-2.6-13.8-7.8-19.1-2.8-2.8-6.2-4.9-9.7-6.3-.2-.1-.3-.1-.5-.2-.1 0-.2-.1-.2-.1-1.1-.4-2.2-.7-3.3-.9l24.7-33.9c.6-.7 1.5-1.2 2.6-1.2s2.1.5 2.7 1.3L91 44c-5 1.1-9.9 3.5-13.7 7.4-5.2 5.3-7.8 12.2-7.8 19.1v.6c.1 7.2 3.1 14.4 8.9 19.6 5.2 4.7 11.7 7 18.2 7 2.6 0 5.2-.4 7.7-1.1-2.1 3.4-4.6 6.5-7.5 9.3zm16.5-20.2c-4.1 4.5-9.6 7.1-15.6 7.4-6 .3-11.7-1.8-16.2-5.8-1.8-1.6-3.3-3.5-4.4-5.5l37.8-24.4c6 8.5 5.6 20.4-1.6 28.3z" style="fill:#0c6066"/><path class="st3" d="M114.9 57.5 77.1 81.9c1.1 2 2.6 3.9 4.4 5.5 4.5 4 10.2 6.1 16.2 5.8 6-.3 11.5-2.9 15.6-7.4 7.2-8 7.6-19.9 1.6-28.3z"/><linearGradient id="SVGID_2_" gradientUnits="userSpaceOnUse" x1="-1223.468" y1="1682.523" x2="-1222.468" y2="1682.523" gradientTransform="scale(-47.9582 47.9582) rotate(45 1417.014 2315.927)"><stop offset="0" style="stop-color:#00f9e5"/><stop offset=".568" style="stop-color:#299df4"/><stop offset="1" style="stop-color:#4a54ff"/></linearGradient><path d="M96.6 48.2c-5 0-10.2 1.7-14.2 5l-.1.1c-.6.5-1.1.9-1.6 1.5-.5.5-.9 1-1.3 1.4-.1.2-.3.3-.4.5-.3.4-.5.7-.8 1.1-.2.3-.4.6-.6 1-.1.2-.3.5-.4.7-.2.4-.5.9-.7 1.3-.1.2-.2.3-.2.5-.2.5-.4 1-.6 1.6 0 .1-.1.3-.1.4-.2.6-.3 1.1-.5 1.7 0 .1-.1.3-.1.4-.1.5-.2 1.1-.3 1.6 0 .2-.1.4-.1.5-.1.5-.1 1-.1 1.6v.6c-.1 2.6.3 5.2 1.1 7.7l36.6-23.5-.3-.3c-4.7-3.4-10-5.4-15.3-5.4z" style="fill:url(#SVGID_2_)"/></svg>