<svg xmlns="http://www.w3.org/2000/svg" viewBox="0 0 128 128" style="enable-background:new 0 0 128 128" xml:space="preserve"><path d="M118 128H10c-5.5 0-10-4.5-10-10V10C0 4.5 4.5 0 10 0h108c5.5 0 10 4.5 10 10v108c0 5.5-4.5 10-10 10z" style="fill:#816f5d"/><path d="M70.6 108.2C66.2 91.8 75.9 75 92.3 70.6c14.5-3.9 29.4 3.3 35.7 16.5V62.6l-1.3.8-7.7-4.5.2-10.1c-5.1-1.4-4.4-1.2-9.5-2.6l-4.9 8.8h-8.9L91 46.2l-9.5 2.6.2 10.1c-3.5 2-4.3 2.5-7.7 4.5l-8.6-5.2-7 7 5.2 8.6-4.5 7.7-10.1-.2c-1.4 5.1-1.2 4.4-2.6 9.5l8.8 4.9v8.9l-8.8 4.9L49 119l10.1-.2c2 3.5 2.5 4.3 4.5 7.7l-.8 1.3h24.6c-8.1-3.5-14.4-10.5-16.8-19.6z" style="fill:#f3d1b1"/><path d="M12.3 70.8c3.9 1 4.7 1.3 8.6 2.3l2.4 9.8h9.9l2.4-9.8 8.6-2.3 7 7.2c4.6-2.7 4-2.3 8.6-4.9L57 63.4l6.3-6.3 9.7 2.8 4.9-8.6-7.2-7c1-3.9 1.3-4.7 2.3-8.6l9.8-2.4v-9.9L73.1 21l-2.3-8.6 7.2-7c-1.8-3.1-2.2-3.8-3.1-5.4H40.1c1.2.5 2.4 1.1 3.6 1.7 14.7 8.5 19.7 27.3 11.2 42s-27.3 19.7-42 11.2C6.9 51.5 2.5 46.2 0 40.3V75l5.3 3.1 7-7.3z" style="fill:#fff"/><path d="M116.4 5.8c3.2 0 5.8 2.6 5.8 5.8v104.7c0 3.2-2.6 5.8-5.8 5.8H11.6c-3.2 0-5.8-2.6-5.8-5.8V11.6c0-3.2 2.6-5.8 5.8-5.8h104.8m0-5.8H11.6C5.2 0 0 5.2 0 11.6v104.7c0 6.4 5.2 11.6 11.6 11.6h104.7c6.4 0 11.6-5.2 11.6-11.6V11.6C128 5.2 122.8 0 116.4 0z" style="fill:#59493f"/></svg>