<?xml version="1.0" encoding="utf-8"?>
<!-- Generator: Adobe Illustrator 24.3.0, SVG Export Plug-In . SVG Version: 6.00 Build 0)  -->
<svg version="1.1" id="图层_1" xmlns="http://www.w3.org/2000/svg" xmlns:xlink="http://www.w3.org/1999/xlink" x="0px" y="0px"
	 viewBox="0 0 128 128" style="enable-background:new 0 0 128 128;" xml:space="preserve">
<style type="text/css">
	.st0{fill:#816F5D;}
	.st1{fill:#F3D1B1;}
	.st2{fill:#FFFFFF;}
	.st3{fill:#59493F;}
</style>
<g>
	<path class="st0" d="M118,128H10c-5.5,0-10-4.5-10-10V10C0,4.5,4.5,0,10,0h108c5.5,0,10,4.5,10,10v108C128,123.5,123.5,128,118,128
		z"/>
	<path class="st1" d="M70.6,108.2C66.2,91.8,75.9,75,92.3,70.6c14.5-3.9,29.4,3.3,35.7,16.5V62.6l-1.3,0.8l-7.7-4.5l0.2-10.1
		c-5.1-1.4-4.4-1.2-9.5-2.6l-4.9,8.8c-4,0-4.9,0-8.9,0l-4.9-8.8l-9.5,2.6l0.2,10.1c-3.5,2-4.3,2.5-7.7,4.5l-8.6-5.2
		c-3.7,3.7-3.2,3.2-7,7l5.2,8.6l-4.5,7.7l-10.1-0.2c-1.4,5.1-1.2,4.4-2.6,9.5l8.8,4.9c0,4,0,4.9,0,8.9l-8.8,4.9l2.6,9.5l10.1-0.2
		c2,3.5,2.5,4.3,4.5,7.7l-0.8,1.3h24.6C79.3,124.3,73,117.3,70.6,108.2z"/>
	<g>
		<path class="st2" d="M12.3,70.8c3.9,1,4.7,1.3,8.6,2.3l2.4,9.8c5.3,0,4.6,0,9.9,0l2.4-9.8l8.6-2.3l7,7.2c4.6-2.7,4-2.3,8.6-4.9
			l-2.8-9.7c2.8-2.8,3.5-3.5,6.3-6.3l9.7,2.8l4.9-8.6l-7.2-7c1-3.9,1.3-4.7,2.3-8.6l9.8-2.4c0-5.3,0-4.6,0-9.9L73.1,21l-2.3-8.6
			l7.2-7c-1.8-3.1-2.2-3.8-3.1-5.4H40.1c1.2,0.5,2.4,1.1,3.6,1.7c14.7,8.5,19.7,27.3,11.2,42s-27.3,19.7-42,11.2
			C6.9,51.5,2.5,46.2,0,40.3V75l5.3,3.1L12.3,70.8z"/>
	</g>
	<path class="st3" d="M116.4,5.8c3.2,0,5.8,2.6,5.8,5.8v104.7c0,3.2-2.6,5.8-5.8,5.8H11.6c-3.2,0-5.8-2.6-5.8-5.8V11.6
		c0-3.2,2.6-5.8,5.8-5.8H116.4 M116.4,0H11.6C5.2,0,0,5.2,0,11.6v104.7c0,6.4,5.2,11.6,11.6,11.6h104.7c6.4,0,11.6-5.2,11.6-11.6
		V11.6C128,5.2,122.8,0,116.4,0L116.4,0z"/>
</g>
</svg>
