<svg xmlns="http://www.w3.org/2000/svg" viewBox="0 0 48 48"><circle cx="24" cy="24" r="24" fill-rule="evenodd" clip-rule="evenodd"/><path d="M25.7 23.1c-.4-.5-.6-.8-.8-1.2-.7-1-.8-2-.6-3.2v-.1c.1-.3.2-.6.3-1 .1-.3.3-.6.5-.8.2-.3.5-.6.9-.9 1.1-.9 2.5-1.2 4-1 1 .1 1.8.4 3.3.9l-1 3.1c-2.4-.9-3.6-1-4.4-.4l-.3.3c-.1.1-.1.2-.2.3 0 .1-.1.1-.1.2-.1.3 0 .5.2.8.2.3.4.6.8 1.1 0 0 .5.6.6.8.6.8 1 1.4 1.3 2.1.4.9.7 1.8.8 2.7V28c-.1.8-.2 1.6-.6 2.4-.1.3-.3.7-.5 1-.6.9-1.4 1.6-2.4 2.1-.4.2-.7.4-1.2.5-2.9.8-6.2-.1-8.2-2.4l2.2-2.2c1.2 1.4 3.3 2 5.2 1.5l.6-.3c.5-.3.9-.7 1.2-1.1.1-.1.2-.3.3-.5.2-.4.3-.8.3-1.2v-.6c-.1-1-.5-1.9-1.5-3.2-.3-.2-.7-.9-.7-.9zm-3.3-6.6v8h1.9v3.2h-4.9V16.5h3zm-4.6 7.2c0 1.2-.9 2.2-2.1 2.2-1.1 0-2.1-1-2.1-2.2 0-1.2.9-2.2 2.1-2.2 1.2 0 2.1 1 2.1 2.2z" fill="#fff"/></svg>