<?xml version="1.0" encoding="utf-8"?>
<svg version="1.1" xmlns="http://www.w3.org/2000/svg" xmlns:xlink="http://www.w3.org/1999/xlink" viewBox="0 0 128 128" xml:space="preserve">
<path fill="#00639B" d="M96,128H32c-17.7,0-32-14.3-32-32V32C0,14.3,14.3,0,32,0h64c17.7,0,32,14.3,32,32v64
		C128,113.7,113.7,128,96,128z"/>
<path fill="#ffffff" d="M63.5,12c-28.7,0-52,23.3-52,52s23.3,52,52,52s52-23.3,52-52S92.1,12,63.5,12z M39.5,48l20,40h-20V48z
	 M44.4,40h38.1L63.5,78.1L44.4,40z M87.5,48v40h-20L87.5,48z M93.6,32H33.4c7.9-7.4,18.5-12,30.1-12S85.7,24.6,93.6,32z M19.5,64
	c0-11.6,4.6-22.2,12-30.1v60.2C24.1,86.2,19.5,75.6,19.5,64z M33.4,96h60.2c-7.9,7.4-18.5,12-30.1,12S41.2,103.4,33.4,96z
	 M95.5,94.1V33.9c7.4,7.9,12,18.5,12,30.1S102.9,86.2,95.5,94.1z"/>
</svg>
