<svg xmlns="http://www.w3.org/2000/svg" viewBox="0 0 48 48"><path d="M3.2 29.1v5.1H0V17.5c0-1.2.4-2.2 1.2-2.9.7-.6 1.5-.8 2.5-.8h8.1c1.1 0 2 .4 2.7 1.2.6.7.9 1.4.9 2.3V25c0 1.2-.3 2.2-1 2.9-.7.8-1.7 1.2-2.9 1.2H3.2zm0-11.2v6.9c0 .6.1 1 .4 1.2.3.2.7.3 1.4.3h5.5c.6 0 1.1-.1 1.3-.3.2-.2.4-.6.4-1.2v-6.9c0-.8-.5-1.3-1.5-1.3H5c-.6 0-.9 0-1.1.1-.5.2-.7.6-.7 1.2zm13.6 11.2V17.8c0-1.2.4-2.1 1.1-2.8.8-.7 1.6-1.1 2.6-1.1h6.3c1.3 0 2.4.4 3.1 1.1.7.7 1.1 1.6 1.1 2.7v11.4h-3.2V18.2c0-.6-.1-.9-.3-1.2-.2-.2-.6-.4-1.2-.4H22c-.8 0-1.4.1-1.6.4-.2.2-.3.6-.3 1.1V29h-3.3zm16.3 5.1v-2.8h10.1c.6 0 1-.1 1.3-.4.2-.2.3-.6.3-1.1v-2.7h-8.1c-1.4 0-2.4-.3-3.1-1-.7-.7-1-1.6-1-2.8v-5.8c0-1.2.3-2.1 1-2.8.7-.7 1.6-1.1 2.7-1.1h7.9c1.1 0 2 .4 2.7 1.1.7.7 1.1 1.5 1.1 2.3v13c0 1.1-.2 2-.5 2.5-.7 1.1-1.8 1.6-3.2 1.6H33.1zm4-9.8H43c.7 0 1.2-.1 1.4-.4.2-.3.3-.6.3-.9V18c0-1-.5-1.5-1.5-1.5h-5.9c-.6 0-1 .1-1.2.3-.3.3-.4.7-.4 1.2v4.5c0 .6.1 1.1.3 1.3.3.5.7.6 1.1.6z" fill="#d90000"/></svg>