<svg xmlns="http://www.w3.org/2000/svg" viewBox="0 0 48 48"><path d="M7.8 28.5h1.4V34H7.8zm13.4 18.1h5.5V48h-5.5zM7.8 21.2h1.4v5.5H7.8zm20.7 25.4V48H34v-1.4zM7.8 12.1h1.4V9.2h3V7.8h-3V6.6H7.8v1.2H6.7v1.4h1.1zM19.5 1.4V0H14v1.4zM9.2 41.3v-1.1h2.9v-1.4H9.2v-3H7.8v3H6.6v1.4h1.2v1.1zm.1 1.6l-1.4.3c.5 2 2 3.7 4 4.4l.5-1.3c-1.6-.5-2.7-1.8-3.1-3.4zm-1.5-29h1.4v5.5H7.8zM8 4.7l1.3.3c.4-1.6 1.6-2.8 3.1-3.4L12 .3C10 1 8.5 2.6 8 4.7zm5.9 41.9V48h5.5v-1.4H14zM38.7 5.1l1.3-.4c-.5-2-2-3.7-4-4.4l-.5 1.3c1.7.6 2.8 1.9 3.2 3.5zm.1 23.5h1.4v5.5h-1.4zm0-14.6h1.4v5.5h-1.4zm1.4-7.3h-1.4v1.1h-2.9v1.4h2.9v3h1.4v-3h1.2V7.8h-1.2zM21.3 0h5.5v1.4h-5.5zm7.3 1.4h5.5V0h-5.5zm10.2 19.9h1.4v5.5h-1.4zm-3.2 25l.5 1.3c2-.7 3.5-2.3 4-4.3l-1.4-.3c-.4 1.6-1.6 2.8-3.1 3.3zm4.6-10.4h-1.4v2.9h-3v1.4h3v1.2h1.4v-1.2h1.1v-1.4h-1.1zM1.4 14v-.1H0v5.5h1.4zm44.9-1.5l1.3-.4c-.7-2-2.3-3.5-4.3-4L43 9.3c1.6.4 2.8 1.6 3.3 3.2zM28.5 38.8H34v1.4h-5.5zM0 21.2h1.4v5.5H0zm1.7 14.4L.3 36c.7 2 2.3 3.5 4.3 4l.4-1.3c-1.6-.4-2.8-1.6-3.3-3.1zM46.6 34v.1H48v-5.5h-1.4zm-3.7 4.7l.3 1.4c2-.5 3.7-2 4.4-4l-1.3-.5c-.5 1.6-1.8 2.7-3.4 3.1zM46.6 14v5.5H48V14zm-18-6.2h5.5v1.4h-5.5zm18 13.5H48v5.5h-1.4zM21.3 7.8h5.5v1.4h-5.5zM1.4 28.5H0V34h1.4zm-1-16.6l1.3.5c.6-1.5 1.8-2.7 3.4-3.1l-.3-1.4c-2.1.6-3.7 2-4.4 4zm13.5 26.9h5.5v1.4h-5.5zm.1-31h5.5v1.4H14zm7.2 31h5.5v1.4h-5.5z" fill="#d85328"/></svg>