<svg version="1.1" id="图层_1" xmlns="http://www.w3.org/2000/svg" x="0" y="0" viewBox="0 0 48 48" xml:space="preserve"><style>.st0{fill:#ffae00}</style><path class="st0" d="M24 45.8l-24-28L10.4 3.7 24 2.2l13.6 1.5L48 17.8l-24 28z"/><path d="M24 45.8l-24-28h48l-24 28z" fill="#ec6c00"/><path class="st0" d="M24 45.8l-14.3-28h28.6L24 45.8z"/><path d="M24 2.2L9.7 17.8h28.6L24 2.2z" fill="#ffefb4"/><path class="st0" d="M10.4 3.7L5 10.8l-5 7h9.8l.6-14.1zm27.2 0l5.3 7.1 5 7h-9.8l-.5-14.1z"/><path d="M10.4 3.7l-.7 14.1L24 2.2 10.4 3.7zm27.2 0l.7 14.1L24 2.2l13.6 1.5z" fill="#fed305"/></svg>