<?xml version="1.0" encoding="utf-8"?>
<!-- Generator: Adobe Illustrator 24.3.0, SVG Export Plug-In . SVG Version: 6.00 Build 0)  -->
<svg version="1.1" id="图层_1" xmlns="http://www.w3.org/2000/svg" xmlns:xlink="http://www.w3.org/1999/xlink" x="0px" y="0px"
	 viewBox="0 0 128 128" style="enable-background:new 0 0 128 128;" xml:space="preserve">
<style type="text/css">
	.st0{clip-path:url(#SVGID_2_);}
	.st1{fill:#FFFFFF;}
	.st2{fill:#1273EB;}
	.st3{fill:#0E2A47;}
</style>
<g>
	<defs>
		<rect id="SVGID_1_" x="0.4" width="127.2" height="128"/>
	</defs>
	<clipPath id="SVGID_2_">
		<use xlink:href="#SVGID_1_"  style="overflow:visible;"/>
	</clipPath>
	<g class="st0">
		<path class="st1" d="M0.4,0h127.2v128H0.4V0z"/>
		<path class="st2" d="M14.7,42.7H0.4C0.4,19.1,19.5,0,43.1,0v14.3C27.4,14.4,14.8,27,14.7,42.7L14.7,42.7z M113.3,85.3h14.3
			c0,23.6-19.1,42.6-42.7,42.7v-14.3c15.5,0.1,28.2-12.3,28.4-27.8V85.3z"/>
		<path class="st3" d="M83.9,50.6c-6.5-3.1-13.5-4.9-20.7-5.3c-6.5,0-9.9,2.4-9.9,6c0,3.6,4.8,4.8,10.5,5.6l5.8,0.8
			c14.1,2.2,21.8,8.3,21.8,19.2c0,13.3-10.9,22-29.6,22c-8.7,0-20.2-1.6-28.8-7.5L40,78.1c6.5,4.3,14.2,6.5,22,6.4
			c8.1,0,11.9-2.2,11.9-6.2c0-3.2-3.2-5-10.7-6l-5.4-0.8C43,69.6,35.5,63,35.5,51.9c0-13.3,10.3-21,27.2-21c9.4-0.2,18.6,2,27,6.2
			L83.9,50.6L83.9,50.6z"/>
	</g>
</g>
</svg>
