<svg xmlns="http://www.w3.org/2000/svg" viewBox="0 0 48 48"><path d="M6.2 27.8v-6H4.6v4c0 .2 0 .5-.1.7l-.3.6c-.1.2-.3.3-.5.4-.2.1-.4.1-.7.1-.5 0-.8-.1-1-.4-.3-.2-.4-.6-.4-1.2v-4.2H0V26c0 .2 0 .5.1.7 0 .2.1.5.2.7l.3.6c.1.2.3.4.5.5.2.1.4.3.7.3.2.1.6.2.9.2.8 0 1.4-.2 1.9-.6v.5h1.6v-1.1zm7.2-5.2c-.2-.3-.5-.6-.8-.8-.3-.2-.8-.3-1.3-.3s-1 .1-1.4.3c-.2.1-.4.2-.5.4v-.5H7.7v7.1h1.6v-4.4c0-.1 0-.2.1-.4s.2-.3.3-.5c.1-.2.3-.3.5-.4.4-.2 1.1-.2 1.4 0 .2.1.3.2.4.4.1.2.1.4.2.7v4.6h1.6V25c0-.5 0-.9-.1-1.3.1-.4-.1-.8-.3-1.1zm9.8-1.6c-.3-.4-.6-.7-1-.9l-1.2-.6c-.4-.1-.9-.3-1.5-.3-.5-.1-1-.2-1.6-.2h-2.3v9.8h2.9c.8 0 1.6-.1 2.3-.3.7-.2 1.3-.6 1.7-1 .5-.4.8-.9 1.1-1.5.2-.6.4-1.3.4-2 0-.6-.1-1.2-.2-1.7s-.3-.9-.6-1.3zm-1.1 4.3c-.1.4-.4.8-.7 1-.3.3-.7.5-1.1.7-.5.2-1 .3-1.7.3h-1.4v-6.8h.8c.7 0 1.4.1 1.9.2s1 .3 1.3.6c.3.3.6.6.8 1 .2.4.3 1 .3 1.7.1.5 0 .9-.2 1.3zm7-3.6c-.6-.1-1.3-.1-1.9.3l-.3.3v-.5h-1.6v7h1.6v-3.9c0-.3 0-.6.1-.8l.3-.6c.1-.2.3-.3.4-.4.3-.1.6-.2.9-.1.1 0 .2.1.3.1l.4.2v-1.6h-.2zm5.8.6c-.2-.2-.4-.3-.6-.4-.2-.1-.4-.2-.7-.2-.2-.1-.5-.1-.8-.1-.6 0-1.1.1-1.5.3-.4.2-.8.5-1.1.8-.3.3-.5.7-.6 1.2-.1.4-.2.9-.2 1.3 0 .3 0 .6.1.9.1.3.1.6.3.9.1.3.3.5.5.8.2.2.4.5.7.6.3.2.5.3.9.4.3.1.7.2 1.1.2.3 0 .5 0 .8-.1.3-.1.5-.1.7-.3.2-.1.4-.2.5-.3v.5h1.6v-7.1H35l-.1.6zm-.2 3.9c-.1.3-.2.6-.4.8-.2.2-.4.4-.6.5-.5.2-1 .2-1.4.1-.2-.1-.4-.2-.5-.3-.1-.1-.3-.2-.3-.4-.1-.1-.2-.3-.2-.5-.1-.2-.1-.4-.1-.5v-1.2c0-.2.1-.4.2-.5.1-.2.2-.3.3-.5.1-.1.2-.3.4-.4.1-.1.3-.2.5-.2-.1-.1.1-.1.4-.1.3 0 .6.1.8.2.2.1.4.2.6.4.2.2.3.4.4.6.1.3.1.5.1.8 0 .5-.1.9-.2 1.2zm11.6-4.4l-1.5 4.7-1.6-4.7h-1.4l-1.7 4.7-1.5-4.7h-1.7l2.5 7h1.4l1.7-4.7 1.6 4.7h1.4l2.5-7z"/></svg>