<svg version="1.1" id="图层_1" xmlns="http://www.w3.org/2000/svg" x="0" y="0" viewBox="0 0 48 48" xml:space="preserve"><style>.st0{fill:#333}.st2{opacity:.1;enable-background:new}.st3{fill:#fda57d}</style><path class="st0" d="M41.1 19.4c0 10.1-7.3 15.1-16.8 15.1s-17.5-5-17.5-15.1S14.5 1 24 1s17.1 8.2 17.1 18.4z"/><path d="M24.4 47c6 0 11.8-1.7 16.8-5-1.1-6.1-5.4-6.5-5.4-6.5H12.2s-4 .3-5.3 6C12 45.1 18.1 47 24.4 47z" fill="#6c63ff"/><path class="st2" d="M19.3 28h9.4v7.5c0 2.6-2.1 4.7-4.7 4.7s-4.7-2.1-4.7-4.7V28z"/><path class="st3" d="M20.2 27.6h7.6c.5 0 .9.4.9.9v6.6c0 2.6-2.1 4.7-4.7 4.7s-4.7-2.1-4.7-4.7v-6.7c0-.4.4-.8.9-.8z"/><path class="st2" d="M19.3 31.6c3 1.1 6.4 1.1 9.4 0v-1.2h-9.4v1.2z"/><circle class="st3" cx="24.1" cy="18.7" r="13.5"/><path class="st2" d="M8.5 19.5s8.4-1 14.8-9.2c0 0 8.4 9.3 14.3 8.3 0 0 3.4-3.6 0-7.1C34.1 7.9 31.5 3.4 27 4s-10 .8-12.4 3-6.1 12.5-6.1 12.5z"/><path class="st0" d="M8.5 19.4s8.4-1 14.8-9.2c0 0 8.4 9.3 14.3 8.3 0 0 3.4-3.6 0-7.1-3.4-3.6-6-8.1-10.5-7.5s-10 .8-12.4 3-6.2 12.5-6.2 12.5z"/><ellipse class="st3" cx="10.5" cy="18.7" rx="1.3" ry="2.4"/><ellipse class="st3" cx="37.6" cy="18.7" rx="1.3" ry="2.4"/></svg>