<?xml version="1.0" encoding="utf-8"?>
<!-- Generator: Adobe Illustrator 24.3.0, SVG Export Plug-In . SVG Version: 6.00 Build 0)  -->
<svg version="1.1" id="图层_1" xmlns="http://www.w3.org/2000/svg" xmlns:xlink="http://www.w3.org/1999/xlink" x="0px" y="0px"
	 viewBox="0 0 64 64" style="enable-background:new 0 0 64 64;" xml:space="preserve">
<style type="text/css">
	.st0{fill:#111212;}
	.st1{fill-rule:evenodd;clip-rule:evenodd;fill:#FFFFFF;fill-opacity:0.1;}
	.st2{fill-rule:evenodd;clip-rule:evenodd;fill:#FFFFFF;fill-opacity:0.2;}
</style>
<desc>Created with Sketch.</desc>
<path class="st0" d="M55.8,62H8.2C4.8,62,2,59.2,2,55.8V8.2C2,4.8,4.8,2,8.2,2h47.5C59.2,2,62,4.8,62,8.2v47.5
	C62,59.2,59.2,62,55.8,62z"/>
<g id="Group_1_">
	<path id="Oval_6_" class="st1" d="M23.7,55.5c0.4,0,1.8,0.3,1.8-1.5c0-8.2,0-16.5,0-24.7l0,0c0-2.4-1.8-4.2-4.2-4.2h-9.2
		c-2.4,0-4.2,1.8-4.2,4.2c0,3.7,0,7.4,0,11.1C8,48.7,14.9,55.5,23.7,55.5z"/>
	<path id="Oval_2_" class="st2" d="M53.2,8.4c0.6,0,2.8-0.4,2.8,2.4c0,13.6,0,27.1,0,40.6l0,0c0,2.4-1.8,4.2-4.2,4.2H33.1
		c-2.4,0-4.2-1.8-4.2-4.2c0-6.5,0-12.9,0-19.4C28.9,19,39.8,8.4,53.2,8.4z"/>
</g>
</svg>
