<svg xmlns="http://www.w3.org/2000/svg" viewBox="0 0 128 128" style="enable-background:new 0 0 128 128" xml:space="preserve"><path d="M83.3 59.5c.1-3 .1-5.8.1-8.6 0-6.3-1.6-12.6-5.8-12.6-3.2 0-4.8 2.7-4.8 7.3 0 7.6 5.2 12.3 10.5 13.9zm-19 47.7C44.9 107.2 43 89.8 43 71.8c0-17.3-1.3-21.1-7.3-21.1h-8.8V39.3h8.8c16.8 0 18.9 13.9 18.9 32.6 0 17.8 1.3 23.7 9.5 23.7 8.6 0 14.6-13.9 17.4-25.3-12.6-3-20.4-12-20.4-25 0-10.3 6.7-18.8 16.6-18.8 11 0 17.1 10.5 17.1 24.3 0 3.5-.1 6.8-.3 9.3h13v11.5H92.7c-3.4 17.5-13.1 35.6-28.4 35.6zM64 128c44.9 0 63.8-28.4 63.8-63.5C127.8 16.1 105.9 0 77 0 39.7 0 .2 30.6.2 64.5.2 99.6 28.8 128 64 128z" style="fill:#ff7900"/></svg>