<svg xmlns="http://www.w3.org/2000/svg" viewBox="0 0 48 48"><path d="M19 47.8c-10.5 0-19-8.5-19-19 0-8.7 5.9-16.5 14-18.3C23.4 8.4 27.7 6.7 31 .2c2.4 4.6.8 8.9 0 11.2 11.3-2.7 15.3-7.9 16.3-8.5 0 9.5-3 15.5-5.8 19.4 3.5-.1 4.8-1.2 6.6-1.4-.8 3.5-3.6 8.4-10.4 11.5-1.8 8.9-9.6 15.4-18.7 15.4z" fill="#282828"/><path d="M27.9 32.3c0 .8-.1 1.2-1 1.2h-7.6l7.1-7.8c2.1-2.1 2.1-3.1 2.1-5.7 0-.8-.1-1.7.1-2.5.1-.3-.1-.5-.5-.3-.8.2-2.2.2-4.5.2H13.4c-.6 0-.8-.3-.6-.8 0-.1 0-.5-.2-.5-1.5.7-1.8 3.8-1.7 5.7 0 1 .6 1.6 1.4 1.6h8.1L12 32.3c-.6.7-1.1 1.6-1.1 2.9v2.5c0 1.1.7 1.8 1.9 2.1h14.4c1.3 0 2.2-.6 2.2-2.1V35c0-.5 0-2.3-1.5-2.7z" fill="#ffe302"/></svg>