<?xml version="1.0" encoding="utf-8"?>
<!-- Generator: Adobe Illustrator 24.3.0, SVG Export Plug-In . SVG Version: 6.00 Build 0)  -->
<svg version="1.1" id="图层_1" xmlns="http://www.w3.org/2000/svg" xmlns:xlink="http://www.w3.org/1999/xlink" x="0px" y="0px"
	 viewBox="0 0 128 128" style="enable-background:new 0 0 128 128;" xml:space="preserve">
<style type="text/css">
	.st0{fill:#FFE302;}
</style>
<path class="st0" d="M98,128H30c-16.6,0-30-13.4-30-30V30C0,13.4,13.4,0,30,0h68c16.6,0,30,13.4,30,30v68
	C128,114.6,114.6,128,98,128z"/>
<g>
	<g>
		<path d="M111,96.2c-0.8,0.5-1.6,1.2-2.4,1.2c-2.6,0.1-5.2-0.1-7.8-0.2c0-4.2,0-8.1,0-12.1c0-1.5,0.7-2.6,2.1-3.4
			c1-0.6,1.7-1.5,1.7-2.8c-1.7,1.2-1.7,1.2-3.8,0.8c-0.6-0.1-1.1-0.2-1.7-0.3c-2.9-0.2-4.5,1.1-4.9,4c-0.1,1-0.2,2-0.3,3.1
			c-2.3-4.3-5.8-6.8-10.6-7c-4.8-0.3-8.7,1.4-10.9,6.1c-0.1-0.1-0.3-0.2-0.4-0.3c0.4-1.6,0.8-3.2,1.2-4.7c-1.4,1.2-1.8,1.3-3.4,0.4
			c-2.6-1.4-5.3-1.8-8.2-1.2c-7.1,1.5-11.4,8.8-9.3,16c2,6.8,9.4,10.4,16.2,7.8c2.2-0.9,4.1-2,3.6-5c2.7,4.2,6.5,6,11.3,5.8
			c4.9-0.2,8.2-2.9,10.5-7.2c0.2,1.6,0.2,3.1,0.2,4.5c0,2.1,0.6,2.7,2.6,2.7c3.8,0,7.7,0,11.5-0.1c2.4,0,3.3-0.9,3.5-3.3
			c0.2-1.9,0.3-3.7,0.5-5.8C111.7,95.6,111.4,96,111,96.2z M64.3,97.2c-2.9,0-5.4-2.4-5.4-5.2c0-2.9,2.4-5.4,5.4-5.4
			c2.9,0,5.5,2.5,5.4,5.4C69.6,94.8,67.1,97.2,64.3,97.2z M82.4,97.2c-2.9,0-5.4-2.4-5.4-5.3c0-2.9,2.4-5.3,5.3-5.3
			c2.9,0,5.4,2.4,5.4,5.3C87.8,94.7,85.3,97.2,82.4,97.2z"/>
		<path d="M53.1,99.8c-1.4-0.9-2.4-2-1.5-3.9c-0.6,0.2-1,0.5-1.4,0.7c-2.1,1.1-5.1,0.9-6.7-0.6c-1.6-1.5-2.1-4-1.1-6.2
			c1-2.3,2.7-3.3,5.6-3.1c4,0.2,7.1-3.8,6-8c-1,2.2-2.6,1.6-4.3,1.4c-1.8-0.2-3.7-0.4-5.4,0c-7.2,1.6-11,8.3-9.2,15.8
			c0.1,0.6,0.2,1.2,0.3,1.8c-3.3,0-6.4,0-9.8,0c2.8-3,5.4-5.7,7.8-8.5c0.9-1.1,1.7-2.5,2-3.8c0.3-1.7,0.1-3.5,0.1-5.1
			c-5.4,0-10.7,0-16,0c-0.5,0-1-0.6-1.8-1c-0.1,0.1-0.6,0.6-0.8,1.1c-0.3,1.3-0.6,2.6-0.7,3.9c-0.1,2.1,0.4,2.6,2.5,2.6
			c2.5,0,5,0,7.9,0c-2.8,2.9-5.2,5.7-7.9,8.2c-2.2,2-2.9,4.4-2.6,7.2c0.2,1.5,0.8,2.2,2.3,2.2c5,0,10.1,0.1,15.1,0
			c1.7,0,2.5-0.9,2.5-2.7c0-0.7,0.1-1.4,0.1-2.2c0.4,0.1,0.5,0.1,0.5,0.1c0.3,0.3,0.5,0.5,0.8,0.8c2.4,2.6,5.4,4,8.9,4.1
			c2.5,0.1,4.8-0.6,6.7-2.4C53.8,101.4,54.1,100.6,53.1,99.8z"/>
	</g>
	<g>
		<path d="M50.4,29.9c0-2.1,0-4.3,0-6.4c-2.1,0-3.8,0-5.8,0c0,6.7,0,13.3,0,20.1c-1.7,0-3.2,0-4.6,0c-2,0-3.2,0.9-3.1,3.1
			c0.1,6.6,0.1,13.3,0,19.9c0,2,1,3.1,3,3.1c5.6,0.1,11.3,0.2,16.9,0.1c3-0.1,3.8-1.1,3.8-4.1c0.1-6,0.1-12,0.1-18
			c0-3.2-0.8-4.1-4-4.2c-2-0.1-4.1,0-6.1,0c0-2.8,0-5.1,0-7.8c2.7,0,5.2,0,7.7,0c2.1,0,3.1-1.2,3.2-3.2c0-1,0-2,0-2.7
			C57.8,29.9,54.3,29.9,50.4,29.9z M54.8,49.2c0,5.1,0,10,0,15c-4,0-7.9,0-12,0c0-5,0-9.9,0-15C46.8,49.2,50.7,49.2,54.8,49.2z"/>
		<path d="M31.4,60.5c1.1-7,2.2-13.7,3.3-20.6c-1.9-0.4-3.5-0.7-5.3-1.1c-0.2,1.4-0.3,2.7-0.5,3.9c-0.7,5.7-1.5,11.3-2.1,17
			c-0.2,2-1.2,2.6-2.9,2.9c-2.6,0.5-5.2,1.2-7.9,1.9c0.5,2.1,0.8,3.8,1.3,5.8c6.3-1.8,12.4-3.5,18.7-5.2c-0.2-1.9-0.5-3.6-0.7-5.3
			C33.9,60.1,32.7,60.3,31.4,60.5z"/>
		<path d="M37.1,30.4c-2.9,0-5.7,0-9.2,0c1.4-0.7,2.1-1.1,2.7-1.4c-2.3-5.8-2.9-6-7.7-4c0.8,1.7,1.6,3.4,2.5,5.5c-3.2,0-6,0-8.9,0
			c0,2.1,0,3.7,0,5.3c6.9,0,13.7,0,20.5,0C37.1,34,37.1,32.3,37.1,30.4z"/>
		<path d="M20.2,59.9c1.6-0.4,3-0.8,4.7-1.3c-0.7-6.5-1.5-12.8-2.2-19.4c-1.8,0.4-3.2,0.7-4.5,1C18.9,46.9,19.5,53.3,20.2,59.9z"/>
		<path d="M103.2,41.9c0-2.1,0-3.9,0-5.9c8-0.9,8-0.9,7.2-5.6c-2.4,0-4.8,0-7.4,0c0-2.4,0-4.6,0-6.8c-1.7,0-3.2,0-5,0
			c0,2.4,0,4.6,0,6.9c-1.2,0-2.2,0-3.2,0c0.3-1.6,0.5-3,0.7-4.6c-1.7-0.3-3.2-0.6-4.5-0.8c-1.2,4.6-2.4,8.9-3.6,13.2
			c-0.3,0-0.6,0-1,0c0.8-3.7-1.8-3.7-4.1-4c0-1.4,0-2.7,0-4.2c1.7-0.1,3.2-0.2,4.8-0.3c0-1.6,0-3,0-4.5c-7.2,0-14.2,0-21.3,0
			c0,1.6,0,3,0,4.5c1.6,0.1,3,0.2,4.5,0.3c0,1.5,0,2.8,0,4.1c-4.5,0.7-4.5,0.7-4.5,5.2c0,8.8,0.1,17.6-0.1,26.5
			c-0.1,2.8,1.2,3.8,3.7,3.8c4.5,0,9.1,0.1,13.6,0c2.2,0,3.5-1,3.4-3.6c-0.1-6.4-0.1-12.7-0.1-19.1c0-2.5,0-5,0-8.1
			c1.8,1,3,1.7,4.5,2.5c1.5-2.8,1.6-7.5,6.8-5.2c0,1.9,0,3.7,0,5.8c-3.4,0-6.7,0-9.9,0c0,1.8,0,3.3,0,4.9c8.1,0,16,0,24,0
			c0-1.7,0-3.2,0-5C109,41.9,106.2,41.9,103.2,41.9z M82.2,39.1c0,3.4,0,6.6,0,9.9C80.2,47.9,80.2,40.5,82.2,39.1z M75.3,30.1
			c0.9,0,1.6,0,2.6,0c0,1.5,0,2.7,0,4.1c-0.9,0-1.7,0-2.6,0C75.3,32.9,75.3,31.6,75.3,30.1z M70.5,39.1c2.1,1.3,2.1,7.2,0,11.5
			C70.5,46.5,70.5,42.9,70.5,39.1z M82.3,64.1c-4,0-7.8,0-11.9,0c0-1.2,0-2.5,0-4c4,0,7.9,0,11.9,0C82.3,61.5,82.3,62.7,82.3,64.1z
			 M82.4,55.6c-4,0-7.8,0-12,0c-0.1-0.9-0.1-1.9-0.2-3.2c0.9,0.6,1.5,1.1,2.1,1.5c2.3-2.3,3.1-5.1,3.1-8.2c0-1.7,0-3.5,0.1-5.2
			c0-0.5,0.6-0.9,0.9-1.3c0.3,0.5,0.9,0.9,0.9,1.4c0.1,2.1,0,4.2,0,6.3c0,5.1,0,5.1,5,6C82.4,53.7,82.4,54.6,82.4,55.6z"/>
		<path d="M110.7,53.5c0-2.5-1.3-3.4-3.5-3.4c-2.3,0-4.5,0-6.8,0c0,0,0,0,0,0c-2.5,0-5.1,0-7.6,0c-2.2,0-3.3,1-3.3,3.3
			c0.1,4.2,0.1,8.3,0,12.5c-0.1,2.2,0.9,3.3,3,3.3c5,0.1,10,0.3,15,0.2c2.2,0,3.4-1.4,3.3-3.7C110.6,61.7,110.6,57.6,110.7,53.5z
			 M105.4,64.3c-3.5,0-6.9,0-10.5,0c0-3,0-5.9,0-9c3.5,0,6.9,0,10.5,0C105.4,58.3,105.4,61.2,105.4,64.3z"/>
	</g>
</g>
</svg>
