<?xml version="1.0" encoding="utf-8"?>
<!-- Generator: Adobe Illustrator 24.3.0, SVG Export Plug-In . SVG Version: 6.00 Build 0)  -->
<svg version="1.1" id="图层_1" xmlns="http://www.w3.org/2000/svg" xmlns:xlink="http://www.w3.org/1999/xlink" x="0px" y="0px"
	 viewBox="0 0 24 24" style="enable-background:new 0 0 24 24;" xml:space="preserve">
<style type="text/css">
	.st0{fill:#1054F4;}
	.st1{fill:#FFFFFF;}
</style>
<g>
	<path class="st0" d="M12,0C5.4,0,0,5.4,0,12s5.4,12,12,12c6.6,0,12-5.4,12-12C24,5.4,18.6,0,12,0z M21.2,16.8h-3
		c0.4-1.4,0.6-2.9,0.6-4.4h3.5C22.3,14,21.9,15.5,21.2,16.8z M14,22.2c-0.5,0.1-1,0.1-1.5,0.2v-4.7h4.7C16.4,19.8,15.3,21.4,14,22.2
		z M6.9,17.7h4.7v4.7c-0.5,0-1-0.1-1.5-0.2C8.7,21.4,7.6,19.8,6.9,17.7z M1.7,12.4h3.5c0,1.6,0.3,3.1,0.6,4.4h-3
		C2.1,15.5,1.7,14,1.7,12.4z M2.8,7.2h3C5.5,8.5,5.2,10,5.2,11.6H1.7C1.7,10,2.1,8.5,2.8,7.2z M10,1.8c0.5-0.1,1-0.1,1.5-0.2v4.7
		H6.9C7.6,4.3,8.7,2.6,10,1.8z M17.1,6.3h-4.7V1.7c0.5,0,1,0.1,1.5,0.2C15.3,2.6,16.4,4.3,17.1,6.3z M17.3,7.2
		C17.7,8.5,18,10,18,11.6h-5.6V7.2H17.3z M11.6,7.2v4.4H6c0-1.6,0.3-3.1,0.6-4.4H11.6z M6,12.4h5.6v4.4H6.7C6.3,15.5,6.1,14,6,12.4z
		 M12.4,16.8v-4.4H18c0,1.6-0.3,3.1-0.6,4.4H12.4z M18.8,11.6c0-1.6-0.2-3.1-0.6-4.4h3c0.7,1.3,1.1,2.8,1.2,4.4H18.8z M20.7,6.3
		h-2.7c-0.5-1.6-1.3-3-2.2-4C17.8,3.1,19.5,4.5,20.7,6.3z M8.2,2.4c-0.9,1-1.6,2.4-2.2,4H3.3C4.5,4.5,6.2,3.1,8.2,2.4z M3.3,17.7
		h2.7c0.5,1.6,1.3,3,2.2,4C6.2,20.9,4.5,19.5,3.3,17.7z M15.8,21.6c0.9-1,1.6-2.4,2.2-4h2.7C19.5,19.5,17.8,20.9,15.8,21.6z"/>
	<path class="st1" d="M12,0.2c-0.3,0-0.5,0.1-0.6,0.4L1.8,17.1c-0.1,0.2-0.1,0.5,0,0.8c0.1,0.2,0.4,0.4,0.6,0.4h19
		c0.3,0,0.5-0.1,0.6-0.4c0.1-0.2,0.1-0.5,0-0.8L12.6,0.6C12.5,0.4,12.3,0.2,12,0.2L12,0.2z"/>
	<path class="st0" d="M12,1.5l9.1,15.7H2.9L12,1.5 M12,0.5c-0.2,0-0.3,0.1-0.4,0.2L2,17.2c-0.2,0.3,0,0.8,0.4,0.8h19
		c0.4,0,0.6-0.4,0.4-0.8L12.4,0.7C12.3,0.6,12.2,0.5,12,0.5L12,0.5z"/>
	<path class="st0" d="M15.4,13.7c-0.6,1.3-1.9,2.2-3.4,2.2c-2.1,0-3.8-1.7-3.8-3.8S9.9,8.2,12,8.2c1.5,0,2.8,0.9,3.4,2.2l0.9-0.5
		c-0.8-1.6-2.4-2.7-4.3-2.7c-2.7,0-4.8,2.2-4.8,4.8s2.2,4.8,4.8,4.8c1.9,0,3.5-1.1,4.3-2.7L15.4,13.7z"/>
	<g>
		<path class="st1" d="M13.7,11.5V10v4V11.5z M10.3,10v2V10z"/>
		<polygon class="st0" points="14.2,9.5 13.2,9.5 13.2,11.5 10.8,11.5 10.8,9.5 9.8,9.5 9.8,14.5 10.8,14.5 10.8,12.5 13.2,12.5 
			13.2,14.5 14.2,14.5 14.2,9.5 		"/>
	</g>
</g>
</svg>
