<svg xmlns="http://www.w3.org/2000/svg" width="403" height="65.563" viewBox="0 0 403 65.563">
  <g id="tense_3" transform="translate(-147 -291.813)">
    <g id="line" transform="translate(0.5)">
      <line id="Line-2" data-name="Line" x2="400" transform="translate(148 330.5)" fill="none" stroke="#707070" stroke-linecap="round" stroke-width="3"/>
      <path id="left" d="M-14.5-2759l7,6Zm7-6c-2.25,2.25-7,6-7,6Z" transform="translate(162.497 3089.5)" fill="none" stroke="#707070" stroke-linecap="round" stroke-linejoin="round" stroke-width="3"/>
      <path id="right" d="M0,6,7,0Zm7,6C4.75,9.75,0,6,0,6Z" transform="translate(548 336.5) rotate(180)" fill="none" stroke="#707070" stroke-linecap="round" stroke-linejoin="round" stroke-width="3"/>
      <circle id="现在" cx="6" cy="6" r="6" transform="translate(342.5 325)" fill="#707070"/>
      <path id="路径_81" data-name="路径 81" d="M10.188-12.875h.438q.563,0,1.188,2.875,1.375,0,1.375.938v.25q-1.563.125-1.562.5V-3.75q-.25,2.375-.75,2.375H10.75q-2-1.188-2-1.875h1.313q.25,0,.25-1.812h-.187a1.509,1.509,0,0,0,.188-.5q0-.625.188-2.625a1.582,1.582,0,0,0-.75-.25,10.352,10.352,0,0,1-1.125.25Q7.75-8.5,7.75-8.812v-.375a14.955,14.955,0,0,0,2.563-.437v-.937Q10.313-11.312,10.188-12.875Zm-6.625,2.5h.563a4.827,4.827,0,0,1,1.25,1.063v.5A2.181,2.181,0,0,1,3.563-9.875ZM2.375-7.25H2.75q1.938,0,1.938,2.188A9.587,9.587,0,0,0,5.5-2.187q0,1.688,7.563,2Q15,0,15,.563V.688q-.063.5-1.312.5h-.375A30.35,30.35,0,0,1,2.75-1.125q-1.438,0-1.562-.687V-2.25l3.25.438V-2.75A5.18,5.18,0,0,1,3.375-4.875a5.209,5.209,0,0,0,.188-1.187Q2.375-6.375,2.375-6.75Zm4.5.25q1.875,0,2.25.938v.188q0,.437-.375.438H8.625q-1.75-.812-1.75-1.187Zm14.962-5.187q.812,0,.563,2.25v1.375q1.125-.312,2.188-.5.437.063.813.875l-.187.375-1.125.063-.812.125q-.875,0-.875.313v1.75q.062.25.125.25a51.735,51.735,0,0,1,5.375-.5,2.188,2.188,0,0,1,.625,1.5q-.187,0-.187.25a4.5,4.5,0,0,0-2-.375l-2.75.25q-1.25,0-2.562,2.125L20.337-.875q.437,0,2.688-.312,1.313-.25,1.313-.375L24.15-2.625h.5A12.507,12.507,0,0,1,26.837.313l-.75,1.125q-.313,0-1.375-1.687h-.125q-3.375.563-3.812.625t-1.75.313q-.688-.313-.687-.562V-.187q2.375-2.688,2.375-3.75v.063l-3.937.563H16.15v-1q5.063-.625,4.938-1.062.188-2,.063-1.937a1.92,1.92,0,0,1-1.937-.312V-8a5.924,5.924,0,0,1,2.125-.5l.063-2.687v-.625Q21.587-12.187,21.837-12.187Z" transform="translate(156.5 355)" fill="#9e6a4d"/>
      <path id="路径_80" data-name="路径 80" d="M-4.45-11.187q.75.375.812.75v5.25l-.125.875a2.561,2.561,0,0,1-1.125-.312l.125-5.5-1,.063q-1.687.188-1.687.438v1.5a27.914,27.914,0,0,1-.312,4.188L-8.7-4v-.25q.188-2.812.188-5.625Q-8.512-10.875-4.45-11.187Zm-6.313,1.813q.813.063.813.5v.313l-.938.125v1.5A3.748,3.748,0,0,1-9.637-7v.375q0,.313-1.188.75a16.861,16.861,0,0,1-.312,2.313h.375a4.07,4.07,0,0,0,1.125-.375l.375.313q0,.687-4.25,2.125a2.056,2.056,0,0,0-.625-.125v-.812q2,0,2.188-2.25v-.625a.166.166,0,0,0-.187-.187h-.437a1.109,1.109,0,0,0-.5.125q-.75-.25-.75-.562,0-.375,1.938-.812l.125-.187v-.937q.125-.625-1-.187L-13.2-9A6.428,6.428,0,0,1-10.762-9.375Zm4.25.688h.188q.75.312.75.563v.25a25.6,25.6,0,0,0-.219,4.25,5.069,5.069,0,0,0,.656,2.438A1.754,1.754,0,0,0-4.45-.75q3.063.313,3.063-.687a9.109,9.109,0,0,1,.125-1.5h.25q.625,0,1,2.688Q-.325.625-2.325.625l-1.5.063A3.257,3.257,0,0,1-6.7-3.187h.063A5.252,5.252,0,0,1-9.762.063l-1.375.063,1.125-.75A7.952,7.952,0,0,0-6.825-5a27.493,27.493,0,0,0,.313-2.75ZM5.762-12.25h.625q.313,0,.813.688a16.02,16.02,0,0,1-.437,2.625h.563q.375,0,2.938-.5.875.312.875.813v.313Q6.575-8,6.45-7.687A19.557,19.557,0,0,0,4.575-3.875q0,.25.125,1.625a25.106,25.106,0,0,1-.125,3.813H4.262Q3.325,1.25,3.2.813a9.007,9.007,0,0,0,.313-2.125V-2.875l-.562.438Q1.45-.875,1.012-.875H.45Q4.2-5.125,4.762-7.312,2.95-7.438,2.887-8.375l.625-.062q1.938-.063,2.25-1.5l.063-.625v-.312Zm2.313,5.5H8.45q.687,0,.75,1.938h1.063l1.125.125v.438q0,.563-2.063.688l-.062.125V-3a12.059,12.059,0,0,0,.063,2h1.688q1.812-.375,2.375.438L13.7.25H10.95L5.575.625Q4.825.375,4.825,0q.062-.5.438-.5H5.7q2.375,0,2.375-.437V-3q0-.063-.25-.312l-.812.25q-.875-.312-.875-.687v-.312q1.938-.187,1.938-.562V-6.75Z" transform="translate(348.5 355)" fill="#9e6a4d"/>
      <path id="路径_79" data-name="路径 79" d="M-21.65-11.875h.625q.062.75.25.75t2.063-.437l.188.438v.438A22.848,22.848,0,0,1-22.337-5.75h.313A6.938,6.938,0,0,0-19.462-6V-7l.063-1.062h.875a11.389,11.389,0,0,1-.125,1.938h2.25a1.026,1.026,0,0,1,1.125.875l-.562.188h-2.5q-.125,0-.062.188l.063,1.563L-18.4-.687q0,.75.125,2.063a1.24,1.24,0,0,0-.125.563h-.562q-1-.688-2.562-1.75V-.125q0-.125.375-.125.125,0,1.5.375h.063l.063-.5A9.158,9.158,0,0,0-19.4-1.719V-4.625q0-.25-.375-.312a28.342,28.342,0,0,0-4.625.625v-.375a15.192,15.192,0,0,0,2.75-3.187q0-.438-1.437-1A5.357,5.357,0,0,0-21.65-11.875Zm-.125,2.563a2.27,2.27,0,0,0,.563.5q1.125-.625,1.125-1.437l-.125-.062A2.044,2.044,0,0,0-21.775-9.312Zm-4.437-1.437h.563A1.7,1.7,0,0,1-24.9-9v1.5l.063,1.563q-.125,3-.187,4.875t-.062,2.25h-.625a.442.442,0,0,1-.5-.5l.188-1.875v-4q-1.625,3.313-2.937,3.313v-.562a33.412,33.412,0,0,0,2.125-3.125v-.062l-1.625-1.312V-7.5a10.79,10.79,0,0,1,1.938.688q.437.688.625-.5V-9.187Zm4.188,7q1.438.5,1.438.938v.438q-.25,0-.25.375a5.437,5.437,0,0,0-2.187-.937V-3.75Zm12.9-8.5.813-.062q.188,1.938.313,2.5l1.438-.125q.75.25.75.5v.563H-8v2.25l.063-.062a4.445,4.445,0,0,0,.813-1.875L-6-8.125v.188A6.711,6.711,0,0,1-7.812-5.875v.625l2-.062q3.188-.125,3.188.938a1.891,1.891,0,0,1-.625.188H-7.187l-.125.063A17.234,17.234,0,0,0-2.125-.687v.5q-.625.125-.687.125-1.75,0-4.562-2.812l-.5-.437Q-7.937.375-7.937,2.063v.313h-.625q-.5-.187-.5-1.187.125-2.313.125-3Q-8.937-2-9-2.625A16.585,16.585,0,0,1-12.875.188h-.687a25.6,25.6,0,0,0,3.625-3.75l.25-.375q-3.562.25-3.812.25l-.125-.875q4.563-.437,4.688-.5l-.125-3.562-.25-.062-1.5.125-.5-.375q0-.5,2.125-.75a2.689,2.689,0,0,0,.063-.5Zm-1.25,4q.625,0,.938,2-.312.75-.625.75A4.135,4.135,0,0,1-10.75-8Z" transform="translate(539.5 355)" fill="#9e6a4d"/>
      <g id="标记点" transform="translate(198.5)">
        <path id="X" d="M63.015-2845l-5-5,5,5,5-5-5,5,5,5-5-5-5,5Z" transform="translate(185.985 3175.501)" fill="none" stroke="#127ea9" stroke-linecap="round" stroke-linejoin="round" stroke-width="3"/>
        <path id="多边形" d="M5.122,1.609a1,1,0,0,1,1.756,0l4.315,7.912A1,1,0,0,1,10.315,11H1.685A1,1,0,0,1,.807,9.521Z" transform="translate(243 344)" fill="#127ea9"/>
      </g>
    </g>
    <path id="路径_78" data-name="路径 78" d="M-152.062-12.25h.313q.5,0,.688,1.313v.813l.063.5q0,.125,1.188-.187l-.062,1.188L-151-8.312v.875q0,.188.25.188.813,0,3.063-.187,1.313-.062,1.313.375v.25l-.187.375-.937.125q-2.375.188-3.562.188.063.437.063.5a11.283,11.283,0,0,0,5.75,3.75l.375.5-.187.438a9.98,9.98,0,0,1-4.25-1.375q-1.25-1.125-1.75-1.687.063.5.188,5.875l-.875-.062q-.25,0-.5-.562.063-1.625.063-2.437L-152.125-4l-.312.188q-3.187,3.438-4.25,3.438V-.687q3.938-3.937,3.938-5.062a.555.555,0,0,0-.25-.062q-2.125.437-3.187.75l-.187-.437v-.437q4.25-1,4.25-1.187.25-.937-1.437-1.125l-.375-.687q1.875-.438,1.875-.625V-12.25Zm13.9,0,.813-.062q.188,1.938.313,2.5l1.438-.125q.75.25.75.5v.563h-2.187v2.25l.063-.062a4.445,4.445,0,0,0,.813-1.875l1.125.438v.188a6.711,6.711,0,0,1-1.812,2.063v.625l2-.062q3.188-.125,3.188.938a1.891,1.891,0,0,1-.625.188h-3.937l-.125.063a17.234,17.234,0,0,0,5.188,3.438v.5q-.625.125-.687.125-1.75,0-4.562-2.812l-.5-.437q-.063,3.688-.062,5.375v.313h-.625q-.5-.187-.5-1.187.125-2.313.125-3,0-.187-.062-.812A16.585,16.585,0,0,1-141.913.188h-.687a25.6,25.6,0,0,0,3.625-3.75l.25-.375q-3.562.25-3.812.25l-.125-.875q4.563-.437,4.688-.5l-.125-3.562-.25-.062-1.5.125-.5-.375q0-.5,2.125-.75a2.688,2.688,0,0,0,.063-.5Zm-1.25,4q.625,0,.938,2-.312.75-.625.75a4.135,4.135,0,0,1-.687-2.5Zm17.4-3.937.875.25q.062,1.5.188,1.5,1.562-.063,1.563.375l-.062.563h-1.5q-.375,0-.375,4.313l-.937.188-.375-.062v.75h.063l3.5-.5.313.5v.5l-3.25.313v.125a11.44,11.44,0,0,0,5.5,3.125V.438q-2.563,0-6.125-2.937l.063.438-.312,1.75Q-122.638,2-123.2,2q-.375,0-.625-.687v-4h.125q-3.688,3.438-4.5,3V0q3.313-2.5,3.312-3h-.187q-.437,0-2.5.25l-.125-.125-.125-.75q3.75-.312,4-.625.125-.5-.062-.5l-.875.125L-125.45-5q.062-1.063.063-2.375v-1.5h-1.062q-.812,0-.687-.812,1.625-.312,1.625-.437V-10.5l-.062-1.125.688.063.563,1.438h.125q2.188-.063,2.188-.437Zm-2.187,3h-.187v.75q.062.25.188.25,1.438-.125,1.75-.125A.972.972,0,0,0-122.137-9v-.312a.166.166,0,0,0-.187-.187A10.377,10.377,0,0,1-124.2-9.187Zm-.187,1.938-.125.875v.438q.062.188.125.188h.188a2.079,2.079,0,0,0,1.125-.312l.313.125a.628.628,0,0,0,.5-.687V-7.25q0-.187-.25-.187Zm15.587-4.312q.688,1.5,4.063,3.125,2.938,1.125,3.063,1.563a.276.276,0,0,1-.312.313q-2.563.125-6.812-3.625h-.187q-.937,2.25-4.437,4.563h-.375a.276.276,0,0,1-.312-.312,14.782,14.782,0,0,0,4.125-4.437Q-109.988-10.75-108.8-11.562Zm-.312,2.938a3.275,3.275,0,0,1,.938,2.688v.5q0,1.25.063,3.375l.063.438q-.375,3.063-.687,3.063h-.312a7.3,7.3,0,0,0-.312-1.5,1.71,1.71,0,0,1,.063-.375q.125-4.25.125-6.75v-.375l-.312-.375V-8.25A.331.331,0,0,1-109.113-8.625ZM-91.15-12.25l.625.25q.563.625.563,3.375,2.5-.25,2.125,1.063l-1.687.125a2.055,2.055,0,0,0-.5.063q.062,1.375,0,4.313.062,2.25.063,2.75-.062,2.25-.75,2.25a16,16,0,0,1-2.5-2.25V-.75h.375l1.125.438h.188q.125,0,.313-.312l.063-2.562.063-4.125h-.25q-.75,0-2.812.188l-1-.375.125-.562a12.294,12.294,0,0,1,3.875-.5A25.353,25.353,0,0,1-91.15-12.25ZM-96.4-8.937q1.063.188,1,1.625-.062,2.188-.062,3.25v1q-.125,1.563-.75,1.563a1.7,1.7,0,0,1-.937-1,.729.729,0,0,0,.5-.75V-4.812a.11.11,0,0,0-.125-.125h-.187q-1.937,0-1.937.188v1.5h.188l1.375-.125a1.029,1.029,0,0,1,.375.688v.375a7.562,7.562,0,0,0-2,.438h-.375l-.812-.625.125-3.875V-8Q-99.712-8.813-96.4-8.937Zm-2.437,1.563v1.25q.062.125.125.125,1.937-.25,2-.25.125-1.625-.062-1.625h-.875Q-98.713-7.625-98.838-7.375Zm4.375,1.75h.313q1.875.25,1.875,1.063v.188a2.365,2.365,0,0,1-.25.875,5.431,5.431,0,0,1-1.937-1.75ZM-75.875-11.5q1.063.063,1.063,3.875.25,6.375-.625,8.75h-.875Q-78.75-.063-78.875-.437l.5-.062,1.75.188h.25q.313,0,.438-1.75a59.2,59.2,0,0,0-.125-8.375,1.023,1.023,0,0,0-.25-.062q-2.563.125-4,.125v-.25Q-80.312-11.25-75.875-11.5Zm-8.75.125h.313q1.875.25,1.875.75,0,.25-.687.5a1.734,1.734,0,0,1-1.5-.687Zm.125,1.813q.25,0,.563.625A74.787,74.787,0,0,0-84,0h-.5q-.562,0-.625-.625-.062-1.5-.062-1.812V-5.812Q-85.187-9.562-84.5-9.562Zm5.813.75q.812.188.813,1.813v3q0,1.375-3.625,1.375-.75,0-.75-1.375V-5.812a17.524,17.524,0,0,0-.125-1.875,2.056,2.056,0,0,0,.125-.625H-82q.375,0,.813,1.688l.25.188q2.125-.25,2.125-.437v-.812q0-.187-.375-.375h-.375l-1.75.125-.125-.375A7.687,7.687,0,0,1-78.687-8.812ZM-81.375-5.25V-4q0,.125.375.25l1.688-.062q.188,0,.5-.437V-5.687q0-.187-.125-.187h-.375Q-81-5.875-81.375-5.25Zm15.4-5.625v.813q4.25,3.188,6.438,3.438l1.25.438L-59.85-5.5a6.763,6.763,0,0,1-3.812-1.875,15.9,15.9,0,0,0-2.75-2,19.537,19.537,0,0,1-4.812,4.438h-.437V-5.25a17.042,17.042,0,0,0,4.875-6Q-66.662-11.625-65.975-10.875Zm-.687,4.063h1.688q.25,0,.625.5a1.744,1.744,0,0,1-1.25.688h-.812q-1.187,0-1.187-.687Q-67.412-6.813-66.662-6.812Zm3.938,1.938q1.188.375,1.188.688v.625q-.75,0-1.812-.062-3.188,0-3.188.688A8.091,8.091,0,0,1-67.6-.875l.125.063q3.188-.125,2.75-1.437Q-61.912-1-61.662,0a6.2,6.2,0,0,0-.25,1.25h-.437A11.985,11.985,0,0,0-63.912-.375q-4.5.938-5,.938Q-69.6.25-69.6-.125V-.437A8.457,8.457,0,0,0-67.35-3.25a21.825,21.825,0,0,1-2.437.188H-70.1q-.375,0-.375-.437v-.312A63.377,63.377,0,0,1-62.725-4.875Zm10.025-6.75q.625,0,.625,1.5V-9q0,.188,1.625.313v.313q0,.438-1.687.688L-52.2-7.5v1.313h1.563q.5-.25,1.438-3.375v-1.375h.375q.375,0,.75.813a4.987,4.987,0,0,0-.312,1.313v.125A11.359,11.359,0,0,0-45.7-9.125h.375l-.062.938q-1.062.25-1.062.813a23.4,23.4,0,0,1-1.062,4q0,1,2.375,2.563,1.75.375,1.75.938,0,.375-.437.375h-.187Q-45.95.5-48.2-2.312h.063A10.018,10.018,0,0,1-52.012.313v-.5a10.036,10.036,0,0,0,3.063-3v-.125a4.928,4.928,0,0,1-1.125-2h.438q.875.875,1.375.875a5.106,5.106,0,0,0,.5-2.312V-7.5q0-.187-.125-.187-1.312,0-2.875,3.188,0,2.313-2.562,2.313-.438,0-.937.75-.438-.062-.812-.875v-1.25Q-55.2-5.25-55.2-5.937h1.188L-53.45-6V-7.375q0-.187-.312-.187l-.812.188-.187-.437v-.375a1.764,1.764,0,0,0,1.75-.875v-1.375q0-.125-.062-1Zm-2.625,1.063a2.056,2.056,0,0,0,.625.125v.688A7.525,7.525,0,0,0-56.262-7.5a13.977,13.977,0,0,1,.375,2.375A36.318,36.318,0,0,1-55.95.188a1.937,1.937,0,0,1-1.062-.375V-6q0-.75-.062-.75l-.75.5h-.625Zm1.188,5.938q0,1.375.5,1.375,2,0,2-1.75l-.125-.062h-2Q-54.012-5.062-54.137-4.625Zm19.4-6.875h.125q.25,0,.5.5v.438a10.056,10.056,0,0,1-.625,2.313q2.5-.125,2.938-.125,1,.25,1,.688v.063q-.5,7.688-2.25,8.75h-.312a6.185,6.185,0,0,1-1.812-2,2.9,2.9,0,0,0,.063-.562h.438a2.055,2.055,0,0,0,1.063.688l.438.063q.563.5,1-6.375v-.125q0-.062-.312-.062-.562,0-2.875.063-1.75,1.688-1.625,2.813A42.371,42.371,0,0,1-37.675.313H-38.3l-.75-.875h-.375q-.813.125-2.25.438l-.25-.5Q-41.988-4-42.05-5.187q.063-1.563-.562-1.562v-.375l3.188-3.812h.625a1.98,1.98,0,0,1-.625,1.625,6.868,6.868,0,0,1-1.562,1.5h.188q.563,0,2.875-.312.625,0,1,1.5v.063a7.472,7.472,0,0,0,1.688-4.312Q-34.925-11.5-34.738-11.5Zm-6.375,6.375q0,.188.313.188,1.875-.25,2.125-.25A1.121,1.121,0,0,0-38.113-5l.063-1.875q0-.187-.312-.312-2.75,0-2.75,1.25Zm5.438-.125q2.313.313,2.313.938v.875q-.187,0-.187.125Q-36.238-4.563-36.238-5v-.062Q-36.238-5.312-35.675-5.25Zm-5.25,3.75h-.062q1.437-.313,1.625-.375a3.019,3.019,0,0,0,.938.438,6.434,6.434,0,0,0,.313-2.875h-.062a8.32,8.32,0,0,0-2.812.75Q-40.925-1.812-40.925-1.5Zm18.4-11.687q.313,0,.438,1.875,1.937-.125,2.625-.125l.438.563v.125a.276.276,0,0,1-.312.313h-2l-.75.125v.375a15.222,15.222,0,0,0,1.875-.187,1.178,1.178,0,0,1,.5.813q-.812,1.875-2.062,1.875l-.25.313q0,.125.375.125,1.438-.187,1.625-.187a2.282,2.282,0,0,1,1,.688v.25l-.25.875q-.062.188.188.125,3.125-.187,3.625.563a1.441,1.441,0,0,0-.125.5,27.267,27.267,0,0,1-3.75-.125l-.437,1.938q0,.188-2.062.188a23.691,23.691,0,0,1-.062,4.5l-.687.063h-.187A7.574,7.574,0,0,1-24.587.938L-24.4.563a4.369,4.369,0,0,0,1.375.125,10.281,10.281,0,0,0,0-1.687v-.5q0-.562-.5-.562Q-24.525-2-24.65-2a3.882,3.882,0,0,0-.75-.062l.625-.812q1.813-.25,1.75-.375v-.687q-1.937.125-3.812.25h-1.187q-.25,0-.437-.437,0-.375,3.875-.75A5.639,5.639,0,0,1-23.025-5v-.625h-.5q-.375,0-1,.063a.782.782,0,0,1-.687-.75q2.188-.25,2.188-.562V-7q.125-.313-.312-.125a7.975,7.975,0,0,1-1.062.188q-.688-1.687-.875-2.125,0-.375,2.25-.812l.063-.312-1.25.063h-.437q-.75,0-.75-.187v-.437q2-.312,2.438-.437l.063-.375-.125-1.625Zm.5,4.125a2.8,2.8,0,0,0,.063.813q.688-.25.813-.5l.063-.375h-.562A1.18,1.18,0,0,0-22.025-9.062Zm-2.062.5v.313q.062.25.25.25h.688q.125,0,.125-.25v-.625H-23.4Q-24.087-8.875-24.087-8.562Zm2,2.813v.5a.245.245,0,0,0,.25.188h.5q1,0,1-.937l-.25-.062h-.562Q-22.025-6.062-22.087-5.75Zm1.25,2.438.125-.562a.221.221,0,0,0-.25-.25h-1q.062,0,.031.438t.531.406Zm13.712-9.312h.188q.75.063.75,1.813l1-.062.375.563v.5l-1.062.125V-9.5h.313l.875.125v.688q-1.5,0-1.5.938v.25q.062.188.188.188l1.25-.125h1.938q1.313.25,1.313.625v.25q0,.375-.437.375l-1.875-.25Q-10.688-6-10.687-5.5l-.875-.062q0,3.875.063,5.5l-.062.938q-.312.688-.625.688-.438,0-.562-.937.188-3.313.188-11.375l.438-.187h.188a3.607,3.607,0,0,1,.313,1.375l.063,2.375v.125q0,.188.75.75a14.719,14.719,0,0,1,3.25-.875l.188-.375V-7.75Q-7.375-8-7.5-8h-.25l-.75.25-.25-.375v-.5q1.375,0,1.563-.687-1.375-.312-1.375-.625v-.437q1.438-.125,1.438-.25v-2ZM-5.437-6.25q.437,0,1,1l.063.438V-4.5q0,.5.125,6.438,0,.375-.437.375h-.187q-1.563-1-1.687-1.562V.438Q-5.437.75-5.375.75l.063-.125V-1.5h.063q-2.625.438-2.625.688L-7.75.563h.063a5.77,5.77,0,0,0-.062.813h-.5q-.187,0-.625-.75,0-6.25.5-6.25Q-8.25-5.875-5.437-6.25Zm-8.312.438q.438,0,.438.375v.313q-.375,1.813-.875,1.813h-.25Q-14.313-5.813-13.75-5.812Zm6.125.938v.688q0,.188.313.313,1.75-.437,1.75-.625,0-.688-.187-.687Q-7.812-5.062-7.625-4.875ZM-7.812-2.75v.438q.062.125.125.125h.375q2-.312,2-.687v-.5q.062,0-.312-.125Q-7.687-2.75-7.812-2.75Z" transform="translate(539 305)" fill="#1b6b4b"/>
  </g>
</svg>
