<svg xmlns="http://www.w3.org/2000/svg" width="403.003" height="65.25" viewBox="0 0 403.003 65.25">
  <g id="tense_12" transform="translate(-146.997 -292.125)">
    <g id="line" transform="translate(0.5)">
      <line id="Line-2" data-name="Line" x2="400" transform="translate(148 330.5)" fill="none" stroke="#707070" stroke-linecap="round" stroke-width="3"/>
      <path id="left" d="M-14.5-2759l7,6Zm7-6c-2.25,2.25-7,6-7,6Z" transform="translate(162.497 3089.5)" fill="none" stroke="#707070" stroke-linecap="round" stroke-linejoin="round" stroke-width="3"/>
      <path id="right" d="M0,6,7,0Zm7,6C4.75,9.75,0,6,0,6Z" transform="translate(548 336.5) rotate(180)" fill="none" stroke="#707070" stroke-linecap="round" stroke-linejoin="round" stroke-width="3"/>
      <circle id="现在" cx="6" cy="6" r="6" transform="translate(342.5 325)" fill="#707070"/>
      <path id="路径_118" data-name="路径 118" d="M10.188-12.875h.438q.563,0,1.188,2.875,1.375,0,1.375.938v.25q-1.563.125-1.562.5V-3.75q-.25,2.375-.75,2.375H10.75q-2-1.188-2-1.875h1.313q.25,0,.25-1.812h-.187a1.509,1.509,0,0,0,.188-.5q0-.625.188-2.625a1.582,1.582,0,0,0-.75-.25,10.352,10.352,0,0,1-1.125.25Q7.75-8.5,7.75-8.812v-.375a14.955,14.955,0,0,0,2.563-.437v-.937Q10.313-11.312,10.188-12.875Zm-6.625,2.5h.563a4.827,4.827,0,0,1,1.25,1.063v.5A2.181,2.181,0,0,1,3.563-9.875ZM2.375-7.25H2.75q1.938,0,1.938,2.188A9.587,9.587,0,0,0,5.5-2.187q0,1.688,7.563,2Q15,0,15,.563V.688q-.063.5-1.312.5h-.375A30.35,30.35,0,0,1,2.75-1.125q-1.438,0-1.562-.687V-2.25l3.25.438V-2.75A5.18,5.18,0,0,1,3.375-4.875a5.209,5.209,0,0,0,.188-1.187Q2.375-6.375,2.375-6.75Zm4.5.25q1.875,0,2.25.938v.188q0,.437-.375.438H8.625q-1.75-.812-1.75-1.187Zm14.962-5.187q.812,0,.563,2.25v1.375q1.125-.312,2.188-.5.437.063.813.875l-.187.375-1.125.063-.812.125q-.875,0-.875.313v1.75q.062.25.125.25a51.735,51.735,0,0,1,5.375-.5,2.188,2.188,0,0,1,.625,1.5q-.187,0-.187.25a4.5,4.5,0,0,0-2-.375l-2.75.25q-1.25,0-2.562,2.125L20.337-.875q.437,0,2.688-.312,1.313-.25,1.313-.375L24.15-2.625h.5A12.507,12.507,0,0,1,26.837.313l-.75,1.125q-.313,0-1.375-1.687h-.125q-3.375.563-3.812.625t-1.75.313q-.688-.313-.687-.562V-.187q2.375-2.688,2.375-3.75v.063l-3.937.563H16.15v-1q5.063-.625,4.938-1.062.188-2,.063-1.937a1.92,1.92,0,0,1-1.937-.312V-8a5.924,5.924,0,0,1,2.125-.5l.063-2.687v-.625Q21.587-12.187,21.837-12.187Z" transform="translate(156.5 355)" fill="#9e6a4d"/>
      <path id="路径_117" data-name="路径 117" d="M-4.45-11.187q.75.375.812.75v5.25l-.125.875a2.561,2.561,0,0,1-1.125-.312l.125-5.5-1,.063q-1.687.188-1.687.438v1.5a27.914,27.914,0,0,1-.312,4.188L-8.7-4v-.25q.188-2.812.188-5.625Q-8.512-10.875-4.45-11.187Zm-6.313,1.813q.813.063.813.5v.313l-.938.125v1.5A3.748,3.748,0,0,1-9.637-7v.375q0,.313-1.188.75a16.861,16.861,0,0,1-.312,2.313h.375a4.07,4.07,0,0,0,1.125-.375l.375.313q0,.687-4.25,2.125a2.056,2.056,0,0,0-.625-.125v-.812q2,0,2.188-2.25v-.625a.166.166,0,0,0-.187-.187h-.437a1.109,1.109,0,0,0-.5.125q-.75-.25-.75-.562,0-.375,1.938-.812l.125-.187v-.937q.125-.625-1-.187L-13.2-9A6.428,6.428,0,0,1-10.762-9.375Zm4.25.688h.188q.75.312.75.563v.25a25.6,25.6,0,0,0-.219,4.25,5.069,5.069,0,0,0,.656,2.438A1.754,1.754,0,0,0-4.45-.75q3.063.313,3.063-.687a9.109,9.109,0,0,1,.125-1.5h.25q.625,0,1,2.688Q-.325.625-2.325.625l-1.5.063A3.257,3.257,0,0,1-6.7-3.187h.063A5.252,5.252,0,0,1-9.762.063l-1.375.063,1.125-.75A7.952,7.952,0,0,0-6.825-5a27.493,27.493,0,0,0,.313-2.75ZM5.762-12.25h.625q.313,0,.813.688a16.02,16.02,0,0,1-.437,2.625h.563q.375,0,2.938-.5.875.312.875.813v.313Q6.575-8,6.45-7.687A19.557,19.557,0,0,0,4.575-3.875q0,.25.125,1.625a25.106,25.106,0,0,1-.125,3.813H4.262Q3.325,1.25,3.2.813a9.007,9.007,0,0,0,.313-2.125V-2.875l-.562.438Q1.45-.875,1.012-.875H.45Q4.2-5.125,4.762-7.312,2.95-7.438,2.887-8.375l.625-.062q1.938-.063,2.25-1.5l.063-.625v-.312Zm2.313,5.5H8.45q.687,0,.75,1.938h1.063l1.125.125v.438q0,.563-2.063.688l-.062.125V-3a12.059,12.059,0,0,0,.063,2h1.688q1.812-.375,2.375.438L13.7.25H10.95L5.575.625Q4.825.375,4.825,0q.062-.5.438-.5H5.7q2.375,0,2.375-.437V-3q0-.063-.25-.312l-.812.25q-.875-.312-.875-.687v-.312q1.938-.187,1.938-.562V-6.75Z" transform="translate(348.5 355)" fill="#9e6a4d"/>
      <path id="路径_116" data-name="路径 116" d="M-21.65-11.875h.625q.062.75.25.75t2.063-.437l.188.438v.438A22.848,22.848,0,0,1-22.337-5.75h.313A6.938,6.938,0,0,0-19.462-6V-7l.063-1.062h.875a11.389,11.389,0,0,1-.125,1.938h2.25a1.026,1.026,0,0,1,1.125.875l-.562.188h-2.5q-.125,0-.062.188l.063,1.563L-18.4-.687q0,.75.125,2.063a1.24,1.24,0,0,0-.125.563h-.562q-1-.688-2.562-1.75V-.125q0-.125.375-.125.125,0,1.5.375h.063l.063-.5A9.158,9.158,0,0,0-19.4-1.719V-4.625q0-.25-.375-.312a28.342,28.342,0,0,0-4.625.625v-.375a15.192,15.192,0,0,0,2.75-3.187q0-.438-1.437-1A5.357,5.357,0,0,0-21.65-11.875Zm-.125,2.563a2.27,2.27,0,0,0,.563.5q1.125-.625,1.125-1.437l-.125-.062A2.044,2.044,0,0,0-21.775-9.312Zm-4.437-1.437h.563A1.7,1.7,0,0,1-24.9-9v1.5l.063,1.563q-.125,3-.187,4.875t-.062,2.25h-.625a.442.442,0,0,1-.5-.5l.188-1.875v-4q-1.625,3.313-2.937,3.313v-.562a33.412,33.412,0,0,0,2.125-3.125v-.062l-1.625-1.312V-7.5a10.79,10.79,0,0,1,1.938.688q.437.688.625-.5V-9.187Zm4.188,7q1.438.5,1.438.938v.438q-.25,0-.25.375a5.437,5.437,0,0,0-2.187-.937V-3.75Zm12.9-8.5.813-.062q.188,1.938.313,2.5l1.438-.125q.75.25.75.5v.563H-8v2.25l.063-.062a4.445,4.445,0,0,0,.813-1.875L-6-8.125v.188A6.711,6.711,0,0,1-7.812-5.875v.625l2-.062q3.188-.125,3.188.938a1.891,1.891,0,0,1-.625.188H-7.187l-.125.063A17.234,17.234,0,0,0-2.125-.687v.5q-.625.125-.687.125-1.75,0-4.562-2.812l-.5-.437Q-7.937.375-7.937,2.063v.313h-.625q-.5-.187-.5-1.187.125-2.313.125-3Q-8.937-2-9-2.625A16.585,16.585,0,0,1-12.875.188h-.687a25.6,25.6,0,0,0,3.625-3.75l.25-.375q-3.562.25-3.812.25l-.125-.875q4.563-.437,4.688-.5l-.125-3.562-.25-.062-1.5.125-.5-.375q0-.5,2.125-.75a2.689,2.689,0,0,0,.063-.5Zm-1.25,4q.625,0,.938,2-.312.75-.625.75A4.135,4.135,0,0,1-10.75-8Z" transform="translate(539.5 355)" fill="#9e6a4d"/>
      <g id="标记点" transform="translate(198.5)">
        <path id="X" d="M63.015-2845l-5-5,5,5,5-5-5,5,5,5-5-5-5,5Z" transform="translate(185.985 3175.501)" fill="none" stroke="#127ea9" stroke-linecap="round" stroke-linejoin="round" stroke-width="3"/>
        <path id="多边形" d="M5.122,1.609a1,1,0,0,1,1.756,0l4.315,7.912A1,1,0,0,1,10.315,11H1.685A1,1,0,0,1,.807,9.521Z" transform="translate(243 344)" fill="#127ea9"/>
      </g>
      <path id="曲线" d="M-542.138,398.866s-3.463-1.76-2.773-8.241,4.506-4.9,4.918-3.445,2.981,20.338,5.953,3.445,5.807,9.07,8.432,5.9,1.754-13.495,4.238-9.349,7.272,13.737,12.368,8.093" transform="translate(957.5 -61.366)" fill="none" stroke="#ea434a" stroke-linecap="round" stroke-width="2"/>
    </g>
    <path id="路径_137" data-name="路径 137" d="M-190.825-11.937h.438l.438.75-.75,2.875.188.063q1.25-.063,1.625-.062A1.487,1.487,0,0,1-187.512-7,46.587,46.587,0,0,1-189.7,1.125l-.375.188A5.665,5.665,0,0,1-192.45-.75q.188,0,.188-.25a6.385,6.385,0,0,0,1.813.688,28.013,28.013,0,0,0,1.563-6.125V-7l-2.125.063a21.473,21.473,0,0,1-1.375,3.625,11.024,11.024,0,0,1-3,4h-.375V.375l.625-1Q-195.763-2-195.95-2a21.378,21.378,0,0,0-4.312,1.063v-.5a24.088,24.088,0,0,1,1.75-4.125v.125h-.5l-1.812.063-.187-.375v-.562h.25L-196.575-7l1.5-.187q.25,0,.875.688,0,.437-1,.563-1.75.062-2.125.813a8.431,8.431,0,0,0-1.375,2.5l.625-.125q1.812-.187,1.875-1.25h.5a9.564,9.564,0,0,1,1.313,1.813l.125.375a39.8,39.8,0,0,0,2.125-5,4.031,4.031,0,0,0-1.625-.312l.375-.687q0-.312,1.563-.437Q-191.262-10.062-190.825-11.937Zm-7.562,2.688h.75q1.188,0,1.188.563v.625l-.625.063a1.745,1.745,0,0,1-1.812-1.187Zm19.712-2.187-.125.75-.187.125h.188a25.6,25.6,0,0,0,3.063-.687q.75.312.75.563v.375q-1.625.25-3.125.625l.063,1.438v1l.313-.062a9,9,0,0,1,2.813-.375,1.417,1.417,0,0,1,.375.938q-3.375.25-3.375.688v2a2.055,2.055,0,0,0,.5-.062l2.563-.562q.813.313.875.688-.063.438-3.875,1a5.422,5.422,0,0,0-.062.75V.688q0,.938-.625,1a1.593,1.593,0,0,1-.5-.875l.125-1.187a4.147,4.147,0,0,1,0-1.437q-.125-2.688-.125-4.812V-8.937q0-.625-.25-.75a17.263,17.263,0,0,1-2.312,2.75h-.312V-7.25q2.187-3.375,2.188-4.937Zm-3.937.375h.25a.4.4,0,0,1,.375.438v.438L-183.113-8.5a15.3,15.3,0,0,1,.25,2.375v2.188q-.25,3-.25,3.375v.438a.442.442,0,0,1-.5.5q-.687-.438-.687-.937a38.478,38.478,0,0,0,.438-4.5V-7a1.741,1.741,0,0,1-.125-.375l-1,.5a1.8,1.8,0,0,1-1.312.563Zm17.588-.812h.625q.063.75.25.75t2.063-.437l.188.438v.438a22.848,22.848,0,0,1-3.812,4.938h.313A6.938,6.938,0,0,0-162.837-6V-7l.063-1.062h.875a11.389,11.389,0,0,1-.125,1.938h2.25a1.026,1.026,0,0,1,1.125.875l-.562.188h-2.5q-.125,0-.062.188l.063,1.563-.062,2.625q0,.75.125,2.063a1.24,1.24,0,0,0-.125.563h-.562q-1-.688-2.562-1.75V-.125q0-.125.375-.125.125,0,1.5.375h.063l.063-.5a9.159,9.159,0,0,0,.125-1.344V-4.625q0-.25-.375-.312a28.342,28.342,0,0,0-4.625.625v-.375a15.192,15.192,0,0,0,2.75-3.187q0-.438-1.437-1A5.357,5.357,0,0,0-165.025-11.875Zm-.125,2.563a2.27,2.27,0,0,0,.563.5q1.125-.625,1.125-1.437l-.125-.062A2.044,2.044,0,0,0-165.15-9.312Zm-4.437-1.437h.563a1.7,1.7,0,0,1,.75,1.75v1.5l.063,1.563q-.125,3-.187,4.875t-.062,2.25h-.625a.442.442,0,0,1-.5-.5l.188-1.875v-4q-1.625,3.313-2.937,3.313v-.562a33.412,33.412,0,0,0,2.125-3.125v-.062l-1.625-1.312V-7.5a10.79,10.79,0,0,1,1.938.688q.438.688.625-.5V-9.187Zm4.188,7q1.437.5,1.438.938v.438q-.25,0-.25.375a5.437,5.437,0,0,0-2.187-.937V-3.75Zm16.712-8.125-.062,1.188v.563q0,.188,1.563.5l-.062.688a12.093,12.093,0,0,0-1.5.375v1h.125A9.007,9.007,0,0,0-146-7.812q1,.375,1,.625v.438q-.312,0-.312.188l-.437-.187-1.437.188a1.007,1.007,0,0,0-.437.125v.188q0,.125.563.438h.625q.063,0,.063-.25a3.792,3.792,0,0,1,1,.75v.25q-1.938.313-1.937.625v.375a7.034,7.034,0,0,1,.063,2.625Q-147.375,2-147.937,2A11.208,11.208,0,0,1-150.625.375V-.187a15,15,0,0,0,2.063.438l.25-.437V-2.625q0-1.938-.312-1.937h-.125l-2.875.375-.187-.5q0-.375,3.375-1v-.375l-.25-.375-3.437.563-.25-.375a4.264,4.264,0,0,1,2.438-1.062v-1q0-.125-1.25-.312v-.312q0-.438,1.313-.687v-.937l.125-1.875Zm-5.812.438h.688l.188.875-.062,1.25q0,.5,1.125,1.063v.438q-1.125.313-1.125.5l-.062.875,1.625.438q-1.812,0-1.687,5.813-.312.813-.625.813h-.187q-2.125-1.438-2.125-2.187a.166.166,0,0,0,.188-.187,3.5,3.5,0,0,1,1.313.5,1.1,1.1,0,0,0,.313.125q.063-1.813.063-2.875v-.312q.063,0-1.937,1.25-.813-.187-.812-.625,3-1.563,3-2.875V-7q0-.187-.25-.187H-155l-1.562.125v-.75q1.938-.25,1.938-.625l.063-2.125Zm3.063,7.938q2.562.625,2.563,1.063V-2l-.25.313q-2.5-.75-2.75-1.25A2.708,2.708,0,0,1-151.437-3.5Zm14.587-9.375h.375q.438,0,.75,2.188l.813.313v.438l-1.187,1v.563l.313.125a5.983,5.983,0,0,1,1.75-.312h.938a1.02,1.02,0,0,1,1.063.75v.25A5.2,5.2,0,0,1-133.663-6q-.5,0-.5-.625L-133.85-7v-.312q0-.125-.375-.125l-4.75,1A2.629,2.629,0,0,0-139.6-6.5v-.562q2.438-.437,2.438-1.062v-1q-.375,0-1.062-.062V-9.75q1.375,0,1.375-1.562ZM-141.038-10q.625,0,.625.75a6.726,6.726,0,0,1-1.375,2.688v.313h.063a1.939,1.939,0,0,0,1.188-.5q.312.375.5.375v.438l-1.25,2.125V-3.5q.875,0,.875.375V-3q0,.438-2.312,1.313-.687-.313-.687-.687v-.312a2.736,2.736,0,0,0,1.375-2.125v-.25h.063a8.33,8.33,0,0,0-1.75.688l-.187-.437v-.375A11.083,11.083,0,0,0-141.288-10Zm4.875,3.75.5.5-.062,1.188v1.188q0,.125.25.125A10.529,10.529,0,0,1-133.6-3.5h.625l.125.75-2.062.625q2.063,3.563,4.625,3.563l.438.688v.313a1.109,1.109,0,0,0-.5.125q-2.562,0-5.562-4.125h-.25Q-138.6,2-140.35,2l-.187-.437v-.25q2.75-1.312,2.75-2.625l-.187-.125a6.686,6.686,0,0,0-4.562,2.25q-.562.125-.562.375A1.556,1.556,0,0,0-143.788,1V.625q.063-.562,2-1.437a4.86,4.86,0,0,1,4-1.687q.938,0,1.313-3.75Zm-2.125.25a2.53,2.53,0,0,1,1,1.188v.375a1.685,1.685,0,0,1-1.5-1.062Q-138.725-6-138.288-6Zm-.812,1.438h.25q1.313.625,1.313.938,0,.5-.375.5h-.437q-.312,0-.75-.687Zm18.463-8.312h.375q.313,3.125,1.063,3.125v.438a1.386,1.386,0,0,0-.562,1v.5q.062.188.125.188h1.75q1,.062,1,.5v.25l-.187.375a10.148,10.148,0,0,0-1.25-.125q-1.438.125-1.437.438v3.125q0,1.813-.625,1.813-.25,0-.5-.687l.125-.625q-.125-3.625-.625-3.625h-.25A11.537,11.537,0,0,0-122.7-3.312q-.688.75-.812.75h-.312v-.625a5.552,5.552,0,0,0,.875-2.375.166.166,0,0,0-.187-.187h-.125l-.875.063q-.812-.062-.812-.5v-.125q0-.375,2.188-.687v-.125q-.125-1.687-.5-1.687a4.94,4.94,0,0,0,.5-1.75,6.293,6.293,0,0,1-.187-1.375h.375q.563,0,.875,2.188l.25.063q.5-.25.563-.437v-.687l-.187-1.875ZM-126.762-10h.625q.25,0,.938,1v.563h-.375q-.313,0-1.187-1.062Zm4.938,2.063v.563q.062.125.125.125h.5q.313-.062.313-1v-.312q0-.125-.312-.25A.823.823,0,0,0-121.825-7.937Zm-6.25,1.188q1.875,0,1.875,2.75.5,2.625,1.438,2.625a29.423,29.423,0,0,0,8.188,1.5q0,.313,1,.313v.625l-1.125.125h-2q-2.375,0-8-2l-1.937-.437-.25.125a2.056,2.056,0,0,0-.625-.125v-.625l1.188-.375a2.3,2.3,0,0,0,1.125.313h.625v-.187a11.448,11.448,0,0,1-.875-2.562v-1a.962.962,0,0,1-.875-.625v-.312Q-128.075-6.625-128.075-6.75Zm16.4-4.437h.375q.25,0,.688.625v.375q-.937.687-3.062,2l.188-.875Q-113.237-9.375-111.675-11.187Zm6.75.563.25.375q0,.813-2.125.813-.812-.312-.812-.562v-.312A14.764,14.764,0,0,1-104.925-10.625Zm-5.812,1.688q.437.312.438.563l.188.75a14.7,14.7,0,0,0-1.75,1.438Q-111.8-5-111.8-4.5q0,1.375-.062,3.875l.063,1.25h-.437q-.437-.125-.812-.937A32.593,32.593,0,0,0-112.925-5q0-.75-.187-.562l-1.062.5h-.687V-5.5A31.667,31.667,0,0,0-110.737-8.937Zm8.188.563q.875.375.875.875a27.4,27.4,0,0,1-5.625.938q0,.188-1.312.25a1.937,1.937,0,0,0-.812-.125v-.437Q-109.425-7.375-102.55-8.375Zm-2.937,1.813h.188q.688,0,.813,4.188a14.045,14.045,0,0,1-.375,3.688h-.5A6.522,6.522,0,0,1-107.925-.75h.5a11.411,11.411,0,0,1,1.563.313,15.247,15.247,0,0,0,.125-1.687,17.484,17.484,0,0,0-.187-4.125Zm13.4-4.187.438.438v.438q0,.375-.5.375h-.25q-2.938,0-2.937,1a4.525,4.525,0,0,1-1,1.688v.375q3.25-.625,3.25-1l.313-.687q.625,0,1.813,1.813v.625h-.312a2.014,2.014,0,0,0-.875-.25l-1.562.125a.686.686,0,0,0-.437.25v.875q0,.125.313.25a7.651,7.651,0,0,1,1.188-.125q.5.062.5.375v.625q-1.937.25-1.937.5v1.938q0,.188,1.875.063l1.375-.125q2.75.188,2.75,1V.188l-.25.125L-90.4.25-99.15.5q-1.125-.5-.625-.5L-99.9-.25l.938-.312h.313q1.625-.187,3.375-.375V-3.062q0-.125-.375,0-.688.125-.687.25A1.153,1.153,0,0,1-97.212-3v-.437q0-.375,1.75-.687l.188-.25v-1q0-.125-.187-.125h-.187a14.045,14.045,0,0,1-2.312.188,4.95,4.95,0,0,1-.062-.812,3.381,3.381,0,0,0,1.688-2.562v-.25l-1.125-.875v-.562l1.125.188Zm11.712-1.5h.313q.5,0,.688,1.313v.813l.063.5q0,.125,1.188-.187l-.062,1.188-1.125.313v.875q0,.188.25.188.812,0,3.063-.187,1.313-.062,1.313.375v.25l-.187.375-.937.125q-2.375.188-3.562.188.062.437.063.5a11.283,11.283,0,0,0,5.75,3.75l.375.5-.187.438a9.98,9.98,0,0,1-4.25-1.375Q-78.875-3.437-79.375-4q.062.5.188,5.875l-.875-.062q-.25,0-.5-.562.062-1.625.063-2.437L-80.437-4l-.312.188Q-83.937-.375-85-.375V-.687q3.938-3.937,3.938-5.062a.555.555,0,0,0-.25-.062q-2.125.437-3.187.75l-.187-.437v-.437q4.25-1,4.25-1.187.25-.937-1.437-1.125l-.375-.687q1.875-.438,1.875-.625V-12.25Zm13.9,0,.813-.062q.188,1.938.313,2.5l1.438-.125q.75.25.75.5v.563H-65.35v2.25l.063-.062a4.445,4.445,0,0,0,.813-1.875l1.125.438v.188a6.711,6.711,0,0,1-1.812,2.063v.625l2-.062q3.188-.125,3.188.938a1.891,1.891,0,0,1-.625.188h-3.937l-.125.063A17.234,17.234,0,0,0-59.475-.687v.5q-.625.125-.687.125-1.75,0-4.562-2.812l-.5-.437q-.062,3.688-.062,5.375v.313h-.625q-.5-.187-.5-1.187.125-2.313.125-3,0-.187-.062-.812A16.585,16.585,0,0,1-70.225.188h-.687a25.6,25.6,0,0,0,3.625-3.75l.25-.375q-3.562.25-3.812.25l-.125-.875q4.562-.437,4.688-.5l-.125-3.562-.25-.062-1.5.125-.5-.375q0-.5,2.125-.75a2.689,2.689,0,0,0,.063-.5Zm-1.25,4q.625,0,.938,2-.313.75-.625.75A4.135,4.135,0,0,1-68.1-8Zm17.4-3.937.875.25q.063,1.5.188,1.5,1.563-.063,1.563.375l-.062.563h-1.5q-.375,0-.375,4.313L-50.575-5l-.375-.062v.75h.063l3.5-.5.313.5v.5l-3.25.313v.125a11.44,11.44,0,0,0,5.5,3.125V.438q-2.562,0-6.125-2.937l.063.438L-51.2-.312Q-50.95,2-51.512,2q-.375,0-.625-.687v-4h.125q-3.687,3.438-4.5,3V0Q-53.2-2.5-53.2-3h-.187q-.438,0-2.5.25l-.125-.125-.125-.75q3.75-.312,4-.625.125-.5-.062-.5l-.875.125L-53.762-5q.063-1.063.063-2.375v-1.5h-1.062q-.813,0-.687-.812,1.625-.312,1.625-.437V-10.5l-.062-1.125.688.063.563,1.438h.125q2.187-.063,2.188-.437Zm-2.187,3H-52.7v.75q.063.25.188.25,1.437-.125,1.75-.125A.972.972,0,0,0-50.45-9v-.312a.166.166,0,0,0-.187-.187A10.377,10.377,0,0,1-52.512-9.187ZM-52.7-7.25l-.125.875v.438q.063.188.125.188h.188a2.079,2.079,0,0,0,1.125-.312l.313.125a.628.628,0,0,0,.5-.687V-7.25q0-.187-.25-.187Zm15.587-4.312q.687,1.5,4.063,3.125,2.938,1.125,3.063,1.563a.276.276,0,0,1-.312.313q-2.562.125-6.813-3.625H-37.3q-.937,2.25-4.437,4.563h-.375a.276.276,0,0,1-.312-.312A14.782,14.782,0,0,0-38.3-10.375Q-38.3-10.75-37.113-11.562Zm-.312,2.938a3.275,3.275,0,0,1,.938,2.688v.5q0,1.25.063,3.375l.063.438q-.375,3.063-.687,3.063h-.312a7.3,7.3,0,0,0-.312-1.5,1.709,1.709,0,0,1,.063-.375q.125-4.25.125-6.75v-.375l-.312-.375V-8.25A.331.331,0,0,1-37.425-8.625Zm17.963-3.625.625.25q.563.625.563,3.375,2.5-.25,2.125,1.063l-1.687.125a2.055,2.055,0,0,0-.5.063q.062,1.375,0,4.313.062,2.25.063,2.75-.062,2.25-.75,2.25a16,16,0,0,1-2.5-2.25V-.75h.375l1.125.438h.188q.125,0,.313-.312l.063-2.562.063-4.125h-.25q-.75,0-2.812.188l-1-.375.125-.562a12.294,12.294,0,0,1,3.875-.5A25.354,25.354,0,0,1-19.462-12.25Zm-5.25,3.313q1.063.188,1,1.625-.062,2.188-.062,3.25v1Q-23.9-1.5-24.525-1.5a1.7,1.7,0,0,1-.937-1,.729.729,0,0,0,.5-.75V-4.812a.11.11,0,0,0-.125-.125h-.187q-1.937,0-1.937.188v1.5h.188l1.375-.125a1.029,1.029,0,0,1,.375.688v.375a7.562,7.562,0,0,0-2,.438h-.375l-.812-.625.125-3.875V-8Q-28.025-8.813-24.712-8.937ZM-27.15-7.375v1.25q.062.125.125.125,1.937-.25,2-.25.125-1.625-.062-1.625h-.875Q-27.025-7.625-27.15-7.375Zm4.375,1.75h.313q1.875.25,1.875,1.063v.188a2.365,2.365,0,0,1-.25.875,5.431,5.431,0,0,1-1.937-1.75ZM-4.187-11.5q1.063.063,1.063,3.875.25,6.375-.625,8.75h-.875Q-7.062-.063-7.187-.437l.5-.062,1.75.188h.25q.313,0,.438-1.75a59.2,59.2,0,0,0-.125-8.375,1.023,1.023,0,0,0-.25-.062q-2.563.125-4,.125v-.25Q-8.625-11.25-4.187-11.5Zm-8.75.125h.313q1.875.25,1.875.75,0,.25-.687.5a1.734,1.734,0,0,1-1.5-.687Zm.125,1.813q.25,0,.563.625A74.787,74.787,0,0,0-12.312,0h-.5q-.562,0-.625-.625-.063-1.5-.062-1.812V-5.812Q-13.5-9.562-12.812-9.562ZM-7-8.812q.812.188.813,1.813v3q0,1.375-3.625,1.375-.75,0-.75-1.375V-5.812a17.525,17.525,0,0,0-.125-1.875,2.056,2.056,0,0,0,.125-.625h.25q.375,0,.813,1.688l.25.188q2.125-.25,2.125-.437v-.812q0-.187-.375-.375h-.375l-1.75.125-.125-.375A7.687,7.687,0,0,1-7-8.812ZM-9.687-5.25V-4q0,.125.375.25l1.688-.062q.188,0,.5-.437V-5.687q0-.187-.125-.187h-.375Q-9.312-5.875-9.687-5.25Z" transform="translate(539 305)" fill="#1b6b4b"/>
    <path id="路径_136" data-name="路径 136" d="M-89.838-12v.688a8.248,8.248,0,0,0-1.937,4.938v1.188A10.114,10.114,0,0,0-89.65-.562v.5h-.312q-1.75,0-2.937-4.875a6.584,6.584,0,0,1,0-1.812Q-91.713-12-89.838-12Zm9.463,1.063.688-.062q1.25.063,2.125.063a2.618,2.618,0,0,1,1.688.563v.313Q-77.062-5.25-79.312-5.25l-.062.188q-.062.688,0,.688a9.628,9.628,0,0,0,1.938-.375l.375.563v.25q0,.375-2.187.75l-.125.313v1q0,.188.25.313h2.375l.813-.187q2.188.875,2.188,1.313V0h-.562a13.228,13.228,0,0,0-3.062-.344Q-79.25-.375-85.062.25A1.2,1.2,0,0,0-85.625,0V-.25q0-.5,4.75-1.062.5,0,.5-.562-.062-1.188-.312-1.187a13.285,13.285,0,0,0-1.75.375A2.9,2.9,0,0,0-83-2.75v-.437q0-.25,2.5-1.125v-.562q0-.375-.437-.375a16.268,16.268,0,0,1-1.687.563q-.562-.125-.562-.437-.062-.562.063-.562-.313-3.688-.437-4.25Q-83.562-10.563-80.375-10.937Zm.813,1.125Q-79.625-9-79.5-9q.938-.063.938-.562a1.933,1.933,0,0,0,.75.375v.438q0,.5-1.5.813l-.062.125v.938q.062.188.125.188,1,0,1.625-1.625v-1.25q0-.25-.875-.5Q-79.5-9.938-79.562-9.812Zm-3.062.5.063.5q.062.188.188.188l1.5-.25a.166.166,0,0,0,.188-.187v-.625a.221.221,0,0,0-.25-.25Q-82.625-9.75-82.625-9.312ZM-82.25-7.5v.125l.125,1.188h.875q.625,0,.688-.375v-.812a.771.771,0,0,0-.187-.437Zm17.15-3.937,1.813.25,2-.25a1.552,1.552,0,0,0,.625.25v.375q-.875,3.375-2.187,3.375a5.505,5.505,0,0,0-2.063.375q-.375,0-.562-4.125Q-65.1-11.187-65.1-11.437Zm-3,.5q.437,0,.438,1.063a5.476,5.476,0,0,0-1.937.688l-.187-.5Q-68.85-10.937-68.1-10.937Zm3.563.875q.25,1.313.375,1.313h.75q1.5,0,1.5-1.25v-.062a.221.221,0,0,0-.25-.25h-2.125Q-64.538-10.25-64.538-10.062Zm-4.375.688h.5q.5,1.188.75,1.188l1.125-.062.438.625v.375h-1.062q-.75,0-.937.5v1.188l1.313,1.375v.438q-.25,0-.25.063l-.875-.062H-68.1q-.25,0-.25,3.75V.5q0,.5-.437.5h-.187q-.375,0-.375-.5V-2l.125-1.562-.187-.125h-.062l-1,1h-.5V-3q1.75-2.375,1.75-3.625l-.125-.062a9.262,9.262,0,0,1-2.5.5V-6.75q0-.375,2.813-1.25a.989.989,0,0,0,.125-.625Zm7.125,2.938a1.24,1.24,0,0,0,.563.125v.5q-.125.625-1.375.625h-.125v.875L-62.6-4h1.063l.875.063v.313q0,.687-1.937.813l-.125,1.5q.188.25.313.25,1.812-.313,1.875-.312,1.812.375,1.813,1v.5A1.672,1.672,0,0,0-59.35.25,2.892,2.892,0,0,0-60.538,0h-.25A27.28,27.28,0,0,0-65.85.438q-.875-.187-.875-.562v-.5h.25q2.813,0,2.813-.625v-.812q0-.75-.125-.75-.25,0-1.25.125L-65.288-3q0-.312,1.625-.937V-4.75q0-.375-.125-.375h-.25L-65.1-4.75v-.562Q-65.1-5.875-61.788-6.437Zm12.713-5.687a1.441,1.441,0,0,0,.5.125v.625l-2.125,1v.188q.063.188.125.188.5,0,3.25-.437h.813q1.25,0,1.25,1.063-.813,3.875-1.5,3.875-2.375,0-2.75,1.375-.625.312-.625.688l.25.188h.125a.829.829,0,0,0,.938-.937q0-.875.5-.875h.125q.188,0,.688,1.313h.313q.312,0,2.125-.187h.438q.312,0,.75.563v.563h-.25q-3.625-.063-3.625.813L-47.825.813a1.068,1.068,0,0,1-.812,1.125,8.33,8.33,0,0,1-.187-2.812Q-48.888-2-48.888-2.187a.959.959,0,0,0-.375-.125A25.368,25.368,0,0,0-52.45-2l-.25-.5q1.75-.75,1.75-1.312a1.578,1.578,0,0,0,.563-1.062q-.687-.313-.687-.625v-.375a15.943,15.943,0,0,0-.5-4v-.062Q-51.575-11.125-49.075-12.125Zm1.5,2.688H-48.2v.063q0,.938,1.5.938l.313-.312v-.687q-.375,0-.375-.125Zm-2.625.563v.5a.11.11,0,0,0,.125.125h.813q.188,0,.188-.125V-9q0-.125-.187-.125Q-50.2-9.062-50.2-8.875ZM-52.7-9l.063.438v.188q0,.375-1.187.563a3.851,3.851,0,0,0-1.062,2q0,.188.063.188a2.41,2.41,0,0,1,1.188-.312q1,.188,1,.563v.813q0,2.188-1.562,2.438a16.73,16.73,0,0,0-2.062.25A3.425,3.425,0,0,1-56.575-3.5q-.438,0-1.312.875h-.5v-.312q3.063-3.25,3.063-4.5l-.687-.625V-8.5A23.151,23.151,0,0,1-52.7-9Zm4.5,1.813V-6.5h.875q.375,0,.563-1.187Q-48.075-7.687-48.2-7.187Zm-1.75.25V-6.5q0,.125.188.125h.125a.11.11,0,0,0,.125-.125v-.437Zm-5.687,2.875v.188q.063.75.375.75h.25a1.271,1.271,0,0,0,1.438-1.437q0-.187-.312-.312Q-55.638-4.875-55.638-4.062Zm17.775-8.812h.438q.563.125.563,1.063h-.25q-.375,0-.75-.625Zm2.938.813q.813.312.813.688a8.049,8.049,0,0,0-1.625,2v.313h4.188l.5.688v.125l-.062.438q-2.375-.25-3-.25h-1.625L-42.3-6.937q-.687-.313-.687-.562v-.312A15.172,15.172,0,0,0-38.925-8.5l-.125-1.312v-.5l-.687-.187v-.437Q-39.425-11.312-34.925-12.062Zm-3,1.438a7.8,7.8,0,0,1-.25,1.438l.313.25h.5a2.866,2.866,0,0,0,1.125-1.125v-.375q0-.125-.375-.312A5.3,5.3,0,0,0-37.925-10.625Zm1.875,3.25h.625q1,0,1,.813a10.809,10.809,0,0,0-1.187,3,12.494,12.494,0,0,1-3.875.75,2.36,2.36,0,0,0-.25-.812l.125-.687a14.251,14.251,0,0,1-.312-2.25A13.607,13.607,0,0,1-36.05-7.375ZM-38.8-5.312v.563q0,.75.5.75,2.313,0,2.313-1.25l-.125-.062-2.187.5-.125-.375q0-.313,1.688-.875l.375.188h.313a.166.166,0,0,0,.188-.187v-.125q0-.187-.25-.312H-36.3Q-38.8-6.5-38.8-5.312Zm6.375,2a10.577,10.577,0,0,1,2.188,1.688V-1h-.25q-.937,0-2.438-1.625v-.312A.437.437,0,0,1-32.425-3.312Zm-5.062.5h.5q.25,0,1.375,1.375V-1h-.5q-1.375-1-1.375-1.312Zm-4.437.25h.25q1,.5,1.125,2.688-.25.625-.562.625h-.437a1.109,1.109,0,0,0-.125-.5v-.5a11.625,11.625,0,0,1-.25-1.812Zm2.5.375A3.337,3.337,0,0,0-36.738.25h1.875q.938,0,1.063-.375V-1.25h.438q.625,0,1,2.188,0,.375-3.375.563Q-38.613,1.375-39.3-.187a4.061,4.061,0,0,1-.625-1.187v-.437A.563.563,0,0,1-39.425-2.187Zm15.088-8.875a4.055,4.055,0,0,1,2.563.938q-.125.75-.687.75a4.6,4.6,0,0,1-1.875-1.187Zm3.875,1.75h.563l.188.813q.188,1.688-2,4.375l-.187.313a17.689,17.689,0,0,0,3.188,2.125,16.75,16.75,0,0,0,4,1.125l-.812.313q-.187.375-.875.375h-.125q-2.687,0-6.062-3.187h-.125Q-26.463,0-28.4-.25V-.812A9.375,9.375,0,0,0-23.525-3.75l.125-.187Q-26.088-7.5-26.088-8.062h.375a27.546,27.546,0,0,1,2.75,3l.375.25Q-20.463-7.938-20.463-9.312Zm8.338-3h.75a7.118,7.118,0,0,1,2.063,4.75A10.751,10.751,0,0,1-12.5,0h-.25q-.25,0-.625-.5V-.875a10.485,10.485,0,0,0,2.938-7.062A13.167,13.167,0,0,0-12.125-12.312Z" transform="translate(539 322)" fill="orange"/>
  </g>
</svg>
