<svg xmlns="http://www.w3.org/2000/svg" xmlns:xlink="http://www.w3.org/1999/xlink" width="403.003" height="65.063" viewBox="0 0 403.003 65.063">
  <defs>
    <clipPath id="clip-path">
      <rect id="矩形_6" data-name="矩形 6" width="20" height="20" transform="translate(334 343)" fill="#ea434a" stroke="#707070" stroke-width="1"/>
    </clipPath>
  </defs>
  <g id="tense_9" transform="translate(-146.997 -292.313)">
    <g id="line" transform="translate(0.5)">
      <line id="Line-2" data-name="Line" x2="400" transform="translate(148 330.5)" fill="none" stroke="#707070" stroke-linecap="round" stroke-width="3"/>
      <path id="left" d="M-14.5-2759l7,6Zm7-6c-2.25,2.25-7,6-7,6Z" transform="translate(162.497 3089.5)" fill="none" stroke="#707070" stroke-linecap="round" stroke-linejoin="round" stroke-width="3"/>
      <path id="right" d="M0,6,7,0Zm7,6C4.75,9.75,0,6,0,6Z" transform="translate(548 336.5) rotate(180)" fill="none" stroke="#707070" stroke-linecap="round" stroke-linejoin="round" stroke-width="3"/>
      <circle id="现在" cx="6" cy="6" r="6" transform="translate(342.5 325)" fill="#707070"/>
      <path id="路径_106" data-name="路径 106" d="M10.188-12.875h.438q.563,0,1.188,2.875,1.375,0,1.375.938v.25q-1.563.125-1.562.5V-3.75q-.25,2.375-.75,2.375H10.75q-2-1.188-2-1.875h1.313q.25,0,.25-1.812h-.187a1.509,1.509,0,0,0,.188-.5q0-.625.188-2.625a1.582,1.582,0,0,0-.75-.25,10.352,10.352,0,0,1-1.125.25Q7.75-8.5,7.75-8.812v-.375a14.955,14.955,0,0,0,2.563-.437v-.937Q10.313-11.312,10.188-12.875Zm-6.625,2.5h.563a4.827,4.827,0,0,1,1.25,1.063v.5A2.181,2.181,0,0,1,3.563-9.875ZM2.375-7.25H2.75q1.938,0,1.938,2.188A9.587,9.587,0,0,0,5.5-2.187q0,1.688,7.563,2Q15,0,15,.563V.688q-.063.5-1.312.5h-.375A30.35,30.35,0,0,1,2.75-1.125q-1.438,0-1.562-.687V-2.25l3.25.438V-2.75A5.18,5.18,0,0,1,3.375-4.875a5.209,5.209,0,0,0,.188-1.187Q2.375-6.375,2.375-6.75Zm4.5.25q1.875,0,2.25.938v.188q0,.437-.375.438H8.625q-1.75-.812-1.75-1.187Zm14.962-5.187q.812,0,.563,2.25v1.375q1.125-.312,2.188-.5.437.063.813.875l-.187.375-1.125.063-.812.125q-.875,0-.875.313v1.75q.062.25.125.25a51.735,51.735,0,0,1,5.375-.5,2.188,2.188,0,0,1,.625,1.5q-.187,0-.187.25a4.5,4.5,0,0,0-2-.375l-2.75.25q-1.25,0-2.562,2.125L20.337-.875q.437,0,2.688-.312,1.313-.25,1.313-.375L24.15-2.625h.5A12.507,12.507,0,0,1,26.837.313l-.75,1.125q-.313,0-1.375-1.687h-.125q-3.375.563-3.812.625t-1.75.313q-.688-.313-.687-.562V-.187q2.375-2.688,2.375-3.75v.063l-3.937.563H16.15v-1q5.063-.625,4.938-1.062.188-2,.063-1.937a1.92,1.92,0,0,1-1.937-.312V-8a5.924,5.924,0,0,1,2.125-.5l.063-2.687v-.625Q21.587-12.187,21.837-12.187Z" transform="translate(156.5 355)" fill="#9e6a4d"/>
      <path id="路径_105" data-name="路径 105" d="M-4.45-11.187q.75.375.812.75v5.25l-.125.875a2.561,2.561,0,0,1-1.125-.312l.125-5.5-1,.063q-1.687.188-1.687.438v1.5a27.914,27.914,0,0,1-.312,4.188L-8.7-4v-.25q.188-2.812.188-5.625Q-8.512-10.875-4.45-11.187Zm-6.313,1.813q.813.063.813.5v.313l-.938.125v1.5A3.748,3.748,0,0,1-9.637-7v.375q0,.313-1.188.75a16.861,16.861,0,0,1-.312,2.313h.375a4.07,4.07,0,0,0,1.125-.375l.375.313q0,.687-4.25,2.125a2.056,2.056,0,0,0-.625-.125v-.812q2,0,2.188-2.25v-.625a.166.166,0,0,0-.187-.187h-.437a1.109,1.109,0,0,0-.5.125q-.75-.25-.75-.562,0-.375,1.938-.812l.125-.187v-.937q.125-.625-1-.187L-13.2-9A6.428,6.428,0,0,1-10.762-9.375Zm4.25.688h.188q.75.312.75.563v.25a25.6,25.6,0,0,0-.219,4.25,5.069,5.069,0,0,0,.656,2.438A1.754,1.754,0,0,0-4.45-.75q3.063.313,3.063-.687a9.109,9.109,0,0,1,.125-1.5h.25q.625,0,1,2.688Q-.325.625-2.325.625l-1.5.063A3.257,3.257,0,0,1-6.7-3.187h.063A5.252,5.252,0,0,1-9.762.063l-1.375.063,1.125-.75A7.952,7.952,0,0,0-6.825-5a27.493,27.493,0,0,0,.313-2.75ZM5.762-12.25h.625q.313,0,.813.688a16.02,16.02,0,0,1-.437,2.625h.563q.375,0,2.938-.5.875.312.875.813v.313Q6.575-8,6.45-7.687A19.557,19.557,0,0,0,4.575-3.875q0,.25.125,1.625a25.106,25.106,0,0,1-.125,3.813H4.262Q3.325,1.25,3.2.813a9.007,9.007,0,0,0,.313-2.125V-2.875l-.562.438Q1.45-.875,1.012-.875H.45Q4.2-5.125,4.762-7.312,2.95-7.438,2.887-8.375l.625-.062q1.938-.063,2.25-1.5l.063-.625v-.312Zm2.313,5.5H8.45q.687,0,.75,1.938h1.063l1.125.125v.438q0,.563-2.063.688l-.062.125V-3a12.059,12.059,0,0,0,.063,2h1.688q1.812-.375,2.375.438L13.7.25H10.95L5.575.625Q4.825.375,4.825,0q.062-.5.438-.5H5.7q2.375,0,2.375-.437V-3q0-.063-.25-.312l-.812.25q-.875-.312-.875-.687v-.312q1.938-.187,1.938-.562V-6.75Z" transform="translate(348.5 355)" fill="#9e6a4d"/>
      <path id="路径_104" data-name="路径 104" d="M-21.65-11.875h.625q.062.75.25.75t2.063-.437l.188.438v.438A22.848,22.848,0,0,1-22.337-5.75h.313A6.938,6.938,0,0,0-19.462-6V-7l.063-1.062h.875a11.389,11.389,0,0,1-.125,1.938h2.25a1.026,1.026,0,0,1,1.125.875l-.562.188h-2.5q-.125,0-.062.188l.063,1.563L-18.4-.687q0,.75.125,2.063a1.24,1.24,0,0,0-.125.563h-.562q-1-.688-2.562-1.75V-.125q0-.125.375-.125.125,0,1.5.375h.063l.063-.5A9.158,9.158,0,0,0-19.4-1.719V-4.625q0-.25-.375-.312a28.342,28.342,0,0,0-4.625.625v-.375a15.192,15.192,0,0,0,2.75-3.187q0-.438-1.437-1A5.357,5.357,0,0,0-21.65-11.875Zm-.125,2.563a2.27,2.27,0,0,0,.563.5q1.125-.625,1.125-1.437l-.125-.062A2.044,2.044,0,0,0-21.775-9.312Zm-4.437-1.437h.563A1.7,1.7,0,0,1-24.9-9v1.5l.063,1.563q-.125,3-.187,4.875t-.062,2.25h-.625a.442.442,0,0,1-.5-.5l.188-1.875v-4q-1.625,3.313-2.937,3.313v-.562a33.412,33.412,0,0,0,2.125-3.125v-.062l-1.625-1.312V-7.5a10.79,10.79,0,0,1,1.938.688q.437.688.625-.5V-9.187Zm4.188,7q1.438.5,1.438.938v.438q-.25,0-.25.375a5.437,5.437,0,0,0-2.187-.937V-3.75Zm12.9-8.5.813-.062q.188,1.938.313,2.5l1.438-.125q.75.25.75.5v.563H-8v2.25l.063-.062a4.445,4.445,0,0,0,.813-1.875L-6-8.125v.188A6.711,6.711,0,0,1-7.812-5.875v.625l2-.062q3.188-.125,3.188.938a1.891,1.891,0,0,1-.625.188H-7.187l-.125.063A17.234,17.234,0,0,0-2.125-.687v.5q-.625.125-.687.125-1.75,0-4.562-2.812l-.5-.437Q-7.937.375-7.937,2.063v.313h-.625q-.5-.187-.5-1.187.125-2.313.125-3Q-8.937-2-9-2.625A16.585,16.585,0,0,1-12.875.188h-.687a25.6,25.6,0,0,0,3.625-3.75l.25-.375q-3.562.25-3.812.25l-.125-.875q4.563-.437,4.688-.5l-.125-3.562-.25-.062-1.5.125-.5-.375q0-.5,2.125-.75a2.689,2.689,0,0,0,.063-.5Zm-1.25,4q.625,0,.938,2-.312.75-.625.75A4.135,4.135,0,0,1-10.75-8Z" transform="translate(539.5 355)" fill="#9e6a4d"/>
      <g id="标记点" transform="translate(198.5)">
        <path id="X" d="M63.015-2845l-5-5,5,5,5-5-5,5,5,5-5-5-5,5Z" transform="translate(185.985 3175.501)" fill="none" stroke="#127ea9" stroke-linecap="round" stroke-linejoin="round" stroke-width="3"/>
        <path id="多边形" d="M5.122,1.609a1,1,0,0,1,1.756,0l4.315,7.912A1,1,0,0,1,10.315,11H1.685A1,1,0,0,1,.807,9.521Z" transform="translate(243 344)" fill="#127ea9"/>
      </g>
      <g id="right-2" data-name="right" transform="translate(87.5 -25)" clip-path="url(#clip-path)">
        <path id="duigou" d="M2.259,12.7s3.616,3.562,4.418,7.724c0,0,1.569.433,3.068-3.053S13.858,7.959,22.259,2.347c0,0-8.4,1.882-14.641,12.968,0,0-.732-3.03-1.6-3.92a1.792,1.792,0,0,0-2.126-.105Z" transform="translate(331.741 341.606)" fill="#ea434a"/>
      </g>
    </g>
    <path id="路径_103" data-name="路径 103" d="M-137.725-12.25h.313q.5,0,.688,1.313v.813l.063.5q0,.125,1.188-.187l-.062,1.188-1.125.313v.875q0,.188.25.188.813,0,3.063-.187,1.313-.062,1.313.375v.25l-.187.375-.937.125q-2.375.188-3.562.188.063.437.063.5a11.283,11.283,0,0,0,5.75,3.75l.375.5-.187.438a9.98,9.98,0,0,1-4.25-1.375q-1.25-1.125-1.75-1.687.063.5.188,5.875l-.875-.062q-.25,0-.5-.562.063-1.625.063-2.437L-137.788-4l-.312.188q-3.187,3.438-4.25,3.438V-.687q3.938-3.937,3.938-5.062a.555.555,0,0,0-.25-.062q-2.125.437-3.187.75l-.187-.437v-.437q4.25-1,4.25-1.187.25-.937-1.437-1.125l-.375-.687q1.875-.438,1.875-.625V-12.25Zm13.9,0,.813-.062q.188,1.938.313,2.5l1.438-.125q.75.25.75.5v.563H-122.7v2.25l.063-.062a4.445,4.445,0,0,0,.813-1.875l1.125.438v.188a6.711,6.711,0,0,1-1.812,2.063v.625l2-.062q3.188-.125,3.188.938a1.891,1.891,0,0,1-.625.188h-3.937l-.125.063a17.234,17.234,0,0,0,5.188,3.438v.5q-.625.125-.687.125-1.75,0-4.562-2.812l-.5-.437q-.062,3.688-.062,5.375v.313h-.625q-.5-.187-.5-1.187.125-2.313.125-3,0-.187-.062-.812A16.585,16.585,0,0,1-127.575.188h-.687a25.6,25.6,0,0,0,3.625-3.75l.25-.375q-3.562.25-3.812.25l-.125-.875q4.562-.437,4.688-.5l-.125-3.562-.25-.062-1.5.125-.5-.375q0-.5,2.125-.75a2.689,2.689,0,0,0,.063-.5Zm-1.25,4q.625,0,.938,2-.313.75-.625.75A4.135,4.135,0,0,1-125.45-8Zm17.4-3.937.875.25q.062,1.5.188,1.5,1.562-.063,1.563.375l-.062.563h-1.5q-.375,0-.375,4.313l-.937.188-.375-.062v.75h.063l3.5-.5.313.5v.5l-3.25.313v.125a11.44,11.44,0,0,0,5.5,3.125V.438q-2.563,0-6.125-2.937l.063.438-.312,1.75Q-108.3,2-108.863,2q-.375,0-.625-.687v-4h.125q-3.688,3.438-4.5,3V0q3.313-2.5,3.313-3h-.187q-.437,0-2.5.25l-.125-.125-.125-.75q3.75-.312,4-.625.125-.5-.062-.5l-.875.125L-111.113-5q.062-1.063.063-2.375v-1.5h-1.062q-.812,0-.687-.812,1.625-.312,1.625-.437V-10.5l-.062-1.125.688.063.563,1.438h.125q2.188-.063,2.188-.437Zm-2.187,3h-.187v.75q.062.25.188.25,1.438-.125,1.75-.125A.972.972,0,0,0-107.8-9v-.312a.166.166,0,0,0-.187-.187A10.377,10.377,0,0,1-109.863-9.187Zm-.187,1.938-.125.875v.438q.062.188.125.188h.188a2.079,2.079,0,0,0,1.125-.312l.313.125a.628.628,0,0,0,.5-.687V-7.25q0-.187-.25-.187Zm15.587-4.312q.688,1.5,4.063,3.125,2.938,1.125,3.063,1.563a.276.276,0,0,1-.312.313q-2.563.125-6.812-3.625h-.187q-.937,2.25-4.437,4.563h-.375a.276.276,0,0,1-.312-.312,14.782,14.782,0,0,0,4.125-4.437Q-95.65-10.75-94.463-11.562Zm-.312,2.938a3.275,3.275,0,0,1,.938,2.688v.5q0,1.25.063,3.375l.063.438q-.375,3.063-.687,3.063h-.312a7.3,7.3,0,0,0-.312-1.5,1.71,1.71,0,0,1,.063-.375q.125-4.25.125-6.75v-.375l-.312-.375V-8.25A.331.331,0,0,1-94.775-8.625Zm17.963-3.625.625.25q.563.625.563,3.375,2.5-.25,2.125,1.063l-1.687.125a2.055,2.055,0,0,0-.5.063q.062,1.375,0,4.313.062,2.25.063,2.75-.062,2.25-.75,2.25a16,16,0,0,1-2.5-2.25V-.75h.375l1.125.438h.188q.125,0,.313-.312l.063-2.562.063-4.125H-77q-.75,0-2.812.188l-1-.375.125-.562a12.294,12.294,0,0,1,3.875-.5A25.353,25.353,0,0,1-76.813-12.25Zm-5.25,3.313q1.063.188,1,1.625-.062,2.188-.062,3.25v1Q-81.25-1.5-81.875-1.5a1.7,1.7,0,0,1-.937-1,.729.729,0,0,0,.5-.75V-4.812a.11.11,0,0,0-.125-.125h-.187q-1.937,0-1.937.188v1.5h.188L-83-3.375a1.029,1.029,0,0,1,.375.688v.375a7.562,7.562,0,0,0-2,.438H-85l-.812-.625.125-3.875V-8Q-85.375-8.813-82.063-8.937ZM-84.5-7.375v1.25q.062.125.125.125,1.937-.25,2-.25.125-1.625-.062-1.625h-.875Q-84.375-7.625-84.5-7.375Zm4.375,1.75h.313q1.875.25,1.875,1.063v.188a2.365,2.365,0,0,1-.25.875,5.431,5.431,0,0,1-1.937-1.75ZM-61.538-11.5q1.062.063,1.063,3.875.25,6.375-.625,8.75h-.875Q-64.413-.063-64.538-.437l.5-.062,1.75.188h.25q.312,0,.438-1.75a59.2,59.2,0,0,0-.125-8.375,1.023,1.023,0,0,0-.25-.062q-2.562.125-4,.125v-.25Q-65.975-11.25-61.538-11.5Zm-8.75.125h.313q1.875.25,1.875.75,0,.25-.687.5a1.734,1.734,0,0,1-1.5-.687Zm.125,1.813q.25,0,.563.625A74.787,74.787,0,0,0-69.663,0h-.5q-.562,0-.625-.625-.062-1.5-.062-1.812V-5.812Q-70.85-9.562-70.163-9.562Zm5.813.75q.813.188.813,1.813v3q0,1.375-3.625,1.375-.75,0-.75-1.375V-5.812a17.524,17.524,0,0,0-.125-1.875,2.056,2.056,0,0,0,.125-.625h.25q.375,0,.813,1.688l.25.188q2.125-.25,2.125-.437v-.812q0-.187-.375-.375h-.375l-1.75.125-.125-.375A7.687,7.687,0,0,1-64.35-8.812ZM-67.038-5.25V-4q0,.125.375.25l1.688-.062q.188,0,.5-.437V-5.687q0-.187-.125-.187h-.375Q-66.663-5.875-67.038-5.25Zm18.525-7.437q.687.438.75.75v.188a11.146,11.146,0,0,1-3,2.438h-.375v-.312l2.313-3.062Zm-5.562.875h.313q1.313,1.125,1.313,1.938-.312.5-.687.5A4.045,4.045,0,0,1-54.2-11.25,1.535,1.535,0,0,0-54.075-11.812ZM-47.2-9.687q2.187.125,2.188.875v.063a.331.331,0,0,1-.375.375q-2-.25-2.625-.25a42.68,42.68,0,0,0-8.25,1,2.479,2.479,0,0,0-1.062-.312v-.25q0-.187.688-.625A5.79,5.79,0,0,0-54.2-9.031,48.2,48.2,0,0,1-47.2-9.687Zm0,1.625h.188q.25,0,.563.563a1.007,1.007,0,0,0-.125.438q0,3,.125,5.188V1.75h-.687A6.589,6.589,0,0,1-49.763-.125V-.5a5.7,5.7,0,0,1,2.125.688,18.1,18.1,0,0,0,0-3.469q-.125-3.469-.125-3.781Q-47.575-8.062-47.2-8.062Zm-5.5.313q.5,0,.875.813-.187,5.125-.25,6.938a9.643,9.643,0,0,1,.063,1.063q-.063.5-.437.5-1.5-.75-1.562-1.812.938.25.938-1.875h-.437q-2,.313-1.625,1.75,0,.688-.437.688h-.187q-.375,0-.375-.437-.125-7.063.688-7.062Zm-2.437,2.563q0,.062.688,0l1.5-.25q0-1.25-.437-1.25Q-55.325-6.687-55.138-5.187Zm4.813-1.187h.375a.973.973,0,0,1,.625,1v3.5H-49.7q-.125,0-.812-.75l.188-.812Zm-4.812,2.25-.062.188v.625q.063.25.25.25h.063q1.812-.312,1.813-.5v-.5q0-.25-.125-.312Zm19.15-7.75h.625q.063.75.25.75t2.063-.437l.188.438v.438A22.848,22.848,0,0,1-36.675-5.75h.313A6.938,6.938,0,0,0-33.8-6V-7l.063-1.062h.875a11.389,11.389,0,0,1-.125,1.938h2.25a1.026,1.026,0,0,1,1.125.875l-.562.188h-2.5q-.125,0-.062.188l.063,1.563-.062,2.625q0,.75.125,2.063a1.24,1.24,0,0,0-.125.563H-33.3q-1-.688-2.562-1.75V-.125q0-.125.375-.125.125,0,1.5.375h.063l.063-.5a9.158,9.158,0,0,0,.125-1.344V-4.625q0-.25-.375-.312a28.342,28.342,0,0,0-4.625.625v-.375a15.192,15.192,0,0,0,2.75-3.187q0-.438-1.437-1A5.357,5.357,0,0,0-35.988-11.875Zm-.125,2.563a2.27,2.27,0,0,0,.563.5q1.125-.625,1.125-1.437l-.125-.062A2.044,2.044,0,0,0-36.113-9.312ZM-40.55-10.75h.563A1.7,1.7,0,0,1-39.238-9v1.5l.063,1.563q-.125,3-.187,4.875t-.062,2.25h-.625a.442.442,0,0,1-.5-.5l.188-1.875v-4Q-41.988-1.875-43.3-1.875v-.562a33.412,33.412,0,0,0,2.125-3.125v-.062L-42.8-6.937V-7.5a10.79,10.79,0,0,1,1.938.688q.438.688.625-.5V-9.187Zm4.188,7q1.437.5,1.438.938v.438q-.25,0-.25.375a5.437,5.437,0,0,0-2.187-.937V-3.75Zm12.212-8.062h.188q1.25.563,1.25,1.25.688,0,3.125-.062Q-17.9-10.5-17.9-10v.438a7.273,7.273,0,0,1-2.5,1.438V-8.5l.813-1.062v-.062q0-.125-.187-.125-6.562.375-6.562.813.125,1.25.125,2h-.562q-.25,0-.687-.562l.188-.625v-.437A2.7,2.7,0,0,0-27.9-9.937l.5-.187h.125l.563.25q3-.562,3.063-.562a15.129,15.129,0,0,1-1-1.25Zm2.313,3.563.25.375q0,.688-3.25,1l-.187-.5Q-25.025-8-21.838-8.25Zm2.125,2.063q1.063,0,1.375.438v.313a.331.331,0,0,1-.375.375h-3.062a12.694,12.694,0,0,0-.062,2.5l-.062.438q-.062,1.75,3,1.625h1.5V-2.625a.455.455,0,0,1,.5-.437h.313q0,.375.625,3.438A1.828,1.828,0,0,1-17.088.75q-6.187.75-5.812-3v-.562a18.172,18.172,0,0,1-.125-2.125h-.625A8.61,8.61,0,0,0-24.9-2.312Q-27.463.313-28.4.313V0q2.687-2.688,3.063-4.125v-.562q-2.5.437-2.937.438l-.187-.375Q-28.463-5.313-19.713-6.187Zm10.4-5.625q1.062,0,1.938,2.75L-7.062-9A8.121,8.121,0,0,1-5.25-9.25l.5.688v.313a21.61,21.61,0,0,1-2.125.438l.125.125q1,3.375,1.313,3.375.188,0,.625-2.187h.375a1.262,1.262,0,0,1,.625.938l-.937,2.5Q-3.687-1.125-3.187-1q.188-1.813.75-1.812h.25L-2.062-2A14.91,14.91,0,0,0-1.937-.5q.062,1.188.063,1.938H-2.5A29.42,29.42,0,0,1-5.5-2Q-7.75.313-8.937.313A13.287,13.287,0,0,0-6.125-3.062a33.779,33.779,0,0,0-2-4.562q-3.187,0-3.187.438a4.647,4.647,0,0,0-.125,1.125q0,.062.25,0a11.016,11.016,0,0,1,2.5-.25,2.136,2.136,0,0,1,.5,1,13.392,13.392,0,0,1-.437,3.938h-.812q-.937-.625-.937-.875v-.437q.875,0,.875-.625a12.722,12.722,0,0,0,.313-1.625l-.437-.25-1.812.063a11.269,11.269,0,0,1-.812,2.813A7.826,7.826,0,0,1-13.812-.125h-.5v-.25A15.192,15.192,0,0,0-12.25-6.937l-.25-.687q0-.75,4.125-1l.063-.25a18.478,18.478,0,0,0-1.062-2.562Zm2.625.375h.875q1,.5,1,1.063v.125q0,.375-.5.375A8.117,8.117,0,0,1-6.687-11Z" transform="translate(539 305)" fill="#1b6b4b"/>
  </g>
</svg>
