<svg xmlns="http://www.w3.org/2000/svg" width="403" height="65.25" viewBox="0 0 403 65.25">
  <g id="tense_11" transform="translate(-147 -292.125)">
    <g id="line" transform="translate(0.5)">
      <line id="Line-2" data-name="Line" x2="400" transform="translate(148 330.5)" fill="none" stroke="#707070" stroke-linecap="round" stroke-width="3"/>
      <path id="left" d="M-14.5-2759l7,6Zm7-6c-2.25,2.25-7,6-7,6Z" transform="translate(162.5 3089.5)" fill="none" stroke="#707070" stroke-linecap="round" stroke-linejoin="round" stroke-width="3"/>
      <path id="right" d="M0,6,7,0Zm7,6C4.75,9.75,0,6,0,6Z" transform="translate(548 336.5) rotate(180)" fill="none" stroke="#707070" stroke-linecap="round" stroke-linejoin="round" stroke-width="3"/>
      <circle id="现在" cx="6" cy="6" r="6" transform="translate(342.5 325)" fill="#707070"/>
      <path id="路径_112" data-name="路径 112" d="M10.188-12.875h.438q.563,0,1.188,2.875,1.375,0,1.375.938v.25q-1.563.125-1.562.5V-3.75q-.25,2.375-.75,2.375H10.75q-2-1.188-2-1.875h1.313q.25,0,.25-1.812h-.187a1.509,1.509,0,0,0,.188-.5q0-.625.188-2.625a1.582,1.582,0,0,0-.75-.25,10.352,10.352,0,0,1-1.125.25Q7.75-8.5,7.75-8.812v-.375a14.955,14.955,0,0,0,2.563-.437v-.937Q10.313-11.312,10.188-12.875Zm-6.625,2.5h.563a4.827,4.827,0,0,1,1.25,1.063v.5A2.181,2.181,0,0,1,3.563-9.875ZM2.375-7.25H2.75q1.938,0,1.938,2.188A9.587,9.587,0,0,0,5.5-2.187q0,1.688,7.563,2Q15,0,15,.563V.688q-.063.5-1.312.5h-.375A30.35,30.35,0,0,1,2.75-1.125q-1.438,0-1.562-.687V-2.25l3.25.438V-2.75A5.18,5.18,0,0,1,3.375-4.875a5.209,5.209,0,0,0,.188-1.187Q2.375-6.375,2.375-6.75Zm4.5.25q1.875,0,2.25.938v.188q0,.437-.375.438H8.625q-1.75-.812-1.75-1.187Zm14.962-5.187q.812,0,.563,2.25v1.375q1.125-.312,2.188-.5.437.063.813.875l-.187.375-1.125.063-.812.125q-.875,0-.875.313v1.75q.062.25.125.25a51.735,51.735,0,0,1,5.375-.5,2.188,2.188,0,0,1,.625,1.5q-.187,0-.187.25a4.5,4.5,0,0,0-2-.375l-2.75.25q-1.25,0-2.562,2.125L20.337-.875q.437,0,2.688-.312,1.313-.25,1.313-.375L24.15-2.625h.5A12.507,12.507,0,0,1,26.837.313l-.75,1.125q-.313,0-1.375-1.687h-.125q-3.375.563-3.812.625t-1.75.313q-.688-.313-.687-.562V-.187q2.375-2.688,2.375-3.75v.063l-3.937.563H16.15v-1q5.063-.625,4.938-1.062.188-2,.063-1.937a1.92,1.92,0,0,1-1.937-.312V-8a5.924,5.924,0,0,1,2.125-.5l.063-2.687v-.625Q21.587-12.187,21.837-12.187Z" transform="translate(156.5 355)" fill="#9e6a4d"/>
      <path id="路径_113" data-name="路径 113" d="M-4.45-11.187q.75.375.812.75v5.25l-.125.875a2.561,2.561,0,0,1-1.125-.312l.125-5.5-1,.063q-1.687.188-1.687.438v1.5a27.914,27.914,0,0,1-.312,4.188L-8.7-4v-.25q.188-2.812.188-5.625Q-8.512-10.875-4.45-11.187Zm-6.313,1.813q.813.063.813.5v.313l-.938.125v1.5A3.748,3.748,0,0,1-9.637-7v.375q0,.313-1.188.75a16.861,16.861,0,0,1-.312,2.313h.375a4.07,4.07,0,0,0,1.125-.375l.375.313q0,.687-4.25,2.125a2.056,2.056,0,0,0-.625-.125v-.812q2,0,2.188-2.25v-.625a.166.166,0,0,0-.187-.187h-.437a1.109,1.109,0,0,0-.5.125q-.75-.25-.75-.562,0-.375,1.938-.812l.125-.187v-.937q.125-.625-1-.187L-13.2-9A6.428,6.428,0,0,1-10.762-9.375Zm4.25.688h.188q.75.312.75.563v.25a25.6,25.6,0,0,0-.219,4.25,5.069,5.069,0,0,0,.656,2.438A1.754,1.754,0,0,0-4.45-.75q3.063.313,3.063-.687a9.109,9.109,0,0,1,.125-1.5h.25q.625,0,1,2.688Q-.325.625-2.325.625l-1.5.063A3.257,3.257,0,0,1-6.7-3.187h.063A5.252,5.252,0,0,1-9.762.063l-1.375.063,1.125-.75A7.952,7.952,0,0,0-6.825-5a27.493,27.493,0,0,0,.313-2.75ZM5.762-12.25h.625q.313,0,.813.688a16.02,16.02,0,0,1-.437,2.625h.563q.375,0,2.938-.5.875.312.875.813v.313Q6.575-8,6.45-7.687A19.557,19.557,0,0,0,4.575-3.875q0,.25.125,1.625a25.106,25.106,0,0,1-.125,3.813H4.262Q3.325,1.25,3.2.813a9.007,9.007,0,0,0,.313-2.125V-2.875l-.562.438Q1.45-.875,1.012-.875H.45Q4.2-5.125,4.762-7.312,2.95-7.438,2.887-8.375l.625-.062q1.938-.063,2.25-1.5l.063-.625v-.312Zm2.313,5.5H8.45q.687,0,.75,1.938h1.063l1.125.125v.438q0,.563-2.063.688l-.062.125V-3a12.059,12.059,0,0,0,.063,2h1.688q1.812-.375,2.375.438L13.7.25H10.95L5.575.625Q4.825.375,4.825,0q.062-.5.438-.5H5.7q2.375,0,2.375-.437V-3q0-.063-.25-.312l-.812.25q-.875-.312-.875-.687v-.312q1.938-.187,1.938-.562V-6.75Z" transform="translate(348.5 355)" fill="#9e6a4d"/>
      <path id="路径_114" data-name="路径 114" d="M-21.65-11.875h.625q.062.75.25.75t2.063-.437l.188.438v.438A22.848,22.848,0,0,1-22.337-5.75h.313A6.938,6.938,0,0,0-19.462-6V-7l.063-1.062h.875a11.389,11.389,0,0,1-.125,1.938h2.25a1.026,1.026,0,0,1,1.125.875l-.562.188h-2.5q-.125,0-.062.188l.063,1.563L-18.4-.687q0,.75.125,2.063a1.24,1.24,0,0,0-.125.563h-.562q-1-.688-2.562-1.75V-.125q0-.125.375-.125.125,0,1.5.375h.063l.063-.5A9.158,9.158,0,0,0-19.4-1.719V-4.625q0-.25-.375-.312a28.342,28.342,0,0,0-4.625.625v-.375a15.192,15.192,0,0,0,2.75-3.187q0-.438-1.437-1A5.357,5.357,0,0,0-21.65-11.875Zm-.125,2.563a2.27,2.27,0,0,0,.563.5q1.125-.625,1.125-1.437l-.125-.062A2.044,2.044,0,0,0-21.775-9.312Zm-4.437-1.437h.563A1.7,1.7,0,0,1-24.9-9v1.5l.063,1.563q-.125,3-.187,4.875t-.062,2.25h-.625a.442.442,0,0,1-.5-.5l.188-1.875v-4q-1.625,3.313-2.937,3.313v-.562a33.412,33.412,0,0,0,2.125-3.125v-.062l-1.625-1.312V-7.5a10.79,10.79,0,0,1,1.938.688q.437.688.625-.5V-9.187Zm4.188,7q1.438.5,1.438.938v.438q-.25,0-.25.375a5.437,5.437,0,0,0-2.187-.937V-3.75Zm12.9-8.5.813-.062q.188,1.938.313,2.5l1.438-.125q.75.25.75.5v.563H-8v2.25l.063-.062a4.445,4.445,0,0,0,.813-1.875L-6-8.125v.188A6.711,6.711,0,0,1-7.812-5.875v.625l2-.062q3.188-.125,3.188.938a1.891,1.891,0,0,1-.625.188H-7.187l-.125.063A17.234,17.234,0,0,0-2.125-.687v.5q-.625.125-.687.125-1.75,0-4.562-2.812l-.5-.437Q-7.937.375-7.937,2.063v.313h-.625q-.5-.187-.5-1.187.125-2.313.125-3Q-8.937-2-9-2.625A16.585,16.585,0,0,1-12.875.188h-.687a25.6,25.6,0,0,0,3.625-3.75l.25-.375q-3.562.25-3.812.25l-.125-.875q4.563-.437,4.688-.5l-.125-3.562-.25-.062-1.5.125-.5-.375q0-.5,2.125-.75a2.689,2.689,0,0,0,.063-.5Zm-1.25,4q.625,0,.938,2-.312.75-.625.75A4.135,4.135,0,0,1-10.75-8Z" transform="translate(539.5 355)" fill="#9e6a4d"/>
      <g id="标记点">
        <path id="X" d="M63.015-2845l-5-5,5,5,5-5-5,5,5,5-5-5-5,5Z" transform="translate(185.985 3175.501)" fill="none" stroke="#127ea9" stroke-linecap="round" stroke-linejoin="round" stroke-width="3"/>
        <path id="多边形" d="M5.122,1.609a1,1,0,0,1,1.756,0l4.315,7.912A1,1,0,0,1,10.315,11H1.685A1,1,0,0,1,.807,9.521Z" transform="translate(243 344)" fill="#127ea9"/>
      </g>
      <path id="曲线" d="M-542.138,398.866s-3.463-1.76-2.773-8.241,4.506-4.9,4.918-3.445,2.981,20.338,5.953,3.445,5.807,9.07,8.432,5.9,1.754-13.495,4.238-9.349,7.272,13.737,12.368,8.093" transform="translate(759.5 -61.366)" fill="none" stroke="#ea434a" stroke-linecap="round" stroke-width="2"/>
    </g>
    <path id="路径_111" data-name="路径 111" d="M11.5-11.937h.438l.438.75-.75,2.875.188.063q1.25-.063,1.625-.062A1.487,1.487,0,0,1,14.813-7a46.587,46.587,0,0,1-2.187,8.125l-.375.188A5.665,5.665,0,0,1,9.875-.75q.188,0,.188-.25a6.385,6.385,0,0,0,1.813.688,28.013,28.013,0,0,0,1.563-6.125V-7l-2.125.063A21.473,21.473,0,0,1,9.938-3.312a11.024,11.024,0,0,1-3,4H6.563V.375l.625-1Q6.563-2,6.375-2A21.378,21.378,0,0,0,2.063-.937v-.5a24.088,24.088,0,0,1,1.75-4.125v.125h-.5L1.5-5.375,1.313-5.75v-.562h.25L5.75-7l1.5-.187q.25,0,.875.688,0,.437-1,.563Q5.375-5.875,5-5.125a8.431,8.431,0,0,0-1.375,2.5L4.25-2.75Q6.063-2.937,6.125-4h.5A9.564,9.564,0,0,1,7.938-2.187l.125.375a39.8,39.8,0,0,0,2.125-5,4.031,4.031,0,0,0-1.625-.312l.375-.687q0-.312,1.563-.437Q11.063-10.062,11.5-11.937ZM3.938-9.25h.75q1.187,0,1.188.563v.625L5.25-8A1.745,1.745,0,0,1,3.438-9.187ZM23.65-11.437l-.125.75-.187.125h.188a25.6,25.6,0,0,0,3.063-.687q.75.312.75.563v.375q-1.625.25-3.125.625l.063,1.438v1l.313-.062A9,9,0,0,1,27.4-7.687a1.417,1.417,0,0,1,.375.938Q24.4-6.5,24.4-6.062v2a2.055,2.055,0,0,0,.5-.062l2.563-.562q.812.313.875.688-.062.438-3.875,1a5.422,5.422,0,0,0-.062.75V.688q0,.938-.625,1a1.593,1.593,0,0,1-.5-.875L23.4-.375a4.147,4.147,0,0,1,0-1.437q-.125-2.688-.125-4.812V-8.937q0-.625-.25-.75a17.263,17.263,0,0,1-2.312,2.75H20.4V-7.25q2.188-3.375,2.188-4.937Zm-3.937.375h.25a.4.4,0,0,1,.375.438v.438L19.212-8.5a15.3,15.3,0,0,1,.25,2.375v2.188q-.25,3-.25,3.375v.438a.442.442,0,0,1-.5.5q-.688-.438-.687-.937a38.48,38.48,0,0,0,.438-4.5V-7a1.741,1.741,0,0,1-.125-.375l-1,.5a1.8,1.8,0,0,1-1.312.563ZM39.3-11.875l-.062,1.188v.563q0,.188,1.563.5l-.062.688a12.093,12.093,0,0,0-1.5.375v1h.125a9.007,9.007,0,0,0,2.625-.25q1,.375,1,.625v.438q-.312,0-.312.188l-.437-.187L40.8-6.562a1.007,1.007,0,0,0-.437.125v.188q0,.125.563.438h.625q.063,0,.063-.25a3.792,3.792,0,0,1,1,.75v.25q-1.938.313-1.937.625v.375a7.034,7.034,0,0,1,.063,2.625Q40.613,2,40.05,2A11.208,11.208,0,0,1,37.362.375V-.187A15,15,0,0,0,39.425.25l.25-.437V-2.625q0-1.938-.312-1.937h-.125l-2.875.375-.187-.5q0-.375,3.375-1v-.375l-.25-.375-3.437.563-.25-.375A4.264,4.264,0,0,1,38.05-7.312v-1q0-.125-1.25-.312v-.312q0-.438,1.313-.687v-.937l.125-1.875Zm-5.812.438h.688l.188.875L34.3-9.312q0,.5,1.125,1.063v.438q-1.125.313-1.125.5l-.062.875L35.862-6Q34.05-6,34.175-.187q-.312.813-.625.813h-.187Q31.238-.813,31.237-1.562a.166.166,0,0,0,.188-.187,3.5,3.5,0,0,1,1.312.5,1.1,1.1,0,0,0,.313.125q.063-1.813.063-2.875v-.312q.063,0-1.937,1.25-.812-.187-.812-.625,3-1.563,3-2.875V-7q0-.187-.25-.187h-.125l-1.562.125v-.75q1.938-.25,1.937-.625l.063-2.125ZM36.55-3.5q2.562.625,2.563,1.063V-2l-.25.313q-2.5-.75-2.75-1.25A2.708,2.708,0,0,1,36.55-3.5Zm14.588-9.375h.375q.438,0,.75,2.188l.813.313v.438l-1.187,1v.563l.313.125a5.983,5.983,0,0,1,1.75-.312h.938a1.02,1.02,0,0,1,1.063.75v.25A5.2,5.2,0,0,1,54.325-6q-.5,0-.5-.625L54.138-7v-.312q0-.125-.375-.125l-4.75,1a2.629,2.629,0,0,0-.625-.062v-.562q2.438-.437,2.438-1.062v-1q-.375,0-1.062-.062V-9.75q1.375,0,1.375-1.562ZM46.95-10q.625,0,.625.75A6.726,6.726,0,0,1,46.2-6.562v.313h.063a1.939,1.939,0,0,0,1.188-.5q.312.375.5.375v.438L46.7-3.812V-3.5q.875,0,.875.375V-3q0,.438-2.312,1.313-.687-.313-.687-.687v-.312A2.736,2.736,0,0,0,45.95-4.812v-.25h.063a8.33,8.33,0,0,0-1.75.688l-.187-.437v-.375A11.083,11.083,0,0,0,46.7-10Zm4.875,3.75.5.5-.062,1.188v1.188q0,.125.25.125a10.529,10.529,0,0,1,1.875-.25h.625l.125.75-2.062.625Q55.138,1.438,57.7,1.438l.438.688v.313a1.109,1.109,0,0,0-.5.125q-2.562,0-5.562-4.125h-.25Q49.388,2,47.638,2l-.187-.437v-.25Q50.2,0,50.2-1.312l-.187-.125A6.686,6.686,0,0,0,45.45.813q-.562.125-.562.375A1.556,1.556,0,0,0,44.2,1V.625q.063-.562,2-1.437a4.86,4.86,0,0,1,4-1.687q.938,0,1.313-3.75ZM49.7-6a2.53,2.53,0,0,1,1,1.188v.375A1.685,1.685,0,0,1,49.2-5.5Q49.263-6,49.7-6Zm-.812,1.438h.25q1.313.625,1.313.938,0,.5-.375.5h-.437q-.312,0-.75-.687ZM67.35-12.875h.375q.313,3.125,1.063,3.125v.438a1.386,1.386,0,0,0-.562,1v.5q.062.188.125.188H70.1q1,.062,1,.5v.25l-.187.375a10.148,10.148,0,0,0-1.25-.125q-1.438.125-1.437.438v3.125q0,1.813-.625,1.813-.25,0-.5-.687l.125-.625Q67.1-6.188,66.6-6.187h-.25a11.537,11.537,0,0,0-1.062,2.875q-.688.75-.812.75h-.312v-.625a5.552,5.552,0,0,0,.875-2.375.166.166,0,0,0-.187-.187h-.125l-.875.063q-.813-.062-.812-.5v-.125q0-.375,2.188-.687v-.125q-.125-1.687-.5-1.687a4.94,4.94,0,0,0,.5-1.75,6.293,6.293,0,0,1-.187-1.375h.375q.563,0,.875,2.188l.25.063q.5-.25.563-.437v-.687l-.187-1.875ZM61.225-10h.625q.25,0,.938,1v.563h-.375q-.312,0-1.187-1.062Zm4.938,2.063v.563q.062.125.125.125h.5q.313-.062.313-1v-.312q0-.125-.312-.25A.823.823,0,0,0,66.162-7.937ZM59.912-6.75q1.875,0,1.875,2.75.5,2.625,1.438,2.625a29.423,29.423,0,0,0,8.188,1.5q0,.313,1,.313v.625l-1.125.125h-2q-2.375,0-8-2L59.35-1.25l-.25.125a2.056,2.056,0,0,0-.625-.125v-.625l1.188-.375a2.3,2.3,0,0,0,1.125.313h.625v-.187a11.449,11.449,0,0,1-.875-2.562v-1a.962.962,0,0,1-.875-.625v-.312Q59.913-6.625,59.912-6.75Zm16.4-4.437h.375q.25,0,.688.625v.375q-.937.687-3.062,2l.188-.875Q74.75-9.375,76.313-11.187Zm6.75.563.25.375q0,.813-2.125.813-.812-.312-.812-.562v-.312A14.764,14.764,0,0,1,83.063-10.625ZM77.25-8.937q.437.312.438.563l.188.75a14.7,14.7,0,0,0-1.75,1.438Q76.187-5,76.188-4.5q0,1.375-.062,3.875l.063,1.25H75.75Q75.313.5,74.938-.312A32.593,32.593,0,0,0,75.063-5q0-.75-.187-.562l-1.062.5h-.687V-5.5A31.667,31.667,0,0,0,77.25-8.937Zm8.188.563q.875.375.875.875a27.4,27.4,0,0,1-5.625.938q0,.188-1.312.25a1.937,1.937,0,0,0-.812-.125v-.437Q78.563-7.375,85.438-8.375ZM82.5-6.562h.188q.688,0,.813,4.188a14.045,14.045,0,0,1-.375,3.688h-.5A6.522,6.522,0,0,1,80.063-.75h.5a11.411,11.411,0,0,1,1.563.313,15.247,15.247,0,0,0,.125-1.687,17.484,17.484,0,0,0-.187-4.125ZM95.9-10.75l.438.438v.438q0,.375-.5.375h-.25q-2.938,0-2.937,1a4.525,4.525,0,0,1-1,1.688v.375q3.25-.625,3.25-1l.313-.687q.625,0,1.813,1.813v.625h-.312a2.014,2.014,0,0,0-.875-.25l-1.562.125a.686.686,0,0,0-.437.25v.875q0,.125.313.25a7.651,7.651,0,0,1,1.188-.125q.5.062.5.375v.625q-1.937.25-1.937.5v1.938q0,.188,1.875.063l1.375-.125q2.75.188,2.75,1V.188l-.25.125L97.588.25,88.838.5Q87.713,0,88.213,0l-.125-.25.938-.312h.313q1.625-.187,3.375-.375V-3.062q0-.125-.375,0-.688.125-.687.25A1.153,1.153,0,0,1,90.775-3v-.437q0-.375,1.75-.687l.188-.25v-1q0-.125-.187-.125h-.187a14.045,14.045,0,0,1-2.312.188,4.95,4.95,0,0,1-.062-.812A3.381,3.381,0,0,0,91.65-8.687v-.25l-1.125-.875v-.562l1.125.188Zm14.65-2.125h.438q.563,0,1.188,2.875,1.375,0,1.375.938v.25q-1.562.125-1.562.5V-3.75q-.25,2.375-.75,2.375h-.125q-2-1.188-2-1.875h1.313q.25,0,.25-1.812h-.187a1.509,1.509,0,0,0,.188-.5q0-.625.188-2.625a1.582,1.582,0,0,0-.75-.25,10.352,10.352,0,0,1-1.125.25q-.875-.312-.875-.625v-.375a14.955,14.955,0,0,0,2.563-.437v-.937Q110.675-11.312,110.55-12.875Zm-6.625,2.5h.563a4.827,4.827,0,0,1,1.25,1.063v.5a2.181,2.181,0,0,1-1.812-1.062ZM102.738-7.25h.375q1.937,0,1.938,2.188a9.587,9.587,0,0,0,.813,2.875q0,1.688,7.563,2,1.937.188,1.938.75V.688q-.062.5-1.312.5h-.375a30.35,30.35,0,0,1-10.562-2.312q-1.438,0-1.562-.687V-2.25l3.25.438V-2.75a5.18,5.18,0,0,1-1.062-2.125,5.209,5.209,0,0,0,.188-1.187q-1.187-.313-1.187-.687Zm4.5.25q1.875,0,2.25.938v.188q0,.437-.375.438h-.125q-1.75-.812-1.75-1.187ZM122.2-12.187q.812,0,.563,2.25v1.375q1.125-.312,2.188-.5.437.063.813.875l-.187.375-1.125.063-.812.125q-.875,0-.875.313v1.75q.062.25.125.25a51.735,51.735,0,0,1,5.375-.5,2.188,2.188,0,0,1,.625,1.5q-.187,0-.187.25a4.5,4.5,0,0,0-2-.375l-2.75.25q-1.25,0-2.562,2.125L120.7-.875q.437,0,2.688-.312,1.313-.25,1.313-.375l-.187-1.062h.5A12.507,12.507,0,0,1,127.2.313l-.75,1.125q-.313,0-1.375-1.687h-.125q-3.375.563-3.812.625t-1.75.313Q118.7.375,118.7.125V-.187q2.375-2.688,2.375-3.75v.063l-3.937.563h-.625v-1q5.063-.625,4.938-1.062.188-2,.063-1.937a1.92,1.92,0,0,1-1.937-.312V-8a5.924,5.924,0,0,1,2.125-.5l.063-2.687v-.625Q121.95-12.187,122.2-12.187Zm15.463,0,.875.25q.063,1.5.188,1.5,1.563-.063,1.563.375l-.062.563h-1.5q-.375,0-.375,4.313L137.413-5l-.375-.062v.75h.063l3.5-.5.313.5v.5l-3.25.313v.125a11.44,11.44,0,0,0,5.5,3.125V.438q-2.562,0-6.125-2.937l.063.438-.312,1.75Q137.038,2,136.475,2q-.375,0-.625-.687v-4h.125q-3.687,3.438-4.5,3V0q3.312-2.5,3.313-3H134.6q-.438,0-2.5.25l-.125-.125-.125-.75q3.75-.312,4-.625.125-.5-.062-.5l-.875.125L134.225-5q.063-1.063.063-2.375v-1.5h-1.062q-.813,0-.687-.812,1.625-.312,1.625-.437V-10.5l-.062-1.125.688.063.563,1.438h.125q2.187-.063,2.188-.437Zm-2.187,3h-.187v.75q.063.25.188.25,1.437-.125,1.75-.125A.972.972,0,0,0,137.538-9v-.312a.166.166,0,0,0-.187-.187A10.377,10.377,0,0,1,135.475-9.187Zm-.187,1.938-.125.875v.438q.063.188.125.188h.188a2.079,2.079,0,0,0,1.125-.312l.313.125a.628.628,0,0,0,.5-.687V-7.25q0-.187-.25-.187Zm15.587-4.312q.687,1.5,4.063,3.125Q157.875-7.312,158-6.875a.276.276,0,0,1-.312.313q-2.562.125-6.812-3.625h-.187q-.937,2.25-4.437,4.563h-.375a.276.276,0,0,1-.312-.312,14.782,14.782,0,0,0,4.125-4.437Q149.688-10.75,150.875-11.562Zm-.312,2.938a3.275,3.275,0,0,1,.938,2.688v.5q0,1.25.063,3.375l.063.438q-.375,3.063-.687,3.063h-.312a7.3,7.3,0,0,0-.312-1.5,1.709,1.709,0,0,1,.063-.375q.125-4.25.125-6.75v-.375l-.312-.375V-8.25A.331.331,0,0,1,150.563-8.625Zm17.962-3.625.625.25q.563.625.563,3.375,2.5-.25,2.125,1.063l-1.687.125a2.055,2.055,0,0,0-.5.063q.063,1.375,0,4.313.063,2.25.063,2.75-.063,2.25-.75,2.25a16,16,0,0,1-2.5-2.25V-.75h.375l1.125.438h.188q.125,0,.313-.312l.063-2.562.063-4.125h-.25q-.75,0-2.812.188l-1-.375.125-.562a12.294,12.294,0,0,1,3.875-.5A25.356,25.356,0,0,1,168.525-12.25Zm-5.25,3.313q1.062.188,1,1.625-.063,2.188-.062,3.25v1q-.125,1.563-.75,1.563a1.7,1.7,0,0,1-.937-1,.729.729,0,0,0,.5-.75V-4.812a.11.11,0,0,0-.125-.125h-.187q-1.938,0-1.937.188v1.5h.188l1.375-.125a1.029,1.029,0,0,1,.375.688v.375a7.562,7.562,0,0,0-2,.438h-.375l-.812-.625.125-3.875V-8Q159.962-8.813,163.275-8.937Zm-2.437,1.563v1.25q.063.125.125.125,1.938-.25,2-.25.125-1.625-.062-1.625h-.875Q160.963-7.625,160.837-7.375Zm4.375,1.75h.313q1.875.25,1.875,1.063v.188a2.365,2.365,0,0,1-.25.875,5.431,5.431,0,0,1-1.937-1.75ZM183.8-11.5q1.062.063,1.063,3.875.25,6.375-.625,8.75h-.875Q180.925-.063,180.8-.437l.5-.062,1.75.188h.25q.312,0,.438-1.75a59.2,59.2,0,0,0-.125-8.375,1.023,1.023,0,0,0-.25-.062q-2.562.125-4,.125v-.25Q179.363-11.25,183.8-11.5Zm-8.75.125h.313q1.875.25,1.875.75,0,.25-.687.5a1.734,1.734,0,0,1-1.5-.687Zm.125,1.813q.25,0,.563.625A74.786,74.786,0,0,0,175.675,0h-.5q-.562,0-.625-.625-.063-1.5-.062-1.812V-5.812Q174.488-9.562,175.175-9.562Zm5.813.75q.813.188.813,1.813v3q0,1.375-3.625,1.375-.75,0-.75-1.375V-5.812a17.526,17.526,0,0,0-.125-1.875,2.057,2.057,0,0,0,.125-.625h.25q.375,0,.813,1.688l.25.188q2.125-.25,2.125-.437v-.812q0-.187-.375-.375h-.375l-1.75.125-.125-.375A7.687,7.687,0,0,1,180.988-8.812ZM178.3-5.25V-4q0,.125.375.25l1.688-.062q.188,0,.5-.437V-5.687q0-.187-.125-.187h-.375Q178.675-5.875,178.3-5.25Zm14.962-6.312h.563q.625,1.062.875,1.063a13.469,13.469,0,0,1,1.5-.187l.063.375v.25q-.063.625-1,.625h-.812v1.563q0,.125.25.125A11.823,11.823,0,0,0,196.45-8q1.625.313,1.625,1v.125a7.693,7.693,0,0,0-1.25,3.438q-4.312.625-4.937.625l-.437-.437q.188-1.375.188-1.5a8.6,8.6,0,0,0-.812-2.687h.313a3.883,3.883,0,0,0,1.313.313q.875,0,.875-2.062Q193.262-11.375,193.262-11.562Zm-.687,5.688q.125,1.688.438,1.688h1.125a1.906,1.906,0,0,0,2.125-2.187v-.437h-.125Q192.575-6.25,192.575-5.875Zm2.688,3.563h.5a3.1,3.1,0,0,1,1.125,1.5V.063h-.5A3.122,3.122,0,0,1,195.262-2Zm3.375,0Q200.7-.562,200.7.75V.875l-.437.438a11.738,11.738,0,0,1-2.187-3.25V-2Q198.075-2.375,198.637-2.312Zm-9.312.188h.625q.312,0,.5.813-.937,2.25-2.187,2.25V.688A4.749,4.749,0,0,0,189.325-2.125Zm2.75.063h.5L193.95-.5a1.242,1.242,0,0,1,0,1.313L193.325.75A4.525,4.525,0,0,1,192.075-2.062Z" transform="translate(157 305)" fill="#1b6b4b"/>
  </g>
</svg>
