<svg xmlns="http://www.w3.org/2000/svg" width="403" height="65.25" viewBox="0 0 403 65.25">
  <g id="tense_4" transform="translate(-147 -292.125)">
    <g id="line" transform="translate(0.5)">
      <line id="Line-2" data-name="Line" x2="400" transform="translate(148 330.5)" fill="none" stroke="#707070" stroke-linecap="round" stroke-width="3"/>
      <path id="left" d="M-14.5-2759l7,6Zm7-6c-2.25,2.25-7,6-7,6Z" transform="translate(162.497 3089.5)" fill="none" stroke="#707070" stroke-linecap="round" stroke-linejoin="round" stroke-width="3"/>
      <path id="right" d="M0,6,7,0Zm7,6C4.75,9.75,0,6,0,6Z" transform="translate(548 336.5) rotate(180)" fill="none" stroke="#707070" stroke-linecap="round" stroke-linejoin="round" stroke-width="3"/>
      <circle id="现在" cx="6" cy="6" r="6" transform="translate(342.5 325)" fill="#707070"/>
      <path id="路径_84" data-name="路径 84" d="M10.188-12.875h.438q.563,0,1.188,2.875,1.375,0,1.375.938v.25q-1.563.125-1.562.5V-3.75q-.25,2.375-.75,2.375H10.75q-2-1.188-2-1.875h1.313q.25,0,.25-1.812h-.187a1.509,1.509,0,0,0,.188-.5q0-.625.188-2.625a1.582,1.582,0,0,0-.75-.25,10.352,10.352,0,0,1-1.125.25Q7.75-8.5,7.75-8.812v-.375a14.955,14.955,0,0,0,2.563-.437v-.937Q10.313-11.312,10.188-12.875Zm-6.625,2.5h.563a4.827,4.827,0,0,1,1.25,1.063v.5A2.181,2.181,0,0,1,3.563-9.875ZM2.375-7.25H2.75q1.938,0,1.938,2.188A9.587,9.587,0,0,0,5.5-2.187q0,1.688,7.563,2Q15,0,15,.563V.688q-.063.5-1.312.5h-.375A30.35,30.35,0,0,1,2.75-1.125q-1.438,0-1.562-.687V-2.25l3.25.438V-2.75A5.18,5.18,0,0,1,3.375-4.875a5.209,5.209,0,0,0,.188-1.187Q2.375-6.375,2.375-6.75Zm4.5.25q1.875,0,2.25.938v.188q0,.437-.375.438H8.625q-1.75-.812-1.75-1.187Zm14.962-5.187q.812,0,.563,2.25v1.375q1.125-.312,2.188-.5.437.063.813.875l-.187.375-1.125.063-.812.125q-.875,0-.875.313v1.75q.062.25.125.25a51.735,51.735,0,0,1,5.375-.5,2.188,2.188,0,0,1,.625,1.5q-.187,0-.187.25a4.5,4.5,0,0,0-2-.375l-2.75.25q-1.25,0-2.562,2.125L20.337-.875q.437,0,2.688-.312,1.313-.25,1.313-.375L24.15-2.625h.5A12.507,12.507,0,0,1,26.837.313l-.75,1.125q-.313,0-1.375-1.687h-.125q-3.375.563-3.812.625t-1.75.313q-.688-.313-.687-.562V-.187q2.375-2.688,2.375-3.75v.063l-3.937.563H16.15v-1q5.063-.625,4.938-1.062.188-2,.063-1.937a1.92,1.92,0,0,1-1.937-.312V-8a5.924,5.924,0,0,1,2.125-.5l.063-2.687v-.625Q21.587-12.187,21.837-12.187Z" transform="translate(156.5 355)" fill="#9e6a4d"/>
      <path id="路径_85" data-name="路径 85" d="M-4.45-11.187q.75.375.812.75v5.25l-.125.875a2.561,2.561,0,0,1-1.125-.312l.125-5.5-1,.063q-1.687.188-1.687.438v1.5a27.914,27.914,0,0,1-.312,4.188L-8.7-4v-.25q.188-2.812.188-5.625Q-8.512-10.875-4.45-11.187Zm-6.313,1.813q.813.063.813.5v.313l-.938.125v1.5A3.748,3.748,0,0,1-9.637-7v.375q0,.313-1.188.75a16.861,16.861,0,0,1-.312,2.313h.375a4.07,4.07,0,0,0,1.125-.375l.375.313q0,.687-4.25,2.125a2.056,2.056,0,0,0-.625-.125v-.812q2,0,2.188-2.25v-.625a.166.166,0,0,0-.187-.187h-.437a1.109,1.109,0,0,0-.5.125q-.75-.25-.75-.562,0-.375,1.938-.812l.125-.187v-.937q.125-.625-1-.187L-13.2-9A6.428,6.428,0,0,1-10.762-9.375Zm4.25.688h.188q.75.312.75.563v.25a25.6,25.6,0,0,0-.219,4.25,5.069,5.069,0,0,0,.656,2.438A1.754,1.754,0,0,0-4.45-.75q3.063.313,3.063-.687a9.109,9.109,0,0,1,.125-1.5h.25q.625,0,1,2.688Q-.325.625-2.325.625l-1.5.063A3.257,3.257,0,0,1-6.7-3.187h.063A5.252,5.252,0,0,1-9.762.063l-1.375.063,1.125-.75A7.952,7.952,0,0,0-6.825-5a27.493,27.493,0,0,0,.313-2.75ZM5.762-12.25h.625q.313,0,.813.688a16.02,16.02,0,0,1-.437,2.625h.563q.375,0,2.938-.5.875.312.875.813v.313Q6.575-8,6.45-7.687A19.557,19.557,0,0,0,4.575-3.875q0,.25.125,1.625a25.106,25.106,0,0,1-.125,3.813H4.262Q3.325,1.25,3.2.813a9.007,9.007,0,0,0,.313-2.125V-2.875l-.562.438Q1.45-.875,1.012-.875H.45Q4.2-5.125,4.762-7.312,2.95-7.438,2.887-8.375l.625-.062q1.938-.063,2.25-1.5l.063-.625v-.312Zm2.313,5.5H8.45q.687,0,.75,1.938h1.063l1.125.125v.438q0,.563-2.063.688l-.062.125V-3a12.059,12.059,0,0,0,.063,2h1.688q1.812-.375,2.375.438L13.7.25H10.95L5.575.625Q4.825.375,4.825,0q.062-.5.438-.5H5.7q2.375,0,2.375-.437V-3q0-.063-.25-.312l-.812.25q-.875-.312-.875-.687v-.312q1.938-.187,1.938-.562V-6.75Z" transform="translate(348.5 355)" fill="#9e6a4d"/>
      <path id="路径_86" data-name="路径 86" d="M-21.65-11.875h.625q.062.75.25.75t2.063-.437l.188.438v.438A22.848,22.848,0,0,1-22.337-5.75h.313A6.938,6.938,0,0,0-19.462-6V-7l.063-1.062h.875a11.389,11.389,0,0,1-.125,1.938h2.25a1.026,1.026,0,0,1,1.125.875l-.562.188h-2.5q-.125,0-.062.188l.063,1.563L-18.4-.687q0,.75.125,2.063a1.24,1.24,0,0,0-.125.563h-.562q-1-.688-2.562-1.75V-.125q0-.125.375-.125.125,0,1.5.375h.063l.063-.5A9.158,9.158,0,0,0-19.4-1.719V-4.625q0-.25-.375-.312a28.342,28.342,0,0,0-4.625.625v-.375a15.192,15.192,0,0,0,2.75-3.187q0-.438-1.437-1A5.357,5.357,0,0,0-21.65-11.875Zm-.125,2.563a2.27,2.27,0,0,0,.563.5q1.125-.625,1.125-1.437l-.125-.062A2.044,2.044,0,0,0-21.775-9.312Zm-4.437-1.437h.563A1.7,1.7,0,0,1-24.9-9v1.5l.063,1.563q-.125,3-.187,4.875t-.062,2.25h-.625a.442.442,0,0,1-.5-.5l.188-1.875v-4q-1.625,3.313-2.937,3.313v-.562a33.412,33.412,0,0,0,2.125-3.125v-.062l-1.625-1.312V-7.5a10.79,10.79,0,0,1,1.938.688q.437.688.625-.5V-9.187Zm4.188,7q1.438.5,1.438.938v.438q-.25,0-.25.375a5.437,5.437,0,0,0-2.187-.937V-3.75Zm12.9-8.5.813-.062q.188,1.938.313,2.5l1.438-.125q.75.25.75.5v.563H-8v2.25l.063-.062a4.445,4.445,0,0,0,.813-1.875L-6-8.125v.188A6.711,6.711,0,0,1-7.812-5.875v.625l2-.062q3.188-.125,3.188.938a1.891,1.891,0,0,1-.625.188H-7.187l-.125.063A17.234,17.234,0,0,0-2.125-.687v.5q-.625.125-.687.125-1.75,0-4.562-2.812l-.5-.437Q-7.937.375-7.937,2.063v.313h-.625q-.5-.187-.5-1.187.125-2.313.125-3Q-8.937-2-9-2.625A16.585,16.585,0,0,1-12.875.188h-.687a25.6,25.6,0,0,0,3.625-3.75l.25-.375q-3.562.25-3.812.25l-.125-.875q4.563-.437,4.688-.5l-.125-3.562-.25-.062-1.5.125-.5-.375q0-.5,2.125-.75a2.689,2.689,0,0,0,.063-.5Zm-1.25,4q.625,0,.938,2-.312.75-.625.75A4.135,4.135,0,0,1-10.75-8Z" transform="translate(539.5 355)" fill="#9e6a4d"/>
      <path id="曲线" d="M-570.034,700.152a12.808,12.808,0,0,0,0,6.23c.541,2.076,1.458,3.952,2.947,3.858.625-.017,2.544-.117,2.832-3.045.424-5.054.155-9.276,2.832-9.239s2.715,5.651,2.983,9.239,4,4.494,5.7,2.09,1.9-5.794,3.84-9.134,3.945-4.291,5.414-2.921,1.18,3.46,1.5,8.252,4.62,5.257,5.482,1.712,1.537-7.9,2.081-9.239" transform="translate(900.918 -373.126)" fill="none" stroke="#ea434a" stroke-linecap="round" stroke-width="2"/>
    </g>
    <path id="路径_83" data-name="路径 83" d="M-40.419-10.812l.25.438-.062.75-2.437.313v.188a7.426,7.426,0,0,1,.25,2.938v.25h.25A16.662,16.662,0,0,0-40.481-6a.771.771,0,0,0,.438.188V-5.5q0,.75-2.375,1.063v2.563q.063.313.75.313h3q2.187.313,2.125,1.188a.744.744,0,0,1-.375.5q-3.687-.562-11.75.313a2.056,2.056,0,0,0-.625-.125v-1q1.875-.313,3.063-.437-.187-2.062-.187-4l.125.125q0-.313.375-.312.312,0,.875,4.188l1.313-.25q.125,0,.25-.312-.063-4.625-.062-6.187Q-43.669-9-43.919-9a12.389,12.389,0,0,1-2.687.5v-1A42.518,42.518,0,0,1-40.419-10.812Zm10.337-1.437h.625q.313,0,.813.688a16.02,16.02,0,0,1-.437,2.625h.563q.375,0,2.938-.5.875.312.875.813v.313q-4.562.312-4.687.625a19.557,19.557,0,0,0-1.875,3.813q0,.25.125,1.625a25.106,25.106,0,0,1-.125,3.813h-.312q-.938-.313-1.063-.75a9.007,9.007,0,0,0,.313-2.125V-2.875l-.562.438q-1.5,1.563-1.937,1.563h-.562q3.75-4.25,4.313-6.437-1.812-.125-1.875-1.062l.625-.062q1.937-.063,2.25-1.5l.063-.625v-.312Zm2.313,5.5h.375q.688,0,.75,1.938h1.063l1.125.125v.438q0,.563-2.062.688l-.062.125V-3a12.059,12.059,0,0,0,.063,2h1.688q1.813-.375,2.375.438l.313.813h-2.75l-5.375.375q-.75-.25-.75-.625.062-.5.438-.5h.438q2.375,0,2.375-.437V-3q0-.063-.25-.312l-.812.25q-.875-.312-.875-.687v-.312q1.937-.187,1.938-.562V-6.75Zm15.463-6.125h.375q.312,3.125,1.063,3.125v.438a1.386,1.386,0,0,0-.562,1v.5q.063.188.125.188h1.75q1,.062,1,.5v.25l-.187.375a10.148,10.148,0,0,0-1.25-.125q-1.437.125-1.438.438v3.125q0,1.813-.625,1.813-.25,0-.5-.687l.125-.625q-.125-3.625-.625-3.625h-.25a11.537,11.537,0,0,0-1.062,2.875q-.687.75-.812.75h-.312v-.625a5.552,5.552,0,0,0,.875-2.375.166.166,0,0,0-.187-.187h-.125l-.875.063q-.812-.062-.812-.5v-.125q0-.375,2.188-.687v-.125q-.125-1.687-.5-1.687a4.94,4.94,0,0,0,.5-1.75,6.293,6.293,0,0,1-.187-1.375h.375q.563,0,.875,2.188l.25.063q.5-.25.563-.437v-.687l-.187-1.875ZM-18.431-10h.625q.25,0,.938,1v.563h-.375q-.313,0-1.187-1.062Zm4.938,2.063v.563q.063.125.125.125h.5q.312-.062.313-1v-.312q0-.125-.312-.25A.823.823,0,0,0-13.494-7.937Zm-6.25,1.188q1.875,0,1.875,2.75.5,2.625,1.438,2.625A29.423,29.423,0,0,0-8.244.125q0,.313,1,.313v.625l-1.125.125h-2q-2.375,0-8-2l-1.937-.437-.25.125a2.056,2.056,0,0,0-.625-.125v-.625l1.188-.375a2.3,2.3,0,0,0,1.125.313h.625v-.187a11.448,11.448,0,0,1-.875-2.562v-1a.962.962,0,0,1-.875-.625v-.312Q-19.744-6.625-19.744-6.75Zm16.4-4.437h.375q.25,0,.688.625v.375q-.937.687-3.062,2l.188-.875Q-4.906-9.375-3.344-11.187Zm6.75.563.25.375q0,.813-2.125.813Q.719-9.75.719-10v-.312A14.764,14.764,0,0,1,3.406-10.625ZM-2.406-8.937q.438.312.438.563l.188.75a14.7,14.7,0,0,0-1.75,1.438Q-3.469-5-3.469-4.5q0,1.375-.062,3.875l.063,1.25h-.437Q-4.344.5-4.719-.312A32.593,32.593,0,0,0-4.594-5q0-.75-.187-.562l-1.062.5h-.687V-5.5A31.668,31.668,0,0,0-2.406-8.937Zm8.188.563q.875.375.875.875a27.4,27.4,0,0,1-5.625.938q0,.188-1.312.25a1.937,1.937,0,0,0-.812-.125v-.437Q-1.094-7.375,5.781-8.375ZM2.844-6.562h.188q.687,0,.813,4.188a14.045,14.045,0,0,1-.375,3.688h-.5A6.522,6.522,0,0,1,.406-.75h.5a11.411,11.411,0,0,1,1.563.313,15.247,15.247,0,0,0,.125-1.687A17.484,17.484,0,0,0,2.406-6.25Zm13.4-4.937h.125q.25,0,.5.5v.438a10.056,10.056,0,0,1-.625,2.313q2.5-.125,2.938-.125,1,.25,1,.688v.063q-.5,7.688-2.25,8.75h-.312a6.185,6.185,0,0,1-1.812-2,2.9,2.9,0,0,0,.063-.562h.438a2.055,2.055,0,0,0,1.063.688l.438.063q.563.5,1-6.375v-.125q0-.062-.312-.062-.562,0-2.875.063Q13.869-5.5,13.994-4.375A42.371,42.371,0,0,1,13.306.313h-.625l-.75-.875h-.375q-.813.125-2.25.438l-.25-.5Q8.994-4,8.931-5.187,8.994-6.75,8.369-6.75v-.375l3.188-3.812h.625a1.98,1.98,0,0,1-.625,1.625,6.868,6.868,0,0,1-1.562,1.5h.188q.563,0,2.875-.312.625,0,1,1.5v.063a7.472,7.472,0,0,0,1.688-4.312Q16.056-11.5,16.244-11.5ZM9.869-5.125q0,.188.313.188,1.875-.25,2.125-.25A1.121,1.121,0,0,0,12.869-5l.063-1.875q0-.187-.312-.312-2.75,0-2.75,1.25Zm5.438-.125q2.312.313,2.313.938v.875q-.187,0-.187.125Q14.744-4.563,14.744-5v-.062Q14.744-5.312,15.306-5.25ZM10.056-1.5H9.994q1.437-.313,1.625-.375a3.019,3.019,0,0,0,.938.438,6.434,6.434,0,0,0,.313-2.875h-.062a8.32,8.32,0,0,0-2.812.75Q10.056-1.812,10.056-1.5Zm22.15-10.437h.438l.438.75-.75,2.875.188.063q1.25-.063,1.625-.062A1.487,1.487,0,0,1,35.519-7a46.587,46.587,0,0,1-2.187,8.125l-.375.188A5.665,5.665,0,0,1,30.581-.75q.188,0,.188-.25a6.385,6.385,0,0,0,1.812.688,28.013,28.013,0,0,0,1.563-6.125V-7l-2.125.063a21.473,21.473,0,0,1-1.375,3.625,11.024,11.024,0,0,1-3,4h-.375V.375l.625-1Q27.269-2,27.081-2A21.378,21.378,0,0,0,22.769-.937v-.5a24.088,24.088,0,0,1,1.75-4.125v.125h-.5l-1.812.063-.187-.375v-.562h.25L26.456-7l1.5-.187q.25,0,.875.688,0,.437-1,.563-1.75.062-2.125.813a8.431,8.431,0,0,0-1.375,2.5l.625-.125Q26.769-2.937,26.831-4h.5a9.564,9.564,0,0,1,1.313,1.813l.125.375a39.8,39.8,0,0,0,2.125-5,4.031,4.031,0,0,0-1.625-.312l.375-.687q0-.312,1.563-.437Q31.769-10.062,32.206-11.937ZM24.644-9.25h.75q1.187,0,1.188.563v.625L25.956-8a1.745,1.745,0,0,1-1.812-1.187Zm19.713-2.187-.125.75-.187.125h.188a25.6,25.6,0,0,0,3.063-.687q.75.312.75.563v.375q-1.625.25-3.125.625l.063,1.438v1l.313-.062a9,9,0,0,1,2.813-.375,1.417,1.417,0,0,1,.375.938q-3.375.25-3.375.688v2a2.055,2.055,0,0,0,.5-.062l2.563-.562q.813.313.875.688-.063.438-3.875,1a5.422,5.422,0,0,0-.062.75V.688q0,.938-.625,1a1.593,1.593,0,0,1-.5-.875l.125-1.187a4.147,4.147,0,0,1,0-1.437q-.125-2.688-.125-4.812V-8.937q0-.625-.25-.75a17.263,17.263,0,0,1-2.312,2.75h-.312V-7.25q2.187-3.375,2.188-4.937Zm-3.937.375h.25a.4.4,0,0,1,.375.438v.438L39.919-8.5a15.3,15.3,0,0,1,.25,2.375v2.188q-.25,3-.25,3.375v.438a.442.442,0,0,1-.5.5q-.687-.438-.687-.937a38.479,38.479,0,0,0,.438-4.5V-7a1.741,1.741,0,0,1-.125-.375l-1,.5a1.8,1.8,0,0,1-1.312.563Z" transform="translate(349 305)" fill="#1b6b4b"/>
  </g>
</svg>
