<svg xmlns="http://www.w3.org/2000/svg" width="403.003" height="65.25" viewBox="0 0 403.003 65.25">
  <g id="tense_16" transform="translate(-146.997 -292.125)">
    <g id="line" transform="translate(0.5)">
      <line id="Line-2" data-name="Line" x2="400" transform="translate(148 330.5)" fill="none" stroke="#707070" stroke-linecap="round" stroke-width="3"/>
      <path id="left" d="M-14.5-2759l7,6Zm7-6c-2.25,2.25-7,6-7,6Z" transform="translate(162.497 3089.5)" fill="none" stroke="#707070" stroke-linecap="round" stroke-linejoin="round" stroke-width="3"/>
      <path id="right" d="M0,6,7,0Zm7,6C4.75,9.75,0,6,0,6Z" transform="translate(548 336.5) rotate(180)" fill="none" stroke="#707070" stroke-linecap="round" stroke-linejoin="round" stroke-width="3"/>
      <circle id="现在" cx="6" cy="6" r="6" transform="translate(342.5 325)" fill="#707070"/>
      <path id="路径_133" data-name="路径 133" d="M10.188-12.875h.438q.563,0,1.188,2.875,1.375,0,1.375.938v.25q-1.563.125-1.562.5V-3.75q-.25,2.375-.75,2.375H10.75q-2-1.188-2-1.875h1.313q.25,0,.25-1.812h-.187a1.509,1.509,0,0,0,.188-.5q0-.625.188-2.625a1.582,1.582,0,0,0-.75-.25,10.352,10.352,0,0,1-1.125.25Q7.75-8.5,7.75-8.812v-.375a14.955,14.955,0,0,0,2.563-.437v-.937Q10.313-11.312,10.188-12.875Zm-6.625,2.5h.563a4.827,4.827,0,0,1,1.25,1.063v.5A2.181,2.181,0,0,1,3.563-9.875ZM2.375-7.25H2.75q1.938,0,1.938,2.188A9.587,9.587,0,0,0,5.5-2.187q0,1.688,7.563,2Q15,0,15,.563V.688q-.063.5-1.312.5h-.375A30.35,30.35,0,0,1,2.75-1.125q-1.438,0-1.562-.687V-2.25l3.25.438V-2.75A5.18,5.18,0,0,1,3.375-4.875a5.209,5.209,0,0,0,.188-1.187Q2.375-6.375,2.375-6.75Zm4.5.25q1.875,0,2.25.938v.188q0,.437-.375.438H8.625q-1.75-.812-1.75-1.187Zm14.962-5.187q.812,0,.563,2.25v1.375q1.125-.312,2.188-.5.437.063.813.875l-.187.375-1.125.063-.812.125q-.875,0-.875.313v1.75q.062.25.125.25a51.735,51.735,0,0,1,5.375-.5,2.188,2.188,0,0,1,.625,1.5q-.187,0-.187.25a4.5,4.5,0,0,0-2-.375l-2.75.25q-1.25,0-2.562,2.125L20.337-.875q.437,0,2.688-.312,1.313-.25,1.313-.375L24.15-2.625h.5A12.507,12.507,0,0,1,26.837.313l-.75,1.125q-.313,0-1.375-1.687h-.125q-3.375.563-3.812.625t-1.75.313q-.688-.313-.687-.562V-.187q2.375-2.688,2.375-3.75v.063l-3.937.563H16.15v-1q5.063-.625,4.938-1.062.188-2,.063-1.937a1.92,1.92,0,0,1-1.937-.312V-8a5.924,5.924,0,0,1,2.125-.5l.063-2.687v-.625Q21.587-12.187,21.837-12.187Z" transform="translate(156.5 355)" fill="#9e6a4d"/>
      <path id="路径_131" data-name="路径 131" d="M-4.45-11.187q.75.375.812.75v5.25l-.125.875a2.561,2.561,0,0,1-1.125-.312l.125-5.5-1,.063q-1.687.188-1.687.438v1.5a27.914,27.914,0,0,1-.312,4.188L-8.7-4v-.25q.188-2.812.188-5.625Q-8.512-10.875-4.45-11.187Zm-6.313,1.813q.813.063.813.5v.313l-.938.125v1.5A3.748,3.748,0,0,1-9.637-7v.375q0,.313-1.188.75a16.861,16.861,0,0,1-.312,2.313h.375a4.07,4.07,0,0,0,1.125-.375l.375.313q0,.687-4.25,2.125a2.056,2.056,0,0,0-.625-.125v-.812q2,0,2.188-2.25v-.625a.166.166,0,0,0-.187-.187h-.437a1.109,1.109,0,0,0-.5.125q-.75-.25-.75-.562,0-.375,1.938-.812l.125-.187v-.937q.125-.625-1-.187L-13.2-9A6.428,6.428,0,0,1-10.762-9.375Zm4.25.688h.188q.75.312.75.563v.25a25.6,25.6,0,0,0-.219,4.25,5.069,5.069,0,0,0,.656,2.438A1.754,1.754,0,0,0-4.45-.75q3.063.313,3.063-.687a9.109,9.109,0,0,1,.125-1.5h.25q.625,0,1,2.688Q-.325.625-2.325.625l-1.5.063A3.257,3.257,0,0,1-6.7-3.187h.063A5.252,5.252,0,0,1-9.762.063l-1.375.063,1.125-.75A7.952,7.952,0,0,0-6.825-5a27.493,27.493,0,0,0,.313-2.75ZM5.762-12.25h.625q.313,0,.813.688a16.02,16.02,0,0,1-.437,2.625h.563q.375,0,2.938-.5.875.312.875.813v.313Q6.575-8,6.45-7.687A19.557,19.557,0,0,0,4.575-3.875q0,.25.125,1.625a25.106,25.106,0,0,1-.125,3.813H4.262Q3.325,1.25,3.2.813a9.007,9.007,0,0,0,.313-2.125V-2.875l-.562.438Q1.45-.875,1.012-.875H.45Q4.2-5.125,4.762-7.312,2.95-7.438,2.887-8.375l.625-.062q1.938-.063,2.25-1.5l.063-.625v-.312Zm2.313,5.5H8.45q.687,0,.75,1.938h1.063l1.125.125v.438q0,.563-2.063.688l-.062.125V-3a12.059,12.059,0,0,0,.063,2h1.688q1.812-.375,2.375.438L13.7.25H10.95L5.575.625Q4.825.375,4.825,0q.062-.5.438-.5H5.7q2.375,0,2.375-.437V-3q0-.063-.25-.312l-.812.25q-.875-.312-.875-.687v-.312q1.938-.187,1.938-.562V-6.75Z" transform="translate(348.5 355)" fill="#9e6a4d"/>
      <path id="路径_132" data-name="路径 132" d="M-21.65-11.875h.625q.062.75.25.75t2.063-.437l.188.438v.438A22.848,22.848,0,0,1-22.337-5.75h.313A6.938,6.938,0,0,0-19.462-6V-7l.063-1.062h.875a11.389,11.389,0,0,1-.125,1.938h2.25a1.026,1.026,0,0,1,1.125.875l-.562.188h-2.5q-.125,0-.062.188l.063,1.563L-18.4-.687q0,.75.125,2.063a1.24,1.24,0,0,0-.125.563h-.562q-1-.688-2.562-1.75V-.125q0-.125.375-.125.125,0,1.5.375h.063l.063-.5A9.158,9.158,0,0,0-19.4-1.719V-4.625q0-.25-.375-.312a28.342,28.342,0,0,0-4.625.625v-.375a15.192,15.192,0,0,0,2.75-3.187q0-.438-1.437-1A5.357,5.357,0,0,0-21.65-11.875Zm-.125,2.563a2.27,2.27,0,0,0,.563.5q1.125-.625,1.125-1.437l-.125-.062A2.044,2.044,0,0,0-21.775-9.312Zm-4.437-1.437h.563A1.7,1.7,0,0,1-24.9-9v1.5l.063,1.563q-.125,3-.187,4.875t-.062,2.25h-.625a.442.442,0,0,1-.5-.5l.188-1.875v-4q-1.625,3.313-2.937,3.313v-.562a33.412,33.412,0,0,0,2.125-3.125v-.062l-1.625-1.312V-7.5a10.79,10.79,0,0,1,1.938.688q.437.688.625-.5V-9.187Zm4.188,7q1.438.5,1.438.938v.438q-.25,0-.25.375a5.437,5.437,0,0,0-2.187-.937V-3.75Zm12.9-8.5.813-.062q.188,1.938.313,2.5l1.438-.125q.75.25.75.5v.563H-8v2.25l.063-.062a4.445,4.445,0,0,0,.813-1.875L-6-8.125v.188A6.711,6.711,0,0,1-7.812-5.875v.625l2-.062q3.188-.125,3.188.938a1.891,1.891,0,0,1-.625.188H-7.187l-.125.063A17.234,17.234,0,0,0-2.125-.687v.5q-.625.125-.687.125-1.75,0-4.562-2.812l-.5-.437Q-7.937.375-7.937,2.063v.313h-.625q-.5-.187-.5-1.187.125-2.313.125-3Q-8.937-2-9-2.625A16.585,16.585,0,0,1-12.875.188h-.687a25.6,25.6,0,0,0,3.625-3.75l.25-.375q-3.562.25-3.812.25l-.125-.875q4.563-.437,4.688-.5l-.125-3.562-.25-.062-1.5.125-.5-.375q0-.5,2.125-.75a2.689,2.689,0,0,0,.063-.5Zm-1.25,4q.625,0,.938,2-.312.75-.625.75A4.135,4.135,0,0,1-10.75-8Z" transform="translate(539.5 355)" fill="#9e6a4d"/>
      <g id="标记点" transform="translate(154.5)">
        <path id="X" d="M63.015-2845l-5-5,5,5,5-5-5,5,5,5-5-5-5,5Z" transform="translate(185.985 3175.501)" fill="none" stroke="#127ea9" stroke-linecap="round" stroke-linejoin="round" stroke-width="3"/>
        <path id="多边形" d="M5.122,1.609a1,1,0,0,1,1.756,0l4.315,7.912A1,1,0,0,1,10.315,11H1.685A1,1,0,0,1,.807,9.521Z" transform="translate(243 344)" fill="#127ea9"/>
      </g>
      <path id="X-2" data-name="X" d="M63.015-2845l-5-5,5,5,5-5-5,5,5,5-5-5-5,5Z" transform="translate(244.485 3175.501)" fill="none" stroke="#127ea9" stroke-linecap="round" stroke-linejoin="round" stroke-width="3"/>
      <g id="link" transform="translate(0 0.833)">
        <path id="line-3" data-name="line" d="M407.575,297.167s39.119-43.328,61.579-8.373" transform="translate(-91.075 23.5)" fill="none" stroke="#ea434a" stroke-linecap="round" stroke-width="2"/>
        <path id="right-2" data-name="right" d="M0,4,5,0ZM5,8C3.393,6.5,0,4,0,4Z" transform="matrix(-0.574, -0.819, 0.819, -0.574, 375.947, 315.969)" fill="none" stroke="#ea434a" stroke-linecap="round" stroke-linejoin="round" stroke-width="2"/>
      </g>
      <path id="曲线" d="M-542.138,398.866s-3.463-1.76-2.773-8.241,4.506-4.9,4.918-3.445,2.981,20.338,5.953,3.445,5.807,9.07,8.432,5.9,1.754-13.495,4.238-9.349,7.272,13.737,12.368,8.093" transform="translate(913.5 -61.366)" fill="none" stroke="#ea434a" stroke-linecap="round" stroke-width="2"/>
    </g>
    <path id="路径_135" data-name="路径 135" d="M9.125-10.062H11.5q2.438.5,2.438,1.688Q13.25-2.062,11.875.063h-.437Q10.812-.5,10.188-1H8.438A18.541,18.541,0,0,1,4.25-.312Q2.375-.312,1.875-6.5V-8.125q0-1.312,2.625-1.312ZM3.938-8.437l-1,.25v1.813q.375,4.688,1,4.688H4.5a27.582,27.582,0,0,0,5-.812h.063q.75,0,1.625,1.125Q12-2.125,12.75-8.25a.866.866,0,0,0-.937-.562H8.75A32.454,32.454,0,0,1,3.938-8.437Zm5,1q1.437.188,1.438.688v.438a10.015,10.015,0,0,0-1,2.938q-1.563.25-3,.563-1.312,0-1.312-3.125-.125,0-.312-.812Q4.75-7.187,8.938-7.437Zm-3,1.625q.188,1.938.625,1.938Q9-4.375,9-5.812v-.25A.527.527,0,0,0,8.688-6.5Q5.937-6.25,5.938-5.812Zm21.275-5.812q.563,0,.813,1.438v11h.063q-.062,1-.687,1a7.445,7.445,0,0,1-2.625-2.25V-.75A6.129,6.129,0,0,1,26.9.188h.063V-10.937a1.672,1.672,0,0,1-.125-.625Zm-6.5.625q.812.438.938.75,0,.5-1.687.625a11.272,11.272,0,0,0-1,2.5v.063q1.813,0,1.813-1.5h.25q1.438,1.25,1.438,2.188l-.687.625-.5-.75a8.384,8.384,0,0,0-1.187.25,8.632,8.632,0,0,0,.063,1.688l1.563-.187v.563q0,.563-1.562.75l.125.75a15.5,15.5,0,0,0,2.063-.75h.25v.375Q18.087.813,16.525.813l-.187-.5-.062-.625a23.346,23.346,0,0,0,2.5-1.562q.25-.25.25-.312v-.625A.166.166,0,0,0,18.837-3q-.875-.187-.875.125a2.426,2.426,0,0,1-1-.75,8.183,8.183,0,0,0,2.063-.812v-.187q.188-1.063-.375-1.062a2.747,2.747,0,0,0-1.312.375,1.215,1.215,0,0,0-.625-.25V-6a10.378,10.378,0,0,0,2-2.812l.063-.375q0-.25-1.312-.437v-.75A10.077,10.077,0,0,0,20.712-11Zm3.563,3.375q.812,0,.813,2.75v.125l-.125,1.188h-.375q-.313,0-.75-.75A9.511,9.511,0,0,0,24.087-6l-.125-1.375Zm14.587-5.25H39.3q.563,0,1.188,2.875,1.375,0,1.375.938v.25q-1.563.125-1.562.5V-3.75q-.25,2.375-.75,2.375h-.125q-2-1.188-2-1.875h1.313q.25,0,.25-1.812H38.8a1.509,1.509,0,0,0,.188-.5q0-.625.188-2.625a1.582,1.582,0,0,0-.75-.25,10.352,10.352,0,0,1-1.125.25q-.875-.312-.875-.625v-.375a14.955,14.955,0,0,0,2.563-.437v-.937Q38.987-11.312,38.862-12.875Zm-6.625,2.5H32.8a4.827,4.827,0,0,1,1.25,1.063v.5a2.181,2.181,0,0,1-1.812-1.062ZM31.05-7.25h.375q1.938,0,1.937,2.188a9.587,9.587,0,0,0,.813,2.875q0,1.688,7.563,2,1.938.188,1.938.75V.688q-.063.5-1.312.5h-.375A30.35,30.35,0,0,1,31.425-1.125q-1.438,0-1.562-.687V-2.25l3.25.438V-2.75A5.18,5.18,0,0,1,32.05-4.875a5.209,5.209,0,0,0,.188-1.187Q31.05-6.375,31.05-6.75Zm4.5.25q1.875,0,2.25.938v.188q0,.437-.375.438H37.3q-1.75-.812-1.75-1.187Zm14.963-5.187q.813,0,.563,2.25v1.375q1.125-.312,2.188-.5.438.063.813.875l-.187.375-1.125.063-.812.125q-.875,0-.875.313v1.75q.063.25.125.25a51.735,51.735,0,0,1,5.375-.5,2.188,2.188,0,0,1,.625,1.5q-.187,0-.187.25a4.5,4.5,0,0,0-2-.375l-2.75.25q-1.25,0-2.562,2.125L49.013-.875q.438,0,2.688-.312,1.313-.25,1.313-.375l-.187-1.062h.5A12.507,12.507,0,0,1,55.513.313l-.75,1.125q-.312,0-1.375-1.687h-.125Q49.888.313,49.45.375T47.7.688q-.687-.313-.687-.562V-.187q2.375-2.688,2.375-3.75v.063l-3.937.563h-.625v-1q5.063-.625,4.938-1.062.188-2,.063-1.937a1.92,1.92,0,0,1-1.937-.312V-8a5.924,5.924,0,0,1,2.125-.5l.063-2.687v-.625Q50.263-12.187,50.513-12.187Zm15.962-.187q.875.375.938.813v.375h-1.5q-.125,0-.125.688-.25.5,1.625.438v.313q0,.563-1.687.75l-.062.25-.5.875Q70.1-8.5,70.662-8.5q.75.438.813.75v.5l-1.187-.062-2.937.188q-3.5.125-3.5,1.5l.188-.062H64.1a6.129,6.129,0,0,1,2.813-.75l1.813.063q.812.062.688,4.188A21.756,21.756,0,0,1,69.35.688a2.018,2.018,0,0,0-.125.75H68.6Q67.788.812,67.412.875H65.787a7.413,7.413,0,0,0-1.938.313,1.07,1.07,0,0,1-.5-1.062l.125-.312V-4.562q0-.125-.187-.125-2.875,3.125-3.625,3.375h-.25v-.375q3.375-3.375,3.563-4.562l-.187-.062h-.062A18.668,18.668,0,0,0,60.412-6a1.474,1.474,0,0,0-.625-.187v-.75q4.125-.625,4.125-.937l.25-.937q-1.188,0-1.188-.5V-9.5a1.655,1.655,0,0,0,1.563-.75v-.625h-.062l-1.625.625v-.375Q63.162-11.312,66.475-12.375Zm-.5,7a8.4,8.4,0,0,0-1.5.563V-4h-.062a5.964,5.964,0,0,1,3.438-.687q.375.25.313.25l.063-.25-.062-.562Q68.037-5.75,65.975-5.375Zm-.687,2.063a1.24,1.24,0,0,0-.562-.125l-.125.25v.875l.688-.187a14.337,14.337,0,0,1,1.75-.125q.875.125.875.625v.25a17.368,17.368,0,0,0-3.312.563V-.5q0,.125.438.438a13.256,13.256,0,0,1,3-.25.166.166,0,0,0,.188.188,11.7,11.7,0,0,0-.062-3.625Zm13.65-8.937h.313q.5,0,.688,1.313v.813l.063.5q0,.125,1.188-.187l-.062,1.188L80-8.312v.875q0,.188.25.188.812,0,3.063-.187,1.313-.062,1.313.375v.25l-.187.375-.937.125q-2.375.188-3.562.188.062.437.063.5a11.283,11.283,0,0,0,5.75,3.75l.375.5-.187.438a9.98,9.98,0,0,1-4.25-1.375Q80.437-3.437,79.938-4q.062.5.188,5.875l-.875-.062q-.25,0-.5-.562.062-1.625.063-2.437L78.875-4l-.312.188Q75.375-.375,74.313-.375V-.687Q78.25-4.625,78.25-5.75A.555.555,0,0,0,78-5.812q-2.125.437-3.187.75L74.625-5.5v-.437q4.25-1,4.25-1.187.25-.937-1.437-1.125l-.375-.687q1.875-.438,1.875-.625V-12.25Zm13.9,0,.813-.062q.188,1.938.313,2.5L95.4-9.937q.75.25.75.5v.563H93.963v2.25l.063-.062a4.445,4.445,0,0,0,.813-1.875l1.125.438v.188A6.711,6.711,0,0,1,94.15-5.875v.625l2-.062q3.188-.125,3.188.938a1.891,1.891,0,0,1-.625.188H94.775l-.125.063A17.234,17.234,0,0,0,99.838-.687v.5q-.625.125-.687.125-1.75,0-4.562-2.812l-.5-.437q-.062,3.688-.062,5.375v.313H93.4q-.5-.187-.5-1.187.125-2.313.125-3,0-.187-.062-.812A16.585,16.585,0,0,1,89.088.188H88.4a25.6,25.6,0,0,0,3.625-3.75l.25-.375q-3.562.25-3.812.25l-.125-.875Q92.9-5,93.025-5.062L92.9-8.625l-.25-.062-1.5.125-.5-.375q0-.5,2.125-.75a2.689,2.689,0,0,0,.063-.5Zm-1.25,4q.625,0,.938,2-.313.75-.625.75A4.135,4.135,0,0,1,91.213-8Zm17.4-3.937.875.25q.062,1.5.188,1.5,1.562-.063,1.563.375l-.062.563h-1.5q-.375,0-.375,4.313L108.738-5l-.375-.062v.75h.063l3.5-.5.313.5v.5l-3.25.313v.125a11.44,11.44,0,0,0,5.5,3.125V.438q-2.563,0-6.125-2.937l.063.438-.312,1.75Q108.362,2,107.8,2q-.375,0-.625-.687v-4h.125q-3.688,3.438-4.5,3V0q3.313-2.5,3.313-3h-.187q-.437,0-2.5.25l-.125-.125-.125-.75q3.75-.312,4-.625.125-.5-.062-.5l-.875.125L105.55-5q.062-1.063.063-2.375v-1.5H104.55q-.812,0-.687-.812,1.625-.312,1.625-.437V-10.5l-.062-1.125.688.063.563,1.438h.125q2.188-.063,2.188-.437Zm-2.187,3h-.187v.75q.062.25.188.25,1.438-.125,1.75-.125A.972.972,0,0,0,108.863-9v-.312a.166.166,0,0,0-.187-.187A10.377,10.377,0,0,1,106.8-9.187Zm-.187,1.938-.125.875v.438q.062.188.125.188h.188a2.079,2.079,0,0,0,1.125-.312l.313.125a.628.628,0,0,0,.5-.687V-7.25q0-.187-.25-.187ZM122.2-11.562q.688,1.5,4.063,3.125,2.937,1.125,3.062,1.563a.276.276,0,0,1-.312.313q-2.563.125-6.812-3.625h-.187q-.937,2.25-4.437,4.563H117.2a.276.276,0,0,1-.312-.312,14.782,14.782,0,0,0,4.125-4.437Q121.012-10.75,122.2-11.562Zm-.312,2.938a3.275,3.275,0,0,1,.938,2.688v.5q0,1.25.063,3.375l.063.438q-.375,3.063-.687,3.063h-.312a7.3,7.3,0,0,0-.312-1.5,1.71,1.71,0,0,1,.063-.375q.125-4.25.125-6.75v-.375l-.312-.375V-8.25A.331.331,0,0,1,121.887-8.625ZM139.85-12.25l.625.25q.563.625.563,3.375,2.5-.25,2.125,1.063l-1.687.125a2.055,2.055,0,0,0-.5.063q.063,1.375,0,4.313.063,2.25.063,2.75-.063,2.25-.75,2.25a16,16,0,0,1-2.5-2.25V-.75h.375l1.125.438h.188q.125,0,.313-.312l.063-2.562.063-4.125h-.25q-.75,0-2.812.188l-1-.375.125-.562a12.294,12.294,0,0,1,3.875-.5A25.356,25.356,0,0,1,139.85-12.25ZM134.6-8.937q1.062.188,1,1.625-.063,2.188-.062,3.25v1q-.125,1.563-.75,1.563a1.7,1.7,0,0,1-.937-1,.729.729,0,0,0,.5-.75V-4.812a.11.11,0,0,0-.125-.125h-.187q-1.938,0-1.937.188v1.5h.188l1.375-.125a1.029,1.029,0,0,1,.375.688v.375a7.562,7.562,0,0,0-2,.438h-.375L130.85-2.5l.125-3.875V-8Q131.287-8.813,134.6-8.937Zm-2.437,1.563v1.25q.063.125.125.125,1.938-.25,2-.25.125-1.625-.062-1.625h-.875Q132.288-7.625,132.163-7.375Zm4.375,1.75h.313q1.875.25,1.875,1.063v.188a2.365,2.365,0,0,1-.25.875,5.431,5.431,0,0,1-1.937-1.75ZM155.125-11.5q1.062.063,1.063,3.875.25,6.375-.625,8.75h-.875Q152.25-.063,152.125-.437l.5-.062,1.75.188h.25q.312,0,.438-1.75a59.2,59.2,0,0,0-.125-8.375,1.023,1.023,0,0,0-.25-.062q-2.562.125-4,.125v-.25Q150.688-11.25,155.125-11.5Zm-8.75.125h.313q1.875.25,1.875.75,0,.25-.687.5a1.734,1.734,0,0,1-1.5-.687Zm.125,1.813q.25,0,.563.625A74.786,74.786,0,0,0,147,0h-.5q-.562,0-.625-.625-.063-1.5-.062-1.812V-5.812Q145.813-9.562,146.5-9.562Zm5.813.75q.813.188.813,1.813v3q0,1.375-3.625,1.375-.75,0-.75-1.375V-5.812a17.526,17.526,0,0,0-.125-1.875,2.057,2.057,0,0,0,.125-.625H149q.375,0,.813,1.688l.25.188q2.125-.25,2.125-.437v-.812q0-.187-.375-.375h-.375l-1.75.125-.125-.375A7.687,7.687,0,0,1,152.313-8.812ZM149.625-5.25V-4q0,.125.375.25l1.688-.062q.188,0,.5-.437V-5.687q0-.187-.125-.187h-.375Q150-5.875,149.625-5.25Zm19.587-6.687h.438l.438.75-.75,2.875.188.063q1.25-.063,1.625-.062A1.487,1.487,0,0,1,172.525-7a46.587,46.587,0,0,1-2.187,8.125l-.375.188A5.665,5.665,0,0,1,167.587-.75q.188,0,.188-.25a6.385,6.385,0,0,0,1.813.688,28.013,28.013,0,0,0,1.563-6.125V-7l-2.125.063a21.473,21.473,0,0,1-1.375,3.625,11.024,11.024,0,0,1-3,4h-.375V.375l.625-1Q164.275-2,164.087-2a21.378,21.378,0,0,0-4.312,1.063v-.5a24.088,24.088,0,0,1,1.75-4.125v.125h-.5l-1.812.063-.187-.375v-.562h.25L163.462-7l1.5-.187q.25,0,.875.688,0,.437-1,.563-1.75.062-2.125.813a8.431,8.431,0,0,0-1.375,2.5l.625-.125q1.812-.187,1.875-1.25h.5a9.564,9.564,0,0,1,1.313,1.813l.125.375a39.8,39.8,0,0,0,2.125-5,4.031,4.031,0,0,0-1.625-.312l.375-.687q0-.312,1.563-.437Q168.775-10.062,169.212-11.937ZM161.65-9.25h.75q1.188,0,1.188.563v.625L162.962-8a1.745,1.745,0,0,1-1.812-1.187Zm19.713-2.187-.125.75-.187.125h.188a25.6,25.6,0,0,0,3.063-.687q.75.312.75.563v.375q-1.625.25-3.125.625l.063,1.438v1l.313-.062a9,9,0,0,1,2.813-.375,1.417,1.417,0,0,1,.375.938q-3.375.25-3.375.688v2a2.055,2.055,0,0,0,.5-.062l2.563-.562q.813.313.875.688-.063.438-3.875,1a5.422,5.422,0,0,0-.062.75V.688q0,.938-.625,1a1.593,1.593,0,0,1-.5-.875l.125-1.187a4.147,4.147,0,0,1,0-1.437q-.125-2.688-.125-4.812V-8.937q0-.625-.25-.75a17.263,17.263,0,0,1-2.312,2.75h-.312V-7.25q2.187-3.375,2.188-4.937Zm-3.937.375h.25a.4.4,0,0,1,.375.438v.438L176.925-8.5a15.3,15.3,0,0,1,.25,2.375v2.188q-.25,3-.25,3.375v.438a.442.442,0,0,1-.5.5q-.687-.438-.687-.937a38.478,38.478,0,0,0,.438-4.5V-7a1.741,1.741,0,0,1-.125-.375l-1,.5a1.8,1.8,0,0,1-1.312.563Zm17.587-.812h.625q.063.75.25.75t2.063-.437l.188.438v.438a22.848,22.848,0,0,1-3.812,4.938h.313A6.938,6.938,0,0,0,197.2-6V-7l.063-1.062h.875a11.389,11.389,0,0,1-.125,1.938h2.25a1.026,1.026,0,0,1,1.125.875l-.562.188h-2.5q-.125,0-.062.188l.063,1.563-.062,2.625q0,.75.125,2.063a1.24,1.24,0,0,0-.125.563H197.7q-1-.688-2.562-1.75V-.125q0-.125.375-.125.125,0,1.5.375h.063l.063-.5a9.159,9.159,0,0,0,.125-1.344V-4.625q0-.25-.375-.312a28.342,28.342,0,0,0-4.625.625v-.375a15.192,15.192,0,0,0,2.75-3.187q0-.438-1.437-1A5.357,5.357,0,0,0,195.012-11.875Zm-.125,2.563a2.27,2.27,0,0,0,.563.5q1.125-.625,1.125-1.437l-.125-.062A2.044,2.044,0,0,0,194.887-9.312ZM190.45-10.75h.563a1.7,1.7,0,0,1,.75,1.75v1.5l.063,1.563q-.125,3-.187,4.875t-.062,2.25h-.625a.442.442,0,0,1-.5-.5l.188-1.875v-4q-1.625,3.313-2.937,3.313v-.562a33.412,33.412,0,0,0,2.125-3.125v-.062L188.2-6.937V-7.5a10.79,10.79,0,0,1,1.938.688q.438.688.625-.5V-9.187Zm4.188,7q1.437.5,1.438.938v.438q-.25,0-.25.375a5.437,5.437,0,0,0-2.187-.937V-3.75Zm16.713-8.125-.062,1.188v.563q0,.188,1.563.5l-.062.688a12.093,12.093,0,0,0-1.5.375v1h.125a9.007,9.007,0,0,0,2.625-.25q1,.375,1,.625v.438q-.312,0-.312.188l-.437-.187-1.437.188a1.007,1.007,0,0,0-.437.125v.188q0,.125.563.438h.625q.063,0,.063-.25a3.792,3.792,0,0,1,1,.75v.25q-1.938.313-1.937.625v.375a7.034,7.034,0,0,1,.063,2.625Q212.663,2,212.1,2A11.208,11.208,0,0,1,209.413.375V-.187a15,15,0,0,0,2.063.438l.25-.437V-2.625q0-1.938-.312-1.937h-.125l-2.875.375-.187-.5q0-.375,3.375-1v-.375l-.25-.375-3.437.563-.25-.375A4.264,4.264,0,0,1,210.1-7.312v-1q0-.125-1.25-.312v-.312q0-.438,1.313-.687v-.937l.125-1.875Zm-5.812.438h.688l.188.875-.062,1.25q0,.5,1.125,1.063v.438q-1.125.313-1.125.5l-.062.875L207.913-6Q206.1-6,206.225-.187q-.312.813-.625.813h-.187q-2.125-1.438-2.125-2.187a.166.166,0,0,0,.188-.187,3.5,3.5,0,0,1,1.313.5,1.1,1.1,0,0,0,.313.125q.063-1.813.063-2.875v-.312q.063,0-1.937,1.25-.813-.187-.812-.625,3-1.563,3-2.875V-7q0-.187-.25-.187h-.125l-1.562.125v-.75q1.938-.25,1.938-.625l.063-2.125ZM208.6-3.5q2.562.625,2.563,1.063V-2l-.25.313q-2.5-.75-2.75-1.25A2.708,2.708,0,0,1,208.6-3.5Zm14.587-9.375h.375q.438,0,.75,2.188l.813.313v.438l-1.187,1v.563l.313.125A5.983,5.983,0,0,1,226-8.562h.938a1.02,1.02,0,0,1,1.063.75v.25A5.2,5.2,0,0,1,226.375-6q-.5,0-.5-.625L226.188-7v-.312q0-.125-.375-.125l-4.75,1a2.629,2.629,0,0,0-.625-.062v-.562q2.438-.437,2.438-1.062v-1q-.375,0-1.062-.062V-9.75q1.375,0,1.375-1.562ZM219-10q.625,0,.625.75a6.726,6.726,0,0,1-1.375,2.688v.313h.063a1.939,1.939,0,0,0,1.188-.5q.312.375.5.375v.438l-1.25,2.125V-3.5q.875,0,.875.375V-3q0,.438-2.312,1.313-.687-.313-.687-.687v-.312A2.736,2.736,0,0,0,218-4.812v-.25h.063a8.33,8.33,0,0,0-1.75.688l-.187-.437v-.375A11.083,11.083,0,0,0,218.75-10Zm4.875,3.75.5.5-.062,1.188v1.188q0,.125.25.125a10.529,10.529,0,0,1,1.875-.25h.625l.125.75-2.062.625q2.063,3.563,4.625,3.563l.438.688v.313a1.109,1.109,0,0,0-.5.125q-2.562,0-5.562-4.125h-.25Q221.438,2,219.688,2l-.187-.437v-.25Q222.25,0,222.25-1.312l-.187-.125A6.686,6.686,0,0,0,217.5.813q-.562.125-.562.375A1.556,1.556,0,0,0,216.25,1V.625q.063-.562,2-1.437a4.86,4.86,0,0,1,4-1.687q.938,0,1.313-3.75ZM221.75-6a2.53,2.53,0,0,1,1,1.188v.375a1.685,1.685,0,0,1-1.5-1.062Q221.313-6,221.75-6Zm-.812,1.438h.25q1.313.625,1.313.938,0,.5-.375.5h-.437q-.312,0-.75-.687ZM239.4-12.875h.375q.312,3.125,1.063,3.125v.438a1.386,1.386,0,0,0-.562,1v.5q.063.188.125.188h1.75q1,.062,1,.5v.25l-.187.375a10.148,10.148,0,0,0-1.25-.125q-1.437.125-1.437.438v3.125q0,1.813-.625,1.813-.25,0-.5-.687l.125-.625q-.125-3.625-.625-3.625h-.25a11.537,11.537,0,0,0-1.062,2.875q-.687.75-.812.75h-.312v-.625a5.553,5.553,0,0,0,.875-2.375.166.166,0,0,0-.187-.187h-.125l-.875.063q-.813-.062-.812-.5v-.125q0-.375,2.188-.687v-.125q-.125-1.687-.5-1.687a4.94,4.94,0,0,0,.5-1.75,6.293,6.293,0,0,1-.187-1.375h.375q.563,0,.875,2.188l.25.063q.5-.25.563-.437v-.687l-.187-1.875ZM233.275-10h.625q.25,0,.938,1v.563h-.375q-.312,0-1.187-1.062Zm4.938,2.063v.563q.063.125.125.125h.5q.312-.062.313-1v-.312q0-.125-.312-.25A.823.823,0,0,0,238.212-7.937Zm-6.25,1.188q1.875,0,1.875,2.75.5,2.625,1.438,2.625a29.423,29.423,0,0,0,8.188,1.5q0,.313,1,.313v.625l-1.125.125h-2q-2.375,0-8-2L231.4-1.25l-.25.125a2.056,2.056,0,0,0-.625-.125v-.625l1.188-.375a2.3,2.3,0,0,0,1.125.313h.625v-.187a11.449,11.449,0,0,1-.875-2.562v-1a.962.962,0,0,1-.875-.625v-.312Q231.963-6.625,231.962-6.75Zm16.4-4.437h.375q.25,0,.688.625v.375q-.937.687-3.062,2l.188-.875Q246.8-9.375,248.363-11.187Zm6.75.563.25.375q0,.813-2.125.813-.813-.312-.812-.562v-.312A14.764,14.764,0,0,1,255.113-10.625ZM249.3-8.937q.438.312.438.563l.188.75a14.705,14.705,0,0,0-1.75,1.438q.063,1.187.063,1.688,0,1.375-.062,3.875l.063,1.25H247.8q-.438-.125-.812-.937A32.593,32.593,0,0,0,247.113-5q0-.75-.187-.562l-1.062.5h-.687V-5.5A31.668,31.668,0,0,0,249.3-8.937Zm8.187.563q.875.375.875.875a27.4,27.4,0,0,1-5.625.938q0,.188-1.312.25a1.937,1.937,0,0,0-.812-.125v-.437Q250.613-7.375,257.487-8.375ZM254.55-6.562h.188q.687,0,.813,4.188a14.045,14.045,0,0,1-.375,3.688h-.5A6.522,6.522,0,0,1,252.113-.75h.5a11.411,11.411,0,0,1,1.563.313,15.249,15.249,0,0,0,.125-1.687,17.485,17.485,0,0,0-.187-4.125Z" transform="translate(157 305)" fill="#1b6b4b"/>
    <path id="路径_134" data-name="路径 134" d="M12.25-12v.688a8.248,8.248,0,0,0-1.937,4.938v1.188A10.114,10.114,0,0,0,12.438-.562v.5h-.312q-1.75,0-2.937-4.875a6.584,6.584,0,0,1,0-1.812Q10.375-12,12.25-12Zm9.462,1.063L22.4-11q1.25.063,2.125.063a2.618,2.618,0,0,1,1.688.563v.313Q25.025-5.25,22.775-5.25l-.062.188q-.062.688,0,.688A9.628,9.628,0,0,0,24.65-4.75l.375.563v.25q0,.375-2.187.75l-.125.313v1q0,.188.25.313h2.375l.813-.187q2.188.875,2.188,1.313V0h-.562a13.228,13.228,0,0,0-3.062-.344Q22.837-.375,17.025.25A1.2,1.2,0,0,0,16.462,0V-.25q0-.5,4.75-1.062.5,0,.5-.562Q21.65-3.063,21.4-3.062a13.285,13.285,0,0,0-1.75.375,2.9,2.9,0,0,0-.562-.062v-.437q0-.25,2.5-1.125v-.562q0-.375-.437-.375a16.268,16.268,0,0,1-1.687.563q-.562-.125-.562-.437-.062-.562.063-.562-.313-3.688-.437-4.25Q18.525-10.563,21.712-10.937Zm.813,1.125Q22.463-9,22.587-9q.938-.063.938-.562a1.933,1.933,0,0,0,.75.375v.438q0,.5-1.5.813l-.062.125v.938q.062.188.125.188,1,0,1.625-1.625v-1.25q0-.25-.875-.5Q22.588-9.938,22.525-9.812Zm-3.062.5.063.5q.062.188.188.188l1.5-.25a.166.166,0,0,0,.188-.187v-.625a.221.221,0,0,0-.25-.25Q19.462-9.75,19.462-9.312ZM19.837-7.5v.125l.125,1.188h.875q.625,0,.688-.375v-.812a.771.771,0,0,0-.187-.437Zm17.15-3.937,1.813.25,2-.25a1.552,1.552,0,0,0,.625.25v.375q-.875,3.375-2.187,3.375a5.505,5.505,0,0,0-2.062.375q-.375,0-.562-4.125Q36.987-11.187,36.987-11.437Zm-3,.5q.438,0,.438,1.063a5.476,5.476,0,0,0-1.937.688l-.187-.5Q33.237-10.937,33.987-10.937Zm3.563.875q.25,1.313.375,1.313h.75q1.5,0,1.5-1.25v-.062a.221.221,0,0,0-.25-.25H37.8Q37.55-10.25,37.55-10.062Zm-4.375.688h.5q.5,1.188.75,1.188L35.55-8.25l.438.625v.375H34.925q-.75,0-.937.5v1.188L35.3-4.187v.438q-.25,0-.25.063l-.875-.062h-.187q-.25,0-.25,3.75V.5q0,.5-.437.5h-.187q-.375,0-.375-.5V-2l.125-1.562-.187-.125h-.062l-1,1h-.5V-3q1.75-2.375,1.75-3.625l-.125-.062a9.262,9.262,0,0,1-2.5.5V-6.75q0-.375,2.812-1.25a.989.989,0,0,0,.125-.625ZM40.3-6.437a1.24,1.24,0,0,0,.563.125v.5q-.125.625-1.375.625h-.125v.875L39.487-4H40.55l.875.063v.313q0,.687-1.937.813l-.125,1.5q.188.25.313.25,1.812-.313,1.875-.312,1.812.375,1.813,1v.5a1.672,1.672,0,0,0-.625.125A2.892,2.892,0,0,0,41.55,0H41.3a27.28,27.28,0,0,0-5.062.438q-.875-.187-.875-.562v-.5h.25q2.813,0,2.813-.625v-.812q0-.75-.125-.75-.25,0-1.25.125L36.8-3q0-.312,1.625-.937V-4.75q0-.375-.125-.375h-.25l-1.062.375v-.562Q36.987-5.875,40.3-6.437Zm12.713-5.687a1.441,1.441,0,0,0,.5.125v.625l-2.125,1v.188q.063.188.125.188.5,0,3.25-.437h.813q1.25,0,1.25,1.063Q56.012-5.5,55.325-5.5q-2.375,0-2.75,1.375-.625.312-.625.688l.25.188h.125a.829.829,0,0,0,.938-.937q0-.875.5-.875h.125q.188,0,.688,1.313h.313q.312,0,2.125-.187h.438q.312,0,.75.563v.563h-.25Q54.325-2.875,54.325-2L54.263.813a1.068,1.068,0,0,1-.812,1.125,8.33,8.33,0,0,1-.187-2.812Q53.2-2,53.2-2.187a.959.959,0,0,0-.375-.125A25.368,25.368,0,0,0,49.638-2l-.25-.5q1.75-.75,1.75-1.312A1.578,1.578,0,0,0,51.7-4.875q-.687-.313-.687-.625v-.375a15.943,15.943,0,0,0-.5-4v-.062Q50.513-11.125,53.013-12.125Zm1.5,2.688h-.625v.063q0,.938,1.5.938L55.7-8.75v-.687q-.375,0-.375-.125Zm-2.625.563v.5a.11.11,0,0,0,.125.125h.813q.188,0,.188-.125V-9q0-.125-.187-.125Q51.888-9.062,51.888-8.875ZM49.388-9l.063.438v.188q0,.375-1.187.563a3.851,3.851,0,0,0-1.062,2q0,.188.063.188a2.41,2.41,0,0,1,1.188-.312q1,.188,1,.563v.813q0,2.188-1.562,2.438a16.73,16.73,0,0,0-2.062.25A3.425,3.425,0,0,1,45.513-3.5q-.438,0-1.312.875h-.5v-.312q3.063-3.25,3.063-4.5l-.687-.625V-8.5A23.151,23.151,0,0,1,49.388-9Zm4.5,1.813V-6.5h.875q.375,0,.563-1.187Q54.013-7.687,53.888-7.187Zm-1.75.25V-6.5q0,.125.188.125h.125a.11.11,0,0,0,.125-.125v-.437ZM46.45-4.062v.188q.063.75.375.75h.25a1.271,1.271,0,0,0,1.438-1.437q0-.187-.312-.312Q46.45-4.875,46.45-4.062Zm17.775-8.812h.438q.563.125.563,1.063h-.25q-.375,0-.75-.625Zm2.938.813q.812.312.813.688a8.049,8.049,0,0,0-1.625,2v.313h4.188l.5.688v.125l-.062.438q-2.375-.25-3-.25H66.35L59.787-6.937Q59.1-7.25,59.1-7.5v-.312A15.172,15.172,0,0,0,63.162-8.5l-.125-1.312v-.5L62.35-10.5v-.437Q62.662-11.312,67.162-12.062Zm-3,1.438a7.8,7.8,0,0,1-.25,1.438l.313.25h.5a2.866,2.866,0,0,0,1.125-1.125v-.375q0-.125-.375-.312A5.3,5.3,0,0,0,64.162-10.625Zm1.875,3.25h.625q1,0,1,.813a10.809,10.809,0,0,0-1.187,3,12.494,12.494,0,0,1-3.875.75,2.36,2.36,0,0,0-.25-.812l.125-.687a14.251,14.251,0,0,1-.312-2.25A13.607,13.607,0,0,1,66.037-7.375Zm-2.75,2.063v.563q0,.75.5.75Q66.1-4,66.1-5.25l-.125-.062-2.188.5-.125-.375q0-.313,1.688-.875l.375.188h.313a.166.166,0,0,0,.188-.187v-.125q0-.187-.25-.312h-.187Q63.288-6.5,63.287-5.312Zm6.375,2A10.577,10.577,0,0,1,71.85-1.625V-1H71.6q-.937,0-2.437-1.625v-.312A.437.437,0,0,1,69.662-3.312Zm-5.062.5h.5q.25,0,1.375,1.375V-1h-.5Q64.6-2,64.6-2.312Zm-4.438.25h.25q1,.5,1.125,2.688-.25.625-.562.625h-.437a1.109,1.109,0,0,0-.125-.5v-.5a11.625,11.625,0,0,1-.25-1.812Zm2.5.375A3.337,3.337,0,0,0,65.35.25h1.875q.938,0,1.063-.375V-1.25h.438q.625,0,1,2.188,0,.375-3.375.563-2.875-.125-3.563-1.687a4.061,4.061,0,0,1-.625-1.187v-.437A.563.563,0,0,1,62.662-2.187ZM77.75-11.062a4.055,4.055,0,0,1,2.563.938q-.125.75-.687.75a4.6,4.6,0,0,1-1.875-1.187Zm3.875,1.75h.563l.188.813q.188,1.688-2,4.375l-.187.313a17.689,17.689,0,0,0,3.188,2.125,16.75,16.75,0,0,0,4,1.125l-.812.313q-.187.375-.875.375h-.125q-2.687,0-6.062-3.187h-.125Q75.625,0,73.688-.25V-.812A9.375,9.375,0,0,0,78.563-3.75l.125-.187Q76-7.5,76-8.062h.375a27.546,27.546,0,0,1,2.75,3l.375.25Q81.625-7.938,81.625-9.312Zm8.338-3h.75a7.118,7.118,0,0,1,2.063,4.75A10.751,10.751,0,0,1,89.588,0h-.25q-.25,0-.625-.5V-.875A10.485,10.485,0,0,0,91.65-7.937,13.167,13.167,0,0,0,89.963-12.312Z" transform="translate(157 322)" fill="orange"/>
  </g>
</svg>
