<svg xmlns="http://www.w3.org/2000/svg" width="403" height="65.563" viewBox="0 0 403 65.563">
  <g id="tense_1" transform="translate(-147 -291.813)">
    <g id="line" transform="translate(0.5)">
      <line id="Line-2" data-name="Line" x2="400" transform="translate(148 330.5)" fill="none" stroke="#707070" stroke-linecap="round" stroke-width="3"/>
      <path id="left" d="M-14.5-2759l7,6Zm7-6c-2.25,2.25-7,6-7,6Z" transform="translate(162.497 3089.5)" fill="none" stroke="#707070" stroke-linecap="round" stroke-linejoin="round" stroke-width="3"/>
      <path id="right" d="M0,6,7,0Zm7,6C4.75,9.75,0,6,0,6Z" transform="translate(548 336.5) rotate(180)" fill="none" stroke="#707070" stroke-linecap="round" stroke-linejoin="round" stroke-width="3"/>
      <circle id="现在" cx="6" cy="6" r="6" transform="translate(342.5 325)" fill="#707070"/>
      <path id="路径_72" data-name="路径 72" d="M10.188-12.875h.438q.563,0,1.188,2.875,1.375,0,1.375.938v.25q-1.563.125-1.562.5V-3.75q-.25,2.375-.75,2.375H10.75q-2-1.188-2-1.875h1.313q.25,0,.25-1.812h-.187a1.509,1.509,0,0,0,.188-.5q0-.625.188-2.625a1.582,1.582,0,0,0-.75-.25,10.352,10.352,0,0,1-1.125.25Q7.75-8.5,7.75-8.812v-.375a14.955,14.955,0,0,0,2.563-.437v-.937Q10.313-11.312,10.188-12.875Zm-6.625,2.5h.563a4.827,4.827,0,0,1,1.25,1.063v.5A2.181,2.181,0,0,1,3.563-9.875ZM2.375-7.25H2.75q1.938,0,1.938,2.188A9.587,9.587,0,0,0,5.5-2.187q0,1.688,7.563,2Q15,0,15,.563V.688q-.063.5-1.312.5h-.375A30.35,30.35,0,0,1,2.75-1.125q-1.438,0-1.562-.687V-2.25l3.25.438V-2.75A5.18,5.18,0,0,1,3.375-4.875a5.209,5.209,0,0,0,.188-1.187Q2.375-6.375,2.375-6.75Zm4.5.25q1.875,0,2.25.938v.188q0,.437-.375.438H8.625q-1.75-.812-1.75-1.187Zm14.962-5.187q.812,0,.563,2.25v1.375q1.125-.312,2.188-.5.437.063.813.875l-.187.375-1.125.063-.812.125q-.875,0-.875.313v1.75q.062.25.125.25a51.735,51.735,0,0,1,5.375-.5,2.188,2.188,0,0,1,.625,1.5q-.187,0-.187.25a4.5,4.5,0,0,0-2-.375l-2.75.25q-1.25,0-2.562,2.125L20.337-.875q.437,0,2.688-.312,1.313-.25,1.313-.375L24.15-2.625h.5A12.507,12.507,0,0,1,26.837.313l-.75,1.125q-.313,0-1.375-1.687h-.125q-3.375.563-3.812.625t-1.75.313q-.688-.313-.687-.562V-.187q2.375-2.688,2.375-3.75v.063l-3.937.563H16.15v-1q5.063-.625,4.938-1.062.188-2,.063-1.937a1.92,1.92,0,0,1-1.937-.312V-8a5.924,5.924,0,0,1,2.125-.5l.063-2.687v-.625Q21.587-12.187,21.837-12.187Z" transform="translate(156.5 355)" fill="#9e6a4d"/>
      <path id="路径_73" data-name="路径 73" d="M-4.45-11.187q.75.375.812.75v5.25l-.125.875a2.561,2.561,0,0,1-1.125-.312l.125-5.5-1,.063q-1.687.188-1.687.438v1.5a27.914,27.914,0,0,1-.312,4.188L-8.7-4v-.25q.188-2.812.188-5.625Q-8.512-10.875-4.45-11.187Zm-6.313,1.813q.813.063.813.5v.313l-.938.125v1.5A3.748,3.748,0,0,1-9.637-7v.375q0,.313-1.188.75a16.861,16.861,0,0,1-.312,2.313h.375a4.07,4.07,0,0,0,1.125-.375l.375.313q0,.687-4.25,2.125a2.056,2.056,0,0,0-.625-.125v-.812q2,0,2.188-2.25v-.625a.166.166,0,0,0-.187-.187h-.437a1.109,1.109,0,0,0-.5.125q-.75-.25-.75-.562,0-.375,1.938-.812l.125-.187v-.937q.125-.625-1-.187L-13.2-9A6.428,6.428,0,0,1-10.762-9.375Zm4.25.688h.188q.75.312.75.563v.25a25.6,25.6,0,0,0-.219,4.25,5.069,5.069,0,0,0,.656,2.438A1.754,1.754,0,0,0-4.45-.75q3.063.313,3.063-.687a9.109,9.109,0,0,1,.125-1.5h.25q.625,0,1,2.688Q-.325.625-2.325.625l-1.5.063A3.257,3.257,0,0,1-6.7-3.187h.063A5.252,5.252,0,0,1-9.762.063l-1.375.063,1.125-.75A7.952,7.952,0,0,0-6.825-5a27.493,27.493,0,0,0,.313-2.75ZM5.762-12.25h.625q.313,0,.813.688a16.02,16.02,0,0,1-.437,2.625h.563q.375,0,2.938-.5.875.312.875.813v.313Q6.575-8,6.45-7.687A19.557,19.557,0,0,0,4.575-3.875q0,.25.125,1.625a25.106,25.106,0,0,1-.125,3.813H4.262Q3.325,1.25,3.2.813a9.007,9.007,0,0,0,.313-2.125V-2.875l-.562.438Q1.45-.875,1.012-.875H.45Q4.2-5.125,4.762-7.312,2.95-7.438,2.887-8.375l.625-.062q1.938-.063,2.25-1.5l.063-.625v-.312Zm2.313,5.5H8.45q.687,0,.75,1.938h1.063l1.125.125v.438q0,.563-2.063.688l-.062.125V-3a12.059,12.059,0,0,0,.063,2h1.688q1.812-.375,2.375.438L13.7.25H10.95L5.575.625Q4.825.375,4.825,0q.062-.5.438-.5H5.7q2.375,0,2.375-.437V-3q0-.063-.25-.312l-.812.25q-.875-.312-.875-.687v-.312q1.938-.187,1.938-.562V-6.75Z" transform="translate(348.5 355)" fill="#9e6a4d"/>
      <path id="路径_74" data-name="路径 74" d="M-21.65-11.875h.625q.062.75.25.75t2.063-.437l.188.438v.438A22.848,22.848,0,0,1-22.337-5.75h.313A6.938,6.938,0,0,0-19.462-6V-7l.063-1.062h.875a11.389,11.389,0,0,1-.125,1.938h2.25a1.026,1.026,0,0,1,1.125.875l-.562.188h-2.5q-.125,0-.062.188l.063,1.563L-18.4-.687q0,.75.125,2.063a1.24,1.24,0,0,0-.125.563h-.562q-1-.688-2.562-1.75V-.125q0-.125.375-.125.125,0,1.5.375h.063l.063-.5A9.158,9.158,0,0,0-19.4-1.719V-4.625q0-.25-.375-.312a28.342,28.342,0,0,0-4.625.625v-.375a15.192,15.192,0,0,0,2.75-3.187q0-.438-1.437-1A5.357,5.357,0,0,0-21.65-11.875Zm-.125,2.563a2.27,2.27,0,0,0,.563.5q1.125-.625,1.125-1.437l-.125-.062A2.044,2.044,0,0,0-21.775-9.312Zm-4.437-1.437h.563A1.7,1.7,0,0,1-24.9-9v1.5l.063,1.563q-.125,3-.187,4.875t-.062,2.25h-.625a.442.442,0,0,1-.5-.5l.188-1.875v-4q-1.625,3.313-2.937,3.313v-.562a33.412,33.412,0,0,0,2.125-3.125v-.062l-1.625-1.312V-7.5a10.79,10.79,0,0,1,1.938.688q.437.688.625-.5V-9.187Zm4.188,7q1.438.5,1.438.938v.438q-.25,0-.25.375a5.437,5.437,0,0,0-2.187-.937V-3.75Zm12.9-8.5.813-.062q.188,1.938.313,2.5l1.438-.125q.75.25.75.5v.563H-8v2.25l.063-.062a4.445,4.445,0,0,0,.813-1.875L-6-8.125v.188A6.711,6.711,0,0,1-7.812-5.875v.625l2-.062q3.188-.125,3.188.938a1.891,1.891,0,0,1-.625.188H-7.187l-.125.063A17.234,17.234,0,0,0-2.125-.687v.5q-.625.125-.687.125-1.75,0-4.562-2.812l-.5-.437Q-7.937.375-7.937,2.063v.313h-.625q-.5-.187-.5-1.187.125-2.313.125-3Q-8.937-2-9-2.625A16.585,16.585,0,0,1-12.875.188h-.687a25.6,25.6,0,0,0,3.625-3.75l.25-.375q-3.562.25-3.812.25l-.125-.875q4.563-.437,4.688-.5l-.125-3.562-.25-.062-1.5.125-.5-.375q0-.5,2.125-.75a2.689,2.689,0,0,0,.063-.5Zm-1.25,4q.625,0,.938,2-.312.75-.625.75A4.135,4.135,0,0,1-10.75-8Z" transform="translate(539.5 355)" fill="#9e6a4d"/>
    </g>
    <path id="路径_71" data-name="路径 71" d="M-49.381-11.062a2.175,2.175,0,0,1,.375.875,13.538,13.538,0,0,1-4.125,5.75l-.312.25h-.375v-.437q3.375-3.5,3.375-4.937v-.062q0-.125-1.437.063V-10.5A10.3,10.3,0,0,1-49.381-11.062Zm-5.375.25h.25q.375,0,.375.625,0,.938-2.375,3.063l-.75.125Zm5.313,2.875q3.75,1.063,3.875,1.875A.737.737,0,0,1-45.944-5q-2.187-1.312-3.812-2.25l.063-.5Q-49.444-7.75-49.444-7.937Zm-7,.313v.688h.25a8.4,8.4,0,0,0,1.5-.312,1.2,1.2,0,0,0,.563.25v.625L-55.444-4.75v.313h.938A.4.4,0,0,1-54.131-4l-.75.5-.5.125a12.631,12.631,0,0,0-1.937.438l-.312-.437a5.881,5.881,0,0,0,1.813-2.062v-.187a11.845,11.845,0,0,0-1.875-.5l-.187-.437v-.375A3.2,3.2,0,0,0-56.444-7.625Zm7.688,2.375q.813.375.875.688v.375q-1.563.25-1.562.688v.875l-.187,1.25.375.188h2.625a1.285,1.285,0,0,1,1.25.875,1.556,1.556,0,0,0-.187.688,10.55,10.55,0,0,0-1.687-.437q-4.812.25-6.25.25a.686.686,0,0,0-.437-.25v-.5q3.375-.375,3.375-1.062V-3.25a9.559,9.559,0,0,0-1.625-.562v-.625A16.747,16.747,0,0,0-48.756-5.25Zm-5.25,2.313v.375A8.169,8.169,0,0,1-56.881.188h-.312q-.375,0-.375-.5V-.937A22.212,22.212,0,0,0-54.006-2.937Zm14.963-10.25h.813q.312,0,.5.875a13.429,13.429,0,0,0-.125,1.563v.375a.2.2,0,0,0,.188.125q2.875-.25,3.688-.25,1.688.25,1.688.938v.188a4.994,4.994,0,0,1-2.312,1.25v-.312l.563-.75v-.25q0-.125-.187-.125-5.562,0-6.625,1.25v.438a4.438,4.438,0,0,1-.25,1.625h-.125q-.312,0-.625-.625a2.8,2.8,0,0,0,.125-.75v-.75a7.836,7.836,0,0,0-.375-1.312.166.166,0,0,0,.188-.187l.5.188h.25q2.375,0,2.375-1.062l.125-1.312Zm3.313.625h.375q.375.063.375.688a3.141,3.141,0,0,1-2.437,1.125Zm-4.875.875q.687.125.688,1.063V-10h-.187q-.5,0-.875-1.562Zm4.75,2.75.5.813q-.312,2.438-1.812,2.438v.5q.063.188.188.188a23.256,23.256,0,0,0,2.5-.312q1.688.375,1.688.813v.313A6.387,6.387,0,0,1-35.169-.875q-.625-.25-.625-.5l-.125-.75a1.984,1.984,0,0,0,1.813-2.062q0-.187-.25-.187A8.869,8.869,0,0,0-36.981-4a12.25,12.25,0,0,1,0,1.75,35.4,35.4,0,0,1-.375,5h-.5q-.25-3.688-.187-5.875.063-.813-.5-.812a4.53,4.53,0,0,0-1.812.563L-40.169-2V-.875h-.437q-.5,0-.875-3.75a10.541,10.541,0,0,1,1.375.188q2-.187,2-.562v-.187q0-.187-.312-.312a4.473,4.473,0,0,1-1.125.188,13.845,13.845,0,0,1-.312-3.062ZM-38.794-7.5v.125q0,1,.375,1,1.812-.313,1.813-.687V-8Q-38.794-8-38.794-7.5Zm14.025-4.125q.625,0,.625,1.5V-9q0,.188,1.625.313v.313q0,.438-1.687.688l-.062.188v1.313h1.563q.5-.25,1.438-3.375v-1.375h.375q.375,0,.75.813a4.987,4.987,0,0,0-.312,1.313v.125a11.359,11.359,0,0,0,2.688-.437h.375l-.062.938q-1.063.25-1.062.813a23.4,23.4,0,0,1-1.062,4q0,1,2.375,2.563,1.75.375,1.75.938,0,.375-.437.375h-.187q-1.937,0-4.187-2.812h.063A10.018,10.018,0,0,1-24.081.313v-.5a10.036,10.036,0,0,0,3.063-3v-.125a4.928,4.928,0,0,1-1.125-2h.438q.875.875,1.375.875a5.106,5.106,0,0,0,.5-2.312V-7.5q0-.187-.125-.187-1.312,0-2.875,3.188,0,2.313-2.562,2.313-.437,0-.937.75-.437-.062-.812-.875v-1.25q-.125-1.687-.125-2.375h1.188L-25.519-6V-7.375q0-.187-.312-.187l-.812.188-.187-.437v-.375a1.764,1.764,0,0,0,1.75-.875v-1.375q0-.125-.062-1Zm-2.625,1.063a2.056,2.056,0,0,0,.625.125v.688A7.525,7.525,0,0,0-28.331-7.5a13.977,13.977,0,0,1,.375,2.375A36.317,36.317,0,0,1-28.019.188a1.937,1.937,0,0,1-1.062-.375V-6q0-.75-.062-.75l-.75.5h-.625Zm1.188,5.938q0,1.375.5,1.375,2,0,2-1.75l-.125-.062h-2Q-26.081-5.062-26.206-4.625Zm19.4-6.875h.125q.25,0,.5.5v.438A10.056,10.056,0,0,1-6.806-8.25q2.5-.125,2.937-.125,1,.25,1,.688v.063q-.5,7.688-2.25,8.75h-.312a6.185,6.185,0,0,1-1.812-2,2.9,2.9,0,0,0,.063-.562h.438A2.055,2.055,0,0,0-5.681-.75l.438.063q.563.5,1-6.375v-.125q0-.062-.312-.062-.562,0-2.875.063Q-9.181-5.5-9.056-4.375A42.371,42.371,0,0,1-9.744.313h-.625l-.75-.875h-.375q-.813.125-2.25.438l-.25-.5Q-14.056-4-14.119-5.187q.063-1.563-.562-1.562v-.375l3.188-3.812h.625a1.98,1.98,0,0,1-.625,1.625,6.868,6.868,0,0,1-1.562,1.5h.188q.563,0,2.875-.312.625,0,1,1.5v.063a7.472,7.472,0,0,0,1.688-4.312Q-6.994-11.5-6.806-11.5Zm-6.375,6.375q0,.188.313.188,1.875-.25,2.125-.25A1.121,1.121,0,0,0-10.181-5l.063-1.875q0-.187-.312-.312-2.75,0-2.75,1.25Zm5.438-.125q2.313.313,2.313.938v.875q-.187,0-.187.125Q-8.306-4.563-8.306-5v-.062Q-8.306-5.312-7.744-5.25Zm-5.25,3.75h-.062q1.437-.313,1.625-.375a3.019,3.019,0,0,0,.938.438,6.434,6.434,0,0,0,.313-2.875h-.062a8.32,8.32,0,0,0-2.812.75Q-12.994-1.812-12.994-1.5Zm18.4-11.687q.313,0,.438,1.875,1.938-.125,2.625-.125l.438.563v.125a.276.276,0,0,1-.312.313h-2l-.75.125v.375a15.222,15.222,0,0,0,1.875-.187,1.178,1.178,0,0,1,.5.813Q7.406-7.437,6.156-7.437l-.25.313q0,.125.375.125,1.438-.187,1.625-.187a2.282,2.282,0,0,1,1,.688v.25l-.25.875q-.063.188.188.125,3.125-.187,3.625.563a1.441,1.441,0,0,0-.125.5,27.267,27.267,0,0,1-3.75-.125L8.156-2.375q0,.188-2.062.188a23.691,23.691,0,0,1-.062,4.5l-.687.063H5.156A7.574,7.574,0,0,1,3.344.938L3.531.563A4.369,4.369,0,0,0,4.906.688,10.281,10.281,0,0,0,4.906-1v-.5q0-.562-.5-.562Q3.406-2,3.281-2a3.882,3.882,0,0,0-.75-.062l.625-.812q1.813-.25,1.75-.375v-.687q-1.938.125-3.812.25H-.094q-.25,0-.437-.437,0-.375,3.875-.75A5.639,5.639,0,0,1,4.906-5v-.625h-.5q-.375,0-1,.063a.782.782,0,0,1-.687-.75q2.188-.25,2.188-.562V-7q.125-.313-.312-.125a7.975,7.975,0,0,1-1.062.188q-.687-1.687-.875-2.125,0-.375,2.25-.812l.063-.312-1.25.063H3.281q-.75,0-.75-.187v-.437q2-.312,2.438-.437l.063-.375-.125-1.625Zm.5,4.125a2.8,2.8,0,0,0,.063.813q.688-.25.813-.5l.063-.375H6.281A1.18,1.18,0,0,0,5.906-9.062Zm-2.062.5v.313q.063.25.25.25h.688q.125,0,.125-.25v-.625H4.531Q3.844-8.875,3.844-8.562Zm2,2.813v.5a.245.245,0,0,0,.25.188h.5q1,0,1-.937l-.25-.062H6.781Q5.906-6.062,5.844-5.75Zm1.25,2.438.125-.562a.221.221,0,0,0-.25-.25h-1q.062,0,.031.438t.531.406Zm13.713-9.312h.188q.75.063.75,1.813l1-.062.375.563v.5l-1.062.125V-9.5h.313l.875.125v.688q-1.5,0-1.5.938v.25q.062.188.188.188l1.25-.125h1.938q1.313.25,1.313.625v.25q0,.375-.437.375l-1.875-.25Q17.244-6,17.244-5.5l-.875-.062q0,3.875.063,5.5l-.062.938q-.313.688-.625.688-.438,0-.562-.937.188-3.313.188-11.375l.438-.187h.188a3.607,3.607,0,0,1,.313,1.375l.063,2.375v.125q0,.188.75.75a14.719,14.719,0,0,1,3.25-.875l.188-.375V-7.75q0-.25-.125-.25h-.25l-.75.25-.25-.375v-.5q1.375,0,1.563-.687-1.375-.312-1.375-.625v-.437q1.438-.125,1.438-.25v-2ZM22.494-6.25q.437,0,1,1l.063.438V-4.5q0,.5.125,6.438,0,.375-.437.375h-.187q-1.562-1-1.687-1.562V.438Q22.494.75,22.556.75l.063-.125V-1.5h.063q-2.625.438-2.625.688L20.181.563h.063a5.77,5.77,0,0,0-.062.813h-.5q-.187,0-.625-.75,0-6.25.5-6.25Q19.681-5.875,22.494-6.25Zm-8.312.438q.438,0,.438.375v.313q-.375,1.813-.875,1.813h-.25Q13.619-5.813,14.181-5.812Zm6.125.938v.688q0,.188.313.313,1.75-.437,1.75-.625,0-.688-.187-.687Q20.119-5.062,20.306-4.875ZM20.119-2.75v.438q.062.125.125.125h.375q2-.312,2-.687v-.5q.062,0-.312-.125Q20.244-2.75,20.119-2.75Zm10.775-8.125.25.063q.375.063.375.375-1.063,3.688-4,11.313L26.644.688a72.932,72.932,0,0,1,2.5-7.25Q30.456-10.813,30.894-10.875Zm9.213-1a1.818,1.818,0,0,1,1.563,1.063,3.657,3.657,0,0,1-.187.938q.063,3.25,0,5.188v2.375a6.3,6.3,0,0,1-1.562,3.688h-.25A18.766,18.766,0,0,1,36.919-1v-.437l2.375.813h.063q1,.5,1.125-5.562v-.187l-.062-4a.221.221,0,0,0-.25-.25h-.25a40.364,40.364,0,0,0-5,.438l-.625-.25L34.231-11Q34.669-11,40.106-11.875Zm-5.125,3.5q3.188.563,3.125,1.313a.759.759,0,0,0-.187.375,5.488,5.488,0,0,1-3.062-1.187V-8.25A.11.11,0,0,0,34.981-8.375Zm3.188,2.5h.563V-5.5q-2.437,2.25-4.625,4.063h-.5q-.25,0-.812-.75A49.879,49.879,0,0,0,38.169-5.875Zm16.462-6.25q1,0,1.063,1.375v.875h.125q1.188-.187,1.438-.187a1.7,1.7,0,0,1,1,.938v.188h-1Q55.444-9,55.444-8.312q0,1.875-1.187,1.875a5.944,5.944,0,0,0-2.5.813h-.437l-.812-.562.188-1.062v-.875a1.879,1.879,0,0,1-.312-.062L49.256-8a2.689,2.689,0,0,0-.5-.062V-8.75l1.625-.125q.125,0,.125-.25V-10.75Q50.506-11.812,54.631-12.125Zm-.937,1V-9.75q.063.188.188.188h.625a4.6,4.6,0,0,0,.25-1.187q0-.125-.375-.375Zm-2.187.75q.063,1,.375,1h.688q.125,0,.125-.187v-1a.11.11,0,0,0-.125-.125h-.687Q51.756-10.687,51.506-10.375ZM47.381-10.5h.25a.77.77,0,0,0,.125.438q.125,1.25.125,1.75v.375a9.633,9.633,0,0,1,1.688,1.375q0,.437-.375.438a1.757,1.757,0,0,1-1.187-.625h-.125V.063a2.057,2.057,0,0,0-.125.625A1.2,1.2,0,0,1,46.569.063q.312-.438.25-4.5Q46.756-10.5,47.381-10.5Zm6.313,2.188v.75h.313q.312,0,.5-.937a.678.678,0,0,0-.25-.125Q53.694-8.437,53.694-8.312ZM51.819-7.25v.125q.063.125.125.125h.5a.11.11,0,0,0,.125-.125l.063-1.187-.75.125A2.7,2.7,0,0,0,51.819-7.25Zm-5.937.75h.438v1a2.909,2.909,0,0,1-1.187,2.25q0-.312-.125-.312Q45.381-6.5,45.881-6.5Zm9.25.438.563.5A2.324,2.324,0,0,1,55.631-5q0,.062.063,2.625l-.062.938h-.562a.442.442,0,0,1-.5-.5V-4.875A.11.11,0,0,0,54.444-5h-.187a18.227,18.227,0,0,0-2.437.375l.188,1.5v1.5h.125q.188,0,.813-2.937h.188q.563.125.563,1.188,0,3-4.312,4.313h-.437V.5A8.57,8.57,0,0,0,51.006-.875l-.125-4Q50.881-5.625,55.131-6.062ZM53.881-1.25h.25q3.563,1.125,3.563,2V1l-.812.188q-2.812-1.438-3-2Z" transform="translate(349 305)" fill="#1b6b4b"/>
  </g>
</svg>
