<svg xmlns="http://www.w3.org/2000/svg" xmlns:xlink="http://www.w3.org/1999/xlink" width="403.003" height="65.25" viewBox="0 0 403.003 65.25">
  <defs>
    <clipPath id="clip-path">
      <rect id="矩形_1" data-name="矩形 1" width="20" height="20" transform="translate(334 343)" fill="#ea434a" stroke="#707070" stroke-width="1"/>
    </clipPath>
  </defs>
  <g id="tense_7" transform="translate(-146.997 -292.125)">
    <g id="line" transform="translate(0.5)">
      <line id="Line-2" data-name="Line" x2="400" transform="translate(148 330.5)" fill="none" stroke="#707070" stroke-linecap="round" stroke-width="3"/>
      <path id="left" d="M-14.5-2759l7,6Zm7-6c-2.25,2.25-7,6-7,6Z" transform="translate(162.497 3089.5)" fill="none" stroke="#707070" stroke-linecap="round" stroke-linejoin="round" stroke-width="3"/>
      <path id="right" d="M0,6,7,0Zm7,6C4.75,9.75,0,6,0,6Z" transform="translate(548 336.5) rotate(180)" fill="none" stroke="#707070" stroke-linecap="round" stroke-linejoin="round" stroke-width="3"/>
      <circle id="现在" cx="6" cy="6" r="6" transform="translate(342.5 325)" fill="#707070"/>
      <path id="路径_96" data-name="路径 96" d="M10.188-12.875h.438q.563,0,1.188,2.875,1.375,0,1.375.938v.25q-1.563.125-1.562.5V-3.75q-.25,2.375-.75,2.375H10.75q-2-1.188-2-1.875h1.313q.25,0,.25-1.812h-.187a1.509,1.509,0,0,0,.188-.5q0-.625.188-2.625a1.582,1.582,0,0,0-.75-.25,10.352,10.352,0,0,1-1.125.25Q7.75-8.5,7.75-8.812v-.375a14.955,14.955,0,0,0,2.563-.437v-.937Q10.313-11.312,10.188-12.875Zm-6.625,2.5h.563a4.827,4.827,0,0,1,1.25,1.063v.5A2.181,2.181,0,0,1,3.563-9.875ZM2.375-7.25H2.75q1.938,0,1.938,2.188A9.587,9.587,0,0,0,5.5-2.187q0,1.688,7.563,2Q15,0,15,.563V.688q-.063.5-1.312.5h-.375A30.35,30.35,0,0,1,2.75-1.125q-1.438,0-1.562-.687V-2.25l3.25.438V-2.75A5.18,5.18,0,0,1,3.375-4.875a5.209,5.209,0,0,0,.188-1.187Q2.375-6.375,2.375-6.75Zm4.5.25q1.875,0,2.25.938v.188q0,.437-.375.438H8.625q-1.75-.812-1.75-1.187Zm14.962-5.187q.812,0,.563,2.25v1.375q1.125-.312,2.188-.5.437.063.813.875l-.187.375-1.125.063-.812.125q-.875,0-.875.313v1.75q.062.25.125.25a51.735,51.735,0,0,1,5.375-.5,2.188,2.188,0,0,1,.625,1.5q-.187,0-.187.25a4.5,4.5,0,0,0-2-.375l-2.75.25q-1.25,0-2.562,2.125L20.337-.875q.437,0,2.688-.312,1.313-.25,1.313-.375L24.15-2.625h.5A12.507,12.507,0,0,1,26.837.313l-.75,1.125q-.313,0-1.375-1.687h-.125q-3.375.563-3.812.625t-1.75.313q-.688-.313-.687-.562V-.187q2.375-2.688,2.375-3.75v.063l-3.937.563H16.15v-1q5.063-.625,4.938-1.062.188-2,.063-1.937a1.92,1.92,0,0,1-1.937-.312V-8a5.924,5.924,0,0,1,2.125-.5l.063-2.687v-.625Q21.587-12.187,21.837-12.187Z" transform="translate(156.5 355)" fill="#9e6a4d"/>
      <path id="路径_97" data-name="路径 97" d="M-4.45-11.187q.75.375.812.75v5.25l-.125.875a2.561,2.561,0,0,1-1.125-.312l.125-5.5-1,.063q-1.687.188-1.687.438v1.5a27.914,27.914,0,0,1-.312,4.188L-8.7-4v-.25q.188-2.812.188-5.625Q-8.512-10.875-4.45-11.187Zm-6.313,1.813q.813.063.813.5v.313l-.938.125v1.5A3.748,3.748,0,0,1-9.637-7v.375q0,.313-1.188.75a16.861,16.861,0,0,1-.312,2.313h.375a4.07,4.07,0,0,0,1.125-.375l.375.313q0,.687-4.25,2.125a2.056,2.056,0,0,0-.625-.125v-.812q2,0,2.188-2.25v-.625a.166.166,0,0,0-.187-.187h-.437a1.109,1.109,0,0,0-.5.125q-.75-.25-.75-.562,0-.375,1.938-.812l.125-.187v-.937q.125-.625-1-.187L-13.2-9A6.428,6.428,0,0,1-10.762-9.375Zm4.25.688h.188q.75.312.75.563v.25a25.6,25.6,0,0,0-.219,4.25,5.069,5.069,0,0,0,.656,2.438A1.754,1.754,0,0,0-4.45-.75q3.063.313,3.063-.687a9.109,9.109,0,0,1,.125-1.5h.25q.625,0,1,2.688Q-.325.625-2.325.625l-1.5.063A3.257,3.257,0,0,1-6.7-3.187h.063A5.252,5.252,0,0,1-9.762.063l-1.375.063,1.125-.75A7.952,7.952,0,0,0-6.825-5a27.493,27.493,0,0,0,.313-2.75ZM5.762-12.25h.625q.313,0,.813.688a16.02,16.02,0,0,1-.437,2.625h.563q.375,0,2.938-.5.875.312.875.813v.313Q6.575-8,6.45-7.687A19.557,19.557,0,0,0,4.575-3.875q0,.25.125,1.625a25.106,25.106,0,0,1-.125,3.813H4.262Q3.325,1.25,3.2.813a9.007,9.007,0,0,0,.313-2.125V-2.875l-.562.438Q1.45-.875,1.012-.875H.45Q4.2-5.125,4.762-7.312,2.95-7.438,2.887-8.375l.625-.062q1.938-.063,2.25-1.5l.063-.625v-.312Zm2.313,5.5H8.45q.687,0,.75,1.938h1.063l1.125.125v.438q0,.563-2.063.688l-.062.125V-3a12.059,12.059,0,0,0,.063,2h1.688q1.812-.375,2.375.438L13.7.25H10.95L5.575.625Q4.825.375,4.825,0q.062-.5.438-.5H5.7q2.375,0,2.375-.437V-3q0-.063-.25-.312l-.812.25q-.875-.312-.875-.687v-.312q1.938-.187,1.938-.562V-6.75Z" transform="translate(348.5 355)" fill="#9e6a4d"/>
      <path id="路径_98" data-name="路径 98" d="M-21.65-11.875h.625q.062.75.25.75t2.063-.437l.188.438v.438A22.848,22.848,0,0,1-22.337-5.75h.313A6.938,6.938,0,0,0-19.462-6V-7l.063-1.062h.875a11.389,11.389,0,0,1-.125,1.938h2.25a1.026,1.026,0,0,1,1.125.875l-.562.188h-2.5q-.125,0-.062.188l.063,1.563L-18.4-.687q0,.75.125,2.063a1.24,1.24,0,0,0-.125.563h-.562q-1-.688-2.562-1.75V-.125q0-.125.375-.125.125,0,1.5.375h.063l.063-.5A9.158,9.158,0,0,0-19.4-1.719V-4.625q0-.25-.375-.312a28.342,28.342,0,0,0-4.625.625v-.375a15.192,15.192,0,0,0,2.75-3.187q0-.438-1.437-1A5.357,5.357,0,0,0-21.65-11.875Zm-.125,2.563a2.27,2.27,0,0,0,.563.5q1.125-.625,1.125-1.437l-.125-.062A2.044,2.044,0,0,0-21.775-9.312Zm-4.437-1.437h.563A1.7,1.7,0,0,1-24.9-9v1.5l.063,1.563q-.125,3-.187,4.875t-.062,2.25h-.625a.442.442,0,0,1-.5-.5l.188-1.875v-4q-1.625,3.313-2.937,3.313v-.562a33.412,33.412,0,0,0,2.125-3.125v-.062l-1.625-1.312V-7.5a10.79,10.79,0,0,1,1.938.688q.437.688.625-.5V-9.187Zm4.188,7q1.438.5,1.438.938v.438q-.25,0-.25.375a5.437,5.437,0,0,0-2.187-.937V-3.75Zm12.9-8.5.813-.062q.188,1.938.313,2.5l1.438-.125q.75.25.75.5v.563H-8v2.25l.063-.062a4.445,4.445,0,0,0,.813-1.875L-6-8.125v.188A6.711,6.711,0,0,1-7.812-5.875v.625l2-.062q3.188-.125,3.188.938a1.891,1.891,0,0,1-.625.188H-7.187l-.125.063A17.234,17.234,0,0,0-2.125-.687v.5q-.625.125-.687.125-1.75,0-4.562-2.812l-.5-.437Q-7.937.375-7.937,2.063v.313h-.625q-.5-.187-.5-1.187.125-2.313.125-3Q-8.937-2-9-2.625A16.585,16.585,0,0,1-12.875.188h-.687a25.6,25.6,0,0,0,3.625-3.75l.25-.375q-3.562.25-3.812.25l-.125-.875q4.563-.437,4.688-.5l-.125-3.562-.25-.062-1.5.125-.5-.375q0-.5,2.125-.75a2.689,2.689,0,0,0,.063-.5Zm-1.25,4q.625,0,.938,2-.312.75-.625.75A4.135,4.135,0,0,1-10.75-8Z" transform="translate(539.5 355)" fill="#9e6a4d"/>
      <g id="right-2" data-name="right" transform="translate(-11.5 -26)" clip-path="url(#clip-path)">
        <path id="duigou" d="M2.259,12.7s3.616,3.562,4.418,7.724c0,0,1.569.433,3.068-3.053S13.858,7.959,22.259,2.347c0,0-8.4,1.882-14.641,12.968,0,0-.732-3.03-1.6-3.92a1.792,1.792,0,0,0-2.126-.105Z" transform="translate(331.741 341.606)" fill="#ea434a"/>
      </g>
    </g>
    <path id="路径_95" data-name="路径 95" d="M-107.731-10.625h.625q.375.188.375.375v.813a17.678,17.678,0,0,1-2.312,7.813,19.739,19.739,0,0,1-2.25,1.938h-.375V-.125a10.938,10.938,0,0,0,3.313-6.125A33.771,33.771,0,0,0-107.731-10.625Zm-6.75,1.875h.188q.75,0,.688,3.813l-.125,1.875.125.063h.125l1.125-1.187h.438q0,1.063-2.125,4.25-.5,0-1.125-.875a11.847,11.847,0,0,0,.5-4.437V-8.062A1.9,1.9,0,0,0-114.481-8.75Zm2.313,1.125h.188q2.188.688,2.188,1.563,0,.375-.437.375h-.187q-.937,0-1.75-1.562Zm5.438,3.938.563.25a16.75,16.75,0,0,1,3.438,2.375v.625q0,.75-.375.75-.437,0-3.187-2.687-1-.687-1-1.312Zm14.4-9q.688.438.75.75v.188a11.147,11.147,0,0,1-3,2.438h-.375v-.312l2.313-3.062Zm-5.562.875h.313q1.313,1.125,1.313,1.938-.313.5-.687.5a4.045,4.045,0,0,1-1.062-1.875A1.535,1.535,0,0,0-97.894-11.812Zm6.875,2.125q2.188.125,2.188.875v.063a.331.331,0,0,1-.375.375q-2-.25-2.625-.25a42.68,42.68,0,0,0-8.25,1,2.479,2.479,0,0,0-1.062-.312v-.25q0-.187.688-.625a5.79,5.79,0,0,0,2.438-.219A48.2,48.2,0,0,1-91.019-9.687Zm0,1.625h.188q.25,0,.563.563a1.007,1.007,0,0,0-.125.438q0,3,.125,5.188V1.75h-.687A6.589,6.589,0,0,1-93.581-.125V-.5a5.7,5.7,0,0,1,2.125.688,18.1,18.1,0,0,0,0-3.469q-.125-3.469-.125-3.781Q-91.394-8.062-91.019-8.062Zm-5.5.313q.5,0,.875.813-.187,5.125-.25,6.938a9.644,9.644,0,0,1,.063,1.063q-.062.5-.437.5-1.5-.75-1.562-1.812.938.25.938-1.875h-.437q-2,.313-1.625,1.75,0,.688-.437.688h-.187q-.375,0-.375-.437-.125-7.063.688-7.062Zm-2.437,2.563q0,.062.688,0l1.5-.25q0-1.25-.437-1.25Q-99.144-6.687-98.956-5.187Zm4.813-1.187h.375a.973.973,0,0,1,.625,1v3.5h-.375q-.125,0-.812-.75l.188-.812Zm-4.812,2.25-.062.188v.625q.062.25.25.25h.063q1.813-.312,1.813-.5v-.5q0-.25-.125-.312Zm18.15-8.375h.438q.375,0,.5.813l-.562,1.625v.125a.2.2,0,0,0,.188.125h.063a31.971,31.971,0,0,0,3.188-.375q.188,0,1.688.25v.25a.973.973,0,0,1-1,.625h-.875q-3.937.063-4,1.5.188,0,.188.125,1.875-.125,3.625-.375,1,0,1.063,2.781t.063,4.156v1A8.816,8.816,0,0,1-76.744,2h-.375a3.5,3.5,0,0,0-1.562-.875V.375l.938-.062h.063a.166.166,0,0,0,.188-.187V-1.5q0-1-.125-3.062h-.062l-2.75.5-.75-.062v1.25q2.5-.312,2.5-.562,1.063.25,1.063.625v.188q0,.438-2.812.813l-.687-.375h-.062q-.125.063-.125.125v.375Q-81.494,1-81.494,1.125l-.375.188a1.358,1.358,0,0,1-.687-.687V-.562q.125-4.375.125-4.687h.063Q-85.306-2-85.806-2v-.312q3.062-3.813,3.625-6.312l-1.562.125a.983.983,0,0,1-1-.562V-9.5h.938l2.063-.187Q-81.369-9.875-80.806-12.5Zm-.5,6.313v1.063A.2.2,0,0,0-81.119-5h.063a9.233,9.233,0,0,0,2.375-.375l.938.125h.125q-.062-1.187-.062-1.5h.063Q-81.306-6.812-81.306-6.187Zm13.462-5.437q.625,0,.625,1.5V-9q0,.188,1.625.313v.313q0,.438-1.687.688l-.062.188v1.313h1.563q.5-.25,1.438-3.375v-1.375h.375q.375,0,.75.813a4.987,4.987,0,0,0-.312,1.313v.125a11.359,11.359,0,0,0,2.688-.437h.375l-.062.938q-1.062.25-1.062.813a23.4,23.4,0,0,1-1.062,4q0,1,2.375,2.563,1.75.375,1.75.938,0,.375-.437.375h-.187q-1.938,0-4.187-2.812h.063A10.018,10.018,0,0,1-67.156.313v-.5a10.036,10.036,0,0,0,3.063-3v-.125a4.928,4.928,0,0,1-1.125-2h.438q.875.875,1.375.875a5.106,5.106,0,0,0,.5-2.312V-7.5q0-.187-.125-.187-1.312,0-2.875,3.188,0,2.313-2.562,2.313-.437,0-.937.75-.437-.062-.812-.875v-1.25q-.125-1.687-.125-2.375h1.188L-68.594-6V-7.375q0-.187-.312-.187l-.812.188-.187-.437v-.375a1.764,1.764,0,0,0,1.75-.875v-1.375q0-.125-.062-1Zm-2.625,1.063a2.057,2.057,0,0,0,.625.125v.688A7.525,7.525,0,0,0-71.406-7.5a13.977,13.977,0,0,1,.375,2.375A36.317,36.317,0,0,1-71.094.188a1.937,1.937,0,0,1-1.062-.375V-6q0-.75-.062-.75l-.75.5h-.625Zm1.188,5.938q0,1.375.5,1.375,2,0,2-1.75l-.125-.062h-2Q-69.156-5.062-69.281-4.625Zm19.713-8.25h.438q.563,0,1.188,2.875,1.375,0,1.375.938v.25q-1.563.125-1.562.5V-3.75q-.25,2.375-.75,2.375h-.125q-2-1.188-2-1.875h1.313q.25,0,.25-1.812h-.187a1.509,1.509,0,0,0,.188-.5q0-.625.188-2.625a1.582,1.582,0,0,0-.75-.25,10.352,10.352,0,0,1-1.125.25q-.875-.312-.875-.625v-.375a14.955,14.955,0,0,0,2.563-.437v-.937Q-49.444-11.312-49.569-12.875Zm-6.625,2.5h.563a4.827,4.827,0,0,1,1.25,1.063v.5a2.181,2.181,0,0,1-1.812-1.062ZM-57.381-7.25h.375q1.938,0,1.938,2.188a9.587,9.587,0,0,0,.813,2.875q0,1.688,7.563,2,1.938.188,1.938.75V.688q-.063.5-1.312.5h-.375A30.35,30.35,0,0,1-57.006-1.125q-1.437,0-1.562-.687V-2.25l3.25.438V-2.75a5.18,5.18,0,0,1-1.062-2.125,5.209,5.209,0,0,0,.188-1.187q-1.188-.313-1.187-.687Zm4.5.25q1.875,0,2.25.938v.188q0,.437-.375.438h-.125q-1.75-.812-1.75-1.187Zm12.025-3.875.25.063q.375.063.375.375-1.062,3.688-4,11.313l-.875-.187a72.931,72.931,0,0,1,2.5-7.25Q-41.294-10.813-40.856-10.875Zm8.15-.562a3.528,3.528,0,0,1,1.813.875v8q0,.438-.375,3.188l-.562-.187-.812-1.062h-.625q-2.75,0-3.187.5h-.187q-1.25-.063-1.25-2.437a55.213,55.213,0,0,0,.25-6.75h-.312a1.381,1.381,0,0,0,.313-.625h.313q.438,0,.688,1.188,0,.5-.094,3.281t-.094,3.156q.125.813.188.813,3.375-.313,3.5-.312a6,6,0,0,1,1.125.313l.125-.25q.062-3.562.063-4.375a24.006,24.006,0,0,0-.25-4.187,1.474,1.474,0,0,0-.625-.187l-3.375.563-.812-.187v-.437A18.982,18.982,0,0,1-32.706-11.437Zm-.312,3.25.25.563q0,.5-2.875.75L-36.394-7v-.375Q-36.394-8-33.019-8.187Zm0,2.813q.188,0,.5.5v.563q-1.875.25-3.25.375-.75-.125-.75-.5v-.375A31.077,31.077,0,0,1-33.019-5.375Zm15.463-7.312q.688.438.75.75v.188a11.146,11.146,0,0,1-3,2.438h-.375v-.312l2.313-3.062Zm-5.562.875h.313q1.313,1.125,1.313,1.938-.313.5-.687.5a4.045,4.045,0,0,1-1.062-1.875A1.535,1.535,0,0,0-23.119-11.812Zm6.875,2.125q2.187.125,2.187.875v.063a.331.331,0,0,1-.375.375q-2-.25-2.625-.25a42.68,42.68,0,0,0-8.25,1,2.479,2.479,0,0,0-1.062-.312v-.25q0-.187.688-.625a5.79,5.79,0,0,0,2.438-.219A48.2,48.2,0,0,1-16.244-9.687Zm0,1.625h.188q.25,0,.562.563a1.007,1.007,0,0,0-.125.438q0,3,.125,5.188V1.75h-.687A6.589,6.589,0,0,1-18.806-.125V-.5a5.7,5.7,0,0,1,2.125.688,18.1,18.1,0,0,0,0-3.469q-.125-3.469-.125-3.781Q-16.619-8.062-16.244-8.062Zm-5.5.313q.5,0,.875.813-.187,5.125-.25,6.938a9.644,9.644,0,0,1,.063,1.063q-.062.5-.437.5-1.5-.75-1.562-1.812.938.25.938-1.875h-.437q-2,.313-1.625,1.75,0,.688-.437.688h-.187q-.375,0-.375-.437-.125-7.063.688-7.062Zm-2.437,2.563q0,.062.688,0l1.5-.25q0-1.25-.437-1.25Q-24.369-6.687-24.181-5.187Zm4.813-1.187h.375a.973.973,0,0,1,.625,1v3.5h-.375q-.125,0-.812-.75l.188-.812Zm-4.812,2.25-.062.188v.625q.062.25.25.25h.063q1.813-.312,1.813-.5v-.5q0-.25-.125-.312Zm19.587-6.687q.375.063.875.875-1.063,4.875-1.75,4.875-4,.188-4,.688V-2.5q0,1.75,3.938,1.688t3.813-.5l.125-1.125q0-.5-.062-1.75h.438q.563,0,.688,1.938v1.063Q-.531.438-2.906.438H-3.969Q-10.656.75-10.594-2.25a7.042,7.042,0,0,1-.125-1.25q.563-4,.938-4h.5v1.563q.063.188.125.188,3.75-.625,3.75-1.75A11.94,11.94,0,0,0-5.281-9v-.625a24.162,24.162,0,0,0-4,.625q-.875-.312-.875-.75v-.312h.75Q-8.781-10.062-4.594-10.812Zm11.4-1h.188q1.25.563,1.25,1.25.687,0,3.125-.062,1.688.125,1.688.625v.438a7.273,7.273,0,0,1-2.5,1.438V-8.5l.813-1.062v-.062q0-.125-.187-.125-6.563.375-6.563.813.125,1.25.125,2H4.181q-.25,0-.688-.562l.188-.625v-.437a2.7,2.7,0,0,0-.625-1.375l.5-.187h.125l.563.25q3-.562,3.063-.562a15.129,15.129,0,0,1-1-1.25ZM9.119-8.25l.25.375q0,.688-3.25,1l-.187-.5Q5.931-8,9.119-8.25Zm2.125,2.063q1.062,0,1.375.438v.313a.331.331,0,0,1-.375.375H9.181a12.694,12.694,0,0,0-.062,2.5l-.062.438q-.063,1.75,3,1.625h1.5V-2.625a.455.455,0,0,1,.5-.437h.313q0,.375.625,3.438A1.828,1.828,0,0,1,13.869.75q-6.188.75-5.813-3v-.562a18.172,18.172,0,0,1-.125-2.125H7.306a8.61,8.61,0,0,0-1.25,2.625Q3.494.313,2.556.313V0Q5.244-2.688,5.619-4.125v-.562q-2.5.437-2.938.438l-.187-.375Q2.494-5.313,11.244-6.187Zm10.4-5.625q1.063,0,1.938,2.75L23.894-9a8.121,8.121,0,0,1,1.813-.25l.5.688v.313a21.61,21.61,0,0,1-2.125.438l.125.125q1,3.375,1.313,3.375.188,0,.625-2.187h.375a1.262,1.262,0,0,1,.625.938l-.937,2.5Q27.269-1.125,27.769-1q.188-1.813.75-1.812h.25L28.894-2a14.91,14.91,0,0,0,.125,1.5q.062,1.188.063,1.938h-.625a29.42,29.42,0,0,1-3-3.437Q23.206.313,22.019.313a13.287,13.287,0,0,0,2.813-3.375,33.779,33.779,0,0,0-2-4.562q-3.187,0-3.187.438a4.647,4.647,0,0,0-.125,1.125q0,.062.25,0a11.016,11.016,0,0,1,2.5-.25,2.136,2.136,0,0,1,.5,1,13.392,13.392,0,0,1-.437,3.938h-.812Q20.581-2,20.581-2.25v-.437q.875,0,.875-.625a12.722,12.722,0,0,0,.313-1.625l-.437-.25-1.812.063a11.269,11.269,0,0,1-.812,2.813A7.826,7.826,0,0,1,17.144-.125h-.5v-.25a15.192,15.192,0,0,0,2.063-6.562l-.25-.687q0-.75,4.125-1l.063-.25a18.478,18.478,0,0,0-1.062-2.562Zm2.625.375h.875q1,.5,1,1.063v.125q0,.375-.5.375A8.117,8.117,0,0,1,24.269-11ZM41.606-12v.688a8.248,8.248,0,0,0-1.937,4.938v1.188A10.114,10.114,0,0,0,41.794-.562v.5h-.312q-1.75,0-2.937-4.875a6.584,6.584,0,0,1,0-1.812Q39.731-12,41.606-12Zm12.775.125-.062,1.188v.563q0,.188,1.563.5l-.062.688a12.093,12.093,0,0,0-1.5.375v1h.125a9.007,9.007,0,0,0,2.625-.25q1,.375,1,.625v.438q-.312,0-.312.188l-.437-.187-1.437.188a1.007,1.007,0,0,0-.437.125v.188q0,.125.563.438h.625q.063,0,.063-.25a3.792,3.792,0,0,1,1,.75v.25q-1.938.313-1.937.625v.375a7.034,7.034,0,0,1,.063,2.625Q55.694,2,55.131,2A11.208,11.208,0,0,1,52.444.375V-.187A15,15,0,0,0,54.506.25l.25-.437V-2.625q0-1.938-.312-1.937h-.125l-2.875.375-.187-.5q0-.375,3.375-1v-.375l-.25-.375-3.437.563-.25-.375a4.264,4.264,0,0,1,2.438-1.062v-1q0-.125-1.25-.312v-.312q0-.438,1.313-.687v-.937l.125-1.875Zm-5.812.438h.688l.188.875-.062,1.25q0,.5,1.125,1.063v.438q-1.125.313-1.125.5l-.062.875L50.944-6Q49.131-6,49.256-.187q-.312.813-.625.813h-.187Q46.319-.813,46.319-1.562a.166.166,0,0,0,.188-.187,3.5,3.5,0,0,1,1.313.5,1.1,1.1,0,0,0,.313.125q.063-1.813.063-2.875v-.312q.063,0-1.937,1.25-.813-.187-.812-.625,3-1.563,3-2.875V-7q0-.187-.25-.187h-.125l-1.562.125v-.75q1.938-.25,1.938-.625l.063-2.125ZM51.631-3.5q2.562.625,2.563,1.063V-2l-.25.313q-2.5-.75-2.75-1.25A2.708,2.708,0,0,1,51.631-3.5Zm14.587-9.375h.375q.437,0,.75,2.188l.813.313v.438l-1.187,1v.563l.313.125a5.983,5.983,0,0,1,1.75-.312h.938a1.02,1.02,0,0,1,1.063.75v.25A5.2,5.2,0,0,1,69.406-6q-.5,0-.5-.625L69.219-7v-.312q0-.125-.375-.125l-4.75,1a2.629,2.629,0,0,0-.625-.062v-.562q2.438-.437,2.438-1.062v-1q-.375,0-1.062-.062V-9.75q1.375,0,1.375-1.562ZM62.031-10q.625,0,.625.75a6.726,6.726,0,0,1-1.375,2.688v.313h.063a1.939,1.939,0,0,0,1.188-.5q.312.375.5.375v.438l-1.25,2.125V-3.5q.875,0,.875.375V-3q0,.438-2.312,1.313-.687-.313-.687-.687v-.312a2.736,2.736,0,0,0,1.375-2.125v-.25h.063a8.33,8.33,0,0,0-1.75.688l-.187-.437v-.375A11.083,11.083,0,0,0,61.781-10Zm4.875,3.75.5.5-.062,1.188v1.188q0,.125.25.125a10.529,10.529,0,0,1,1.875-.25h.625l.125.75-2.062.625q2.063,3.563,4.625,3.563l.438.688v.313a1.109,1.109,0,0,0-.5.125q-2.563,0-5.562-4.125h-.25Q64.469,2,62.719,2l-.187-.437v-.25Q65.281,0,65.281-1.312l-.187-.125A6.686,6.686,0,0,0,60.531.813q-.562.125-.562.375A1.556,1.556,0,0,0,59.281,1V.625q.063-.562,2-1.437a4.86,4.86,0,0,1,4-1.687q.938,0,1.313-3.75ZM64.781-6a2.53,2.53,0,0,1,1,1.188v.375a1.685,1.685,0,0,1-1.5-1.062Q64.344-6,64.781-6Zm-.812,1.438h.25q1.313.625,1.313.938,0,.5-.375.5h-.437q-.313,0-.75-.687Zm19.963-7.375h.438l.438.75-.75,2.875.188.063q1.25-.063,1.625-.062A1.487,1.487,0,0,1,87.244-7a46.586,46.586,0,0,1-2.187,8.125l-.375.188A5.665,5.665,0,0,1,82.306-.75q.188,0,.188-.25a6.385,6.385,0,0,0,1.813.688,28.013,28.013,0,0,0,1.563-6.125V-7l-2.125.063a21.473,21.473,0,0,1-1.375,3.625,11.024,11.024,0,0,1-3,4h-.375V.375l.625-1Q78.994-2,78.806-2A21.378,21.378,0,0,0,74.494-.937v-.5a24.087,24.087,0,0,1,1.75-4.125v.125h-.5l-1.812.063-.187-.375v-.562h.25L78.181-7l1.5-.187q.25,0,.875.688,0,.437-1,.563-1.75.062-2.125.813a8.431,8.431,0,0,0-1.375,2.5l.625-.125Q78.494-2.937,78.556-4h.5a9.564,9.564,0,0,1,1.313,1.813l.125.375a39.8,39.8,0,0,0,2.125-5,4.031,4.031,0,0,0-1.625-.312l.375-.687q0-.312,1.563-.437Q83.494-10.062,83.931-11.937ZM76.369-9.25h.75q1.187,0,1.188.563v.625L77.681-8a1.745,1.745,0,0,1-1.812-1.187Zm19.712-2.187-.125.75-.187.125h.188a25.6,25.6,0,0,0,3.063-.687q.75.312.75.563v.375q-1.625.25-3.125.625l.063,1.438v1l.313-.062a9,9,0,0,1,2.813-.375,1.417,1.417,0,0,1,.375.938q-3.375.25-3.375.688v2a2.055,2.055,0,0,0,.5-.062l2.563-.562q.812.313.875.688-.062.438-3.875,1a5.423,5.423,0,0,0-.062.75V.688q0,.938-.625,1a1.593,1.593,0,0,1-.5-.875l.125-1.187a4.147,4.147,0,0,1,0-1.437q-.125-2.688-.125-4.812V-8.937q0-.625-.25-.75a17.263,17.263,0,0,1-2.312,2.75h-.312V-7.25q2.188-3.375,2.188-4.937Zm-3.937.375h.25a.4.4,0,0,1,.375.438v.438L91.644-8.5a15.3,15.3,0,0,1,.25,2.375v2.188q-.25,3-.25,3.375v.438a.442.442,0,0,1-.5.5q-.688-.438-.687-.937a38.48,38.48,0,0,0,.438-4.5V-7a1.74,1.74,0,0,1-.125-.375l-1,.5a1.8,1.8,0,0,1-1.312.563Zm12.837-1.25h.75a7.118,7.118,0,0,1,2.063,4.75A10.751,10.751,0,0,1,104.606,0h-.25q-.25,0-.625-.5V-.875a10.485,10.485,0,0,0,2.938-7.062A13.167,13.167,0,0,0,104.981-12.312Z" transform="translate(349 305)" fill="#1b6b4b"/>
  </g>
</svg>
