<svg xmlns="http://www.w3.org/2000/svg" width="403" height="65.25" viewBox="0 0 403 65.25">
  <g id="tense_5" transform="translate(-147 -292.125)">
    <g id="line" transform="translate(0.5)">
      <line id="Line-2" data-name="Line" x2="400" transform="translate(148 330.5)" fill="none" stroke="#707070" stroke-linecap="round" stroke-width="3"/>
      <path id="left" d="M-14.5-2759l7,6Zm7-6c-2.25,2.25-7,6-7,6Z" transform="translate(162.5 3089.5)" fill="none" stroke="#707070" stroke-linecap="round" stroke-linejoin="round" stroke-width="3"/>
      <path id="right" d="M0,6,7,0Zm7,6C4.75,9.75,0,6,0,6Z" transform="translate(548 336.5) rotate(180)" fill="none" stroke="#707070" stroke-linecap="round" stroke-linejoin="round" stroke-width="3"/>
      <circle id="现在" cx="6" cy="6" r="6" transform="translate(342.5 325)" fill="#707070"/>
      <path id="路径_88" data-name="路径 88" d="M10.188-12.875h.438q.563,0,1.188,2.875,1.375,0,1.375.938v.25q-1.563.125-1.562.5V-3.75q-.25,2.375-.75,2.375H10.75q-2-1.188-2-1.875h1.313q.25,0,.25-1.812h-.187a1.509,1.509,0,0,0,.188-.5q0-.625.188-2.625a1.582,1.582,0,0,0-.75-.25,10.352,10.352,0,0,1-1.125.25Q7.75-8.5,7.75-8.812v-.375a14.955,14.955,0,0,0,2.563-.437v-.937Q10.313-11.312,10.188-12.875Zm-6.625,2.5h.563a4.827,4.827,0,0,1,1.25,1.063v.5A2.181,2.181,0,0,1,3.563-9.875ZM2.375-7.25H2.75q1.938,0,1.938,2.188A9.587,9.587,0,0,0,5.5-2.187q0,1.688,7.563,2Q15,0,15,.563V.688q-.063.5-1.312.5h-.375A30.35,30.35,0,0,1,2.75-1.125q-1.438,0-1.562-.687V-2.25l3.25.438V-2.75A5.18,5.18,0,0,1,3.375-4.875a5.209,5.209,0,0,0,.188-1.187Q2.375-6.375,2.375-6.75Zm4.5.25q1.875,0,2.25.938v.188q0,.437-.375.438H8.625q-1.75-.812-1.75-1.187Zm14.962-5.187q.812,0,.563,2.25v1.375q1.125-.312,2.188-.5.437.063.813.875l-.187.375-1.125.063-.812.125q-.875,0-.875.313v1.75q.062.25.125.25a51.735,51.735,0,0,1,5.375-.5,2.188,2.188,0,0,1,.625,1.5q-.187,0-.187.25a4.5,4.5,0,0,0-2-.375l-2.75.25q-1.25,0-2.562,2.125L20.337-.875q.437,0,2.688-.312,1.313-.25,1.313-.375L24.15-2.625h.5A12.507,12.507,0,0,1,26.837.313l-.75,1.125q-.313,0-1.375-1.687h-.125q-3.375.563-3.812.625t-1.75.313q-.688-.313-.687-.562V-.187q2.375-2.688,2.375-3.75v.063l-3.937.563H16.15v-1q5.063-.625,4.938-1.062.188-2,.063-1.937a1.92,1.92,0,0,1-1.937-.312V-8a5.924,5.924,0,0,1,2.125-.5l.063-2.687v-.625Q21.587-12.187,21.837-12.187Z" transform="translate(156.5 355)" fill="#9e6a4d"/>
      <path id="路径_89" data-name="路径 89" d="M-4.45-11.187q.75.375.812.75v5.25l-.125.875a2.561,2.561,0,0,1-1.125-.312l.125-5.5-1,.063q-1.687.188-1.687.438v1.5a27.914,27.914,0,0,1-.312,4.188L-8.7-4v-.25q.188-2.812.188-5.625Q-8.512-10.875-4.45-11.187Zm-6.313,1.813q.813.063.813.5v.313l-.938.125v1.5A3.748,3.748,0,0,1-9.637-7v.375q0,.313-1.188.75a16.861,16.861,0,0,1-.312,2.313h.375a4.07,4.07,0,0,0,1.125-.375l.375.313q0,.687-4.25,2.125a2.056,2.056,0,0,0-.625-.125v-.812q2,0,2.188-2.25v-.625a.166.166,0,0,0-.187-.187h-.437a1.109,1.109,0,0,0-.5.125q-.75-.25-.75-.562,0-.375,1.938-.812l.125-.187v-.937q.125-.625-1-.187L-13.2-9A6.428,6.428,0,0,1-10.762-9.375Zm4.25.688h.188q.75.312.75.563v.25a25.6,25.6,0,0,0-.219,4.25,5.069,5.069,0,0,0,.656,2.438A1.754,1.754,0,0,0-4.45-.75q3.063.313,3.063-.687a9.109,9.109,0,0,1,.125-1.5h.25q.625,0,1,2.688Q-.325.625-2.325.625l-1.5.063A3.257,3.257,0,0,1-6.7-3.187h.063A5.252,5.252,0,0,1-9.762.063l-1.375.063,1.125-.75A7.952,7.952,0,0,0-6.825-5a27.493,27.493,0,0,0,.313-2.75ZM5.762-12.25h.625q.313,0,.813.688a16.02,16.02,0,0,1-.437,2.625h.563q.375,0,2.938-.5.875.312.875.813v.313Q6.575-8,6.45-7.687A19.557,19.557,0,0,0,4.575-3.875q0,.25.125,1.625a25.106,25.106,0,0,1-.125,3.813H4.262Q3.325,1.25,3.2.813a9.007,9.007,0,0,0,.313-2.125V-2.875l-.562.438Q1.45-.875,1.012-.875H.45Q4.2-5.125,4.762-7.312,2.95-7.438,2.887-8.375l.625-.062q1.938-.063,2.25-1.5l.063-.625v-.312Zm2.313,5.5H8.45q.687,0,.75,1.938h1.063l1.125.125v.438q0,.563-2.063.688l-.062.125V-3a12.059,12.059,0,0,0,.063,2h1.688q1.812-.375,2.375.438L13.7.25H10.95L5.575.625Q4.825.375,4.825,0q.062-.5.438-.5H5.7q2.375,0,2.375-.437V-3q0-.063-.25-.312l-.812.25q-.875-.312-.875-.687v-.312q1.938-.187,1.938-.562V-6.75Z" transform="translate(348.5 355)" fill="#9e6a4d"/>
      <path id="路径_90" data-name="路径 90" d="M-21.65-11.875h.625q.062.75.25.75t2.063-.437l.188.438v.438A22.848,22.848,0,0,1-22.337-5.75h.313A6.938,6.938,0,0,0-19.462-6V-7l.063-1.062h.875a11.389,11.389,0,0,1-.125,1.938h2.25a1.026,1.026,0,0,1,1.125.875l-.562.188h-2.5q-.125,0-.062.188l.063,1.563L-18.4-.687q0,.75.125,2.063a1.24,1.24,0,0,0-.125.563h-.562q-1-.688-2.562-1.75V-.125q0-.125.375-.125.125,0,1.5.375h.063l.063-.5A9.158,9.158,0,0,0-19.4-1.719V-4.625q0-.25-.375-.312a28.342,28.342,0,0,0-4.625.625v-.375a15.192,15.192,0,0,0,2.75-3.187q0-.438-1.437-1A5.357,5.357,0,0,0-21.65-11.875Zm-.125,2.563a2.27,2.27,0,0,0,.563.5q1.125-.625,1.125-1.437l-.125-.062A2.044,2.044,0,0,0-21.775-9.312Zm-4.437-1.437h.563A1.7,1.7,0,0,1-24.9-9v1.5l.063,1.563q-.125,3-.187,4.875t-.062,2.25h-.625a.442.442,0,0,1-.5-.5l.188-1.875v-4q-1.625,3.313-2.937,3.313v-.562a33.412,33.412,0,0,0,2.125-3.125v-.062l-1.625-1.312V-7.5a10.79,10.79,0,0,1,1.938.688q.437.688.625-.5V-9.187Zm4.188,7q1.438.5,1.438.938v.438q-.25,0-.25.375a5.437,5.437,0,0,0-2.187-.937V-3.75Zm12.9-8.5.813-.062q.188,1.938.313,2.5l1.438-.125q.75.25.75.5v.563H-8v2.25l.063-.062a4.445,4.445,0,0,0,.813-1.875L-6-8.125v.188A6.711,6.711,0,0,1-7.812-5.875v.625l2-.062q3.188-.125,3.188.938a1.891,1.891,0,0,1-.625.188H-7.187l-.125.063A17.234,17.234,0,0,0-2.125-.687v.5q-.625.125-.687.125-1.75,0-4.562-2.812l-.5-.437Q-7.937.375-7.937,2.063v.313h-.625q-.5-.187-.5-1.187.125-2.313.125-3Q-8.937-2-9-2.625A16.585,16.585,0,0,1-12.875.188h-.687a25.6,25.6,0,0,0,3.625-3.75l.25-.375q-3.562.25-3.812.25l-.125-.875q4.563-.437,4.688-.5l-.125-3.562-.25-.062-1.5.125-.5-.375q0-.5,2.125-.75a2.689,2.689,0,0,0,.063-.5Zm-1.25,4q.625,0,.938,2-.312.75-.625.75A4.135,4.135,0,0,1-10.75-8Z" transform="translate(539.5 355)" fill="#9e6a4d"/>
      <g id="标记点" transform="translate(-0.5)">
        <path id="X" d="M63.015-2845l-5-5,5,5,5-5-5,5,5,5-5-5-5,5Z" transform="translate(185.985 3175.501)" fill="none" stroke="#127ea9" stroke-linecap="round" stroke-linejoin="round" stroke-width="3"/>
        <path id="多边形" d="M5.122,1.609a1,1,0,0,1,1.756,0l4.315,7.912A1,1,0,0,1,10.315,11H1.685A1,1,0,0,1,.807,9.521Z" transform="translate(243 344)" fill="#127ea9"/>
      </g>
      <path id="曲线" d="M-570.034,700.152a12.808,12.808,0,0,0,0,6.23c.541,2.076,1.458,3.952,2.947,3.858.625-.017,2.544-.117,2.832-3.045.424-5.054.155-9.276,2.832-9.239s2.715,5.651,2.983,9.239,4,4.494,5.7,2.09,1.9-5.794,3.84-9.134,3.945-4.291,5.414-2.921,1.18,3.46,1.5,8.252,4.62,5.257,5.482,1.712,1.537-7.9,2.081-9.239" transform="translate(800.918 -373.126)" fill="none" stroke="#ea434a" stroke-linecap="round" stroke-width="2"/>
    </g>
    <path id="路径_87" data-name="路径 87" d="M10.188-12.875h.438q.563,0,1.188,2.875,1.375,0,1.375.938v.25q-1.563.125-1.562.5V-3.75q-.25,2.375-.75,2.375H10.75q-2-1.188-2-1.875h1.313q.25,0,.25-1.812h-.187a1.509,1.509,0,0,0,.188-.5q0-.625.188-2.625a1.582,1.582,0,0,0-.75-.25,10.352,10.352,0,0,1-1.125.25Q7.75-8.5,7.75-8.812v-.375a14.955,14.955,0,0,0,2.563-.437v-.937Q10.313-11.312,10.188-12.875Zm-6.625,2.5h.563a4.827,4.827,0,0,1,1.25,1.063v.5A2.181,2.181,0,0,1,3.563-9.875ZM2.375-7.25H2.75q1.938,0,1.938,2.188A9.587,9.587,0,0,0,5.5-2.187q0,1.688,7.563,2Q15,0,15,.563V.688q-.063.5-1.312.5h-.375A30.35,30.35,0,0,1,2.75-1.125q-1.438,0-1.562-.687V-2.25l3.25.438V-2.75A5.18,5.18,0,0,1,3.375-4.875a5.209,5.209,0,0,0,.188-1.187Q2.375-6.375,2.375-6.75Zm4.5.25q1.875,0,2.25.938v.188q0,.437-.375.438H8.625q-1.75-.812-1.75-1.187Zm14.962-5.187q.812,0,.563,2.25v1.375q1.125-.312,2.188-.5.437.063.813.875l-.187.375-1.125.063-.812.125q-.875,0-.875.313v1.75q.062.25.125.25a51.735,51.735,0,0,1,5.375-.5,2.188,2.188,0,0,1,.625,1.5q-.187,0-.187.25a4.5,4.5,0,0,0-2-.375l-2.75.25q-1.25,0-2.562,2.125L20.337-.875q.437,0,2.688-.312,1.313-.25,1.313-.375L24.15-2.625h.5A12.507,12.507,0,0,1,26.837.313l-.75,1.125q-.313,0-1.375-1.687h-.125q-3.375.563-3.812.625t-1.75.313q-.688-.313-.687-.562V-.187q2.375-2.688,2.375-3.75v.063l-3.937.563H16.15v-1q5.063-.625,4.938-1.062.188-2,.063-1.937a1.92,1.92,0,0,1-1.937-.312V-8a5.924,5.924,0,0,1,2.125-.5l.063-2.687v-.625Q21.587-12.187,21.837-12.187Zm15.462,0,.875.25q.063,1.5.188,1.5,1.563-.063,1.563.375l-.062.563h-1.5q-.375,0-.375,4.313L37.05-5l-.375-.062v.75h.063l3.5-.5.313.5v.5L37.3-3.5v.125A11.44,11.44,0,0,0,42.8-.25V.438q-2.562,0-6.125-2.937l.063.438-.312,1.75Q36.675,2,36.112,2q-.375,0-.625-.687v-4h.125q-3.687,3.438-4.5,3V0q3.312-2.5,3.312-3h-.187q-.438,0-2.5.25l-.125-.125-.125-.75q3.75-.312,4-.625.125-.5-.062-.5l-.875.125L33.862-5q.063-1.063.063-2.375v-1.5H32.862q-.813,0-.687-.812Q33.8-10,33.8-10.125V-10.5l-.062-1.125.688.063.563,1.438h.125q2.187-.063,2.188-.437Zm-2.187,3h-.187v.75q.063.25.188.25,1.437-.125,1.75-.125A.972.972,0,0,0,37.175-9v-.312a.166.166,0,0,0-.187-.187A10.377,10.377,0,0,1,35.112-9.187ZM34.925-7.25l-.125.875v.438q.063.188.125.188h.188a2.079,2.079,0,0,0,1.125-.312l.313.125a.628.628,0,0,0,.5-.687V-7.25q0-.187-.25-.187Zm15.588-4.312q.687,1.5,4.063,3.125,2.937,1.125,3.063,1.563a.276.276,0,0,1-.312.313q-2.562.125-6.812-3.625h-.187q-.937,2.25-4.437,4.563h-.375a.276.276,0,0,1-.312-.312,14.782,14.782,0,0,0,4.125-4.437Q49.325-10.75,50.513-11.562ZM50.2-8.625a3.275,3.275,0,0,1,.938,2.688v.5q0,1.25.063,3.375l.063.438q-.375,3.063-.687,3.063h-.312a7.3,7.3,0,0,0-.312-1.5,1.709,1.709,0,0,1,.063-.375q.125-4.25.125-6.75v-.375l-.312-.375V-8.25A.331.331,0,0,1,50.2-8.625ZM68.162-12.25l.625.25q.563.625.563,3.375,2.5-.25,2.125,1.063l-1.687.125a2.055,2.055,0,0,0-.5.063q.062,1.375,0,4.313.062,2.25.063,2.75-.062,2.25-.75,2.25a16,16,0,0,1-2.5-2.25V-.75h.375L67.6-.312h.188q.125,0,.313-.312l.063-2.562.063-4.125h-.25q-.75,0-2.812.188l-1-.375.125-.562a12.294,12.294,0,0,1,3.875-.5A25.353,25.353,0,0,1,68.162-12.25Zm-5.25,3.313q1.062.188,1,1.625-.063,2.188-.062,3.25v1Q63.725-1.5,63.1-1.5a1.7,1.7,0,0,1-.937-1,.729.729,0,0,0,.5-.75V-4.812a.11.11,0,0,0-.125-.125H62.35q-1.938,0-1.937.188v1.5H60.6l1.375-.125a1.029,1.029,0,0,1,.375.688v.375a7.562,7.562,0,0,0-2,.438h-.375L59.162-2.5l.125-3.875V-8Q59.6-8.813,62.912-8.937ZM60.475-7.375v1.25Q60.538-6,60.6-6q1.938-.25,2-.25.125-1.625-.062-1.625h-.875Q60.6-7.625,60.475-7.375Zm4.375,1.75h.313q1.875.25,1.875,1.063v.188a2.365,2.365,0,0,1-.25.875A5.431,5.431,0,0,1,64.85-5.25ZM83.438-11.5q1.063.063,1.063,3.875.25,6.375-.625,8.75H83Q80.563-.063,80.438-.437l.5-.062,1.75.188h.25q.313,0,.438-1.75a59.2,59.2,0,0,0-.125-8.375A1.023,1.023,0,0,0,83-10.5q-2.563.125-4,.125v-.25Q79-11.25,83.438-11.5Zm-8.75.125H75q1.875.25,1.875.75,0,.25-.687.5a1.734,1.734,0,0,1-1.5-.687Zm.125,1.813q.25,0,.563.625A74.787,74.787,0,0,0,75.313,0h-.5q-.562,0-.625-.625-.062-1.5-.062-1.812V-5.812Q74.125-9.562,74.813-9.562Zm5.813.75q.812.188.813,1.813v3q0,1.375-3.625,1.375-.75,0-.75-1.375V-5.812a17.524,17.524,0,0,0-.125-1.875,2.056,2.056,0,0,0,.125-.625h.25q.375,0,.813,1.688l.25.188q2.125-.25,2.125-.437v-.812q0-.187-.375-.375H79.75L78-7.937l-.125-.375A7.687,7.687,0,0,1,80.625-8.812ZM77.938-5.25V-4q0,.125.375.25L80-3.812q.188,0,.5-.437V-5.687q0-.187-.125-.187H80Q78.313-5.875,77.938-5.25ZM92.9-11.562h.563q.625,1.062.875,1.063a13.469,13.469,0,0,1,1.5-.187l.063.375v.25q-.062.625-1,.625h-.812v1.563q0,.125.25.125A11.824,11.824,0,0,0,96.088-8q1.625.313,1.625,1v.125a7.693,7.693,0,0,0-1.25,3.438q-4.312.625-4.937.625l-.437-.437q.188-1.375.188-1.5a8.6,8.6,0,0,0-.812-2.687h.313a3.883,3.883,0,0,0,1.313.313q.875,0,.875-2.062Q92.9-11.375,92.9-11.562Zm-.687,5.688q.125,1.688.438,1.688h1.125A1.906,1.906,0,0,0,95.9-6.375v-.437h-.125Q92.213-6.25,92.213-5.875ZM94.9-2.312h.5a3.1,3.1,0,0,1,1.125,1.5V.063h-.5A3.122,3.122,0,0,1,94.9-2Zm3.375,0q2.063,1.75,2.063,3.063V.875l-.437.438a11.738,11.738,0,0,1-2.187-3.25V-2Q97.713-2.375,98.275-2.312Zm-9.312.188h.625q.313,0,.5.813Q89.15.938,87.9.938V.688A4.749,4.749,0,0,0,88.963-2.125Zm2.75.063h.5L93.588-.5a1.242,1.242,0,0,1,0,1.313L92.963.75A4.525,4.525,0,0,1,91.713-2.062Zm19.213-8.75.25.438-.062.75-2.437.313v.188a7.426,7.426,0,0,1,.25,2.938v.25h.25A16.662,16.662,0,0,0,110.863-6a.771.771,0,0,0,.438.188V-5.5q0,.75-2.375,1.063v2.563q.062.313.75.313h3q2.188.313,2.125,1.188a.744.744,0,0,1-.375.5q-3.688-.562-11.75.313a2.056,2.056,0,0,0-.625-.125v-1q1.875-.313,3.063-.437-.187-2.062-.187-4L105.05-5q0-.313.375-.312.313,0,.875,4.188l1.313-.25q.125,0,.25-.312-.062-4.625-.062-6.187Q107.675-9,107.425-9a12.389,12.389,0,0,1-2.687.5v-1A42.519,42.519,0,0,1,110.925-10.812Zm10.337-1.437h.625q.313,0,.813.688a16.021,16.021,0,0,1-.437,2.625h.563q.375,0,2.938-.5.875.312.875.813v.313q-4.562.312-4.687.625a19.557,19.557,0,0,0-1.875,3.813q0,.25.125,1.625a25.106,25.106,0,0,1-.125,3.813h-.312q-.937-.313-1.062-.75a9.006,9.006,0,0,0,.313-2.125V-2.875l-.562.438q-1.5,1.563-1.937,1.563h-.562q3.75-4.25,4.313-6.437-1.813-.125-1.875-1.062l.625-.062q1.937-.063,2.25-1.5l.063-.625v-.312Zm2.313,5.5h.375q.688,0,.75,1.938h1.063l1.125.125v.438q0,.563-2.062.688l-.062.125V-3a12.06,12.06,0,0,0,.063,2h1.688q1.813-.375,2.375.438L129.2.25h-2.75l-5.375.375q-.75-.25-.75-.625.062-.5.438-.5h.438q2.375,0,2.375-.437V-3q0-.063-.25-.312l-.812.25q-.875-.312-.875-.687v-.312q1.937-.187,1.938-.562V-6.75Zm15.463-6.125h.375q.312,3.125,1.063,3.125v.438a1.386,1.386,0,0,0-.562,1v.5q.063.188.125.188h1.75q1,.062,1,.5v.25L142.6-6.5a10.148,10.148,0,0,0-1.25-.125q-1.437.125-1.437.438v3.125q0,1.813-.625,1.813-.25,0-.5-.687l.125-.625q-.125-3.625-.625-3.625h-.25a11.537,11.537,0,0,0-1.062,2.875q-.687.75-.812.75h-.312v-.625a5.553,5.553,0,0,0,.875-2.375.166.166,0,0,0-.187-.187h-.125l-.875.063q-.813-.062-.812-.5v-.125q0-.375,2.188-.687v-.125q-.125-1.687-.5-1.687a4.94,4.94,0,0,0,.5-1.75,6.293,6.293,0,0,1-.187-1.375h.375q.563,0,.875,2.188l.25.063q.5-.25.563-.437v-.687l-.187-1.875ZM132.913-10h.625q.25,0,.938,1v.563H134.1q-.312,0-1.187-1.062Zm4.938,2.063v.563q.063.125.125.125h.5q.312-.062.313-1v-.312q0-.125-.312-.25A.823.823,0,0,0,137.85-7.937ZM131.6-6.75q1.875,0,1.875,2.75.5,2.625,1.438,2.625A29.423,29.423,0,0,0,143.1.125q0,.313,1,.313v.625l-1.125.125h-2q-2.375,0-8-2l-1.937-.437-.25.125a2.056,2.056,0,0,0-.625-.125v-.625l1.188-.375a2.3,2.3,0,0,0,1.125.313h.625v-.187a11.449,11.449,0,0,1-.875-2.562v-1a.962.962,0,0,1-.875-.625v-.312Q131.6-6.625,131.6-6.75ZM148-11.187h.375q.25,0,.688.625v.375q-.937.687-3.062,2l.188-.875Q146.438-9.375,148-11.187Zm6.75.563.25.375q0,.813-2.125.813-.813-.312-.812-.562v-.312A14.764,14.764,0,0,1,154.75-10.625Zm-5.812,1.688q.438.312.438.563l.188.75a14.705,14.705,0,0,0-1.75,1.438q.063,1.187.063,1.688,0,1.375-.062,3.875l.063,1.25h-.437Q147,.5,146.625-.312A32.593,32.593,0,0,0,146.75-5q0-.75-.187-.562l-1.062.5h-.687V-5.5A31.668,31.668,0,0,0,148.938-8.937Zm8.188.563Q158-8,158-7.5a27.4,27.4,0,0,1-5.625.938q0,.188-1.312.25a1.937,1.937,0,0,0-.812-.125v-.437Q150.25-7.375,157.125-8.375Zm-2.937,1.813h.188q.687,0,.813,4.188a14.045,14.045,0,0,1-.375,3.688h-.5A6.522,6.522,0,0,1,151.75-.75h.5a11.411,11.411,0,0,1,1.563.313,15.249,15.249,0,0,0,.125-1.687,17.485,17.485,0,0,0-.187-4.125Zm13.4-4.937h.125q.25,0,.5.5v.438a10.056,10.056,0,0,1-.625,2.313q2.5-.125,2.938-.125,1,.25,1,.688v.063q-.5,7.688-2.25,8.75h-.312a6.185,6.185,0,0,1-1.812-2,2.9,2.9,0,0,0,.063-.562h.438a2.055,2.055,0,0,0,1.063.688l.438.063q.563.5,1-6.375v-.125q0-.062-.312-.062-.562,0-2.875.063-1.75,1.688-1.625,2.813A42.37,42.37,0,0,1,164.65.313h-.625l-.75-.875H162.9q-.813.125-2.25.438l-.25-.5q-.063-3.375-.125-4.562.063-1.563-.562-1.562v-.375l3.188-3.812h.625a1.98,1.98,0,0,1-.625,1.625,6.868,6.868,0,0,1-1.562,1.5h.188q.563,0,2.875-.312.625,0,1,1.5v.063a7.472,7.472,0,0,0,1.688-4.312Q167.4-11.5,167.587-11.5Zm-6.375,6.375q0,.188.313.188,1.875-.25,2.125-.25a1.121,1.121,0,0,0,.563.188l.063-1.875q0-.187-.312-.312-2.75,0-2.75,1.25Zm5.438-.125q2.313.313,2.313.938v.875q-.187,0-.187.125Q166.087-4.563,166.087-5v-.062Q166.087-5.312,166.65-5.25ZM161.4-1.5h-.062q1.437-.313,1.625-.375a3.019,3.019,0,0,0,.938.438,6.434,6.434,0,0,0,.313-2.875h-.062a8.32,8.32,0,0,0-2.812.75Q161.4-1.812,161.4-1.5Zm22.15-10.437h.438l.438.75-.75,2.875.188.063q1.25-.063,1.625-.062A1.487,1.487,0,0,1,186.863-7a46.587,46.587,0,0,1-2.187,8.125l-.375.188A5.665,5.665,0,0,1,181.925-.75q.188,0,.188-.25a6.385,6.385,0,0,0,1.813.688,28.013,28.013,0,0,0,1.563-6.125V-7l-2.125.063a21.473,21.473,0,0,1-1.375,3.625,11.024,11.024,0,0,1-3,4h-.375V.375l.625-1Q178.612-2,178.425-2a21.378,21.378,0,0,0-4.312,1.063v-.5a24.088,24.088,0,0,1,1.75-4.125v.125h-.5l-1.812.063-.187-.375v-.562h.25L177.8-7l1.5-.187q.25,0,.875.688,0,.437-1,.563-1.75.062-2.125.813a8.431,8.431,0,0,0-1.375,2.5l.625-.125q1.812-.187,1.875-1.25h.5a9.564,9.564,0,0,1,1.313,1.813l.125.375a39.8,39.8,0,0,0,2.125-5,4.031,4.031,0,0,0-1.625-.312l.375-.687q0-.312,1.563-.437Q183.113-10.062,183.55-11.937ZM175.988-9.25h.75q1.188,0,1.188.563v.625L177.3-8a1.745,1.745,0,0,1-1.812-1.187ZM195.7-11.437l-.125.75-.187.125h.188a25.6,25.6,0,0,0,3.063-.687q.75.312.75.563v.375q-1.625.25-3.125.625l.063,1.438v1l.313-.062a9,9,0,0,1,2.813-.375,1.417,1.417,0,0,1,.375.938q-3.375.25-3.375.688v2a2.055,2.055,0,0,0,.5-.062l2.563-.562q.813.313.875.688-.063.438-3.875,1a5.422,5.422,0,0,0-.062.75V.688q0,.938-.625,1a1.593,1.593,0,0,1-.5-.875l.125-1.187a4.147,4.147,0,0,1,0-1.437q-.125-2.688-.125-4.812V-8.937q0-.625-.25-.75a17.263,17.263,0,0,1-2.312,2.75h-.312V-7.25q2.187-3.375,2.188-4.937Zm-3.937.375h.25a.4.4,0,0,1,.375.438v.438L191.262-8.5a15.3,15.3,0,0,1,.25,2.375v2.188q-.25,3-.25,3.375v.438a.442.442,0,0,1-.5.5q-.687-.438-.687-.937a38.478,38.478,0,0,0,.438-4.5V-7a1.741,1.741,0,0,1-.125-.375l-1,.5a1.8,1.8,0,0,1-1.312.563Z" transform="translate(157 305)" fill="#1b6b4b"/>
  </g>
</svg>
