<?xml version="1.0" encoding="utf-8"?>
<!-- Generator: Adobe Illustrator 24.3.0, SVG Export Plug-In . SVG Version: 6.00 Build 0)  -->
<svg version="1.1" id="图层_1" xmlns="http://www.w3.org/2000/svg" xmlns:xlink="http://www.w3.org/1999/xlink" x="0px" y="0px"
	 viewBox="0 0 48 48" style="enable-background:new 0 0 48 48;" xml:space="preserve">
<style type="text/css">
	.st0{fill:#EA4C89;}
	.st1{fill:#C32261;}
</style>
<circle class="st0" cx="24" cy="24" r="24"/>
<path class="st1" d="M24,0C10.8,0,0,10.8,0,24s10.8,24,24,24c13.2,0,24-10.8,24-24S37.2,0,24,0z M39.9,11.1c3,3.6,4.6,8.1,4.6,12.8
	c-0.7-0.1-7.4-1.5-14.3-0.6c-0.2-0.3-0.3-0.7-0.4-1.1c-0.4-1-0.9-2-1.4-3C36,16.1,39.4,11.6,39.9,11.1z M24,3.5c5.2,0,10,2,13.6,5.2
	c-0.4,0.5-3.5,4.7-10.7,7.4c-3.4-6.2-7.1-11.2-7.7-12C20.8,3.7,22.4,3.5,24,3.5L24,3.5z M15.3,5.5c0.5,0.7,4.2,5.8,7.6,11.8
	c-9.6,2.6-18,2.5-18.9,2.5C5.3,13.5,9.6,8.2,15.3,5.5z M3.5,24v-0.6c0.9,0,10.8,0.2,21.1-2.9c0.6,1.1,1.1,2.3,1.7,3.5
	c-0.3,0.1-0.5,0.2-0.8,0.2C14.8,27.6,9.2,36.9,8.7,37.7C5.4,34,3.5,29.1,3.5,24z M24,44.5c-4.7,0-9.1-1.6-12.6-4.3
	c0.4-0.8,4.5-8.8,16.1-12.8c0.1,0,0.1,0,0.1-0.1c2.9,7.5,4.1,13.7,4.4,15.5C29.5,44,26.8,44.5,24,44.5z M35.4,41
	c-0.2-1.2-1.3-7.2-4-14.6c6.4-1,12.1,0.7,12.8,0.9C43.3,33,40,37.9,35.4,41z"/>
</svg>
