<?xml version="1.0" encoding="utf-8"?>
<!-- Generator: Adobe Illustrator 24.3.0, SVG Export Plug-In . SVG Version: 6.00 Build 0)  -->
<svg version="1.1" id="图层_1" xmlns="http://www.w3.org/2000/svg" xmlns:xlink="http://www.w3.org/1999/xlink" x="0px" y="0px"
	 viewBox="0 0 48 48" style="enable-background:new 0 0 48 48;" xml:space="preserve">
<path d="M43.5,4.5c-6-6-15.7-6-21.6,0L7.2,19.2c-0.4,0.4-0.6,1-0.6,1.5v17.6l-5.9,5.9c-0.9,0.9-0.9,2.2,0,3.1c0.4,0.4,1,0.6,1.5,0.6
	s1.1-0.2,1.5-0.6l5.9-5.9h17.6c0.6,0,1.1-0.2,1.5-0.6l8.6-8.7c0,0,0.1-0.1,0.1-0.1l5.9-5.9C49.5,20.1,49.5,10.4,43.5,4.5z
	 M26.4,37.1H14l4.4-4.4h12.4L26.4,37.1z M40.4,23l-5.4,5.4H22.7l11.6-11.5c0.9-0.9,0.9-2.2,0-3.1c-0.9-0.9-2.2-0.9-3.1,0L15.9,29
	c0,0,0,0,0,0l-5,5V21.6L25,7.6c4.3-4.3,11.2-4.3,15.4,0C44.7,11.8,44.7,18.7,40.4,23C40.4,23,40.4,23,40.4,23z"/>
</svg>
